G04*
G04 #@! TF.GenerationSoftware,Altium Limited,Altium Designer,26.1.1 (7)*
G04*
G04 Layer_Color=8421504*
%FSLAX25Y25*%
%MOIN*%
G70*
G04*
G04 #@! TF.SameCoordinates,B04D3049-496B-4B97-AE0F-E2B05FCF1D85*
G04*
G04*
G04 #@! TF.FilePolarity,Positive*
G04*
G01*
G75*
%ADD11C,0.00591*%
%ADD16R,0.05118X0.05118*%
%ADD17R,0.01181X0.05709*%
%ADD18R,0.07087X0.05709*%
%ADD19R,0.07087X0.04724*%
%ADD20O,0.00787X0.02953*%
%ADD21O,0.02953X0.00787*%
%ADD22R,0.06693X0.03150*%
%ADD23R,0.03937X0.04331*%
%ADD24R,0.04331X0.03937*%
%ADD25R,0.02756X0.02756*%
%ADD26R,0.01929X0.01772*%
D11*
X174134Y755905D02*
G03*
X179134Y760906I0J5000D01*
G01*
X184134Y767717D02*
G03*
X179134Y762716I0J-5000D01*
G01*
X352362D02*
G03*
X347362Y767717I-5000J0D01*
G01*
X352362Y760906D02*
G03*
X357362Y755905I5000J0D01*
G01*
X-118110Y755905D02*
G03*
X-145669Y728346I0J-27559D01*
G01*
X677165D02*
G03*
X649606Y755905I-27559J0D01*
G01*
Y-66929D02*
G03*
X677165Y-39370I0J27559D01*
G01*
X-145669D02*
G03*
X-118110Y-66929I27559J0D01*
G01*
X364173Y755905D02*
X649606Y755905D01*
X-118110D02*
X167323D01*
Y755905D02*
X174134D01*
X179134Y760906D02*
Y762716D01*
X184134Y767717D02*
X265748D01*
X347362D01*
X352362Y760906D02*
Y762716D01*
X357362Y755905D02*
X364173D01*
X677165Y-39370D02*
Y728347D01*
X-145669Y728346D02*
X-145669Y-39370D01*
X-118151Y-66929D02*
X649606D01*
D16*
X333661Y749016D02*
D03*
Y754921D02*
D03*
X339567D02*
D03*
Y749016D02*
D03*
D17*
X275787Y743514D02*
D03*
X274606D02*
D03*
X272638Y743514D02*
D03*
X270669D02*
D03*
X268701Y743514D02*
D03*
X266732D02*
D03*
X264764D02*
D03*
X262795D02*
D03*
X260827Y743514D02*
D03*
X258858Y743514D02*
D03*
X256890D02*
D03*
X255709D02*
D03*
X252461D02*
D03*
X253642D02*
D03*
X277854D02*
D03*
X279035D02*
D03*
D18*
X245787Y747116D02*
D03*
X285709D02*
D03*
D19*
X285709Y763573D02*
D03*
X245787D02*
D03*
D20*
X341339Y744193D02*
D03*
X339764D02*
D03*
X335039D02*
D03*
X338189D02*
D03*
X331890D02*
D03*
X333465D02*
D03*
X336614D02*
D03*
X341339Y759744D02*
D03*
X339764D02*
D03*
X338189D02*
D03*
X336614D02*
D03*
X335039D02*
D03*
X333465D02*
D03*
X331890D02*
D03*
D21*
X344390Y747244D02*
D03*
Y748819D02*
D03*
Y750394D02*
D03*
Y751968D02*
D03*
Y753543D02*
D03*
Y755118D02*
D03*
Y756693D02*
D03*
X328839D02*
D03*
Y755118D02*
D03*
Y753543D02*
D03*
Y751968D02*
D03*
Y750394D02*
D03*
Y748819D02*
D03*
Y747244D02*
D03*
D22*
X298031Y753937D02*
D03*
Y740551D02*
D03*
D23*
X318111Y741929D02*
D03*
Y748622D02*
D03*
X312599Y741929D02*
D03*
Y748622D02*
D03*
X307087D02*
D03*
X307087Y741929D02*
D03*
X237008Y749015D02*
D03*
X237008Y742322D02*
D03*
X231102Y742323D02*
D03*
X231102Y749016D02*
D03*
D24*
X410039Y-8268D02*
D03*
X416732D02*
D03*
X508464D02*
D03*
X515157D02*
D03*
X16338D02*
D03*
X23031D02*
D03*
X-82087D02*
D03*
X-75394D02*
D03*
X114763D02*
D03*
X121456D02*
D03*
X311614D02*
D03*
X318307D02*
D03*
X213189D02*
D03*
X219882D02*
D03*
X606889D02*
D03*
X613582D02*
D03*
X606889Y90157D02*
D03*
X613582D02*
D03*
X508464D02*
D03*
X515157D02*
D03*
X410039D02*
D03*
X416732D02*
D03*
X311614D02*
D03*
X318307D02*
D03*
X213189D02*
D03*
X219882D02*
D03*
X114763D02*
D03*
X121456D02*
D03*
X16338D02*
D03*
X23031D02*
D03*
X-82087D02*
D03*
X-75394D02*
D03*
X606889Y188582D02*
D03*
X613582D02*
D03*
X508464D02*
D03*
X515157D02*
D03*
X410039D02*
D03*
X416732D02*
D03*
X311614D02*
D03*
X318307D02*
D03*
X213189D02*
D03*
X219882D02*
D03*
X114763D02*
D03*
X121456D02*
D03*
X16338D02*
D03*
X23031D02*
D03*
X-82087D02*
D03*
X-75394D02*
D03*
X606889Y287007D02*
D03*
X613582D02*
D03*
X508464D02*
D03*
X515157D02*
D03*
X410039D02*
D03*
X416732D02*
D03*
X311614D02*
D03*
X318307D02*
D03*
X213189D02*
D03*
X219882D02*
D03*
X114763D02*
D03*
X121456D02*
D03*
X16338D02*
D03*
X23031D02*
D03*
X-82087D02*
D03*
X-75394D02*
D03*
X606889Y385433D02*
D03*
X613582D02*
D03*
X508464D02*
D03*
X515157D02*
D03*
X410039D02*
D03*
X416732D02*
D03*
X311614D02*
D03*
X318307D02*
D03*
X213189D02*
D03*
X219882D02*
D03*
X114763D02*
D03*
X121456D02*
D03*
X16338D02*
D03*
X23031D02*
D03*
X-82087D02*
D03*
X-75394D02*
D03*
X606889Y483858D02*
D03*
X613582D02*
D03*
X508464D02*
D03*
X515157D02*
D03*
X410039D02*
D03*
X416732D02*
D03*
X311614D02*
D03*
X318307D02*
D03*
X213189D02*
D03*
X219882D02*
D03*
X114763D02*
D03*
X121456D02*
D03*
X16338D02*
D03*
X23031D02*
D03*
X-82087D02*
D03*
X-75394D02*
D03*
X606889Y582283D02*
D03*
X613582D02*
D03*
X508464D02*
D03*
X515157D02*
D03*
X410039D02*
D03*
X416732D02*
D03*
X311614D02*
D03*
X318307D02*
D03*
X213189D02*
D03*
X219882D02*
D03*
X114763D02*
D03*
X121456D02*
D03*
X16338D02*
D03*
X23031D02*
D03*
X-82087D02*
D03*
X-75394D02*
D03*
X606889Y680708D02*
D03*
X613582D02*
D03*
X508464D02*
D03*
X515157D02*
D03*
X410039D02*
D03*
X416732D02*
D03*
X311614D02*
D03*
X318307D02*
D03*
X213189D02*
D03*
X219882D02*
D03*
X114763D02*
D03*
X121456D02*
D03*
X23031D02*
D03*
X16338D02*
D03*
X-75394D02*
D03*
X-82087D02*
D03*
D25*
X613839Y2165D02*
D03*
X606634D02*
D03*
Y-2165D02*
D03*
X613839D02*
D03*
Y100591D02*
D03*
X606634D02*
D03*
Y96260D02*
D03*
X613839D02*
D03*
Y199016D02*
D03*
X606634D02*
D03*
Y194685D02*
D03*
X613839D02*
D03*
Y297441D02*
D03*
X606634D02*
D03*
Y293110D02*
D03*
X613839D02*
D03*
Y395866D02*
D03*
X606634D02*
D03*
Y391535D02*
D03*
X613839D02*
D03*
Y494291D02*
D03*
X606634D02*
D03*
Y489961D02*
D03*
X613839D02*
D03*
Y592717D02*
D03*
X606634D02*
D03*
Y588386D02*
D03*
X613839D02*
D03*
Y691142D02*
D03*
X606634D02*
D03*
Y686811D02*
D03*
X613839D02*
D03*
X515413Y2165D02*
D03*
X508209D02*
D03*
Y-2165D02*
D03*
X515413D02*
D03*
Y100591D02*
D03*
X508209D02*
D03*
Y96260D02*
D03*
X515413D02*
D03*
Y199016D02*
D03*
X508209D02*
D03*
Y194685D02*
D03*
X515413D02*
D03*
Y297441D02*
D03*
X508209D02*
D03*
Y293110D02*
D03*
X515413D02*
D03*
Y395866D02*
D03*
X508209D02*
D03*
Y391535D02*
D03*
X515413D02*
D03*
Y494291D02*
D03*
X508209D02*
D03*
Y489961D02*
D03*
X515413D02*
D03*
Y592717D02*
D03*
X508209D02*
D03*
Y588386D02*
D03*
X515413D02*
D03*
Y691142D02*
D03*
X508209D02*
D03*
Y686811D02*
D03*
X515413D02*
D03*
X416988Y2165D02*
D03*
X409784D02*
D03*
Y-2165D02*
D03*
X416988D02*
D03*
Y100591D02*
D03*
X409784D02*
D03*
Y96260D02*
D03*
X416988D02*
D03*
Y199016D02*
D03*
X409784D02*
D03*
Y194685D02*
D03*
X416988D02*
D03*
Y297441D02*
D03*
X409784D02*
D03*
Y293110D02*
D03*
X416988D02*
D03*
Y395866D02*
D03*
X409784D02*
D03*
Y391535D02*
D03*
X416988D02*
D03*
Y494291D02*
D03*
X409784D02*
D03*
Y489961D02*
D03*
X416988D02*
D03*
Y592717D02*
D03*
X409784D02*
D03*
Y588386D02*
D03*
X416988D02*
D03*
Y691142D02*
D03*
X409784D02*
D03*
Y686811D02*
D03*
X416988D02*
D03*
X318563Y2165D02*
D03*
X311358D02*
D03*
Y-2165D02*
D03*
X318563D02*
D03*
Y100591D02*
D03*
X311358D02*
D03*
Y96260D02*
D03*
X318563D02*
D03*
Y199016D02*
D03*
X311358D02*
D03*
Y194685D02*
D03*
X318563D02*
D03*
Y297441D02*
D03*
X311358D02*
D03*
Y293110D02*
D03*
X318563D02*
D03*
Y395866D02*
D03*
X311358D02*
D03*
Y391535D02*
D03*
X318563D02*
D03*
Y494291D02*
D03*
X311358D02*
D03*
Y489961D02*
D03*
X318563D02*
D03*
Y592717D02*
D03*
X311358D02*
D03*
Y588386D02*
D03*
X318563D02*
D03*
Y691142D02*
D03*
X311358D02*
D03*
Y686811D02*
D03*
X318563D02*
D03*
X220138Y2165D02*
D03*
X212933D02*
D03*
Y-2165D02*
D03*
X220138D02*
D03*
Y100591D02*
D03*
X212933D02*
D03*
Y96260D02*
D03*
X220138D02*
D03*
Y199016D02*
D03*
X212933D02*
D03*
Y194685D02*
D03*
X220138D02*
D03*
Y297441D02*
D03*
X212933D02*
D03*
Y293110D02*
D03*
X220138D02*
D03*
Y395866D02*
D03*
X212933D02*
D03*
Y391535D02*
D03*
X220138D02*
D03*
Y494291D02*
D03*
X212933D02*
D03*
Y489961D02*
D03*
X220138D02*
D03*
Y592717D02*
D03*
X212933D02*
D03*
Y588386D02*
D03*
X220138D02*
D03*
Y691142D02*
D03*
X212933D02*
D03*
Y686811D02*
D03*
X220138D02*
D03*
X121713Y2165D02*
D03*
X114508D02*
D03*
Y-2165D02*
D03*
X121713D02*
D03*
Y100591D02*
D03*
X114508D02*
D03*
Y96260D02*
D03*
X121713D02*
D03*
Y199016D02*
D03*
X114508D02*
D03*
Y194685D02*
D03*
X121713D02*
D03*
Y297441D02*
D03*
X114508D02*
D03*
Y293110D02*
D03*
X121713D02*
D03*
Y395866D02*
D03*
X114508D02*
D03*
Y391535D02*
D03*
X121713D02*
D03*
Y494291D02*
D03*
X114508D02*
D03*
Y489961D02*
D03*
X121713D02*
D03*
Y592717D02*
D03*
X114508D02*
D03*
Y588386D02*
D03*
X121713D02*
D03*
Y691142D02*
D03*
X114508D02*
D03*
Y686811D02*
D03*
X121713D02*
D03*
X23287Y2165D02*
D03*
X16083D02*
D03*
Y-2165D02*
D03*
X23287D02*
D03*
Y100591D02*
D03*
X16083D02*
D03*
Y96260D02*
D03*
X23287D02*
D03*
Y199016D02*
D03*
X16083D02*
D03*
Y194685D02*
D03*
X23287D02*
D03*
Y297441D02*
D03*
X16083D02*
D03*
Y293110D02*
D03*
X23287D02*
D03*
Y395866D02*
D03*
X16083D02*
D03*
Y391535D02*
D03*
X23287D02*
D03*
Y494291D02*
D03*
X16083D02*
D03*
Y489961D02*
D03*
X23287D02*
D03*
Y592717D02*
D03*
X16083D02*
D03*
Y588386D02*
D03*
X23287D02*
D03*
Y691142D02*
D03*
X16083D02*
D03*
Y686811D02*
D03*
X23287D02*
D03*
X-75138Y2165D02*
D03*
X-82342D02*
D03*
Y-2165D02*
D03*
X-75138D02*
D03*
Y100591D02*
D03*
X-82342D02*
D03*
Y96260D02*
D03*
X-75138D02*
D03*
Y199016D02*
D03*
X-82342D02*
D03*
Y194685D02*
D03*
X-75138D02*
D03*
Y297441D02*
D03*
X-82342D02*
D03*
Y293110D02*
D03*
X-75138D02*
D03*
Y395866D02*
D03*
X-82342D02*
D03*
Y391535D02*
D03*
X-75138D02*
D03*
Y494291D02*
D03*
X-82342D02*
D03*
Y489961D02*
D03*
X-75138D02*
D03*
Y592717D02*
D03*
X-82342D02*
D03*
Y588386D02*
D03*
X-75138D02*
D03*
Y691142D02*
D03*
X-82342D02*
D03*
Y686811D02*
D03*
X-75138D02*
D03*
D26*
X310472Y9055D02*
D03*
X319449D02*
D03*
X408898D02*
D03*
X417874D02*
D03*
X507323D02*
D03*
X516299D02*
D03*
X605748D02*
D03*
X614724D02*
D03*
X310472Y107480D02*
D03*
X319449D02*
D03*
X408898D02*
D03*
X417874D02*
D03*
X507323D02*
D03*
X516299D02*
D03*
X605748D02*
D03*
X614724D02*
D03*
X310472Y205906D02*
D03*
X319449D02*
D03*
X408898D02*
D03*
X417874D02*
D03*
X507323D02*
D03*
X516299D02*
D03*
X605748D02*
D03*
X614724D02*
D03*
X310472Y304331D02*
D03*
X319449D02*
D03*
X408898D02*
D03*
X417874D02*
D03*
X507323D02*
D03*
X516299D02*
D03*
X605748D02*
D03*
X614724D02*
D03*
X310472Y402756D02*
D03*
X319449D02*
D03*
X408898D02*
D03*
X417874D02*
D03*
X507323D02*
D03*
X516299D02*
D03*
X605748D02*
D03*
X614724D02*
D03*
X310472Y501181D02*
D03*
X319449D02*
D03*
X408898D02*
D03*
X417874D02*
D03*
X507323D02*
D03*
X516299D02*
D03*
X605748D02*
D03*
X614724D02*
D03*
X310472Y599606D02*
D03*
X319449D02*
D03*
X408898D02*
D03*
X417874D02*
D03*
X507323D02*
D03*
X516299D02*
D03*
X605748D02*
D03*
X614724D02*
D03*
X310472Y698032D02*
D03*
X319449D02*
D03*
X408898D02*
D03*
X417874D02*
D03*
X507323D02*
D03*
X516299D02*
D03*
X605748D02*
D03*
X614724D02*
D03*
X-83228Y9055D02*
D03*
X-74252D02*
D03*
X15197D02*
D03*
X24173D02*
D03*
X113622D02*
D03*
X122598D02*
D03*
X212047D02*
D03*
X221024D02*
D03*
X-83228Y107480D02*
D03*
X-74252D02*
D03*
X15197D02*
D03*
X24173D02*
D03*
X113622D02*
D03*
X122598D02*
D03*
X212047D02*
D03*
X221024D02*
D03*
X-83228Y205906D02*
D03*
X-74252D02*
D03*
X15197D02*
D03*
X24173D02*
D03*
X113622D02*
D03*
X122598D02*
D03*
X212047D02*
D03*
X221024D02*
D03*
X-83228Y304331D02*
D03*
X-74252D02*
D03*
X15197D02*
D03*
X24173D02*
D03*
X113622D02*
D03*
X122598D02*
D03*
X212047D02*
D03*
X221024D02*
D03*
X-83228Y402756D02*
D03*
X-74252D02*
D03*
X15197D02*
D03*
X24173D02*
D03*
X113622D02*
D03*
X122598D02*
D03*
X212047D02*
D03*
X221024D02*
D03*
X-83228Y501181D02*
D03*
X-74252D02*
D03*
X15197D02*
D03*
X24173D02*
D03*
X113622D02*
D03*
X122598D02*
D03*
X212047D02*
D03*
X221024D02*
D03*
X-83228Y599606D02*
D03*
X-74252D02*
D03*
X15197D02*
D03*
X24173D02*
D03*
X113622D02*
D03*
X122598D02*
D03*
X212047D02*
D03*
X221024D02*
D03*
X-83228Y698032D02*
D03*
X-74252D02*
D03*
X15197D02*
D03*
X24173D02*
D03*
X113622D02*
D03*
X122598D02*
D03*
X212047D02*
D03*
X221024D02*
D03*
M02*
