G04*
G04 #@! TF.GenerationSoftware,Altium Limited,Altium Designer,26.3.0 (6)*
G04*
G04 Layer_Color=32896*
%FSLAX25Y25*%
%MOIN*%
G70*
G04*
G04 #@! TF.SameCoordinates,A806FC3E-2AF5-410F-BC78-0BCB0F8315C3*
G04*
G04*
G04 #@! TF.FilePolarity,Positive*
G04*
G01*
G75*
%ADD11C,0.00591*%
G36*
X584408Y321872D02*
X580685D01*
Y325185D01*
X584408D01*
Y321872D01*
D02*
G37*
G36*
X509362Y321872D02*
X505639D01*
Y325185D01*
X509362D01*
Y321872D01*
D02*
G37*
G36*
X359269Y321872D02*
X355546D01*
Y325185D01*
X359269D01*
Y321872D01*
D02*
G37*
G36*
X246699Y321872D02*
X242977D01*
Y325185D01*
X246699D01*
Y321872D01*
D02*
G37*
G36*
X563646Y319642D02*
X564187Y319593D01*
X564695Y319511D01*
X565171Y319412D01*
X565614Y319298D01*
X566040Y319166D01*
X566417Y319035D01*
X566762Y318888D01*
X567057Y318740D01*
X567336Y318609D01*
X567565Y318478D01*
X567762Y318363D01*
X567910Y318264D01*
X568025Y318182D01*
X568090Y318133D01*
X568107Y318117D01*
X568353Y317904D01*
X568566Y317674D01*
X568763Y317444D01*
X568927Y317215D01*
X569058Y316969D01*
X569173Y316739D01*
X569271Y316526D01*
X569337Y316313D01*
X569402Y316100D01*
X569435Y315919D01*
X569468Y315755D01*
X569501Y315608D01*
Y315493D01*
X569517Y315411D01*
Y315345D01*
Y315329D01*
X569501Y315034D01*
X569468Y314738D01*
X569402Y314476D01*
X569320Y314214D01*
X569222Y313968D01*
X569123Y313754D01*
X569009Y313541D01*
X568877Y313345D01*
X568763Y313180D01*
X568648Y313033D01*
X568549Y312902D01*
X568451Y312787D01*
X568369Y312705D01*
X568303Y312639D01*
X568271Y312606D01*
X568254Y312590D01*
X567992Y312393D01*
X567680Y312196D01*
X567319Y312033D01*
X566942Y311868D01*
X566532Y311737D01*
X566106Y311606D01*
X565269Y311409D01*
X564859Y311327D01*
X564482Y311245D01*
X564138Y311196D01*
X563826Y311147D01*
X563580Y311114D01*
X563465Y311098D01*
X563383Y311081D01*
X563318D01*
X563269Y311065D01*
X563219D01*
X562760Y311016D01*
X562350Y310950D01*
X561973Y310901D01*
X561629Y310835D01*
X561333Y310786D01*
X561055Y310737D01*
X560809Y310671D01*
X560612Y310622D01*
X560431Y310573D01*
X560284Y310540D01*
X560153Y310491D01*
X560054Y310458D01*
X559989Y310425D01*
X559923Y310409D01*
X559907Y310392D01*
X559890D01*
X559743Y310310D01*
X559611Y310228D01*
X559513Y310146D01*
X559415Y310064D01*
X559267Y309884D01*
X559169Y309736D01*
X559119Y309589D01*
X559087Y309474D01*
X559070Y309408D01*
Y309376D01*
X559087Y309244D01*
X559152Y309113D01*
X559251Y308998D01*
X559349Y308884D01*
X559464Y308802D01*
X559546Y308736D01*
X559611Y308687D01*
X559644Y308670D01*
X559874Y308556D01*
X560120Y308457D01*
X560661Y308293D01*
X561219Y308178D01*
X561743Y308097D01*
X562006Y308064D01*
X562235Y308047D01*
X562432Y308031D01*
X562613D01*
X562760Y308014D01*
X562973D01*
X563449Y308031D01*
X563892Y308064D01*
X564285Y308113D01*
X564630Y308162D01*
X564777Y308195D01*
X564909Y308211D01*
X565023Y308244D01*
X565122Y308260D01*
X565204Y308277D01*
X565253Y308293D01*
X565286Y308310D01*
X565302D01*
X565663Y308441D01*
X565991Y308589D01*
X566286Y308736D01*
X566532Y308884D01*
X566745Y309015D01*
X566893Y309130D01*
X566991Y309195D01*
X567008Y309228D01*
X567024D01*
X567106Y309490D01*
X567205Y309720D01*
X567303Y309900D01*
X567401Y310048D01*
X567483Y310163D01*
X567549Y310228D01*
X567598Y310278D01*
X567615Y310294D01*
X567762Y310392D01*
X567926Y310474D01*
X568074Y310524D01*
X568238Y310573D01*
X568369Y310589D01*
X568467Y310606D01*
X568566D01*
X568812Y310589D01*
X569025Y310524D01*
X569222Y310458D01*
X569386Y310360D01*
X569517Y310278D01*
X569615Y310196D01*
X569681Y310130D01*
X569697Y310114D01*
X569845Y309900D01*
X569943Y309654D01*
X570025Y309392D01*
X570075Y309130D01*
X570107Y308884D01*
X570124Y308687D01*
Y308621D01*
Y308556D01*
Y308523D01*
Y308506D01*
Y307457D01*
X570107Y307063D01*
X570058Y306735D01*
X569993Y306456D01*
X569911Y306227D01*
X569829Y306063D01*
X569763Y305948D01*
X569714Y305866D01*
X569697Y305850D01*
X569517Y305686D01*
X569320Y305571D01*
X569140Y305489D01*
X568943Y305440D01*
X568779Y305407D01*
X568648Y305374D01*
X568533D01*
X568336Y305391D01*
X568156Y305423D01*
X568090Y305440D01*
X568041Y305456D01*
X568008Y305472D01*
X567992D01*
X567811Y305571D01*
X567647Y305669D01*
X567549Y305751D01*
X567533Y305768D01*
X567516Y305784D01*
X567139Y305637D01*
X566778Y305489D01*
X566417Y305374D01*
X566089Y305276D01*
X565811Y305210D01*
X565696Y305177D01*
X565597Y305161D01*
X565515Y305145D01*
X565450Y305128D01*
X565417Y305112D01*
X565401D01*
X564958Y305030D01*
X564515Y304980D01*
X564089Y304931D01*
X563711Y304915D01*
X563531Y304899D01*
X563383D01*
X563236Y304882D01*
X562891D01*
X562268Y304899D01*
X561678Y304948D01*
X561120Y305030D01*
X560595Y305145D01*
X560103Y305259D01*
X559661Y305391D01*
X559234Y305538D01*
X558857Y305702D01*
X558529Y305850D01*
X558234Y305997D01*
X557971Y306129D01*
X557758Y306260D01*
X557594Y306358D01*
X557479Y306440D01*
X557397Y306489D01*
X557381Y306506D01*
X557119Y306719D01*
X556889Y306948D01*
X556692Y307178D01*
X556512Y307424D01*
X556381Y307654D01*
X556249Y307883D01*
X556151Y308113D01*
X556069Y308326D01*
X556020Y308539D01*
X555971Y308720D01*
X555938Y308884D01*
X555905Y309031D01*
Y309146D01*
X555889Y309244D01*
Y309294D01*
Y309310D01*
X555905Y309540D01*
X555921Y309769D01*
X556020Y310212D01*
X556167Y310606D01*
X556331Y310966D01*
X556413Y311114D01*
X556495Y311262D01*
X556561Y311377D01*
X556643Y311475D01*
X556692Y311557D01*
X556741Y311622D01*
X556758Y311655D01*
X556774Y311672D01*
X556938Y311868D01*
X557135Y312065D01*
X557529Y312410D01*
X557939Y312688D01*
X558332Y312934D01*
X558529Y313033D01*
X558693Y313115D01*
X558857Y313180D01*
X558988Y313246D01*
X559103Y313279D01*
X559185Y313312D01*
X559234Y313345D01*
X559251D01*
X559497Y313426D01*
X559792Y313508D01*
X560103Y313574D01*
X560431Y313656D01*
X561153Y313804D01*
X561875Y313935D01*
X562203Y313984D01*
X562531Y314033D01*
X562826Y314083D01*
X563072Y314132D01*
X563285Y314148D01*
X563449Y314181D01*
X563498D01*
X563547Y314197D01*
X563580D01*
X563875Y314247D01*
X564154Y314279D01*
X564400Y314329D01*
X564630Y314361D01*
X564827Y314410D01*
X565007Y314443D01*
X565155Y314493D01*
X565302Y314525D01*
X565417Y314558D01*
X565499Y314591D01*
X565581Y314607D01*
X565647Y314624D01*
X565729Y314656D01*
X565745Y314673D01*
X565958Y314804D01*
X566122Y314919D01*
X566221Y315034D01*
X566303Y315148D01*
X566352Y315230D01*
X566368Y315296D01*
X566385Y315345D01*
Y315362D01*
X566368Y315476D01*
X566319Y315575D01*
X566237Y315673D01*
X566155Y315755D01*
X566073Y315821D01*
X565991Y315870D01*
X565942Y315903D01*
X565925Y315919D01*
X565712Y316034D01*
X565499Y316116D01*
X565023Y316264D01*
X564548Y316378D01*
X564089Y316444D01*
X563875Y316477D01*
X563679Y316493D01*
X563498Y316510D01*
X563334D01*
X563219Y316526D01*
X563039D01*
X562695Y316510D01*
X562383Y316493D01*
X562088Y316444D01*
X561809Y316411D01*
X561596Y316362D01*
X561432Y316313D01*
X561366Y316297D01*
X561317D01*
X561301Y316280D01*
X561284D01*
X560973Y316182D01*
X560677Y316067D01*
X560415Y315952D01*
X560169Y315821D01*
X559972Y315722D01*
X559825Y315640D01*
X559726Y315575D01*
X559693Y315558D01*
X559628Y315362D01*
X559546Y315165D01*
X559464Y315017D01*
X559365Y314870D01*
X559283Y314771D01*
X559201Y314689D01*
X559152Y314640D01*
X559136Y314624D01*
X558972Y314509D01*
X558808Y314427D01*
X558644Y314361D01*
X558480Y314329D01*
X558349Y314296D01*
X558250Y314279D01*
X558152D01*
X557857Y314312D01*
X557578Y314394D01*
X557348Y314493D01*
X557151Y314624D01*
X557004Y314755D01*
X556889Y314853D01*
X556823Y314935D01*
X556807Y314968D01*
X556725Y315132D01*
X556659Y315345D01*
X556627Y315575D01*
X556594Y315804D01*
X556577Y316018D01*
X556561Y316198D01*
Y316264D01*
Y316313D01*
Y316346D01*
Y316362D01*
Y317133D01*
X556577Y317527D01*
X556627Y317854D01*
X556709Y318133D01*
X556774Y318363D01*
X556856Y318527D01*
X556938Y318642D01*
X556987Y318724D01*
X557004Y318740D01*
X557168Y318904D01*
X557348Y319019D01*
X557529Y319117D01*
X557693Y319166D01*
X557840Y319199D01*
X557955Y319232D01*
X558070D01*
X558234Y319216D01*
X558381Y319183D01*
X558447Y319150D01*
X558480Y319134D01*
X558513Y319117D01*
X558529D01*
X558709Y319035D01*
X558890Y318920D01*
X558955Y318871D01*
X559021Y318839D01*
X559054Y318822D01*
X559070Y318806D01*
X559415Y318953D01*
X559759Y319085D01*
X560087Y319199D01*
X560366Y319281D01*
X560628Y319363D01*
X560727Y319380D01*
X560825Y319412D01*
X560891Y319429D01*
X560940D01*
X560973Y319445D01*
X560989D01*
X561366Y319511D01*
X561743Y319577D01*
X562088Y319609D01*
X562399Y319626D01*
X562678Y319642D01*
X562793Y319658D01*
X563072D01*
X563646Y319642D01*
D02*
G37*
G36*
X526123Y319642D02*
X526664Y319593D01*
X527172Y319511D01*
X527648Y319412D01*
X528091Y319298D01*
X528517Y319166D01*
X528894Y319035D01*
X529239Y318888D01*
X529534Y318740D01*
X529813Y318609D01*
X530042Y318478D01*
X530239Y318363D01*
X530387Y318264D01*
X530501Y318182D01*
X530567Y318133D01*
X530583Y318117D01*
X530829Y317904D01*
X531043Y317674D01*
X531239Y317444D01*
X531403Y317215D01*
X531535Y316969D01*
X531649Y316739D01*
X531748Y316526D01*
X531813Y316313D01*
X531879Y316100D01*
X531912Y315919D01*
X531945Y315755D01*
X531977Y315608D01*
Y315493D01*
X531994Y315411D01*
Y315345D01*
Y315329D01*
X531977Y315034D01*
X531945Y314738D01*
X531879Y314476D01*
X531797Y314214D01*
X531699Y313968D01*
X531600Y313754D01*
X531485Y313541D01*
X531354Y313344D01*
X531239Y313180D01*
X531125Y313033D01*
X531026Y312902D01*
X530928Y312787D01*
X530846Y312705D01*
X530780Y312639D01*
X530747Y312606D01*
X530731Y312590D01*
X530469Y312393D01*
X530157Y312196D01*
X529796Y312032D01*
X529419Y311868D01*
X529009Y311737D01*
X528583Y311606D01*
X527746Y311409D01*
X527336Y311327D01*
X526959Y311245D01*
X526615Y311196D01*
X526303Y311147D01*
X526057Y311114D01*
X525942Y311098D01*
X525860Y311081D01*
X525795D01*
X525745Y311065D01*
X525696D01*
X525237Y311016D01*
X524827Y310950D01*
X524450Y310901D01*
X524105Y310835D01*
X523810Y310786D01*
X523531Y310737D01*
X523285Y310671D01*
X523089Y310622D01*
X522908Y310573D01*
X522761Y310540D01*
X522629Y310491D01*
X522531Y310458D01*
X522465Y310425D01*
X522400Y310409D01*
X522383Y310392D01*
X522367D01*
X522219Y310310D01*
X522088Y310228D01*
X521990Y310146D01*
X521891Y310064D01*
X521744Y309884D01*
X521645Y309736D01*
X521596Y309589D01*
X521563Y309474D01*
X521547Y309408D01*
Y309376D01*
X521563Y309244D01*
X521629Y309113D01*
X521727Y308998D01*
X521826Y308884D01*
X521941Y308802D01*
X522023Y308736D01*
X522088Y308687D01*
X522121Y308670D01*
X522351Y308556D01*
X522597Y308457D01*
X523138Y308293D01*
X523695Y308178D01*
X524220Y308096D01*
X524483Y308064D01*
X524712Y308047D01*
X524909Y308031D01*
X525089D01*
X525237Y308014D01*
X525450D01*
X525926Y308031D01*
X526369Y308064D01*
X526762Y308113D01*
X527107Y308162D01*
X527254Y308195D01*
X527385Y308211D01*
X527500Y308244D01*
X527599Y308260D01*
X527681Y308277D01*
X527730Y308293D01*
X527763Y308310D01*
X527779D01*
X528140Y308441D01*
X528468Y308588D01*
X528763Y308736D01*
X529009Y308884D01*
X529222Y309015D01*
X529370Y309130D01*
X529468Y309195D01*
X529485Y309228D01*
X529501D01*
X529583Y309490D01*
X529681Y309720D01*
X529780Y309900D01*
X529878Y310048D01*
X529960Y310163D01*
X530026Y310228D01*
X530075Y310278D01*
X530091Y310294D01*
X530239Y310392D01*
X530403Y310474D01*
X530551Y310524D01*
X530715Y310573D01*
X530846Y310589D01*
X530944Y310606D01*
X531043D01*
X531289Y310589D01*
X531502Y310524D01*
X531699Y310458D01*
X531863Y310360D01*
X531994Y310278D01*
X532092Y310196D01*
X532158Y310130D01*
X532174Y310114D01*
X532322Y309900D01*
X532420Y309654D01*
X532502Y309392D01*
X532551Y309130D01*
X532584Y308884D01*
X532601Y308687D01*
Y308621D01*
Y308556D01*
Y308523D01*
Y308506D01*
Y307457D01*
X532584Y307063D01*
X532535Y306735D01*
X532469Y306456D01*
X532387Y306227D01*
X532305Y306063D01*
X532240Y305948D01*
X532191Y305866D01*
X532174Y305850D01*
X531994Y305686D01*
X531797Y305571D01*
X531617Y305489D01*
X531420Y305440D01*
X531256Y305407D01*
X531125Y305374D01*
X531010D01*
X530813Y305390D01*
X530633Y305423D01*
X530567Y305440D01*
X530518Y305456D01*
X530485Y305472D01*
X530469D01*
X530288Y305571D01*
X530124Y305669D01*
X530026Y305751D01*
X530009Y305768D01*
X529993Y305784D01*
X529616Y305636D01*
X529255Y305489D01*
X528894Y305374D01*
X528566Y305276D01*
X528287Y305210D01*
X528173Y305177D01*
X528074Y305161D01*
X527992Y305144D01*
X527927Y305128D01*
X527894Y305112D01*
X527877D01*
X527435Y305030D01*
X526992Y304980D01*
X526565Y304931D01*
X526188Y304915D01*
X526008Y304898D01*
X525860D01*
X525713Y304882D01*
X525368D01*
X524745Y304898D01*
X524155Y304948D01*
X523597Y305030D01*
X523072Y305144D01*
X522580Y305259D01*
X522137Y305390D01*
X521711Y305538D01*
X521334Y305702D01*
X521006Y305850D01*
X520711Y305997D01*
X520448Y306128D01*
X520235Y306260D01*
X520071Y306358D01*
X519956Y306440D01*
X519874Y306489D01*
X519858Y306506D01*
X519595Y306719D01*
X519366Y306948D01*
X519169Y307178D01*
X518989Y307424D01*
X518857Y307654D01*
X518726Y307883D01*
X518628Y308113D01*
X518546Y308326D01*
X518497Y308539D01*
X518447Y308720D01*
X518415Y308884D01*
X518382Y309031D01*
Y309146D01*
X518365Y309244D01*
Y309294D01*
Y309310D01*
X518382Y309540D01*
X518398Y309769D01*
X518497Y310212D01*
X518644Y310606D01*
X518808Y310966D01*
X518890Y311114D01*
X518972Y311262D01*
X519038Y311376D01*
X519120Y311475D01*
X519169Y311557D01*
X519218Y311622D01*
X519235Y311655D01*
X519251Y311672D01*
X519415Y311868D01*
X519612Y312065D01*
X520005Y312410D01*
X520415Y312688D01*
X520809Y312934D01*
X521006Y313033D01*
X521170Y313115D01*
X521334Y313180D01*
X521465Y313246D01*
X521580Y313279D01*
X521662Y313312D01*
X521711Y313344D01*
X521727D01*
X521973Y313426D01*
X522269Y313508D01*
X522580Y313574D01*
X522908Y313656D01*
X523630Y313804D01*
X524351Y313935D01*
X524679Y313984D01*
X525007Y314033D01*
X525303Y314082D01*
X525549Y314132D01*
X525762Y314148D01*
X525926Y314181D01*
X525975D01*
X526024Y314197D01*
X526057D01*
X526352Y314246D01*
X526631Y314279D01*
X526877Y314328D01*
X527107Y314361D01*
X527303Y314410D01*
X527484Y314443D01*
X527631Y314492D01*
X527779Y314525D01*
X527894Y314558D01*
X527976Y314591D01*
X528058Y314607D01*
X528123Y314624D01*
X528205Y314656D01*
X528222Y314673D01*
X528435Y314804D01*
X528599Y314919D01*
X528697Y315034D01*
X528779Y315148D01*
X528829Y315230D01*
X528845Y315296D01*
X528861Y315345D01*
Y315362D01*
X528845Y315476D01*
X528796Y315575D01*
X528714Y315673D01*
X528632Y315755D01*
X528550Y315821D01*
X528468Y315870D01*
X528419Y315903D01*
X528402Y315919D01*
X528189Y316034D01*
X527976Y316116D01*
X527500Y316264D01*
X527025Y316378D01*
X526565Y316444D01*
X526352Y316477D01*
X526155Y316493D01*
X525975Y316510D01*
X525811D01*
X525696Y316526D01*
X525516D01*
X525171Y316510D01*
X524860Y316493D01*
X524565Y316444D01*
X524286Y316411D01*
X524073Y316362D01*
X523909Y316313D01*
X523843Y316296D01*
X523794D01*
X523777Y316280D01*
X523761D01*
X523449Y316182D01*
X523154Y316067D01*
X522892Y315952D01*
X522646Y315821D01*
X522449Y315722D01*
X522301Y315640D01*
X522203Y315575D01*
X522170Y315558D01*
X522105Y315362D01*
X522023Y315165D01*
X521941Y315017D01*
X521842Y314870D01*
X521760Y314771D01*
X521678Y314689D01*
X521629Y314640D01*
X521613Y314624D01*
X521449Y314509D01*
X521285Y314427D01*
X521121Y314361D01*
X520957Y314328D01*
X520825Y314296D01*
X520727Y314279D01*
X520629D01*
X520333Y314312D01*
X520055Y314394D01*
X519825Y314492D01*
X519628Y314624D01*
X519481Y314755D01*
X519366Y314853D01*
X519300Y314935D01*
X519284Y314968D01*
X519202Y315132D01*
X519136Y315345D01*
X519103Y315575D01*
X519071Y315804D01*
X519054Y316018D01*
X519038Y316198D01*
Y316264D01*
Y316313D01*
Y316346D01*
Y316362D01*
Y317133D01*
X519054Y317526D01*
X519103Y317854D01*
X519185Y318133D01*
X519251Y318363D01*
X519333Y318527D01*
X519415Y318642D01*
X519464Y318724D01*
X519481Y318740D01*
X519645Y318904D01*
X519825Y319019D01*
X520005Y319117D01*
X520169Y319166D01*
X520317Y319199D01*
X520432Y319232D01*
X520547D01*
X520711Y319216D01*
X520858Y319183D01*
X520924Y319150D01*
X520957Y319134D01*
X520989Y319117D01*
X521006D01*
X521186Y319035D01*
X521367Y318920D01*
X521432Y318871D01*
X521498Y318838D01*
X521531Y318822D01*
X521547Y318806D01*
X521891Y318953D01*
X522236Y319084D01*
X522564Y319199D01*
X522843Y319281D01*
X523105Y319363D01*
X523203Y319380D01*
X523302Y319412D01*
X523367Y319429D01*
X523417D01*
X523449Y319445D01*
X523466D01*
X523843Y319511D01*
X524220Y319576D01*
X524565Y319609D01*
X524876Y319626D01*
X525155Y319642D01*
X525270Y319658D01*
X525549D01*
X526123Y319642D01*
D02*
G37*
G36*
X394791Y319642D02*
X395333Y319593D01*
X395841Y319511D01*
X396317Y319412D01*
X396759Y319298D01*
X397186Y319166D01*
X397563Y319035D01*
X397907Y318888D01*
X398203Y318740D01*
X398481Y318609D01*
X398711Y318478D01*
X398908Y318363D01*
X399055Y318264D01*
X399170Y318182D01*
X399236Y318133D01*
X399252Y318117D01*
X399498Y317904D01*
X399711Y317674D01*
X399908Y317444D01*
X400072Y317215D01*
X400203Y316969D01*
X400318Y316739D01*
X400417Y316526D01*
X400482Y316313D01*
X400548Y316100D01*
X400581Y315919D01*
X400613Y315755D01*
X400646Y315608D01*
Y315493D01*
X400663Y315411D01*
Y315345D01*
Y315329D01*
X400646Y315034D01*
X400613Y314738D01*
X400548Y314476D01*
X400466Y314214D01*
X400367Y313968D01*
X400269Y313754D01*
X400154Y313541D01*
X400023Y313344D01*
X399908Y313180D01*
X399793Y313033D01*
X399695Y312902D01*
X399597Y312787D01*
X399515Y312705D01*
X399449Y312639D01*
X399416Y312606D01*
X399400Y312590D01*
X399137Y312393D01*
X398826Y312196D01*
X398465Y312032D01*
X398088Y311868D01*
X397678Y311737D01*
X397251Y311606D01*
X396415Y311409D01*
X396005Y311327D01*
X395628Y311245D01*
X395283Y311196D01*
X394972Y311147D01*
X394726Y311114D01*
X394611Y311098D01*
X394529Y311081D01*
X394463D01*
X394414Y311065D01*
X394365D01*
X393906Y311016D01*
X393496Y310950D01*
X393119Y310901D01*
X392774Y310835D01*
X392479Y310786D01*
X392200Y310737D01*
X391954Y310671D01*
X391757Y310622D01*
X391577Y310573D01*
X391429Y310540D01*
X391298Y310491D01*
X391200Y310458D01*
X391134Y310425D01*
X391069Y310409D01*
X391052Y310392D01*
X391036D01*
X390888Y310310D01*
X390757Y310228D01*
X390659Y310146D01*
X390560Y310064D01*
X390413Y309884D01*
X390314Y309736D01*
X390265Y309589D01*
X390232Y309474D01*
X390216Y309408D01*
Y309376D01*
X390232Y309244D01*
X390298Y309113D01*
X390396Y308998D01*
X390495Y308884D01*
X390609Y308802D01*
X390691Y308736D01*
X390757Y308687D01*
X390790Y308670D01*
X391019Y308556D01*
X391265Y308457D01*
X391807Y308293D01*
X392364Y308178D01*
X392889Y308096D01*
X393151Y308064D01*
X393381Y308047D01*
X393578Y308031D01*
X393758D01*
X393906Y308014D01*
X394119D01*
X394595Y308031D01*
X395037Y308064D01*
X395431Y308113D01*
X395775Y308162D01*
X395923Y308195D01*
X396054Y308211D01*
X396169Y308244D01*
X396267Y308260D01*
X396349Y308277D01*
X396399Y308293D01*
X396431Y308310D01*
X396448D01*
X396809Y308441D01*
X397137Y308588D01*
X397432Y308736D01*
X397678Y308884D01*
X397891Y309015D01*
X398039Y309130D01*
X398137Y309195D01*
X398153Y309228D01*
X398170D01*
X398252Y309490D01*
X398350Y309720D01*
X398449Y309900D01*
X398547Y310048D01*
X398629Y310163D01*
X398695Y310228D01*
X398744Y310278D01*
X398760Y310294D01*
X398908Y310392D01*
X399072Y310474D01*
X399219Y310524D01*
X399383Y310573D01*
X399515Y310589D01*
X399613Y310606D01*
X399711D01*
X399957Y310589D01*
X400171Y310524D01*
X400367Y310458D01*
X400531Y310360D01*
X400663Y310278D01*
X400761Y310196D01*
X400827Y310130D01*
X400843Y310114D01*
X400991Y309900D01*
X401089Y309654D01*
X401171Y309392D01*
X401220Y309130D01*
X401253Y308884D01*
X401269Y308687D01*
Y308621D01*
Y308556D01*
Y308523D01*
Y308506D01*
Y307457D01*
X401253Y307063D01*
X401204Y306735D01*
X401138Y306456D01*
X401056Y306227D01*
X400974Y306063D01*
X400909Y305948D01*
X400859Y305866D01*
X400843Y305850D01*
X400663Y305686D01*
X400466Y305571D01*
X400285Y305489D01*
X400089Y305440D01*
X399925Y305407D01*
X399793Y305374D01*
X399679D01*
X399482Y305390D01*
X399301Y305423D01*
X399236Y305440D01*
X399187Y305456D01*
X399154Y305472D01*
X399137D01*
X398957Y305571D01*
X398793Y305669D01*
X398695Y305751D01*
X398678Y305768D01*
X398662Y305784D01*
X398285Y305636D01*
X397924Y305489D01*
X397563Y305374D01*
X397235Y305276D01*
X396956Y305210D01*
X396841Y305177D01*
X396743Y305161D01*
X396661Y305144D01*
X396595Y305128D01*
X396563Y305112D01*
X396546D01*
X396103Y305030D01*
X395661Y304980D01*
X395234Y304931D01*
X394857Y304915D01*
X394677Y304898D01*
X394529D01*
X394381Y304882D01*
X394037D01*
X393414Y304898D01*
X392823Y304948D01*
X392266Y305030D01*
X391741Y305144D01*
X391249Y305259D01*
X390806Y305390D01*
X390380Y305538D01*
X390003Y305702D01*
X389675Y305850D01*
X389379Y305997D01*
X389117Y306128D01*
X388904Y306260D01*
X388740Y306358D01*
X388625Y306440D01*
X388543Y306489D01*
X388527Y306506D01*
X388264Y306719D01*
X388035Y306948D01*
X387838Y307178D01*
X387657Y307424D01*
X387526Y307654D01*
X387395Y307883D01*
X387297Y308113D01*
X387215Y308326D01*
X387165Y308539D01*
X387116Y308720D01*
X387083Y308884D01*
X387051Y309031D01*
Y309146D01*
X387034Y309244D01*
Y309294D01*
Y309310D01*
X387051Y309540D01*
X387067Y309769D01*
X387165Y310212D01*
X387313Y310606D01*
X387477Y310966D01*
X387559Y311114D01*
X387641Y311262D01*
X387707Y311376D01*
X387789Y311475D01*
X387838Y311557D01*
X387887Y311622D01*
X387903Y311655D01*
X387920Y311672D01*
X388084Y311868D01*
X388281Y312065D01*
X388674Y312410D01*
X389084Y312688D01*
X389478Y312934D01*
X389675Y313033D01*
X389839Y313115D01*
X390003Y313180D01*
X390134Y313246D01*
X390249Y313279D01*
X390331Y313312D01*
X390380Y313344D01*
X390396D01*
X390642Y313426D01*
X390937Y313508D01*
X391249Y313574D01*
X391577Y313656D01*
X392299Y313804D01*
X393020Y313935D01*
X393348Y313984D01*
X393676Y314033D01*
X393971Y314082D01*
X394217Y314132D01*
X394431Y314148D01*
X394595Y314181D01*
X394644D01*
X394693Y314197D01*
X394726D01*
X395021Y314246D01*
X395300Y314279D01*
X395546Y314328D01*
X395775Y314361D01*
X395972Y314410D01*
X396153Y314443D01*
X396300Y314492D01*
X396448Y314525D01*
X396563Y314558D01*
X396645Y314591D01*
X396727Y314607D01*
X396792Y314624D01*
X396874Y314656D01*
X396891Y314673D01*
X397104Y314804D01*
X397268Y314919D01*
X397366Y315034D01*
X397448Y315148D01*
X397497Y315230D01*
X397514Y315296D01*
X397530Y315345D01*
Y315362D01*
X397514Y315476D01*
X397465Y315575D01*
X397383Y315673D01*
X397301Y315755D01*
X397219Y315821D01*
X397137Y315870D01*
X397087Y315903D01*
X397071Y315919D01*
X396858Y316034D01*
X396645Y316116D01*
X396169Y316264D01*
X395693Y316378D01*
X395234Y316444D01*
X395021Y316477D01*
X394824Y316493D01*
X394644Y316510D01*
X394480D01*
X394365Y316526D01*
X394185D01*
X393840Y316510D01*
X393529Y316493D01*
X393233Y316444D01*
X392955Y316411D01*
X392741Y316362D01*
X392577Y316313D01*
X392512Y316296D01*
X392463D01*
X392446Y316280D01*
X392430D01*
X392118Y316182D01*
X391823Y316067D01*
X391561Y315952D01*
X391315Y315821D01*
X391118Y315722D01*
X390970Y315640D01*
X390872Y315575D01*
X390839Y315558D01*
X390773Y315362D01*
X390691Y315165D01*
X390609Y315017D01*
X390511Y314870D01*
X390429Y314771D01*
X390347Y314689D01*
X390298Y314640D01*
X390281Y314624D01*
X390117Y314509D01*
X389953Y314427D01*
X389789Y314361D01*
X389625Y314328D01*
X389494Y314296D01*
X389396Y314279D01*
X389297D01*
X389002Y314312D01*
X388723Y314394D01*
X388494Y314492D01*
X388297Y314624D01*
X388149Y314755D01*
X388035Y314853D01*
X387969Y314935D01*
X387953Y314968D01*
X387871Y315132D01*
X387805Y315345D01*
X387772Y315575D01*
X387739Y315804D01*
X387723Y316018D01*
X387707Y316198D01*
Y316264D01*
Y316313D01*
Y316346D01*
Y316362D01*
Y317133D01*
X387723Y317526D01*
X387772Y317854D01*
X387854Y318133D01*
X387920Y318363D01*
X388002Y318527D01*
X388084Y318642D01*
X388133Y318724D01*
X388149Y318740D01*
X388313Y318904D01*
X388494Y319019D01*
X388674Y319117D01*
X388838Y319166D01*
X388986Y319199D01*
X389101Y319232D01*
X389215D01*
X389379Y319216D01*
X389527Y319183D01*
X389593Y319150D01*
X389625Y319134D01*
X389658Y319117D01*
X389675D01*
X389855Y319035D01*
X390035Y318920D01*
X390101Y318871D01*
X390167Y318838D01*
X390199Y318822D01*
X390216Y318806D01*
X390560Y318953D01*
X390905Y319084D01*
X391233Y319199D01*
X391511Y319281D01*
X391774Y319363D01*
X391872Y319380D01*
X391971Y319412D01*
X392036Y319429D01*
X392085D01*
X392118Y319445D01*
X392135D01*
X392512Y319511D01*
X392889Y319576D01*
X393233Y319609D01*
X393545Y319626D01*
X393824Y319642D01*
X393939Y319658D01*
X394217D01*
X394791Y319642D01*
D02*
G37*
G36*
X607893Y325169D02*
X608237Y325120D01*
X608533Y325038D01*
X608746Y324972D01*
X608926Y324890D01*
X609041Y324808D01*
X609123Y324759D01*
X609139Y324743D01*
X609303Y324578D01*
X609418Y324382D01*
X609500Y324201D01*
X609549Y324021D01*
X609582Y323873D01*
X609615Y323742D01*
Y323660D01*
Y323627D01*
X609599Y323381D01*
X609533Y323152D01*
X609467Y322955D01*
X609369Y322791D01*
X609287Y322660D01*
X609205Y322561D01*
X609156Y322496D01*
X609139Y322479D01*
X609041Y322397D01*
X608926Y322332D01*
X608680Y322233D01*
X608401Y322151D01*
X608139Y322102D01*
X607877Y322069D01*
X607778D01*
X607680Y322053D01*
X606942D01*
Y308506D01*
X607155D01*
X607352Y308490D01*
X607516Y308474D01*
X607680Y308457D01*
X607811Y308441D01*
X607926Y308408D01*
X608123Y308359D01*
X608270Y308310D01*
X608369Y308260D01*
X608418Y308228D01*
X608434Y308211D01*
X608647Y307998D01*
X608811Y307769D01*
X608910Y307555D01*
X608992Y307359D01*
X609041Y307194D01*
X609057Y307063D01*
X609074Y306981D01*
Y306948D01*
X609057Y306702D01*
X608992Y306473D01*
X608926Y306276D01*
X608828Y306112D01*
X608746Y305981D01*
X608664Y305883D01*
X608615Y305817D01*
X608598Y305801D01*
X608500Y305718D01*
X608385Y305653D01*
X608139Y305555D01*
X607860Y305472D01*
X607598Y305423D01*
X607335Y305391D01*
X607237D01*
X607139Y305374D01*
X603809D01*
X603399Y305391D01*
X603055Y305440D01*
X602776Y305505D01*
X602547Y305587D01*
X602383Y305669D01*
X602268Y305735D01*
X602186Y305784D01*
X602169Y305801D01*
X602005Y305964D01*
X601891Y306161D01*
X601792Y306342D01*
X601743Y306522D01*
X601710Y306686D01*
X601677Y306817D01*
Y306899D01*
Y306932D01*
X601710Y307178D01*
X601776Y307424D01*
X601891Y307637D01*
X602005Y307834D01*
X602120Y307982D01*
X602235Y308113D01*
X602301Y308178D01*
X602333Y308211D01*
X602399Y308260D01*
X602481Y308310D01*
X602694Y308375D01*
X602940Y308441D01*
X603186Y308474D01*
X603432Y308490D01*
X603629Y308506D01*
X603809D01*
Y314378D01*
X603563Y314624D01*
X603317Y314837D01*
X603104Y315034D01*
X602891Y315214D01*
X602711Y315378D01*
X602530Y315509D01*
X602366Y315640D01*
X602219Y315739D01*
X602087Y315837D01*
X601973Y315919D01*
X601874Y315985D01*
X601792Y316034D01*
X601727Y316067D01*
X601677Y316100D01*
X601661Y316116D01*
X601645D01*
X601333Y316247D01*
X601021Y316346D01*
X600710Y316428D01*
X600431Y316477D01*
X600169Y316510D01*
X600070D01*
X599988Y316526D01*
X599808D01*
X599316Y316493D01*
X598873Y316428D01*
X598693Y316378D01*
X598512Y316313D01*
X598348Y316247D01*
X598217Y316198D01*
X598086Y316132D01*
X597971Y316067D01*
X597889Y316018D01*
X597807Y315952D01*
X597758Y315919D01*
X597709Y315886D01*
X597676Y315854D01*
X597577Y315755D01*
X597495Y315640D01*
X597348Y315394D01*
X597249Y315116D01*
X597184Y314837D01*
X597151Y314575D01*
X597135Y314460D01*
X597118Y314361D01*
Y314279D01*
Y314214D01*
Y314181D01*
Y314164D01*
Y308506D01*
X597331D01*
X597528Y308490D01*
X597692Y308474D01*
X597856Y308457D01*
X597987Y308441D01*
X598119Y308408D01*
X598315Y308359D01*
X598463Y308310D01*
X598561Y308260D01*
X598611Y308228D01*
X598627Y308211D01*
X598840Y307998D01*
X598988Y307769D01*
X599103Y307555D01*
X599168Y307359D01*
X599217Y307194D01*
X599234Y307063D01*
X599250Y306981D01*
Y306948D01*
X599234Y306702D01*
X599168Y306473D01*
X599103Y306276D01*
X599004Y306112D01*
X598922Y305981D01*
X598840Y305883D01*
X598791Y305817D01*
X598775Y305801D01*
X598676Y305718D01*
X598561Y305653D01*
X598315Y305555D01*
X598037Y305472D01*
X597774Y305423D01*
X597512Y305391D01*
X597413D01*
X597315Y305374D01*
X593986D01*
X593576Y305391D01*
X593231Y305440D01*
X592953Y305505D01*
X592723Y305587D01*
X592559Y305669D01*
X592444Y305735D01*
X592362Y305784D01*
X592346Y305801D01*
X592182Y305964D01*
X592067Y306161D01*
X591969Y306342D01*
X591919Y306522D01*
X591887Y306686D01*
X591854Y306817D01*
Y306899D01*
Y306932D01*
X591887Y307178D01*
X591952Y307424D01*
X592067Y307637D01*
X592182Y307834D01*
X592297Y307982D01*
X592411Y308113D01*
X592477Y308178D01*
X592510Y308211D01*
X592575Y308260D01*
X592657Y308310D01*
X592871Y308375D01*
X593117Y308441D01*
X593363Y308474D01*
X593609Y308490D01*
X593805Y308506D01*
X593986D01*
Y314378D01*
X594002Y314706D01*
X594019Y315017D01*
X594068Y315329D01*
X594117Y315608D01*
X594183Y315870D01*
X594248Y316116D01*
X594330Y316346D01*
X594396Y316543D01*
X594478Y316739D01*
X594560Y316887D01*
X594625Y317035D01*
X594691Y317149D01*
X594740Y317248D01*
X594789Y317313D01*
X594806Y317346D01*
X594822Y317362D01*
X595150Y317773D01*
X595511Y318133D01*
X595855Y318428D01*
X596200Y318674D01*
X596495Y318855D01*
X596610Y318937D01*
X596725Y319003D01*
X596807Y319035D01*
X596889Y319068D01*
X596921Y319101D01*
X596938D01*
X597430Y319281D01*
X597922Y319429D01*
X598397Y319527D01*
X598840Y319593D01*
X599053Y319609D01*
X599234Y319626D01*
X599398Y319642D01*
X599529Y319658D01*
X599808D01*
X600185Y319642D01*
X600562Y319609D01*
X600907Y319560D01*
X601218Y319511D01*
X601464Y319462D01*
X601579Y319429D01*
X601661Y319412D01*
X601743Y319396D01*
X601792Y319380D01*
X601825Y319363D01*
X601841D01*
X602219Y319249D01*
X602563Y319117D01*
X602907Y318970D01*
X603203Y318839D01*
X603449Y318707D01*
X603547Y318658D01*
X603645Y318609D01*
X603711Y318560D01*
X603760Y318543D01*
X603793Y318511D01*
X603809D01*
Y325185D01*
X607696D01*
X607893Y325169D01*
D02*
G37*
G36*
X8227Y325169D02*
X8571Y325119D01*
X8867Y325038D01*
X9080Y324972D01*
X9260Y324890D01*
X9375Y324808D01*
X9457Y324759D01*
X9473Y324742D01*
X9637Y324578D01*
X9752Y324382D01*
X9834Y324201D01*
X9883Y324021D01*
X9916Y323873D01*
X9949Y323742D01*
Y323660D01*
Y323627D01*
X9933Y323381D01*
X9867Y323151D01*
X9801Y322955D01*
X9703Y322791D01*
X9621Y322659D01*
X9539Y322561D01*
X9490Y322496D01*
X9473Y322479D01*
X9375Y322397D01*
X9260Y322332D01*
X9014Y322233D01*
X8735Y322151D01*
X8473Y322102D01*
X8211Y322069D01*
X8112D01*
X8014Y322053D01*
X7276D01*
Y308506D01*
X8030D01*
X8227Y308490D01*
X8571Y308441D01*
X8867Y308359D01*
X9080Y308293D01*
X9260Y308211D01*
X9375Y308129D01*
X9457Y308080D01*
X9473Y308064D01*
X9637Y307899D01*
X9752Y307703D01*
X9834Y307522D01*
X9883Y307342D01*
X9916Y307194D01*
X9949Y307063D01*
Y306981D01*
Y306948D01*
X9933Y306702D01*
X9867Y306473D01*
X9801Y306276D01*
X9703Y306112D01*
X9621Y305981D01*
X9539Y305882D01*
X9490Y305817D01*
X9473Y305800D01*
X9375Y305718D01*
X9260Y305653D01*
X9014Y305554D01*
X8735Y305472D01*
X8473Y305423D01*
X8211Y305390D01*
X8112D01*
X8014Y305374D01*
X4143D01*
Y306145D01*
X3733Y305932D01*
X3340Y305735D01*
X2963Y305571D01*
X2635Y305440D01*
X2339Y305341D01*
X2208Y305308D01*
X2110Y305276D01*
X2028Y305243D01*
X1962Y305226D01*
X1929Y305210D01*
X1913D01*
X1470Y305095D01*
X1044Y305013D01*
X634Y304964D01*
X273Y304931D01*
X109Y304915D01*
X-39Y304898D01*
X-170D01*
X-285Y304882D01*
X-498D01*
X-1137Y304898D01*
X-1761Y304964D01*
X-2335Y305062D01*
X-2876Y305194D01*
X-3384Y305358D01*
X-3843Y305521D01*
X-4270Y305702D01*
X-4663Y305899D01*
X-5008Y306096D01*
X-5303Y306276D01*
X-5565Y306440D01*
X-5779Y306604D01*
X-5959Y306735D01*
X-6074Y306834D01*
X-6156Y306899D01*
X-6172Y306915D01*
X-6549Y307309D01*
X-6877Y307719D01*
X-7173Y308146D01*
X-7419Y308572D01*
X-7615Y308998D01*
X-7796Y309408D01*
X-7943Y309818D01*
X-8058Y310212D01*
X-8140Y310573D01*
X-8206Y310917D01*
X-8255Y311212D01*
X-8288Y311475D01*
X-8304Y311688D01*
X-8321Y311852D01*
Y311950D01*
Y311967D01*
Y311983D01*
X-8288Y312574D01*
X-8222Y313131D01*
X-8107Y313672D01*
X-7960Y314181D01*
X-7796Y314656D01*
X-7599Y315099D01*
X-7402Y315509D01*
X-7189Y315886D01*
X-6976Y316231D01*
X-6779Y316526D01*
X-6582Y316788D01*
X-6418Y317018D01*
X-6271Y317182D01*
X-6156Y317313D01*
X-6090Y317379D01*
X-6057Y317411D01*
X-5631Y317805D01*
X-5172Y318149D01*
X-4713Y318461D01*
X-4237Y318707D01*
X-3778Y318937D01*
X-3319Y319117D01*
X-2876Y319265D01*
X-2466Y319380D01*
X-2072Y319478D01*
X-1711Y319544D01*
X-1383Y319593D01*
X-1105Y319626D01*
X-875Y319642D01*
X-711Y319658D01*
X-563D01*
X-121Y319642D01*
X322Y319593D01*
X732Y319544D01*
X1093Y319478D01*
X1241Y319429D01*
X1388Y319396D01*
X1519Y319363D01*
X1634Y319347D01*
X1716Y319314D01*
X1782Y319298D01*
X1815Y319281D01*
X1831D01*
X2274Y319117D01*
X2684Y318953D01*
X3077Y318756D01*
X3422Y318576D01*
X3586Y318494D01*
X3717Y318412D01*
X3848Y318330D01*
X3947Y318281D01*
X4029Y318215D01*
X4094Y318182D01*
X4127Y318166D01*
X4143Y318149D01*
Y325185D01*
X8030D01*
X8227Y325169D01*
D02*
G37*
G36*
X413914Y319626D02*
X414291Y319593D01*
X414619Y319560D01*
X414914Y319527D01*
X415045Y319511D01*
X415144Y319494D01*
X415242Y319478D01*
X415308D01*
X415341Y319462D01*
X415357D01*
X415800Y319380D01*
X416226Y319298D01*
X416620Y319216D01*
X416981Y319134D01*
X417128Y319101D01*
X417276Y319068D01*
X417407Y319035D01*
X417505Y319002D01*
X417587Y318986D01*
X417653Y318970D01*
X417686Y318953D01*
X417702D01*
X417997Y318871D01*
X418243Y318789D01*
X418440Y318707D01*
X418604Y318642D01*
X418719Y318592D01*
X418785Y318560D01*
X418834Y318543D01*
X418850Y318527D01*
X419031Y318379D01*
X419162Y318215D01*
X419211Y318150D01*
X419244Y318100D01*
X419277Y318068D01*
Y318051D01*
X419359Y317822D01*
X419408Y317608D01*
Y317510D01*
X419424Y317428D01*
Y317379D01*
Y317362D01*
X419408Y317116D01*
X419359Y316887D01*
X419293Y316690D01*
X419211Y316526D01*
X419129Y316395D01*
X419063Y316296D01*
X419014Y316231D01*
X418998Y316214D01*
X418834Y316067D01*
X418653Y315952D01*
X418473Y315886D01*
X418309Y315821D01*
X418161Y315788D01*
X418047Y315772D01*
X417948D01*
X417768Y315788D01*
X417555Y315804D01*
X417341Y315837D01*
X417128Y315870D01*
X416948Y315903D01*
X416800Y315936D01*
X416702Y315968D01*
X416669D01*
X416259Y316067D01*
X415882Y316149D01*
X415521Y316231D01*
X415177Y316296D01*
X414849Y316346D01*
X414553Y316395D01*
X414275Y316428D01*
X414029Y316460D01*
X413815Y316477D01*
X413619Y316493D01*
X413455Y316510D01*
X413307Y316526D01*
X412749D01*
X412471Y316510D01*
X412225Y316477D01*
X411995Y316460D01*
X411782Y316428D01*
X411585Y316378D01*
X411421Y316346D01*
X411273Y316296D01*
X411159Y316247D01*
X411044Y316214D01*
X410962Y316182D01*
X410880Y316132D01*
X410831Y316116D01*
X410798Y316083D01*
X410765Y316067D01*
X410568Y315886D01*
X410421Y315706D01*
X410306Y315509D01*
X410240Y315329D01*
X410191Y315165D01*
X410175Y315034D01*
X410158Y314952D01*
Y314935D01*
Y314919D01*
Y314164D01*
X410831Y314263D01*
X411454Y314345D01*
X411749Y314378D01*
X412011Y314394D01*
X412274Y314427D01*
X412503Y314443D01*
X412700D01*
X412897Y314460D01*
X413061D01*
X413192Y314476D01*
X413438D01*
X414078Y314460D01*
X414701Y314410D01*
X415259Y314328D01*
X415800Y314214D01*
X416292Y314082D01*
X416751Y313935D01*
X417161Y313787D01*
X417538Y313640D01*
X417866Y313476D01*
X418161Y313328D01*
X418407Y313180D01*
X418621Y313049D01*
X418768Y312951D01*
X418883Y312852D01*
X418965Y312803D01*
X418981Y312787D01*
X419326Y312475D01*
X419637Y312147D01*
X419916Y311819D01*
X420129Y311508D01*
X420326Y311196D01*
X420490Y310884D01*
X420621Y310606D01*
X420736Y310327D01*
X420818Y310064D01*
X420884Y309835D01*
X420917Y309638D01*
X420949Y309458D01*
X420966Y309326D01*
X420982Y309212D01*
Y309146D01*
Y309130D01*
X420966Y308834D01*
X420917Y308539D01*
X420835Y308260D01*
X420736Y307982D01*
X420621Y307719D01*
X420490Y307490D01*
X420343Y307260D01*
X420195Y307047D01*
X420064Y306850D01*
X419916Y306686D01*
X419785Y306538D01*
X419670Y306407D01*
X419572Y306309D01*
X419490Y306243D01*
X419441Y306194D01*
X419424Y306178D01*
X419113Y305948D01*
X418801Y305735D01*
X418457Y305554D01*
X418129Y305407D01*
X417784Y305276D01*
X417440Y305177D01*
X417112Y305079D01*
X416784Y305013D01*
X416489Y304964D01*
X416210Y304915D01*
X415964Y304898D01*
X415751Y304866D01*
X415587D01*
X415455Y304849D01*
X415341D01*
X414898Y304866D01*
X414439Y304898D01*
X414012Y304948D01*
X413619Y305013D01*
X413438Y305030D01*
X413274Y305062D01*
X413127Y305095D01*
X413012Y305112D01*
X412897Y305128D01*
X412831Y305144D01*
X412782Y305161D01*
X412766D01*
X412241Y305292D01*
X411749Y305440D01*
X411306Y305604D01*
X411109Y305686D01*
X410929Y305751D01*
X410765Y305833D01*
X410601Y305899D01*
X410470Y305948D01*
X410371Y306014D01*
X410273Y306046D01*
X410207Y306079D01*
X410175Y306112D01*
X410158D01*
Y305374D01*
X406485D01*
X406075Y305390D01*
X405730Y305440D01*
X405451Y305505D01*
X405222Y305587D01*
X405058Y305669D01*
X404943Y305735D01*
X404861Y305784D01*
X404845Y305800D01*
X404681Y305964D01*
X404566Y306161D01*
X404467Y306342D01*
X404418Y306522D01*
X404385Y306686D01*
X404353Y306817D01*
Y306899D01*
Y306932D01*
X404369Y307178D01*
X404435Y307408D01*
X404500Y307588D01*
X404599Y307752D01*
X404681Y307883D01*
X404763Y307982D01*
X404828Y308047D01*
X404845Y308064D01*
X405058Y308211D01*
X405304Y308326D01*
X405566Y308392D01*
X405845Y308457D01*
X406091Y308490D01*
X406206D01*
X406288Y308506D01*
X407026D01*
Y314952D01*
X407042Y315345D01*
X407091Y315722D01*
X407173Y316083D01*
X407272Y316411D01*
X407403Y316723D01*
X407534Y317002D01*
X407682Y317264D01*
X407829Y317494D01*
X407993Y317707D01*
X408141Y317887D01*
X408272Y318035D01*
X408387Y318166D01*
X408502Y318264D01*
X408584Y318330D01*
X408633Y318379D01*
X408649Y318396D01*
X408961Y318625D01*
X409305Y318806D01*
X409666Y318986D01*
X410027Y319134D01*
X410404Y319248D01*
X410781Y319347D01*
X411159Y319429D01*
X411503Y319494D01*
X411847Y319560D01*
X412159Y319593D01*
X412438Y319626D01*
X412684Y319642D01*
X412881Y319658D01*
X413537D01*
X413914Y319626D01*
D02*
G37*
G36*
X188775Y319626D02*
X189152Y319593D01*
X189480Y319560D01*
X189775Y319527D01*
X189906Y319511D01*
X190005Y319494D01*
X190103Y319478D01*
X190169D01*
X190201Y319462D01*
X190218D01*
X190661Y319380D01*
X191087Y319298D01*
X191481Y319216D01*
X191841Y319134D01*
X191989Y319101D01*
X192137Y319068D01*
X192268Y319035D01*
X192366Y319002D01*
X192448Y318986D01*
X192514Y318970D01*
X192547Y318953D01*
X192563D01*
X192858Y318871D01*
X193104Y318789D01*
X193301Y318707D01*
X193465Y318642D01*
X193580Y318592D01*
X193645Y318560D01*
X193695Y318543D01*
X193711Y318527D01*
X193891Y318379D01*
X194023Y318215D01*
X194072Y318150D01*
X194105Y318100D01*
X194137Y318068D01*
Y318051D01*
X194219Y317822D01*
X194269Y317608D01*
Y317510D01*
X194285Y317428D01*
Y317379D01*
Y317362D01*
X194269Y317116D01*
X194219Y316887D01*
X194154Y316690D01*
X194072Y316526D01*
X193990Y316395D01*
X193924Y316296D01*
X193875Y316231D01*
X193859Y316214D01*
X193695Y316067D01*
X193514Y315952D01*
X193334Y315886D01*
X193170Y315821D01*
X193022Y315788D01*
X192907Y315772D01*
X192809D01*
X192629Y315788D01*
X192415Y315804D01*
X192202Y315837D01*
X191989Y315870D01*
X191809Y315903D01*
X191661Y315936D01*
X191563Y315968D01*
X191530D01*
X191120Y316067D01*
X190743Y316149D01*
X190382Y316231D01*
X190037Y316296D01*
X189709Y316346D01*
X189414Y316395D01*
X189135Y316428D01*
X188889Y316460D01*
X188676Y316477D01*
X188479Y316493D01*
X188315Y316510D01*
X188168Y316526D01*
X187610D01*
X187331Y316510D01*
X187085Y316477D01*
X186856Y316460D01*
X186643Y316428D01*
X186446Y316378D01*
X186282Y316346D01*
X186134Y316296D01*
X186019Y316247D01*
X185905Y316214D01*
X185823Y316182D01*
X185741Y316132D01*
X185691Y316116D01*
X185659Y316083D01*
X185626Y316067D01*
X185429Y315886D01*
X185281Y315706D01*
X185167Y315509D01*
X185101Y315329D01*
X185052Y315165D01*
X185035Y315034D01*
X185019Y314952D01*
Y314935D01*
Y314919D01*
Y314164D01*
X185691Y314263D01*
X186315Y314345D01*
X186610Y314378D01*
X186872Y314394D01*
X187135Y314427D01*
X187364Y314443D01*
X187561D01*
X187758Y314460D01*
X187922D01*
X188053Y314476D01*
X188299D01*
X188939Y314460D01*
X189562Y314410D01*
X190119Y314328D01*
X190661Y314214D01*
X191153Y314082D01*
X191612Y313935D01*
X192022Y313787D01*
X192399Y313640D01*
X192727Y313476D01*
X193022Y313328D01*
X193268Y313180D01*
X193481Y313049D01*
X193629Y312951D01*
X193744Y312852D01*
X193826Y312803D01*
X193842Y312787D01*
X194187Y312475D01*
X194498Y312147D01*
X194777Y311819D01*
X194990Y311508D01*
X195187Y311196D01*
X195351Y310884D01*
X195482Y310606D01*
X195597Y310327D01*
X195679Y310064D01*
X195745Y309835D01*
X195777Y309638D01*
X195810Y309458D01*
X195827Y309326D01*
X195843Y309212D01*
Y309146D01*
Y309130D01*
X195827Y308834D01*
X195777Y308539D01*
X195695Y308260D01*
X195597Y307982D01*
X195482Y307719D01*
X195351Y307490D01*
X195203Y307260D01*
X195056Y307047D01*
X194925Y306850D01*
X194777Y306686D01*
X194646Y306538D01*
X194531Y306407D01*
X194433Y306309D01*
X194351Y306243D01*
X194301Y306194D01*
X194285Y306178D01*
X193973Y305948D01*
X193662Y305735D01*
X193317Y305554D01*
X192989Y305407D01*
X192645Y305276D01*
X192301Y305177D01*
X191973Y305079D01*
X191645Y305013D01*
X191349Y304964D01*
X191071Y304915D01*
X190825Y304898D01*
X190611Y304866D01*
X190447D01*
X190316Y304849D01*
X190201D01*
X189759Y304866D01*
X189299Y304898D01*
X188873Y304948D01*
X188479Y305013D01*
X188299Y305030D01*
X188135Y305062D01*
X187987Y305095D01*
X187873Y305112D01*
X187758Y305128D01*
X187692Y305144D01*
X187643Y305161D01*
X187627D01*
X187102Y305292D01*
X186610Y305440D01*
X186167Y305604D01*
X185970Y305686D01*
X185790Y305751D01*
X185626Y305833D01*
X185462Y305899D01*
X185331Y305948D01*
X185232Y306014D01*
X185134Y306046D01*
X185068Y306079D01*
X185035Y306112D01*
X185019D01*
Y305374D01*
X181345D01*
X180935Y305390D01*
X180591Y305440D01*
X180312Y305505D01*
X180083Y305587D01*
X179919Y305669D01*
X179804Y305735D01*
X179722Y305784D01*
X179705Y305800D01*
X179541Y305964D01*
X179427Y306161D01*
X179328Y306342D01*
X179279Y306522D01*
X179246Y306686D01*
X179213Y306817D01*
Y306899D01*
Y306932D01*
X179230Y307178D01*
X179295Y307408D01*
X179361Y307588D01*
X179459Y307752D01*
X179541Y307883D01*
X179623Y307982D01*
X179689Y308047D01*
X179705Y308064D01*
X179919Y308211D01*
X180165Y308326D01*
X180427Y308392D01*
X180706Y308457D01*
X180952Y308490D01*
X181067D01*
X181149Y308506D01*
X181887D01*
Y314952D01*
X181903Y315345D01*
X181952Y315722D01*
X182034Y316083D01*
X182133Y316411D01*
X182264Y316723D01*
X182395Y317002D01*
X182543Y317264D01*
X182690Y317494D01*
X182854Y317707D01*
X183002Y317887D01*
X183133Y318035D01*
X183248Y318166D01*
X183363Y318264D01*
X183445Y318330D01*
X183494Y318379D01*
X183510Y318396D01*
X183822Y318625D01*
X184166Y318806D01*
X184527Y318986D01*
X184888Y319134D01*
X185265Y319248D01*
X185642Y319347D01*
X186019Y319429D01*
X186364Y319494D01*
X186708Y319560D01*
X187020Y319593D01*
X187299Y319626D01*
X187545Y319642D01*
X187741Y319658D01*
X188397D01*
X188775Y319626D01*
D02*
G37*
G36*
X-36365Y319626D02*
X-35987Y319593D01*
X-35659Y319560D01*
X-35364Y319527D01*
X-35233Y319511D01*
X-35135Y319494D01*
X-35036Y319478D01*
X-34971D01*
X-34938Y319461D01*
X-34921D01*
X-34479Y319380D01*
X-34052Y319298D01*
X-33659Y319215D01*
X-33298Y319134D01*
X-33150Y319101D01*
X-33003Y319068D01*
X-32871Y319035D01*
X-32773Y319002D01*
X-32691Y318986D01*
X-32625Y318969D01*
X-32593Y318953D01*
X-32576D01*
X-32281Y318871D01*
X-32035Y318789D01*
X-31838Y318707D01*
X-31674Y318642D01*
X-31559Y318592D01*
X-31494Y318560D01*
X-31445Y318543D01*
X-31428Y318527D01*
X-31248Y318379D01*
X-31117Y318215D01*
X-31067Y318149D01*
X-31035Y318100D01*
X-31002Y318068D01*
Y318051D01*
X-30920Y317822D01*
X-30871Y317608D01*
Y317510D01*
X-30854Y317428D01*
Y317379D01*
Y317362D01*
X-30871Y317116D01*
X-30920Y316887D01*
X-30985Y316690D01*
X-31067Y316526D01*
X-31149Y316395D01*
X-31215Y316296D01*
X-31264Y316231D01*
X-31281Y316214D01*
X-31445Y316067D01*
X-31625Y315952D01*
X-31805Y315886D01*
X-31969Y315821D01*
X-32117Y315788D01*
X-32232Y315772D01*
X-32330D01*
X-32511Y315788D01*
X-32724Y315804D01*
X-32937Y315837D01*
X-33150Y315870D01*
X-33331Y315903D01*
X-33478Y315936D01*
X-33577Y315968D01*
X-33609D01*
X-34019Y316067D01*
X-34397Y316149D01*
X-34757Y316231D01*
X-35102Y316296D01*
X-35430Y316346D01*
X-35725Y316395D01*
X-36004Y316428D01*
X-36250Y316460D01*
X-36463Y316477D01*
X-36660Y316493D01*
X-36824Y316510D01*
X-36971Y316526D01*
X-37529D01*
X-37808Y316510D01*
X-38054Y316477D01*
X-38283Y316460D01*
X-38497Y316427D01*
X-38693Y316378D01*
X-38857Y316346D01*
X-39005Y316296D01*
X-39120Y316247D01*
X-39235Y316214D01*
X-39317Y316181D01*
X-39399Y316132D01*
X-39448Y316116D01*
X-39481Y316083D01*
X-39513Y316067D01*
X-39710Y315886D01*
X-39858Y315706D01*
X-39973Y315509D01*
X-40038Y315329D01*
X-40087Y315165D01*
X-40104Y315034D01*
X-40120Y314951D01*
Y314935D01*
Y314919D01*
Y314164D01*
X-39448Y314263D01*
X-38825Y314345D01*
X-38529Y314377D01*
X-38267Y314394D01*
X-38005Y314427D01*
X-37775Y314443D01*
X-37578Y314443D01*
X-37381Y314459D01*
X-37217D01*
X-37086Y314476D01*
X-36840D01*
X-36201Y314459D01*
X-35577Y314410D01*
X-35020Y314328D01*
X-34479Y314213D01*
X-33987Y314082D01*
X-33527Y313935D01*
X-33117Y313787D01*
X-32740Y313640D01*
X-32412Y313476D01*
X-32117Y313328D01*
X-31871Y313180D01*
X-31658Y313049D01*
X-31510Y312951D01*
X-31395Y312852D01*
X-31313Y312803D01*
X-31297Y312787D01*
X-30953Y312475D01*
X-30641Y312147D01*
X-30362Y311819D01*
X-30149Y311508D01*
X-29952Y311196D01*
X-29788Y310884D01*
X-29657Y310606D01*
X-29542Y310327D01*
X-29460Y310064D01*
X-29395Y309835D01*
X-29362Y309638D01*
X-29329Y309457D01*
X-29313Y309326D01*
X-29296Y309211D01*
Y309146D01*
Y309130D01*
X-29313Y308834D01*
X-29362Y308539D01*
X-29444Y308260D01*
X-29542Y307982D01*
X-29657Y307719D01*
X-29788Y307490D01*
X-29936Y307260D01*
X-30083Y307047D01*
X-30215Y306850D01*
X-30362Y306686D01*
X-30493Y306538D01*
X-30608Y306407D01*
X-30707Y306309D01*
X-30789Y306243D01*
X-30838Y306194D01*
X-30854Y306178D01*
X-31166Y305948D01*
X-31477Y305735D01*
X-31822Y305554D01*
X-32150Y305407D01*
X-32494Y305276D01*
X-32839Y305177D01*
X-33167Y305079D01*
X-33495Y305013D01*
X-33790Y304964D01*
X-34069Y304915D01*
X-34315Y304898D01*
X-34528Y304866D01*
X-34692D01*
X-34823Y304849D01*
X-34938D01*
X-35381Y304866D01*
X-35840Y304898D01*
X-36266Y304948D01*
X-36660Y305013D01*
X-36840Y305030D01*
X-37004Y305062D01*
X-37152Y305095D01*
X-37267Y305112D01*
X-37381Y305128D01*
X-37447Y305144D01*
X-37496Y305161D01*
X-37513D01*
X-38037Y305292D01*
X-38529Y305439D01*
X-38972Y305604D01*
X-39169Y305685D01*
X-39349Y305751D01*
X-39513Y305833D01*
X-39677Y305899D01*
X-39809Y305948D01*
X-39907Y306013D01*
X-40005Y306046D01*
X-40071Y306079D01*
X-40104Y306112D01*
X-40120D01*
Y305374D01*
X-43794D01*
X-44204Y305390D01*
X-44548Y305439D01*
X-44827Y305505D01*
X-45057Y305587D01*
X-45221Y305669D01*
X-45335Y305735D01*
X-45417Y305784D01*
X-45434Y305800D01*
X-45598Y305964D01*
X-45713Y306161D01*
X-45811Y306342D01*
X-45860Y306522D01*
X-45893Y306686D01*
X-45926Y306817D01*
Y306899D01*
Y306932D01*
X-45909Y307178D01*
X-45844Y307407D01*
X-45778Y307588D01*
X-45680Y307752D01*
X-45598Y307883D01*
X-45516Y307981D01*
X-45450Y308047D01*
X-45434Y308064D01*
X-45221Y308211D01*
X-44975Y308326D01*
X-44712Y308391D01*
X-44433Y308457D01*
X-44187Y308490D01*
X-44073D01*
X-43991Y308506D01*
X-43253D01*
Y314951D01*
X-43236Y315345D01*
X-43187Y315722D01*
X-43105Y316083D01*
X-43007Y316411D01*
X-42875Y316723D01*
X-42744Y317002D01*
X-42597Y317264D01*
X-42449Y317494D01*
X-42285Y317707D01*
X-42137Y317887D01*
X-42006Y318035D01*
X-41891Y318166D01*
X-41777Y318264D01*
X-41695Y318330D01*
X-41645Y318379D01*
X-41629Y318395D01*
X-41317Y318625D01*
X-40973Y318806D01*
X-40612Y318986D01*
X-40251Y319133D01*
X-39874Y319248D01*
X-39497Y319347D01*
X-39120Y319429D01*
X-38775Y319494D01*
X-38431Y319560D01*
X-38119Y319593D01*
X-37841Y319625D01*
X-37595Y319642D01*
X-37398Y319658D01*
X-36742D01*
X-36365Y319626D01*
D02*
G37*
G36*
X627491Y317789D02*
Y317576D01*
X627475Y317379D01*
X627425Y317035D01*
X627360Y316739D01*
X627278Y316526D01*
X627196Y316346D01*
X627130Y316231D01*
X627081Y316149D01*
X627065Y316132D01*
X626901Y315968D01*
X626704Y315854D01*
X626523Y315772D01*
X626343Y315722D01*
X626179Y315690D01*
X626048Y315657D01*
X625933D01*
X625687Y315673D01*
X625457Y315739D01*
X625277Y315805D01*
X625113Y315903D01*
X624982Y315985D01*
X624883Y316067D01*
X624818Y316116D01*
X624801Y316132D01*
X624719Y316231D01*
X624654Y316346D01*
X624539Y316592D01*
X624473Y316870D01*
X624408Y317133D01*
X624375Y317395D01*
Y317494D01*
X624359Y317592D01*
Y317674D01*
Y317740D01*
Y317773D01*
Y317789D01*
Y320757D01*
X620964D01*
Y308506D01*
X623276D01*
X623473Y308490D01*
X623817Y308441D01*
X624113Y308359D01*
X624326Y308293D01*
X624506Y308211D01*
X624621Y308129D01*
X624703Y308080D01*
X624719Y308064D01*
X624883Y307900D01*
X624998Y307703D01*
X625080Y307523D01*
X625129Y307342D01*
X625162Y307194D01*
X625195Y307063D01*
Y306981D01*
Y306948D01*
X625179Y306702D01*
X625113Y306473D01*
X625047Y306276D01*
X624949Y306112D01*
X624867Y305981D01*
X624785Y305883D01*
X624736Y305817D01*
X624719Y305801D01*
X624621Y305718D01*
X624506Y305653D01*
X624260Y305555D01*
X623981Y305472D01*
X623719Y305423D01*
X623457Y305391D01*
X623358D01*
X623260Y305374D01*
X615716D01*
X615306Y305391D01*
X614961Y305440D01*
X614683Y305505D01*
X614453Y305587D01*
X614289Y305669D01*
X614174Y305735D01*
X614092Y305784D01*
X614076Y305801D01*
X613912Y305964D01*
X613797Y306161D01*
X613699Y306342D01*
X613649Y306522D01*
X613617Y306686D01*
X613584Y306817D01*
Y306899D01*
Y306932D01*
X613600Y307178D01*
X613666Y307408D01*
X613731Y307588D01*
X613830Y307752D01*
X613912Y307883D01*
X613994Y307982D01*
X614059Y308047D01*
X614076Y308064D01*
X614289Y308211D01*
X614535Y308326D01*
X614797Y308392D01*
X615076Y308457D01*
X615322Y308490D01*
X615437D01*
X615519Y308506D01*
X617831D01*
Y320757D01*
X614404D01*
Y317789D01*
Y317576D01*
X614387Y317379D01*
X614338Y317035D01*
X614273Y316739D01*
X614191Y316526D01*
X614109Y316346D01*
X614043Y316231D01*
X613994Y316149D01*
X613977Y316132D01*
X613813Y315968D01*
X613617Y315854D01*
X613436Y315772D01*
X613256Y315722D01*
X613092Y315690D01*
X612961Y315657D01*
X612846D01*
X612600Y315673D01*
X612370Y315739D01*
X612190Y315805D01*
X612026Y315903D01*
X611895Y315985D01*
X611796Y316067D01*
X611731Y316116D01*
X611714Y316132D01*
X611632Y316231D01*
X611567Y316346D01*
X611452Y316592D01*
X611386Y316870D01*
X611321Y317133D01*
X611288Y317395D01*
Y317494D01*
X611271Y317592D01*
Y317674D01*
Y317740D01*
Y317773D01*
Y317789D01*
Y323890D01*
X627491D01*
Y317789D01*
D02*
G37*
G36*
X-68181Y325169D02*
X-67836Y325119D01*
X-67541Y325038D01*
X-67328Y324972D01*
X-67147Y324890D01*
X-67033Y324808D01*
X-66951Y324759D01*
X-66934Y324742D01*
X-66770Y324578D01*
X-66655Y324381D01*
X-66573Y324201D01*
X-66524Y324021D01*
X-66491Y323873D01*
X-66459Y323742D01*
Y323660D01*
Y323627D01*
X-66475Y323381D01*
X-66541Y323151D01*
X-66606Y322955D01*
X-66705Y322791D01*
X-66787Y322659D01*
X-66869Y322561D01*
X-66918Y322496D01*
X-66934Y322479D01*
X-67033Y322397D01*
X-67147Y322332D01*
X-67393Y322233D01*
X-67672Y322151D01*
X-67935Y322102D01*
X-68197Y322069D01*
X-68295D01*
X-68394Y322053D01*
X-69132D01*
Y308506D01*
X-68377D01*
X-68181Y308490D01*
X-67836Y308441D01*
X-67541Y308359D01*
X-67328Y308293D01*
X-67147Y308211D01*
X-67033Y308129D01*
X-66951Y308080D01*
X-66934Y308064D01*
X-66770Y307899D01*
X-66655Y307703D01*
X-66573Y307522D01*
X-66524Y307342D01*
X-66491Y307194D01*
X-66459Y307063D01*
Y306981D01*
Y306948D01*
X-66475Y306702D01*
X-66541Y306473D01*
X-66606Y306276D01*
X-66705Y306112D01*
X-66787Y305981D01*
X-66869Y305882D01*
X-66918Y305817D01*
X-66934Y305800D01*
X-67033Y305718D01*
X-67147Y305653D01*
X-67393Y305554D01*
X-67672Y305472D01*
X-67935Y305423D01*
X-68197Y305390D01*
X-68295D01*
X-68394Y305374D01*
X-72264D01*
Y310573D01*
X-72838Y311048D01*
X-76151Y308113D01*
X-75987Y307899D01*
X-75872Y307686D01*
X-75790Y307489D01*
X-75741Y307309D01*
X-75708Y307161D01*
X-75675Y307030D01*
Y306965D01*
Y306932D01*
X-75692Y306686D01*
X-75757Y306473D01*
X-75823Y306276D01*
X-75921Y306112D01*
X-76003Y305981D01*
X-76085Y305882D01*
X-76135Y305817D01*
X-76151Y305800D01*
X-76364Y305653D01*
X-76594Y305554D01*
X-76856Y305472D01*
X-77119Y305423D01*
X-77365Y305390D01*
X-77561Y305374D01*
X-81530D01*
X-81727Y305390D01*
X-82071Y305439D01*
X-82367Y305505D01*
X-82596Y305587D01*
X-82760Y305669D01*
X-82875Y305735D01*
X-82957Y305784D01*
X-82973Y305800D01*
X-83137Y305964D01*
X-83252Y306161D01*
X-83351Y306342D01*
X-83400Y306522D01*
X-83433Y306686D01*
X-83465Y306817D01*
Y306899D01*
Y306932D01*
X-83449Y307178D01*
X-83383Y307407D01*
X-83318Y307588D01*
X-83219Y307752D01*
X-83137Y307883D01*
X-83055Y307981D01*
X-82990Y308047D01*
X-82973Y308064D01*
X-82875Y308145D01*
X-82760Y308211D01*
X-82514Y308326D01*
X-82235Y308391D01*
X-81973Y308457D01*
X-81711Y308490D01*
X-81612D01*
X-81514Y308506D01*
X-80399D01*
X-75298Y313016D01*
X-79103Y316100D01*
X-80185D01*
X-80382Y316116D01*
X-80727Y316165D01*
X-81022Y316231D01*
X-81251Y316313D01*
X-81415Y316395D01*
X-81530Y316460D01*
X-81612Y316510D01*
X-81629Y316526D01*
X-81793Y316690D01*
X-81907Y316887D01*
X-82006Y317067D01*
X-82055Y317248D01*
X-82088Y317411D01*
X-82121Y317543D01*
Y317625D01*
Y317657D01*
X-82104Y317903D01*
X-82039Y318133D01*
X-81973Y318314D01*
X-81875Y318478D01*
X-81793Y318609D01*
X-81711Y318707D01*
X-81645Y318773D01*
X-81629Y318789D01*
X-81530Y318871D01*
X-81415Y318937D01*
X-81169Y319052D01*
X-80891Y319117D01*
X-80628Y319183D01*
X-80366Y319215D01*
X-80267D01*
X-80169Y319232D01*
X-76430D01*
X-76036Y319215D01*
X-75708Y319166D01*
X-75429Y319084D01*
X-75200Y319019D01*
X-75036Y318937D01*
X-74921Y318855D01*
X-74839Y318806D01*
X-74823Y318789D01*
X-74675Y318609D01*
X-74560Y318428D01*
X-74478Y318232D01*
X-74429Y318051D01*
X-74396Y317903D01*
X-74363Y317772D01*
Y317690D01*
Y317657D01*
X-74380Y317494D01*
X-74413Y317313D01*
X-74462Y317133D01*
X-74527Y316969D01*
X-74593Y316821D01*
X-74642Y316706D01*
X-74675Y316624D01*
X-74691Y316592D01*
X-72264Y314607D01*
Y325185D01*
X-68377D01*
X-68181Y325169D01*
D02*
G37*
G36*
X439645Y319216D02*
X439842Y319166D01*
X440023Y319084D01*
X440187Y319019D01*
X440318Y318937D01*
X440416Y318855D01*
X440482Y318806D01*
X440498Y318789D01*
X440662Y318625D01*
X440777Y318428D01*
X440859Y318248D01*
X440908Y318068D01*
X440941Y317920D01*
X440974Y317789D01*
Y317707D01*
Y317674D01*
X440957Y317428D01*
X440892Y317198D01*
X440826Y317002D01*
X440728Y316838D01*
X440646Y316706D01*
X440564Y316608D01*
X440515Y316542D01*
X440498Y316526D01*
X440318Y316378D01*
X440137Y316280D01*
X439957Y316198D01*
X439793Y316149D01*
X439645Y316116D01*
X439531Y316100D01*
X439432D01*
X436825Y305374D01*
X433873D01*
X431708Y311130D01*
X429428Y305374D01*
X426525D01*
X423967Y316100D01*
X423754Y316116D01*
X423541Y316165D01*
X423360Y316231D01*
X423196Y316313D01*
X423065Y316395D01*
X422967Y316460D01*
X422901Y316510D01*
X422885Y316526D01*
X422721Y316690D01*
X422606Y316887D01*
X422507Y317067D01*
X422458Y317248D01*
X422425Y317412D01*
X422393Y317543D01*
Y317625D01*
Y317658D01*
X422409Y317904D01*
X422475Y318133D01*
X422540Y318314D01*
X422639Y318478D01*
X422721Y318609D01*
X422803Y318707D01*
X422868Y318773D01*
X422885Y318789D01*
X423065Y318937D01*
X423262Y319052D01*
X423442Y319117D01*
X423606Y319183D01*
X423754Y319216D01*
X423869Y319232D01*
X427411D01*
X427608Y319216D01*
X427805Y319199D01*
X427969Y319166D01*
X428280Y319084D01*
X428510Y319019D01*
X428690Y318937D01*
X428805Y318855D01*
X428887Y318806D01*
X428903Y318789D01*
X429067Y318625D01*
X429182Y318428D01*
X429264Y318248D01*
X429313Y318068D01*
X429346Y317920D01*
X429379Y317789D01*
Y317707D01*
Y317674D01*
X429346Y317412D01*
X429281Y317182D01*
X429182Y316952D01*
X429051Y316756D01*
X428936Y316608D01*
X428838Y316477D01*
X428772Y316411D01*
X428739Y316378D01*
X428674Y316329D01*
X428575Y316280D01*
X428362Y316214D01*
X428116Y316165D01*
X427837Y316132D01*
X427591Y316116D01*
X427477D01*
X427378Y316100D01*
X427181D01*
X428395Y311130D01*
X430347Y316231D01*
X433118D01*
X435053Y311130D01*
X436234Y316100D01*
X436005D01*
X435808Y316116D01*
X435611Y316132D01*
X435447Y316149D01*
X435299Y316182D01*
X435168Y316214D01*
X434939Y316280D01*
X434775Y316346D01*
X434660Y316411D01*
X434594Y316444D01*
X434578Y316460D01*
X434397Y316657D01*
X434250Y316854D01*
X434151Y317051D01*
X434086Y317248D01*
X434053Y317412D01*
X434020Y317543D01*
Y317625D01*
Y317658D01*
X434037Y317904D01*
X434102Y318133D01*
X434168Y318314D01*
X434266Y318478D01*
X434348Y318609D01*
X434430Y318707D01*
X434496Y318773D01*
X434512Y318789D01*
X434611Y318871D01*
X434725Y318937D01*
X434988Y319052D01*
X435267Y319117D01*
X435545Y319183D01*
X435808Y319216D01*
X435923D01*
X436037Y319232D01*
X439432D01*
X439645Y319216D01*
D02*
G37*
G36*
X139115Y319216D02*
X139460Y319166D01*
X139755Y319084D01*
X139968Y319019D01*
X140149Y318937D01*
X140263Y318855D01*
X140345Y318806D01*
X140362Y318789D01*
X140526Y318609D01*
X140641Y318428D01*
X140723Y318232D01*
X140772Y318051D01*
X140805Y317904D01*
X140837Y317772D01*
Y317690D01*
Y317658D01*
X140821Y317412D01*
X140755Y317182D01*
X140690Y316985D01*
X140591Y316821D01*
X140509Y316706D01*
X140427Y316608D01*
X140378Y316542D01*
X140362Y316526D01*
X140263Y316444D01*
X140149Y316378D01*
X139903Y316280D01*
X139624Y316198D01*
X139361Y316149D01*
X139099Y316116D01*
X139001D01*
X138902Y316100D01*
X138705D01*
X133277Y305440D01*
X135065Y301963D01*
X138181D01*
X138591Y301946D01*
X138935Y301897D01*
X139214Y301832D01*
X139443Y301750D01*
X139607Y301668D01*
X139722Y301602D01*
X139804Y301553D01*
X139821Y301536D01*
X139985Y301356D01*
X140099Y301176D01*
X140181Y300979D01*
X140231Y300798D01*
X140263Y300634D01*
X140296Y300503D01*
Y300421D01*
Y300405D01*
Y300388D01*
X140280Y300142D01*
X140214Y299929D01*
X140149Y299732D01*
X140050Y299568D01*
X139968Y299437D01*
X139886Y299355D01*
X139837Y299290D01*
X139821Y299273D01*
X139607Y299126D01*
X139361Y299011D01*
X139099Y298945D01*
X138820Y298880D01*
X138574Y298847D01*
X138459D01*
X138377Y298830D01*
X130358Y298830D01*
X129948Y298847D01*
X129603Y298896D01*
X129325Y298978D01*
X129095Y299060D01*
X128931Y299126D01*
X128816Y299208D01*
X128734Y299257D01*
X128718Y299273D01*
X128554Y299437D01*
X128439Y299634D01*
X128341Y299814D01*
X128291Y299995D01*
X128259Y300142D01*
X128226Y300274D01*
Y300356D01*
Y300388D01*
X128242Y300520D01*
X128275Y300667D01*
X128308Y300798D01*
X128373Y300930D01*
X128537Y301192D01*
X128701Y301438D01*
X128882Y301651D01*
X129046Y301815D01*
X129111Y301881D01*
X129144Y301930D01*
X129177Y301946D01*
X129193Y301963D01*
X131539D01*
X124372Y316100D01*
X124159D01*
X123962Y316116D01*
X123617Y316165D01*
X123322Y316231D01*
X123093Y316313D01*
X122929Y316395D01*
X122814Y316460D01*
X122732Y316510D01*
X122715Y316526D01*
X122551Y316690D01*
X122437Y316887D01*
X122338Y317067D01*
X122289Y317248D01*
X122256Y317412D01*
X122223Y317543D01*
Y317625D01*
Y317658D01*
X122240Y317904D01*
X122305Y318133D01*
X122371Y318314D01*
X122469Y318478D01*
X122551Y318609D01*
X122633Y318707D01*
X122699Y318773D01*
X122715Y318789D01*
X122814Y318871D01*
X122929Y318937D01*
X123175Y319052D01*
X123453Y319117D01*
X123716Y319183D01*
X123978Y319216D01*
X124077D01*
X124175Y319232D01*
X128095D01*
X128291Y319216D01*
X128636Y319166D01*
X128931Y319084D01*
X129144Y319019D01*
X129325Y318937D01*
X129439Y318855D01*
X129521Y318806D01*
X129538Y318789D01*
X129702Y318625D01*
X129817Y318428D01*
X129899Y318248D01*
X129948Y318068D01*
X129981Y317920D01*
X130013Y317789D01*
Y317707D01*
Y317674D01*
X129997Y317428D01*
X129931Y317198D01*
X129866Y317002D01*
X129767Y316838D01*
X129685Y316706D01*
X129603Y316608D01*
X129554Y316542D01*
X129538Y316526D01*
X129439Y316444D01*
X129325Y316378D01*
X129079Y316280D01*
X128800Y316198D01*
X128537Y316149D01*
X128275Y316116D01*
X128177D01*
X128078Y316100D01*
X127881D01*
X131539Y308900D01*
X135212Y316100D01*
X134999D01*
X134802Y316116D01*
X134458Y316165D01*
X134163Y316231D01*
X133933Y316313D01*
X133769Y316395D01*
X133654Y316460D01*
X133572Y316510D01*
X133556Y316526D01*
X133392Y316690D01*
X133277Y316887D01*
X133179Y317067D01*
X133129Y317248D01*
X133097Y317412D01*
X133064Y317543D01*
Y317625D01*
Y317658D01*
X133080Y317904D01*
X133146Y318133D01*
X133211Y318314D01*
X133310Y318478D01*
X133392Y318609D01*
X133474Y318707D01*
X133539Y318773D01*
X133556Y318789D01*
X133654Y318871D01*
X133769Y318937D01*
X134015Y319052D01*
X134294Y319117D01*
X134556Y319183D01*
X134819Y319216D01*
X134917D01*
X135015Y319232D01*
X138919D01*
X139115Y319216D01*
D02*
G37*
G36*
X470182Y319642D02*
X470740Y319576D01*
X471281Y319462D01*
X471806Y319330D01*
X472298Y319183D01*
X472757Y319002D01*
X473183Y318806D01*
X473577Y318625D01*
X473938Y318428D01*
X474266Y318232D01*
X474545Y318051D01*
X474774Y317904D01*
X474955Y317772D01*
X475086Y317658D01*
X475168Y317592D01*
X475201Y317576D01*
X475627Y317182D01*
X476004Y316756D01*
X476332Y316313D01*
X476611Y315870D01*
X476841Y315411D01*
X477037Y314968D01*
X477201Y314542D01*
X477316Y314115D01*
X477431Y313722D01*
X477497Y313361D01*
X477546Y313033D01*
X477595Y312754D01*
X477611Y312524D01*
X477628Y312360D01*
Y312295D01*
Y312246D01*
Y312229D01*
Y312213D01*
X477595Y311639D01*
X477529Y311098D01*
X477415Y310589D01*
X477283Y310097D01*
X477103Y309638D01*
X476923Y309195D01*
X476709Y308802D01*
X476496Y308441D01*
X476299Y308113D01*
X476086Y307834D01*
X475906Y307588D01*
X475725Y307375D01*
X475594Y307211D01*
X475479Y307096D01*
X475414Y307030D01*
X475381Y306998D01*
X474938Y306620D01*
X474479Y306292D01*
X473987Y306014D01*
X473495Y305768D01*
X472987Y305571D01*
X472495Y305407D01*
X472003Y305259D01*
X471543Y305144D01*
X471101Y305062D01*
X470691Y304997D01*
X470313Y304948D01*
X470002Y304915D01*
X469739Y304898D01*
X469641D01*
X469543Y304882D01*
X469379D01*
X468559Y304898D01*
X467739Y304964D01*
X467345Y304997D01*
X466968Y305046D01*
X466607Y305095D01*
X466279Y305144D01*
X465967Y305177D01*
X465689Y305226D01*
X465426Y305276D01*
X465229Y305308D01*
X465049Y305341D01*
X464918Y305374D01*
X464852Y305390D01*
X464819D01*
X464393Y305489D01*
X464016Y305587D01*
X463671Y305686D01*
X463360Y305768D01*
X463081Y305866D01*
X462835Y305948D01*
X462622Y306030D01*
X462441Y306112D01*
X462277Y306194D01*
X462163Y306260D01*
X462048Y306309D01*
X461966Y306358D01*
X461900Y306407D01*
X461867Y306440D01*
X461835Y306456D01*
X461687Y306620D01*
X461572Y306801D01*
X461490Y306981D01*
X461425Y307145D01*
X461392Y307293D01*
X461375Y307408D01*
Y307473D01*
Y307506D01*
X461392Y307752D01*
X461441Y307965D01*
X461523Y308162D01*
X461589Y308310D01*
X461671Y308441D01*
X461753Y308539D01*
X461802Y308605D01*
X461818Y308621D01*
X461982Y308769D01*
X462163Y308884D01*
X462343Y308949D01*
X462507Y309015D01*
X462655Y309048D01*
X462769Y309064D01*
X462966D01*
X463065Y309048D01*
X463311Y309015D01*
X463589Y308966D01*
X463852Y308916D01*
X464114Y308851D01*
X464213Y308818D01*
X464311Y308802D01*
X464393Y308785D01*
X464459Y308769D01*
X464491Y308752D01*
X464508D01*
X465033Y308621D01*
X465541Y308506D01*
X466000Y308408D01*
X466443Y308326D01*
X466869Y308260D01*
X467247Y308195D01*
X467591Y308146D01*
X467903Y308113D01*
X468198Y308080D01*
X468444Y308047D01*
X468657Y308031D01*
X468821D01*
X468969Y308014D01*
X469149D01*
X469543Y308031D01*
X469903Y308047D01*
X470248Y308080D01*
X470559Y308129D01*
X470871Y308178D01*
X471150Y308244D01*
X471396Y308310D01*
X471625Y308392D01*
X471822Y308457D01*
X472003Y308523D01*
X472150Y308588D01*
X472281Y308638D01*
X472380Y308687D01*
X472445Y308720D01*
X472495Y308752D01*
X472511D01*
X472741Y308900D01*
X472937Y309048D01*
X473134Y309212D01*
X473298Y309376D01*
X473610Y309720D01*
X473839Y310032D01*
X474020Y310310D01*
X474085Y310425D01*
X474135Y310540D01*
X474184Y310622D01*
X474217Y310688D01*
X474233Y310720D01*
Y310737D01*
X461392D01*
Y312049D01*
X461408Y312606D01*
X461474Y313115D01*
X461539Y313574D01*
X461589Y313771D01*
X461638Y313968D01*
X461687Y314132D01*
X461720Y314296D01*
X461769Y314427D01*
X461802Y314525D01*
X461835Y314624D01*
X461867Y314689D01*
X461884Y314722D01*
Y314738D01*
X462163Y315329D01*
X462474Y315870D01*
X462622Y316116D01*
X462769Y316346D01*
X462917Y316559D01*
X463065Y316756D01*
X463196Y316936D01*
X463311Y317084D01*
X463425Y317215D01*
X463524Y317330D01*
X463589Y317412D01*
X463655Y317477D01*
X463688Y317510D01*
X463704Y317526D01*
X463868Y317674D01*
X464032Y317822D01*
X464409Y318084D01*
X464803Y318330D01*
X465180Y318560D01*
X465541Y318740D01*
X465689Y318806D01*
X465820Y318871D01*
X465935Y318920D01*
X466017Y318953D01*
X466066Y318986D01*
X466082D01*
X466689Y319216D01*
X467296Y319380D01*
X467886Y319494D01*
X468165Y319544D01*
X468427Y319576D01*
X468673Y319609D01*
X468903Y319626D01*
X469100Y319642D01*
X469264D01*
X469411Y319658D01*
X469592D01*
X470182Y319642D01*
D02*
G37*
G36*
X321746Y324136D02*
X321959Y324070D01*
X322156Y324004D01*
X322320Y323906D01*
X322451Y323824D01*
X322549Y323742D01*
X322615Y323676D01*
X322631Y323660D01*
X322779Y323447D01*
X322877Y323201D01*
X322959Y322938D01*
X323009Y322676D01*
X323041Y322430D01*
X323058Y322233D01*
Y322168D01*
Y322102D01*
Y322069D01*
Y322053D01*
Y319232D01*
X324189D01*
X324583Y319216D01*
X324911Y319166D01*
X325190Y319084D01*
X325419Y319019D01*
X325583Y318937D01*
X325698Y318855D01*
X325780Y318806D01*
X325797Y318789D01*
X325961Y318609D01*
X326075Y318428D01*
X326157Y318232D01*
X326207Y318051D01*
X326239Y317904D01*
X326272Y317772D01*
Y317690D01*
Y317658D01*
X326256Y317412D01*
X326190Y317198D01*
X326125Y317002D01*
X326026Y316838D01*
X325944Y316706D01*
X325862Y316608D01*
X325813Y316542D01*
X325797Y316526D01*
X325583Y316378D01*
X325337Y316280D01*
X325075Y316198D01*
X324813Y316149D01*
X324567Y316116D01*
X324370Y316100D01*
X323058D01*
Y309212D01*
X323041Y308884D01*
X322992Y308556D01*
X322927Y308244D01*
X322828Y307965D01*
X322730Y307686D01*
X322599Y307440D01*
X322467Y307194D01*
X322336Y306981D01*
X322205Y306801D01*
X322074Y306620D01*
X321943Y306473D01*
X321844Y306358D01*
X321746Y306260D01*
X321680Y306194D01*
X321631Y306145D01*
X321615Y306128D01*
X321319Y305915D01*
X321008Y305718D01*
X320663Y305554D01*
X320319Y305407D01*
X319958Y305292D01*
X319581Y305194D01*
X319220Y305112D01*
X318876Y305046D01*
X318548Y304980D01*
X318236Y304948D01*
X317957Y304915D01*
X317711Y304898D01*
X317515D01*
X317367Y304882D01*
X317236D01*
X316645Y304915D01*
X316022Y304980D01*
X315399Y305062D01*
X315104Y305128D01*
X314809Y305177D01*
X314546Y305226D01*
X314300Y305292D01*
X314087Y305341D01*
X313890Y305374D01*
X313743Y305423D01*
X313628Y305440D01*
X313546Y305472D01*
X313529D01*
X313136Y305587D01*
X312759Y305702D01*
X312431Y305817D01*
X312135Y305932D01*
X311857Y306046D01*
X311611Y306161D01*
X311397Y306260D01*
X311217Y306358D01*
X311053Y306456D01*
X310922Y306538D01*
X310807Y306620D01*
X310709Y306686D01*
X310643Y306735D01*
X310594Y306768D01*
X310577Y306801D01*
X310561D01*
X310397Y306981D01*
X310282Y307145D01*
X310184Y307326D01*
X310135Y307490D01*
X310102Y307637D01*
X310069Y307752D01*
Y307818D01*
Y307850D01*
X310085Y308096D01*
X310135Y308310D01*
X310217Y308506D01*
X310299Y308670D01*
X310381Y308802D01*
X310463Y308900D01*
X310512Y308966D01*
X310528Y308982D01*
X310709Y309130D01*
X310889Y309244D01*
X311053Y309326D01*
X311233Y309392D01*
X311381Y309425D01*
X311496Y309441D01*
X311594D01*
X311775Y309425D01*
X311971Y309376D01*
X312168Y309310D01*
X312365Y309244D01*
X312545Y309162D01*
X312677Y309097D01*
X312775Y309048D01*
X312791Y309031D01*
X312808D01*
X313185Y308851D01*
X313579Y308703D01*
X313972Y308556D01*
X314349Y308441D01*
X314743Y308342D01*
X315104Y308260D01*
X315448Y308195D01*
X315776Y308146D01*
X316088Y308096D01*
X316367Y308064D01*
X316613Y308047D01*
X316826Y308031D01*
X317006Y308014D01*
X317531D01*
X317810Y308031D01*
X318056Y308064D01*
X318285Y308096D01*
X318499Y308129D01*
X318679Y308178D01*
X318843Y308211D01*
X318991Y308260D01*
X319122Y308310D01*
X319220Y308359D01*
X319319Y308392D01*
X319384Y308424D01*
X319450Y308457D01*
X319483Y308490D01*
X319515Y308506D01*
X319647Y308654D01*
X319745Y308851D01*
X319827Y309064D01*
X319876Y309294D01*
X319909Y309507D01*
X319925Y309671D01*
Y309736D01*
Y309786D01*
Y309818D01*
Y309835D01*
Y316100D01*
X314153D01*
X313759Y316116D01*
X313431Y316165D01*
X313152Y316231D01*
X312923Y316313D01*
X312759Y316395D01*
X312644Y316460D01*
X312562Y316510D01*
X312545Y316526D01*
X312381Y316706D01*
X312267Y316887D01*
X312168Y317084D01*
X312119Y317264D01*
X312086Y317412D01*
X312053Y317543D01*
Y317625D01*
Y317658D01*
X312070Y317904D01*
X312135Y318133D01*
X312201Y318314D01*
X312299Y318478D01*
X312381Y318609D01*
X312463Y318707D01*
X312529Y318773D01*
X312545Y318789D01*
X312759Y318937D01*
X313005Y319052D01*
X313267Y319117D01*
X313529Y319183D01*
X313775Y319216D01*
X313972Y319232D01*
X319925D01*
Y322053D01*
X319942Y322446D01*
X319991Y322774D01*
X320073Y323053D01*
X320139Y323283D01*
X320221Y323447D01*
X320303Y323562D01*
X320352Y323644D01*
X320368Y323660D01*
X320549Y323824D01*
X320729Y323939D01*
X320926Y324037D01*
X321106Y324086D01*
X321254Y324119D01*
X321385Y324152D01*
X321500D01*
X321746Y324136D01*
D02*
G37*
G36*
X301328Y319642D02*
X301885Y319576D01*
X302427Y319462D01*
X302951Y319330D01*
X303443Y319183D01*
X303903Y319002D01*
X304329Y318806D01*
X304723Y318625D01*
X305083Y318428D01*
X305411Y318232D01*
X305690Y318051D01*
X305920Y317904D01*
X306100Y317772D01*
X306231Y317658D01*
X306313Y317592D01*
X306346Y317576D01*
X306773Y317182D01*
X307150Y316756D01*
X307478Y316313D01*
X307757Y315870D01*
X307986Y315411D01*
X308183Y314968D01*
X308347Y314542D01*
X308462Y314115D01*
X308577Y313722D01*
X308642Y313361D01*
X308691Y313033D01*
X308741Y312754D01*
X308757Y312524D01*
X308773Y312360D01*
Y312295D01*
Y312246D01*
Y312229D01*
Y312213D01*
X308741Y311639D01*
X308675Y311098D01*
X308560Y310589D01*
X308429Y310097D01*
X308249Y309638D01*
X308068Y309195D01*
X307855Y308802D01*
X307642Y308441D01*
X307445Y308113D01*
X307232Y307834D01*
X307051Y307588D01*
X306871Y307375D01*
X306740Y307211D01*
X306625Y307096D01*
X306559Y307030D01*
X306527Y306998D01*
X306084Y306620D01*
X305625Y306292D01*
X305133Y306014D01*
X304641Y305768D01*
X304132Y305571D01*
X303640Y305407D01*
X303148Y305259D01*
X302689Y305144D01*
X302246Y305062D01*
X301836Y304997D01*
X301459Y304948D01*
X301147Y304915D01*
X300885Y304898D01*
X300787D01*
X300688Y304882D01*
X300524D01*
X299704Y304898D01*
X298884Y304964D01*
X298491Y304997D01*
X298113Y305046D01*
X297753Y305095D01*
X297425Y305144D01*
X297113Y305177D01*
X296834Y305226D01*
X296572Y305276D01*
X296375Y305308D01*
X296195Y305341D01*
X296063Y305374D01*
X295998Y305390D01*
X295965D01*
X295539Y305489D01*
X295161Y305587D01*
X294817Y305686D01*
X294505Y305768D01*
X294227Y305866D01*
X293981Y305948D01*
X293767Y306030D01*
X293587Y306112D01*
X293423Y306194D01*
X293308Y306260D01*
X293193Y306309D01*
X293111Y306358D01*
X293046Y306407D01*
X293013Y306440D01*
X292980Y306456D01*
X292833Y306620D01*
X292718Y306801D01*
X292636Y306981D01*
X292570Y307145D01*
X292537Y307293D01*
X292521Y307408D01*
Y307473D01*
Y307506D01*
X292537Y307752D01*
X292587Y307965D01*
X292669Y308162D01*
X292734Y308310D01*
X292816Y308441D01*
X292898Y308539D01*
X292947Y308605D01*
X292964Y308621D01*
X293128Y308769D01*
X293308Y308884D01*
X293489Y308949D01*
X293653Y309015D01*
X293800Y309048D01*
X293915Y309064D01*
X294112D01*
X294210Y309048D01*
X294456Y309015D01*
X294735Y308966D01*
X294997Y308916D01*
X295260Y308851D01*
X295358Y308818D01*
X295457Y308802D01*
X295539Y308785D01*
X295604Y308769D01*
X295637Y308752D01*
X295653D01*
X296178Y308621D01*
X296687Y308506D01*
X297146Y308408D01*
X297589Y308326D01*
X298015Y308260D01*
X298392Y308195D01*
X298737Y308146D01*
X299048Y308113D01*
X299343Y308080D01*
X299589Y308047D01*
X299803Y308031D01*
X299967D01*
X300114Y308014D01*
X300295D01*
X300688Y308031D01*
X301049Y308047D01*
X301393Y308080D01*
X301705Y308129D01*
X302017Y308178D01*
X302295Y308244D01*
X302541Y308310D01*
X302771Y308392D01*
X302968Y308457D01*
X303148Y308523D01*
X303296Y308588D01*
X303427Y308638D01*
X303525Y308687D01*
X303591Y308720D01*
X303640Y308752D01*
X303657D01*
X303886Y308900D01*
X304083Y309048D01*
X304280Y309212D01*
X304444Y309376D01*
X304755Y309720D01*
X304985Y310032D01*
X305165Y310310D01*
X305231Y310425D01*
X305280Y310540D01*
X305329Y310622D01*
X305362Y310688D01*
X305379Y310720D01*
Y310737D01*
X292537D01*
Y312049D01*
X292554Y312606D01*
X292619Y313115D01*
X292685Y313574D01*
X292734Y313771D01*
X292783Y313968D01*
X292833Y314132D01*
X292865Y314296D01*
X292915Y314427D01*
X292947Y314525D01*
X292980Y314624D01*
X293013Y314689D01*
X293029Y314722D01*
Y314738D01*
X293308Y315329D01*
X293620Y315870D01*
X293767Y316116D01*
X293915Y316346D01*
X294063Y316559D01*
X294210Y316756D01*
X294341Y316936D01*
X294456Y317084D01*
X294571Y317215D01*
X294669Y317330D01*
X294735Y317412D01*
X294801Y317477D01*
X294833Y317510D01*
X294850Y317526D01*
X295014Y317674D01*
X295178Y317822D01*
X295555Y318084D01*
X295949Y318330D01*
X296326Y318560D01*
X296687Y318740D01*
X296834Y318806D01*
X296965Y318871D01*
X297080Y318920D01*
X297162Y318953D01*
X297211Y318986D01*
X297228D01*
X297835Y319216D01*
X298441Y319380D01*
X299032Y319494D01*
X299311Y319544D01*
X299573Y319576D01*
X299819Y319609D01*
X300049Y319626D01*
X300245Y319642D01*
X300409D01*
X300557Y319658D01*
X300737D01*
X301328Y319642D01*
D02*
G37*
G36*
X265461Y324136D02*
X265674Y324070D01*
X265871Y324004D01*
X266035Y323906D01*
X266166Y323824D01*
X266265Y323742D01*
X266330Y323676D01*
X266347Y323660D01*
X266494Y323447D01*
X266593Y323201D01*
X266675Y322938D01*
X266724Y322676D01*
X266757Y322430D01*
X266773Y322233D01*
Y322168D01*
Y322102D01*
Y322069D01*
Y322053D01*
Y319232D01*
X267905D01*
X268298Y319216D01*
X268626Y319166D01*
X268905Y319084D01*
X269135Y319019D01*
X269299Y318937D01*
X269413Y318855D01*
X269495Y318806D01*
X269512Y318789D01*
X269676Y318609D01*
X269791Y318428D01*
X269873Y318232D01*
X269922Y318051D01*
X269955Y317904D01*
X269987Y317772D01*
Y317690D01*
Y317658D01*
X269971Y317412D01*
X269905Y317198D01*
X269840Y317002D01*
X269741Y316838D01*
X269659Y316706D01*
X269577Y316608D01*
X269528Y316542D01*
X269512Y316526D01*
X269299Y316378D01*
X269053Y316280D01*
X268790Y316198D01*
X268528Y316149D01*
X268282Y316116D01*
X268085Y316100D01*
X266773D01*
Y309212D01*
X266757Y308884D01*
X266707Y308556D01*
X266642Y308244D01*
X266543Y307965D01*
X266445Y307686D01*
X266314Y307440D01*
X266183Y307194D01*
X266051Y306981D01*
X265920Y306801D01*
X265789Y306620D01*
X265658Y306473D01*
X265559Y306358D01*
X265461Y306260D01*
X265395Y306194D01*
X265346Y306145D01*
X265330Y306128D01*
X265035Y305915D01*
X264723Y305718D01*
X264379Y305554D01*
X264034Y305407D01*
X263673Y305292D01*
X263296Y305194D01*
X262935Y305112D01*
X262591Y305046D01*
X262263Y304980D01*
X261951Y304948D01*
X261673Y304915D01*
X261427Y304898D01*
X261230D01*
X261082Y304882D01*
X260951D01*
X260361Y304915D01*
X259737Y304980D01*
X259114Y305062D01*
X258819Y305128D01*
X258524Y305177D01*
X258261Y305226D01*
X258015Y305292D01*
X257802Y305341D01*
X257605Y305374D01*
X257458Y305423D01*
X257343Y305440D01*
X257261Y305472D01*
X257245D01*
X256851Y305587D01*
X256474Y305702D01*
X256146Y305817D01*
X255851Y305932D01*
X255572Y306046D01*
X255326Y306161D01*
X255113Y306260D01*
X254932Y306358D01*
X254768Y306456D01*
X254637Y306538D01*
X254522Y306620D01*
X254424Y306686D01*
X254358Y306735D01*
X254309Y306768D01*
X254293Y306801D01*
X254276D01*
X254112Y306981D01*
X253997Y307145D01*
X253899Y307326D01*
X253850Y307490D01*
X253817Y307637D01*
X253784Y307752D01*
Y307818D01*
Y307850D01*
X253801Y308096D01*
X253850Y308310D01*
X253932Y308506D01*
X254014Y308670D01*
X254096Y308802D01*
X254178Y308900D01*
X254227Y308966D01*
X254243Y308982D01*
X254424Y309130D01*
X254604Y309244D01*
X254768Y309326D01*
X254949Y309392D01*
X255096Y309425D01*
X255211Y309441D01*
X255309D01*
X255490Y309425D01*
X255687Y309376D01*
X255883Y309310D01*
X256080Y309244D01*
X256261Y309162D01*
X256392Y309097D01*
X256490Y309048D01*
X256507Y309031D01*
X256523D01*
X256900Y308851D01*
X257294Y308703D01*
X257687Y308556D01*
X258065Y308441D01*
X258458Y308342D01*
X258819Y308260D01*
X259163Y308195D01*
X259491Y308146D01*
X259803Y308096D01*
X260082Y308064D01*
X260328Y308047D01*
X260541Y308031D01*
X260721Y308014D01*
X261246D01*
X261525Y308031D01*
X261771Y308064D01*
X262001Y308096D01*
X262214Y308129D01*
X262394Y308178D01*
X262558Y308211D01*
X262706Y308260D01*
X262837Y308310D01*
X262935Y308359D01*
X263034Y308392D01*
X263099Y308424D01*
X263165Y308457D01*
X263198Y308490D01*
X263231Y308506D01*
X263362Y308654D01*
X263460Y308851D01*
X263542Y309064D01*
X263591Y309294D01*
X263624Y309507D01*
X263641Y309671D01*
Y309736D01*
Y309786D01*
Y309818D01*
Y309835D01*
Y316100D01*
X257868D01*
X257474Y316116D01*
X257146Y316165D01*
X256867Y316231D01*
X256638Y316313D01*
X256474Y316395D01*
X256359Y316460D01*
X256277Y316510D01*
X256261Y316526D01*
X256097Y316706D01*
X255982Y316887D01*
X255883Y317084D01*
X255834Y317264D01*
X255801Y317412D01*
X255769Y317543D01*
Y317625D01*
Y317658D01*
X255785Y317904D01*
X255851Y318133D01*
X255916Y318314D01*
X256015Y318478D01*
X256097Y318609D01*
X256179Y318707D01*
X256244Y318773D01*
X256261Y318789D01*
X256474Y318937D01*
X256720Y319052D01*
X256982Y319117D01*
X257245Y319183D01*
X257491Y319216D01*
X257687Y319232D01*
X263641D01*
Y322053D01*
X263657Y322446D01*
X263706Y322774D01*
X263788Y323053D01*
X263854Y323283D01*
X263936Y323447D01*
X264018Y323562D01*
X264067Y323644D01*
X264083Y323660D01*
X264264Y323824D01*
X264444Y323939D01*
X264641Y324037D01*
X264821Y324086D01*
X264969Y324119D01*
X265100Y324152D01*
X265215D01*
X265461Y324136D01*
D02*
G37*
G36*
X76189Y319642D02*
X76746Y319576D01*
X77287Y319462D01*
X77812Y319330D01*
X78304Y319183D01*
X78763Y319002D01*
X79190Y318806D01*
X79583Y318625D01*
X79944Y318428D01*
X80272Y318232D01*
X80551Y318051D01*
X80781Y317904D01*
X80961Y317772D01*
X81092Y317658D01*
X81174Y317592D01*
X81207Y317576D01*
X81633Y317182D01*
X82011Y316756D01*
X82339Y316313D01*
X82617Y315870D01*
X82847Y315411D01*
X83044Y314968D01*
X83208Y314542D01*
X83323Y314115D01*
X83437Y313722D01*
X83503Y313361D01*
X83552Y313033D01*
X83601Y312754D01*
X83618Y312524D01*
X83634Y312360D01*
Y312295D01*
Y312246D01*
Y312229D01*
Y312213D01*
X83601Y311639D01*
X83536Y311098D01*
X83421Y310589D01*
X83290Y310097D01*
X83109Y309638D01*
X82929Y309195D01*
X82716Y308802D01*
X82503Y308441D01*
X82306Y308113D01*
X82093Y307834D01*
X81912Y307588D01*
X81732Y307375D01*
X81601Y307211D01*
X81486Y307096D01*
X81420Y307030D01*
X81387Y306998D01*
X80945Y306620D01*
X80485Y306292D01*
X79993Y306014D01*
X79501Y305768D01*
X78993Y305571D01*
X78501Y305407D01*
X78009Y305259D01*
X77550Y305144D01*
X77107Y305062D01*
X76697Y304997D01*
X76320Y304948D01*
X76008Y304915D01*
X75746Y304898D01*
X75647D01*
X75549Y304882D01*
X75385D01*
X74565Y304898D01*
X73745Y304964D01*
X73351Y304997D01*
X72974Y305046D01*
X72613Y305095D01*
X72285Y305144D01*
X71974Y305177D01*
X71695Y305226D01*
X71433Y305276D01*
X71236Y305308D01*
X71055Y305341D01*
X70924Y305374D01*
X70859Y305390D01*
X70826D01*
X70399Y305489D01*
X70022Y305587D01*
X69678Y305686D01*
X69366Y305768D01*
X69087Y305866D01*
X68841Y305948D01*
X68628Y306030D01*
X68448Y306112D01*
X68284Y306194D01*
X68169Y306260D01*
X68054Y306309D01*
X67972Y306358D01*
X67907Y306407D01*
X67874Y306440D01*
X67841Y306456D01*
X67693Y306620D01*
X67579Y306801D01*
X67497Y306981D01*
X67431Y307145D01*
X67398Y307293D01*
X67382Y307408D01*
Y307473D01*
Y307506D01*
X67398Y307752D01*
X67447Y307965D01*
X67529Y308162D01*
X67595Y308310D01*
X67677Y308441D01*
X67759Y308539D01*
X67808Y308605D01*
X67825Y308621D01*
X67989Y308769D01*
X68169Y308884D01*
X68349Y308949D01*
X68513Y309015D01*
X68661Y309048D01*
X68776Y309064D01*
X68973D01*
X69071Y309048D01*
X69317Y309015D01*
X69596Y308966D01*
X69858Y308916D01*
X70121Y308851D01*
X70219Y308818D01*
X70317Y308802D01*
X70399Y308785D01*
X70465Y308769D01*
X70498Y308752D01*
X70514D01*
X71039Y308621D01*
X71547Y308506D01*
X72007Y308408D01*
X72449Y308326D01*
X72876Y308260D01*
X73253Y308195D01*
X73597Y308146D01*
X73909Y308113D01*
X74204Y308080D01*
X74450Y308047D01*
X74663Y308031D01*
X74827D01*
X74975Y308014D01*
X75155D01*
X75549Y308031D01*
X75910Y308047D01*
X76254Y308080D01*
X76566Y308129D01*
X76877Y308178D01*
X77156Y308244D01*
X77402Y308310D01*
X77632Y308392D01*
X77829Y308457D01*
X78009Y308523D01*
X78157Y308588D01*
X78288Y308638D01*
X78386Y308687D01*
X78452Y308720D01*
X78501Y308752D01*
X78517D01*
X78747Y308900D01*
X78944Y309048D01*
X79141Y309212D01*
X79305Y309376D01*
X79616Y309720D01*
X79846Y310032D01*
X80026Y310310D01*
X80092Y310425D01*
X80141Y310540D01*
X80190Y310622D01*
X80223Y310688D01*
X80239Y310720D01*
Y310737D01*
X67398Y310737D01*
Y312049D01*
X67415Y312606D01*
X67480Y313115D01*
X67546Y313574D01*
X67595Y313771D01*
X67644Y313968D01*
X67693Y314132D01*
X67726Y314296D01*
X67775Y314427D01*
X67808Y314525D01*
X67841Y314624D01*
X67874Y314689D01*
X67890Y314722D01*
Y314738D01*
X68169Y315329D01*
X68481Y315870D01*
X68628Y316116D01*
X68776Y316346D01*
X68923Y316559D01*
X69071Y316756D01*
X69202Y316936D01*
X69317Y317084D01*
X69432Y317215D01*
X69530Y317330D01*
X69596Y317412D01*
X69661Y317477D01*
X69694Y317510D01*
X69711Y317526D01*
X69875Y317674D01*
X70039Y317822D01*
X70416Y318084D01*
X70809Y318330D01*
X71187Y318560D01*
X71547Y318740D01*
X71695Y318806D01*
X71826Y318871D01*
X71941Y318920D01*
X72023Y318953D01*
X72072Y318986D01*
X72089D01*
X72695Y319216D01*
X73302Y319380D01*
X73893Y319494D01*
X74171Y319544D01*
X74434Y319576D01*
X74680Y319609D01*
X74909Y319626D01*
X75106Y319642D01*
X75270D01*
X75418Y319658D01*
X75598D01*
X76189Y319642D01*
D02*
G37*
G36*
X40322Y324136D02*
X40535Y324070D01*
X40732Y324004D01*
X40896Y323906D01*
X41027Y323824D01*
X41125Y323742D01*
X41191Y323676D01*
X41207Y323660D01*
X41355Y323447D01*
X41453Y323201D01*
X41535Y322938D01*
X41585Y322676D01*
X41617Y322430D01*
X41634Y322233D01*
Y322168D01*
Y322102D01*
Y322069D01*
Y322053D01*
Y319232D01*
X42765D01*
X43159Y319216D01*
X43487Y319166D01*
X43766Y319084D01*
X43995Y319019D01*
X44159Y318937D01*
X44274Y318855D01*
X44356Y318806D01*
X44373Y318789D01*
X44537Y318609D01*
X44651Y318428D01*
X44733Y318232D01*
X44783Y318051D01*
X44815Y317904D01*
X44848Y317772D01*
Y317690D01*
Y317658D01*
X44832Y317412D01*
X44766Y317198D01*
X44701Y317002D01*
X44602Y316838D01*
X44520Y316706D01*
X44438Y316608D01*
X44389Y316542D01*
X44373Y316526D01*
X44159Y316378D01*
X43913Y316280D01*
X43651Y316198D01*
X43389Y316149D01*
X43143Y316116D01*
X42946Y316100D01*
X41634D01*
Y309212D01*
X41617Y308884D01*
X41568Y308556D01*
X41503Y308244D01*
X41404Y307965D01*
X41306Y307686D01*
X41175Y307440D01*
X41043Y307194D01*
X40912Y306981D01*
X40781Y306801D01*
X40650Y306620D01*
X40519Y306473D01*
X40420Y306358D01*
X40322Y306260D01*
X40256Y306194D01*
X40207Y306145D01*
X40191Y306128D01*
X39895Y305915D01*
X39584Y305718D01*
X39239Y305554D01*
X38895Y305407D01*
X38534Y305292D01*
X38157Y305194D01*
X37796Y305112D01*
X37452Y305046D01*
X37124Y304980D01*
X36812Y304948D01*
X36533Y304915D01*
X36287Y304898D01*
X36091D01*
X35943Y304882D01*
X35812D01*
X35221Y304915D01*
X34598Y304980D01*
X33975Y305062D01*
X33680Y305128D01*
X33385Y305177D01*
X33122Y305226D01*
X32876Y305292D01*
X32663Y305341D01*
X32466Y305374D01*
X32319Y305423D01*
X32204Y305440D01*
X32122Y305472D01*
X32105D01*
X31712Y305587D01*
X31335Y305702D01*
X31007Y305817D01*
X30711Y305932D01*
X30433Y306046D01*
X30187Y306161D01*
X29973Y306260D01*
X29793Y306358D01*
X29629Y306456D01*
X29498Y306538D01*
X29383Y306620D01*
X29285Y306686D01*
X29219Y306735D01*
X29170Y306768D01*
X29153Y306801D01*
X29137D01*
X28973Y306981D01*
X28858Y307145D01*
X28760Y307326D01*
X28711Y307490D01*
X28678Y307637D01*
X28645Y307752D01*
Y307818D01*
Y307850D01*
X28661Y308096D01*
X28711Y308310D01*
X28793Y308506D01*
X28875Y308670D01*
X28957Y308802D01*
X29039Y308900D01*
X29088Y308966D01*
X29104Y308982D01*
X29285Y309130D01*
X29465Y309244D01*
X29629Y309326D01*
X29809Y309392D01*
X29957Y309425D01*
X30072Y309441D01*
X30170D01*
X30351Y309425D01*
X30547Y309376D01*
X30744Y309310D01*
X30941Y309244D01*
X31121Y309162D01*
X31253Y309097D01*
X31351Y309048D01*
X31367Y309031D01*
X31384D01*
X31761Y308851D01*
X32155Y308703D01*
X32548Y308556D01*
X32925Y308441D01*
X33319Y308342D01*
X33680Y308260D01*
X34024Y308195D01*
X34352Y308146D01*
X34664Y308096D01*
X34943Y308064D01*
X35189Y308047D01*
X35402Y308031D01*
X35582Y308014D01*
X36107D01*
X36386Y308031D01*
X36632Y308064D01*
X36861Y308096D01*
X37075Y308129D01*
X37255Y308178D01*
X37419Y308211D01*
X37567Y308260D01*
X37698Y308310D01*
X37796Y308359D01*
X37895Y308392D01*
X37960Y308424D01*
X38026Y308457D01*
X38059Y308490D01*
X38091Y308506D01*
X38223Y308654D01*
X38321Y308851D01*
X38403Y309064D01*
X38452Y309294D01*
X38485Y309507D01*
X38501Y309671D01*
Y309736D01*
Y309786D01*
Y309818D01*
Y309835D01*
Y316100D01*
X32729D01*
X32335Y316116D01*
X32007Y316165D01*
X31728Y316231D01*
X31499Y316313D01*
X31335Y316395D01*
X31220Y316460D01*
X31138Y316510D01*
X31121Y316526D01*
X30957Y316706D01*
X30843Y316887D01*
X30744Y317084D01*
X30695Y317264D01*
X30662Y317412D01*
X30629Y317543D01*
Y317625D01*
Y317658D01*
X30646Y317904D01*
X30711Y318133D01*
X30777Y318314D01*
X30875Y318478D01*
X30957Y318609D01*
X31039Y318707D01*
X31105Y318773D01*
X31121Y318789D01*
X31335Y318937D01*
X31581Y319052D01*
X31843Y319117D01*
X32105Y319183D01*
X32351Y319216D01*
X32548Y319232D01*
X38501D01*
Y322053D01*
X38518Y322446D01*
X38567Y322774D01*
X38649Y323053D01*
X38715Y323283D01*
X38797Y323447D01*
X38879Y323562D01*
X38928Y323644D01*
X38944Y323660D01*
X39125Y323824D01*
X39305Y323939D01*
X39502Y324037D01*
X39682Y324086D01*
X39830Y324119D01*
X39961Y324152D01*
X40076D01*
X40322Y324136D01*
D02*
G37*
G36*
X586327Y319216D02*
X586671Y319166D01*
X586967Y319085D01*
X587180Y319019D01*
X587360Y318937D01*
X587475Y318855D01*
X587557Y318806D01*
X587573Y318789D01*
X587737Y318625D01*
X587852Y318428D01*
X587934Y318248D01*
X587983Y318068D01*
X588016Y317920D01*
X588049Y317789D01*
Y317707D01*
Y317674D01*
X588033Y317428D01*
X587967Y317198D01*
X587901Y317002D01*
X587803Y316838D01*
X587721Y316706D01*
X587639Y316608D01*
X587590Y316543D01*
X587573Y316526D01*
X587475Y316444D01*
X587360Y316378D01*
X587114Y316280D01*
X586835Y316198D01*
X586573Y316149D01*
X586311Y316116D01*
X586212D01*
X586114Y316100D01*
X583391D01*
Y308506D01*
X587360D01*
X587557Y308490D01*
X587901Y308441D01*
X588197Y308359D01*
X588410Y308293D01*
X588590Y308211D01*
X588705Y308129D01*
X588787Y308080D01*
X588803Y308064D01*
X588967Y307900D01*
X589082Y307703D01*
X589164Y307522D01*
X589213Y307342D01*
X589246Y307194D01*
X589279Y307063D01*
Y306981D01*
Y306948D01*
X589263Y306702D01*
X589197Y306473D01*
X589131Y306276D01*
X589033Y306112D01*
X588951Y305981D01*
X588869Y305883D01*
X588820Y305817D01*
X588803Y305801D01*
X588705Y305718D01*
X588590Y305653D01*
X588344Y305554D01*
X588065Y305472D01*
X587803Y305423D01*
X587541Y305391D01*
X587442D01*
X587344Y305374D01*
X576503D01*
X576093Y305391D01*
X575749Y305440D01*
X575470Y305505D01*
X575241Y305587D01*
X575077Y305669D01*
X574962Y305735D01*
X574880Y305784D01*
X574863Y305801D01*
X574699Y305964D01*
X574585Y306161D01*
X574486Y306342D01*
X574437Y306522D01*
X574404Y306686D01*
X574371Y306817D01*
Y306899D01*
Y306932D01*
X574388Y307178D01*
X574453Y307408D01*
X574519Y307588D01*
X574617Y307752D01*
X574699Y307883D01*
X574781Y307982D01*
X574847Y308047D01*
X574863Y308064D01*
X575077Y308211D01*
X575323Y308326D01*
X575585Y308392D01*
X575864Y308457D01*
X576110Y308490D01*
X576225D01*
X576307Y308506D01*
X580259D01*
Y319232D01*
X586130D01*
X586327Y319216D01*
D02*
G37*
G36*
X511281Y319216D02*
X511625Y319166D01*
X511920Y319084D01*
X512133Y319019D01*
X512314Y318937D01*
X512429Y318855D01*
X512511Y318806D01*
X512527Y318789D01*
X512691Y318625D01*
X512806Y318428D01*
X512888Y318248D01*
X512937Y318068D01*
X512970Y317920D01*
X513003Y317789D01*
Y317707D01*
Y317674D01*
X512986Y317428D01*
X512921Y317198D01*
X512855Y317002D01*
X512757Y316838D01*
X512675Y316706D01*
X512593Y316608D01*
X512543Y316542D01*
X512527Y316526D01*
X512429Y316444D01*
X512314Y316378D01*
X512068Y316280D01*
X511789Y316198D01*
X511527Y316149D01*
X511264Y316116D01*
X511166D01*
X511067Y316100D01*
X508345D01*
Y308506D01*
X512314D01*
X512511Y308490D01*
X512855Y308441D01*
X513150Y308359D01*
X513363Y308293D01*
X513544Y308211D01*
X513659Y308129D01*
X513741Y308080D01*
X513757Y308064D01*
X513921Y307900D01*
X514036Y307703D01*
X514118Y307522D01*
X514167Y307342D01*
X514200Y307194D01*
X514233Y307063D01*
Y306981D01*
Y306948D01*
X514216Y306702D01*
X514151Y306473D01*
X514085Y306276D01*
X513987Y306112D01*
X513905Y305981D01*
X513823Y305882D01*
X513773Y305817D01*
X513757Y305800D01*
X513659Y305718D01*
X513544Y305653D01*
X513298Y305554D01*
X513019Y305472D01*
X512757Y305423D01*
X512494Y305390D01*
X512396D01*
X512297Y305374D01*
X501457D01*
X501047Y305390D01*
X500703Y305440D01*
X500424Y305505D01*
X500194Y305587D01*
X500030Y305669D01*
X499915Y305735D01*
X499833Y305784D01*
X499817Y305800D01*
X499653Y305964D01*
X499538Y306161D01*
X499440Y306342D01*
X499391Y306522D01*
X499358Y306686D01*
X499325Y306817D01*
Y306899D01*
Y306932D01*
X499341Y307178D01*
X499407Y307408D01*
X499473Y307588D01*
X499571Y307752D01*
X499653Y307883D01*
X499735Y307982D01*
X499801Y308047D01*
X499817Y308064D01*
X500030Y308211D01*
X500276Y308326D01*
X500539Y308392D01*
X500817Y308457D01*
X501063Y308490D01*
X501178D01*
X501260Y308506D01*
X505213D01*
Y319232D01*
X511084D01*
X511281Y319216D01*
D02*
G37*
G36*
X361188Y319216D02*
X361532Y319166D01*
X361827Y319084D01*
X362041Y319019D01*
X362221Y318937D01*
X362336Y318855D01*
X362418Y318806D01*
X362434Y318789D01*
X362598Y318625D01*
X362713Y318428D01*
X362795Y318248D01*
X362844Y318068D01*
X362877Y317920D01*
X362910Y317789D01*
Y317707D01*
Y317674D01*
X362893Y317428D01*
X362828Y317198D01*
X362762Y317002D01*
X362664Y316838D01*
X362582Y316706D01*
X362500Y316608D01*
X362451Y316542D01*
X362434Y316526D01*
X362336Y316444D01*
X362221Y316378D01*
X361975Y316280D01*
X361696Y316198D01*
X361434Y316149D01*
X361171Y316116D01*
X361073D01*
X360975Y316100D01*
X358252D01*
Y308506D01*
X362221D01*
X362418Y308490D01*
X362762Y308441D01*
X363057Y308359D01*
X363271Y308293D01*
X363451Y308211D01*
X363566Y308129D01*
X363648Y308080D01*
X363664Y308064D01*
X363828Y307900D01*
X363943Y307703D01*
X364025Y307522D01*
X364074Y307342D01*
X364107Y307194D01*
X364140Y307063D01*
Y306981D01*
Y306948D01*
X364123Y306702D01*
X364058Y306473D01*
X363992Y306276D01*
X363894Y306112D01*
X363812Y305981D01*
X363730Y305882D01*
X363681Y305817D01*
X363664Y305800D01*
X363566Y305718D01*
X363451Y305653D01*
X363205Y305554D01*
X362926Y305472D01*
X362664Y305423D01*
X362401Y305390D01*
X362303D01*
X362205Y305374D01*
X351364D01*
X350954Y305390D01*
X350610Y305440D01*
X350331Y305505D01*
X350101Y305587D01*
X349937Y305669D01*
X349823Y305735D01*
X349741Y305784D01*
X349724Y305800D01*
X349560Y305964D01*
X349445Y306161D01*
X349347Y306342D01*
X349298Y306522D01*
X349265Y306686D01*
X349232Y306817D01*
Y306899D01*
Y306932D01*
X349249Y307178D01*
X349314Y307408D01*
X349380Y307588D01*
X349478Y307752D01*
X349560Y307883D01*
X349642Y307982D01*
X349708Y308047D01*
X349724Y308064D01*
X349937Y308211D01*
X350183Y308326D01*
X350446Y308392D01*
X350725Y308457D01*
X350971Y308490D01*
X351085D01*
X351167Y308506D01*
X355120D01*
Y319232D01*
X360991D01*
X361188Y319216D01*
D02*
G37*
G36*
X337408Y319642D02*
X337834Y319593D01*
X338211Y319544D01*
X338539Y319478D01*
X338687Y319429D01*
X338818Y319396D01*
X338933Y319363D01*
X339031Y319347D01*
X339113Y319314D01*
X339163Y319298D01*
X339195Y319281D01*
X339212D01*
X339589Y319134D01*
X339933Y318953D01*
X340245Y318773D01*
X340524Y318609D01*
X340753Y318445D01*
X340934Y318314D01*
X340999Y318264D01*
X341049Y318232D01*
X341065Y318215D01*
X341081Y318199D01*
Y319232D01*
X344427D01*
X344624Y319216D01*
X344968Y319166D01*
X345263Y319084D01*
X345477Y319019D01*
X345657Y318937D01*
X345772Y318855D01*
X345854Y318806D01*
X345870Y318789D01*
X346034Y318625D01*
X346149Y318428D01*
X346231Y318248D01*
X346280Y318068D01*
X346313Y317920D01*
X346346Y317789D01*
Y317707D01*
Y317674D01*
X346329Y317428D01*
X346264Y317198D01*
X346198Y317002D01*
X346100Y316838D01*
X346018Y316706D01*
X345936Y316608D01*
X345887Y316542D01*
X345870Y316526D01*
X345772Y316444D01*
X345657Y316378D01*
X345411Y316280D01*
X345132Y316198D01*
X344870Y316149D01*
X344607Y316116D01*
X344509D01*
X344411Y316100D01*
X344214D01*
Y308506D01*
X344427D01*
X344624Y308490D01*
X344788Y308474D01*
X344952Y308457D01*
X345083Y308441D01*
X345198Y308408D01*
X345395Y308359D01*
X345542Y308310D01*
X345641Y308260D01*
X345690Y308228D01*
X345706Y308211D01*
X345919Y307998D01*
X346083Y307768D01*
X346182Y307555D01*
X346264Y307358D01*
X346313Y307194D01*
X346329Y307063D01*
X346346Y306981D01*
Y306948D01*
X346329Y306702D01*
X346264Y306473D01*
X346198Y306276D01*
X346100Y306112D01*
X346018Y305981D01*
X345936Y305882D01*
X345887Y305817D01*
X345870Y305800D01*
X345772Y305718D01*
X345657Y305653D01*
X345411Y305554D01*
X345132Y305472D01*
X344870Y305423D01*
X344607Y305390D01*
X344509D01*
X344411Y305374D01*
X341081D01*
X340671Y305390D01*
X340327Y305440D01*
X340048Y305505D01*
X339819Y305587D01*
X339655Y305669D01*
X339540Y305735D01*
X339458Y305784D01*
X339441Y305800D01*
X339277Y305964D01*
X339163Y306161D01*
X339064Y306342D01*
X339015Y306522D01*
X338982Y306686D01*
X338949Y306817D01*
Y306899D01*
Y306932D01*
X338982Y307178D01*
X339048Y307424D01*
X339163Y307637D01*
X339277Y307834D01*
X339392Y307982D01*
X339507Y308113D01*
X339573Y308178D01*
X339605Y308211D01*
X339671Y308260D01*
X339753Y308310D01*
X339966Y308375D01*
X340212Y308441D01*
X340458Y308474D01*
X340704Y308490D01*
X340901Y308506D01*
X341081D01*
Y314328D01*
X340852Y314574D01*
X340639Y314788D01*
X340425Y314984D01*
X340229Y315181D01*
X340048Y315329D01*
X339884Y315476D01*
X339737Y315608D01*
X339589Y315722D01*
X339343Y315886D01*
X339261Y315952D01*
X339179Y316018D01*
X339113Y316050D01*
X339064Y316083D01*
X339048Y316100D01*
X339031D01*
X338720Y316247D01*
X338392Y316346D01*
X338064Y316428D01*
X337769Y316477D01*
X337506Y316510D01*
X337408D01*
X337309Y316526D01*
X336867D01*
X336621Y316493D01*
X336407Y316477D01*
X336194Y316428D01*
X335997Y316378D01*
X335817Y316329D01*
X335669Y316280D01*
X335522Y316214D01*
X335391Y316149D01*
X335276Y316100D01*
X335194Y316050D01*
X335112Y316001D01*
X335063Y315968D01*
X335013Y315936D01*
X334981Y315903D01*
X334800Y315706D01*
X334653Y315476D01*
X334554Y315214D01*
X334489Y314984D01*
X334456Y314755D01*
X334423Y314574D01*
Y314509D01*
Y314460D01*
Y314427D01*
Y314410D01*
Y308506D01*
X334636D01*
X334833Y308490D01*
X335177Y308441D01*
X335473Y308359D01*
X335686Y308293D01*
X335866Y308211D01*
X335981Y308129D01*
X336063Y308080D01*
X336079Y308064D01*
X336243Y307900D01*
X336358Y307703D01*
X336440Y307522D01*
X336489Y307342D01*
X336522Y307194D01*
X336555Y307063D01*
Y306981D01*
Y306948D01*
X336539Y306702D01*
X336473Y306473D01*
X336407Y306276D01*
X336309Y306112D01*
X336227Y305981D01*
X336145Y305882D01*
X336096Y305817D01*
X336079Y305800D01*
X335981Y305718D01*
X335866Y305653D01*
X335620Y305554D01*
X335341Y305472D01*
X335079Y305423D01*
X334817Y305390D01*
X334718D01*
X334620Y305374D01*
X331291D01*
X330881Y305390D01*
X330536Y305440D01*
X330257Y305505D01*
X330028Y305587D01*
X329864Y305669D01*
X329749Y305735D01*
X329667Y305784D01*
X329651Y305800D01*
X329487Y305964D01*
X329372Y306161D01*
X329273Y306342D01*
X329224Y306522D01*
X329191Y306686D01*
X329159Y306817D01*
Y306899D01*
Y306932D01*
X329175Y307178D01*
X329241Y307408D01*
X329306Y307588D01*
X329405Y307752D01*
X329487Y307883D01*
X329569Y307982D01*
X329634Y308047D01*
X329651Y308064D01*
X329864Y308211D01*
X330110Y308326D01*
X330372Y308392D01*
X330651Y308457D01*
X330897Y308490D01*
X331012D01*
X331094Y308506D01*
X331291D01*
Y314312D01*
X331307Y314722D01*
X331340Y315116D01*
X331405Y315476D01*
X331487Y315821D01*
X331586Y316132D01*
X331701Y316428D01*
X331815Y316706D01*
X331930Y316952D01*
X332061Y317166D01*
X332176Y317362D01*
X332291Y317526D01*
X332389Y317674D01*
X332471Y317772D01*
X332537Y317854D01*
X332570Y317904D01*
X332586Y317920D01*
X332898Y318232D01*
X333242Y318494D01*
X333587Y318724D01*
X333947Y318920D01*
X334308Y319101D01*
X334685Y319232D01*
X335030Y319347D01*
X335374Y319445D01*
X335702Y319511D01*
X335997Y319560D01*
X336276Y319609D01*
X336506Y319626D01*
X336703Y319642D01*
X336850Y319658D01*
X336965D01*
X337408Y319642D01*
D02*
G37*
G36*
X281123Y319642D02*
X281549Y319593D01*
X281927Y319544D01*
X282255Y319478D01*
X282402Y319429D01*
X282533Y319396D01*
X282648Y319363D01*
X282747Y319347D01*
X282829Y319314D01*
X282878Y319298D01*
X282911Y319281D01*
X282927D01*
X283304Y319134D01*
X283649Y318953D01*
X283960Y318773D01*
X284239Y318609D01*
X284469Y318445D01*
X284649Y318314D01*
X284715Y318264D01*
X284764Y318232D01*
X284780Y318215D01*
X284797Y318199D01*
Y319232D01*
X288142D01*
X288339Y319216D01*
X288683Y319166D01*
X288979Y319084D01*
X289192Y319019D01*
X289372Y318937D01*
X289487Y318855D01*
X289569Y318806D01*
X289585Y318789D01*
X289749Y318625D01*
X289864Y318428D01*
X289946Y318248D01*
X289995Y318068D01*
X290028Y317920D01*
X290061Y317789D01*
Y317707D01*
Y317674D01*
X290045Y317428D01*
X289979Y317198D01*
X289913Y317002D01*
X289815Y316838D01*
X289733Y316706D01*
X289651Y316608D01*
X289602Y316542D01*
X289585Y316526D01*
X289487Y316444D01*
X289372Y316378D01*
X289126Y316280D01*
X288847Y316198D01*
X288585Y316149D01*
X288323Y316116D01*
X288224D01*
X288126Y316100D01*
X287929D01*
Y308506D01*
X288142D01*
X288339Y308490D01*
X288503Y308474D01*
X288667Y308457D01*
X288798Y308441D01*
X288913Y308408D01*
X289110Y308359D01*
X289257Y308310D01*
X289356Y308260D01*
X289405Y308228D01*
X289421Y308211D01*
X289635Y307998D01*
X289799Y307768D01*
X289897Y307555D01*
X289979Y307358D01*
X290028Y307194D01*
X290045Y307063D01*
X290061Y306981D01*
Y306948D01*
X290045Y306702D01*
X289979Y306473D01*
X289913Y306276D01*
X289815Y306112D01*
X289733Y305981D01*
X289651Y305882D01*
X289602Y305817D01*
X289585Y305800D01*
X289487Y305718D01*
X289372Y305653D01*
X289126Y305554D01*
X288847Y305472D01*
X288585Y305423D01*
X288323Y305390D01*
X288224D01*
X288126Y305374D01*
X284797D01*
X284387Y305390D01*
X284042Y305440D01*
X283763Y305505D01*
X283534Y305587D01*
X283370Y305669D01*
X283255Y305735D01*
X283173Y305784D01*
X283157Y305800D01*
X282993Y305964D01*
X282878Y306161D01*
X282779Y306342D01*
X282730Y306522D01*
X282697Y306686D01*
X282665Y306817D01*
Y306899D01*
Y306932D01*
X282697Y307178D01*
X282763Y307424D01*
X282878Y307637D01*
X282993Y307834D01*
X283107Y307982D01*
X283222Y308113D01*
X283288Y308178D01*
X283321Y308211D01*
X283386Y308260D01*
X283468Y308310D01*
X283681Y308375D01*
X283927Y308441D01*
X284173Y308474D01*
X284419Y308490D01*
X284616Y308506D01*
X284797D01*
Y314328D01*
X284567Y314574D01*
X284354Y314788D01*
X284141Y314984D01*
X283944Y315181D01*
X283763Y315329D01*
X283599Y315476D01*
X283452Y315608D01*
X283304Y315722D01*
X283058Y315886D01*
X282976Y315952D01*
X282894Y316018D01*
X282829Y316050D01*
X282779Y316083D01*
X282763Y316100D01*
X282747D01*
X282435Y316247D01*
X282107Y316346D01*
X281779Y316428D01*
X281484Y316477D01*
X281221Y316510D01*
X281123D01*
X281025Y316526D01*
X280582D01*
X280336Y316493D01*
X280123Y316477D01*
X279909Y316428D01*
X279713Y316378D01*
X279532Y316329D01*
X279385Y316280D01*
X279237Y316214D01*
X279106Y316149D01*
X278991Y316100D01*
X278909Y316050D01*
X278827Y316001D01*
X278778Y315968D01*
X278729Y315936D01*
X278696Y315903D01*
X278515Y315706D01*
X278368Y315476D01*
X278269Y315214D01*
X278204Y314984D01*
X278171Y314755D01*
X278138Y314574D01*
Y314509D01*
Y314460D01*
Y314427D01*
Y314410D01*
Y308506D01*
X278351D01*
X278548Y308490D01*
X278893Y308441D01*
X279188Y308359D01*
X279401Y308293D01*
X279581Y308211D01*
X279696Y308129D01*
X279778Y308080D01*
X279795Y308064D01*
X279959Y307900D01*
X280073Y307703D01*
X280155Y307522D01*
X280205Y307342D01*
X280237Y307194D01*
X280270Y307063D01*
Y306981D01*
Y306948D01*
X280254Y306702D01*
X280188Y306473D01*
X280123Y306276D01*
X280024Y306112D01*
X279942Y305981D01*
X279860Y305882D01*
X279811Y305817D01*
X279795Y305800D01*
X279696Y305718D01*
X279581Y305653D01*
X279335Y305554D01*
X279057Y305472D01*
X278794Y305423D01*
X278532Y305390D01*
X278433D01*
X278335Y305374D01*
X275006D01*
X274596Y305390D01*
X274251Y305440D01*
X273973Y305505D01*
X273743Y305587D01*
X273579Y305669D01*
X273464Y305735D01*
X273382Y305784D01*
X273366Y305800D01*
X273202Y305964D01*
X273087Y306161D01*
X272989Y306342D01*
X272939Y306522D01*
X272907Y306686D01*
X272874Y306817D01*
Y306899D01*
Y306932D01*
X272890Y307178D01*
X272956Y307408D01*
X273021Y307588D01*
X273120Y307752D01*
X273202Y307883D01*
X273284Y307982D01*
X273349Y308047D01*
X273366Y308064D01*
X273579Y308211D01*
X273825Y308326D01*
X274087Y308392D01*
X274366Y308457D01*
X274612Y308490D01*
X274727D01*
X274809Y308506D01*
X275006D01*
Y314312D01*
X275022Y314722D01*
X275055Y315116D01*
X275121Y315476D01*
X275203Y315821D01*
X275301Y316132D01*
X275416Y316428D01*
X275531Y316706D01*
X275645Y316952D01*
X275777Y317166D01*
X275891Y317362D01*
X276006Y317526D01*
X276105Y317674D01*
X276187Y317772D01*
X276252Y317854D01*
X276285Y317904D01*
X276301Y317920D01*
X276613Y318232D01*
X276957Y318494D01*
X277302Y318724D01*
X277663Y318920D01*
X278023Y319101D01*
X278401Y319232D01*
X278745Y319347D01*
X279089Y319445D01*
X279417Y319511D01*
X279713Y319560D01*
X279991Y319609D01*
X280221Y319626D01*
X280418Y319642D01*
X280565Y319658D01*
X280680D01*
X281123Y319642D01*
D02*
G37*
G36*
X248618Y319216D02*
X248963Y319166D01*
X249258Y319084D01*
X249471Y319019D01*
X249651Y318937D01*
X249766Y318855D01*
X249848Y318806D01*
X249865Y318789D01*
X250029Y318625D01*
X250143Y318428D01*
X250225Y318248D01*
X250275Y318068D01*
X250307Y317920D01*
X250340Y317789D01*
Y317707D01*
Y317674D01*
X250324Y317428D01*
X250258Y317198D01*
X250193Y317002D01*
X250094Y316838D01*
X250012Y316706D01*
X249930Y316608D01*
X249881Y316542D01*
X249865Y316526D01*
X249766Y316444D01*
X249651Y316378D01*
X249405Y316280D01*
X249127Y316198D01*
X248864Y316149D01*
X248602Y316116D01*
X248503D01*
X248405Y316100D01*
X245683Y316100D01*
Y308506D01*
X249651Y308506D01*
X249848Y308490D01*
X250193Y308441D01*
X250488Y308359D01*
X250701Y308293D01*
X250881Y308211D01*
X250996Y308129D01*
X251078Y308080D01*
X251095Y308064D01*
X251259Y307900D01*
X251373Y307703D01*
X251455Y307522D01*
X251505Y307342D01*
X251537Y307194D01*
X251570Y307063D01*
Y306981D01*
Y306948D01*
X251554Y306702D01*
X251488Y306473D01*
X251423Y306276D01*
X251324Y306112D01*
X251242Y305981D01*
X251160Y305882D01*
X251111Y305817D01*
X251095Y305800D01*
X250996Y305718D01*
X250881Y305653D01*
X250635Y305554D01*
X250357Y305472D01*
X250094Y305423D01*
X249832Y305390D01*
X249733D01*
X249635Y305374D01*
X238795Y305374D01*
X238385Y305390D01*
X238040Y305440D01*
X237761Y305505D01*
X237532Y305587D01*
X237368Y305669D01*
X237253Y305735D01*
X237171Y305784D01*
X237155Y305800D01*
X236991Y305964D01*
X236876Y306161D01*
X236777Y306342D01*
X236728Y306522D01*
X236695Y306686D01*
X236663Y306817D01*
Y306899D01*
Y306932D01*
X236679Y307178D01*
X236745Y307408D01*
X236810Y307588D01*
X236909Y307752D01*
X236991Y307883D01*
X237073Y307982D01*
X237138Y308047D01*
X237155Y308064D01*
X237368Y308211D01*
X237614Y308326D01*
X237876Y308392D01*
X238155Y308457D01*
X238401Y308490D01*
X238516D01*
X238598Y308506D01*
X242550D01*
Y319232D01*
X248421Y319232D01*
X248618Y319216D01*
D02*
G37*
G36*
X206077Y319642D02*
X206503Y319593D01*
X206880Y319544D01*
X207208Y319478D01*
X207356Y319429D01*
X207487Y319396D01*
X207602Y319363D01*
X207700Y319347D01*
X207782Y319314D01*
X207831Y319298D01*
X207864Y319281D01*
X207881D01*
X208258Y319134D01*
X208602Y318953D01*
X208914Y318773D01*
X209193Y318609D01*
X209422Y318445D01*
X209603Y318314D01*
X209668Y318264D01*
X209717Y318232D01*
X209734Y318215D01*
X209750Y318199D01*
Y319232D01*
X213096D01*
X213293Y319216D01*
X213637Y319166D01*
X213932Y319084D01*
X214145Y319019D01*
X214326Y318937D01*
X214441Y318855D01*
X214523Y318806D01*
X214539Y318789D01*
X214703Y318625D01*
X214818Y318428D01*
X214900Y318248D01*
X214949Y318068D01*
X214982Y317920D01*
X215015Y317789D01*
Y317707D01*
Y317674D01*
X214998Y317428D01*
X214933Y317198D01*
X214867Y317002D01*
X214769Y316838D01*
X214687Y316706D01*
X214605Y316608D01*
X214555Y316542D01*
X214539Y316526D01*
X214441Y316444D01*
X214326Y316378D01*
X214080Y316280D01*
X213801Y316198D01*
X213539Y316149D01*
X213276Y316116D01*
X213178D01*
X213079Y316100D01*
X212883D01*
Y308506D01*
X213096D01*
X213293Y308490D01*
X213457Y308474D01*
X213621Y308457D01*
X213752Y308441D01*
X213867Y308408D01*
X214063Y308359D01*
X214211Y308310D01*
X214309Y308260D01*
X214359Y308228D01*
X214375Y308211D01*
X214588Y307998D01*
X214752Y307768D01*
X214851Y307555D01*
X214933Y307358D01*
X214982Y307194D01*
X214998Y307063D01*
X215015Y306981D01*
Y306948D01*
X214998Y306702D01*
X214933Y306473D01*
X214867Y306276D01*
X214769Y306112D01*
X214687Y305981D01*
X214605Y305882D01*
X214555Y305817D01*
X214539Y305800D01*
X214441Y305718D01*
X214326Y305653D01*
X214080Y305554D01*
X213801Y305472D01*
X213539Y305423D01*
X213276Y305390D01*
X213178D01*
X213079Y305374D01*
X209750D01*
X209340Y305390D01*
X208996Y305440D01*
X208717Y305505D01*
X208487Y305587D01*
X208323Y305669D01*
X208209Y305735D01*
X208127Y305784D01*
X208110Y305800D01*
X207946Y305964D01*
X207831Y306161D01*
X207733Y306342D01*
X207684Y306522D01*
X207651Y306686D01*
X207618Y306817D01*
Y306899D01*
Y306932D01*
X207651Y307178D01*
X207717Y307424D01*
X207831Y307637D01*
X207946Y307834D01*
X208061Y307982D01*
X208176Y308113D01*
X208241Y308178D01*
X208274Y308211D01*
X208340Y308260D01*
X208422Y308310D01*
X208635Y308375D01*
X208881Y308441D01*
X209127Y308474D01*
X209373Y308490D01*
X209570Y308506D01*
X209750D01*
Y314328D01*
X209521Y314574D01*
X209307Y314788D01*
X209094Y314984D01*
X208897Y315181D01*
X208717Y315329D01*
X208553Y315476D01*
X208405Y315608D01*
X208258Y315722D01*
X208012Y315886D01*
X207930Y315952D01*
X207848Y316018D01*
X207782Y316050D01*
X207733Y316083D01*
X207717Y316100D01*
X207700D01*
X207389Y316247D01*
X207061Y316346D01*
X206733Y316428D01*
X206437Y316477D01*
X206175Y316510D01*
X206077D01*
X205978Y316526D01*
X205535D01*
X205289Y316493D01*
X205076Y316477D01*
X204863Y316428D01*
X204666Y316378D01*
X204486Y316329D01*
X204338Y316280D01*
X204191Y316214D01*
X204059Y316149D01*
X203945Y316100D01*
X203863Y316050D01*
X203781Y316001D01*
X203731Y315968D01*
X203682Y315936D01*
X203649Y315903D01*
X203469Y315706D01*
X203321Y315476D01*
X203223Y315214D01*
X203157Y314984D01*
X203125Y314755D01*
X203092Y314574D01*
Y314509D01*
Y314460D01*
Y314427D01*
Y314410D01*
Y308506D01*
X203305D01*
X203502Y308490D01*
X203846Y308441D01*
X204141Y308359D01*
X204355Y308293D01*
X204535Y308211D01*
X204650Y308129D01*
X204732Y308080D01*
X204748Y308064D01*
X204912Y307900D01*
X205027Y307703D01*
X205109Y307522D01*
X205158Y307342D01*
X205191Y307194D01*
X205224Y307063D01*
Y306981D01*
Y306948D01*
X205207Y306702D01*
X205142Y306473D01*
X205076Y306276D01*
X204978Y306112D01*
X204896Y305981D01*
X204814Y305882D01*
X204765Y305817D01*
X204748Y305800D01*
X204650Y305718D01*
X204535Y305653D01*
X204289Y305554D01*
X204010Y305472D01*
X203748Y305423D01*
X203485Y305390D01*
X203387D01*
X203289Y305374D01*
X199959D01*
X199549Y305390D01*
X199205Y305440D01*
X198926Y305505D01*
X198697Y305587D01*
X198533Y305669D01*
X198418Y305735D01*
X198336Y305784D01*
X198319Y305800D01*
X198155Y305964D01*
X198041Y306161D01*
X197942Y306342D01*
X197893Y306522D01*
X197860Y306686D01*
X197827Y306817D01*
Y306899D01*
Y306932D01*
X197844Y307178D01*
X197909Y307408D01*
X197975Y307588D01*
X198073Y307752D01*
X198155Y307883D01*
X198237Y307982D01*
X198303Y308047D01*
X198319Y308064D01*
X198533Y308211D01*
X198779Y308326D01*
X199041Y308392D01*
X199320Y308457D01*
X199566Y308490D01*
X199681D01*
X199763Y308506D01*
X199959D01*
Y314312D01*
X199976Y314722D01*
X200009Y315116D01*
X200074Y315476D01*
X200156Y315821D01*
X200255Y316132D01*
X200369Y316428D01*
X200484Y316706D01*
X200599Y316952D01*
X200730Y317166D01*
X200845Y317362D01*
X200960Y317526D01*
X201058Y317674D01*
X201140Y317772D01*
X201206Y317854D01*
X201239Y317904D01*
X201255Y317920D01*
X201567Y318232D01*
X201911Y318494D01*
X202255Y318724D01*
X202616Y318920D01*
X202977Y319101D01*
X203354Y319232D01*
X203699Y319347D01*
X204043Y319445D01*
X204371Y319511D01*
X204666Y319560D01*
X204945Y319609D01*
X205175Y319626D01*
X205371Y319642D01*
X205519Y319658D01*
X205634D01*
X206077Y319642D01*
D02*
G37*
G36*
X173572Y325169D02*
X173916Y325120D01*
X174211Y325038D01*
X174425Y324972D01*
X174605Y324890D01*
X174720Y324808D01*
X174802Y324759D01*
X174818Y324742D01*
X174982Y324578D01*
X175097Y324382D01*
X175179Y324201D01*
X175228Y324021D01*
X175261Y323873D01*
X175294Y323742D01*
Y323660D01*
Y323627D01*
X175277Y323381D01*
X175212Y323152D01*
X175146Y322955D01*
X175048Y322791D01*
X174966Y322660D01*
X174884Y322561D01*
X174835Y322496D01*
X174818Y322479D01*
X174720Y322397D01*
X174605Y322332D01*
X174359Y322233D01*
X174080Y322151D01*
X173818Y322102D01*
X173555Y322069D01*
X173457D01*
X173359Y322053D01*
X170636D01*
Y308506D01*
X174605D01*
X174802Y308490D01*
X175146Y308441D01*
X175441Y308359D01*
X175655Y308293D01*
X175835Y308211D01*
X175950Y308129D01*
X176032Y308080D01*
X176048Y308064D01*
X176212Y307900D01*
X176327Y307703D01*
X176409Y307522D01*
X176458Y307342D01*
X176491Y307194D01*
X176524Y307063D01*
Y306981D01*
Y306948D01*
X176507Y306702D01*
X176442Y306473D01*
X176376Y306276D01*
X176278Y306112D01*
X176196Y305981D01*
X176114Y305882D01*
X176065Y305817D01*
X176048Y305800D01*
X175950Y305718D01*
X175835Y305653D01*
X175589Y305554D01*
X175310Y305472D01*
X175048Y305423D01*
X174785Y305390D01*
X174687D01*
X174589Y305374D01*
X163748D01*
X163338Y305390D01*
X162994Y305440D01*
X162715Y305505D01*
X162485Y305587D01*
X162321Y305669D01*
X162207Y305735D01*
X162125Y305784D01*
X162108Y305800D01*
X161944Y305964D01*
X161829Y306161D01*
X161731Y306342D01*
X161682Y306522D01*
X161649Y306686D01*
X161616Y306817D01*
Y306899D01*
Y306932D01*
X161633Y307178D01*
X161698Y307408D01*
X161764Y307588D01*
X161862Y307752D01*
X161944Y307883D01*
X162026Y307982D01*
X162092Y308047D01*
X162108Y308064D01*
X162321Y308211D01*
X162567Y308326D01*
X162830Y308392D01*
X163109Y308457D01*
X163355Y308490D01*
X163469D01*
X163551Y308506D01*
X167504D01*
Y325185D01*
X173375D01*
X173572Y325169D01*
D02*
G37*
G36*
X154810D02*
X155155Y325120D01*
X155450Y325038D01*
X155663Y324972D01*
X155843Y324890D01*
X155958Y324808D01*
X156040Y324759D01*
X156057Y324742D01*
X156221Y324578D01*
X156335Y324382D01*
X156417Y324201D01*
X156467Y324021D01*
X156499Y323873D01*
X156532Y323742D01*
Y323660D01*
Y323627D01*
X156516Y323381D01*
X156450Y323152D01*
X156385Y322955D01*
X156286Y322791D01*
X156204Y322660D01*
X156122Y322561D01*
X156073Y322496D01*
X156057Y322479D01*
X155958Y322397D01*
X155843Y322332D01*
X155597Y322233D01*
X155319Y322151D01*
X155056Y322102D01*
X154794Y322069D01*
X154695D01*
X154597Y322053D01*
X151875D01*
Y308506D01*
X155843D01*
X156040Y308490D01*
X156385Y308441D01*
X156680Y308359D01*
X156893Y308293D01*
X157073Y308211D01*
X157188Y308129D01*
X157270Y308080D01*
X157287Y308064D01*
X157451Y307900D01*
X157565Y307703D01*
X157647Y307522D01*
X157697Y307342D01*
X157729Y307194D01*
X157762Y307063D01*
Y306981D01*
Y306948D01*
X157746Y306702D01*
X157680Y306473D01*
X157615Y306276D01*
X157516Y306112D01*
X157434Y305981D01*
X157352Y305882D01*
X157303Y305817D01*
X157287Y305800D01*
X157188Y305718D01*
X157073Y305653D01*
X156827Y305554D01*
X156549Y305472D01*
X156286Y305423D01*
X156024Y305390D01*
X155925D01*
X155827Y305374D01*
X144987D01*
X144577Y305390D01*
X144232Y305440D01*
X143953Y305505D01*
X143724Y305587D01*
X143560Y305669D01*
X143445Y305735D01*
X143363Y305784D01*
X143347Y305800D01*
X143183Y305964D01*
X143068Y306161D01*
X142969Y306342D01*
X142920Y306522D01*
X142887Y306686D01*
X142855Y306817D01*
Y306899D01*
Y306932D01*
X142871Y307178D01*
X142937Y307408D01*
X143002Y307588D01*
X143101Y307752D01*
X143183Y307883D01*
X143265Y307982D01*
X143330Y308047D01*
X143347Y308064D01*
X143560Y308211D01*
X143806Y308326D01*
X144068Y308392D01*
X144347Y308457D01*
X144593Y308490D01*
X144708D01*
X144790Y308506D01*
X148742D01*
Y325185D01*
X154613D01*
X154810Y325169D01*
D02*
G37*
G36*
X98525Y325169D02*
X98870Y325120D01*
X99165Y325038D01*
X99378Y324972D01*
X99559Y324890D01*
X99673Y324808D01*
X99755Y324759D01*
X99772Y324742D01*
X99936Y324578D01*
X100051Y324382D01*
X100133Y324201D01*
X100182Y324021D01*
X100215Y323873D01*
X100247Y323742D01*
Y323660D01*
Y323627D01*
X100231Y323381D01*
X100165Y323152D01*
X100100Y322955D01*
X100001Y322791D01*
X99919Y322660D01*
X99837Y322561D01*
X99788Y322496D01*
X99772Y322479D01*
X99673Y322397D01*
X99559Y322332D01*
X99313Y322233D01*
X99034Y322151D01*
X98771Y322102D01*
X98509Y322069D01*
X98411D01*
X98312Y322053D01*
X95590D01*
Y308506D01*
X99559D01*
X99755Y308490D01*
X100100Y308441D01*
X100395Y308359D01*
X100608Y308293D01*
X100789Y308211D01*
X100903Y308129D01*
X100985Y308080D01*
X101002Y308064D01*
X101166Y307900D01*
X101281Y307703D01*
X101363Y307522D01*
X101412Y307342D01*
X101445Y307194D01*
X101477Y307063D01*
Y306981D01*
Y306948D01*
X101461Y306702D01*
X101395Y306473D01*
X101330Y306276D01*
X101231Y306112D01*
X101149Y305981D01*
X101067Y305882D01*
X101018Y305817D01*
X101002Y305800D01*
X100903Y305718D01*
X100789Y305653D01*
X100543Y305554D01*
X100264Y305472D01*
X100001Y305423D01*
X99739Y305390D01*
X99641D01*
X99542Y305374D01*
X88702D01*
X88292Y305390D01*
X87947Y305440D01*
X87669Y305505D01*
X87439Y305587D01*
X87275Y305669D01*
X87160Y305735D01*
X87078Y305784D01*
X87062Y305800D01*
X86898Y305964D01*
X86783Y306161D01*
X86685Y306342D01*
X86635Y306522D01*
X86603Y306686D01*
X86570Y306817D01*
Y306899D01*
Y306932D01*
X86586Y307178D01*
X86652Y307408D01*
X86717Y307588D01*
X86816Y307752D01*
X86898Y307883D01*
X86980Y307982D01*
X87045Y308047D01*
X87062Y308064D01*
X87275Y308211D01*
X87521Y308326D01*
X87783Y308392D01*
X88062Y308457D01*
X88308Y308490D01*
X88423D01*
X88505Y308506D01*
X92457D01*
Y325185D01*
X98329D01*
X98525Y325169D01*
D02*
G37*
G36*
X54196Y325169D02*
X54688Y325120D01*
X55164Y325054D01*
X55590Y324972D01*
X55984Y324874D01*
X56345Y324759D01*
X56689Y324628D01*
X56984Y324513D01*
X57247Y324382D01*
X57476Y324250D01*
X57673Y324136D01*
X57837Y324037D01*
X57952Y323955D01*
X58050Y323890D01*
X58099Y323840D01*
X58116Y323824D01*
X58378Y323562D01*
X58624Y323283D01*
X58821Y323004D01*
X59001Y322725D01*
X59149Y322430D01*
X59264Y322151D01*
X59362Y321872D01*
X59444Y321610D01*
X59510Y321364D01*
X59559Y321134D01*
X59592Y320938D01*
X59625Y320757D01*
Y320610D01*
X59641Y320511D01*
Y320429D01*
Y320413D01*
Y319232D01*
X61347D01*
X61543Y319216D01*
X61888Y319166D01*
X62183Y319084D01*
X62396Y319019D01*
X62577Y318937D01*
X62691Y318855D01*
X62773Y318806D01*
X62790Y318789D01*
X62954Y318625D01*
X63069Y318428D01*
X63151Y318248D01*
X63200Y318068D01*
X63233Y317920D01*
X63265Y317789D01*
Y317707D01*
Y317674D01*
X63249Y317428D01*
X63183Y317198D01*
X63118Y317002D01*
X63019Y316838D01*
X62937Y316706D01*
X62855Y316608D01*
X62806Y316542D01*
X62790Y316526D01*
X62691Y316444D01*
X62577Y316378D01*
X62331Y316280D01*
X62052Y316198D01*
X61789Y316149D01*
X61527Y316116D01*
X61429D01*
X61330Y316100D01*
X59641D01*
Y308506D01*
X61724D01*
X61921Y308490D01*
X62265Y308441D01*
X62560Y308359D01*
X62773Y308293D01*
X62954Y308211D01*
X63069Y308129D01*
X63151Y308080D01*
X63167Y308064D01*
X63331Y307900D01*
X63446Y307703D01*
X63528Y307522D01*
X63577Y307342D01*
X63610Y307194D01*
X63643Y307063D01*
Y306981D01*
Y306948D01*
X63626Y306702D01*
X63561Y306473D01*
X63495Y306276D01*
X63397Y306112D01*
X63315Y305981D01*
X63233Y305882D01*
X63183Y305817D01*
X63167Y305800D01*
X63069Y305718D01*
X62954Y305653D01*
X62708Y305554D01*
X62429Y305472D01*
X62167Y305423D01*
X61904Y305390D01*
X61806D01*
X61707Y305374D01*
X52048D01*
X51638Y305390D01*
X51293Y305440D01*
X51015Y305505D01*
X50785Y305587D01*
X50621Y305669D01*
X50506Y305735D01*
X50424Y305784D01*
X50408Y305800D01*
X50244Y305964D01*
X50129Y306161D01*
X50031Y306342D01*
X49981Y306522D01*
X49949Y306686D01*
X49916Y306817D01*
Y306899D01*
Y306932D01*
X49932Y307178D01*
X49998Y307408D01*
X50063Y307588D01*
X50162Y307752D01*
X50244Y307883D01*
X50326Y307982D01*
X50391Y308047D01*
X50408Y308064D01*
X50621Y308211D01*
X50867Y308326D01*
X51129Y308392D01*
X51408Y308457D01*
X51654Y308490D01*
X51769D01*
X51851Y308506D01*
X56509D01*
Y316100D01*
X51687D01*
X51277Y316116D01*
X50933Y316165D01*
X50654Y316231D01*
X50424Y316313D01*
X50260Y316395D01*
X50145Y316460D01*
X50063Y316510D01*
X50047Y316526D01*
X49883Y316690D01*
X49768Y316887D01*
X49670Y317067D01*
X49621Y317248D01*
X49588Y317412D01*
X49555Y317543D01*
Y317625D01*
Y317658D01*
X49571Y317904D01*
X49637Y318133D01*
X49703Y318314D01*
X49801Y318478D01*
X49883Y318609D01*
X49965Y318707D01*
X50031Y318773D01*
X50047Y318789D01*
X50260Y318937D01*
X50506Y319052D01*
X50769Y319117D01*
X51047Y319183D01*
X51293Y319216D01*
X51408D01*
X51490Y319232D01*
X56509D01*
Y320413D01*
X56476Y320659D01*
X56410Y320888D01*
X56328Y321085D01*
X56213Y321249D01*
X56115Y321397D01*
X56017Y321495D01*
X55951Y321561D01*
X55935Y321577D01*
X55820Y321659D01*
X55672Y321741D01*
X55344Y321856D01*
X55000Y321938D01*
X54639Y321987D01*
X54311Y322036D01*
X54163D01*
X54032Y322053D01*
X53786D01*
X53212Y322036D01*
X52622Y321987D01*
X52048Y321922D01*
X51769Y321889D01*
X51507Y321856D01*
X51277Y321823D01*
X51047Y321790D01*
X50851Y321758D01*
X50687Y321725D01*
X50539Y321692D01*
X50441Y321676D01*
X50375Y321659D01*
X50359D01*
X50145Y321626D01*
X49965Y321610D01*
X49817Y321577D01*
X49703D01*
X49604Y321561D01*
X49489D01*
X49260Y321577D01*
X49063Y321626D01*
X48883Y321708D01*
X48735Y321790D01*
X48604Y321856D01*
X48522Y321938D01*
X48456Y321987D01*
X48440Y322004D01*
X48292Y322184D01*
X48177Y322381D01*
X48112Y322578D01*
X48046Y322758D01*
X48013Y322922D01*
X47997Y323053D01*
Y323135D01*
Y323168D01*
X48013Y323414D01*
X48079Y323627D01*
X48145Y323808D01*
X48243Y323972D01*
X48325Y324103D01*
X48407Y324185D01*
X48473Y324250D01*
X48489Y324267D01*
X48587Y324349D01*
X48719Y324431D01*
X48866Y324496D01*
X49030Y324562D01*
X49391Y324677D01*
X49752Y324775D01*
X50113Y324841D01*
X50260Y324874D01*
X50391Y324890D01*
X50506Y324923D01*
X50588D01*
X50654Y324939D01*
X50670D01*
X51293Y325021D01*
X51851Y325087D01*
X52113Y325103D01*
X52376Y325120D01*
X52605Y325136D01*
X52802Y325152D01*
X52999Y325169D01*
X53163D01*
X53311Y325185D01*
X53671D01*
X54196Y325169D01*
D02*
G37*
G36*
X-14044Y325169D02*
X-13700Y325119D01*
X-13405Y325038D01*
X-13191Y324972D01*
X-13011Y324890D01*
X-12896Y324808D01*
X-12814Y324759D01*
X-12798Y324742D01*
X-12634Y324578D01*
X-12519Y324382D01*
X-12437Y324201D01*
X-12388Y324021D01*
X-12355Y323873D01*
X-12322Y323742D01*
Y323660D01*
Y323627D01*
X-12339Y323381D01*
X-12404Y323151D01*
X-12470Y322955D01*
X-12568Y322791D01*
X-12650Y322659D01*
X-12732Y322561D01*
X-12781Y322496D01*
X-12798Y322479D01*
X-12896Y322397D01*
X-13011Y322332D01*
X-13257Y322233D01*
X-13536Y322151D01*
X-13798Y322102D01*
X-14061Y322069D01*
X-14159D01*
X-14257Y322053D01*
X-16980D01*
Y308506D01*
X-13011D01*
X-12814Y308490D01*
X-12470Y308441D01*
X-12175Y308359D01*
X-11961Y308293D01*
X-11781Y308211D01*
X-11666Y308129D01*
X-11584Y308080D01*
X-11568Y308064D01*
X-11404Y307899D01*
X-11289Y307703D01*
X-11207Y307522D01*
X-11158Y307342D01*
X-11125Y307194D01*
X-11092Y307063D01*
Y306981D01*
Y306948D01*
X-11109Y306702D01*
X-11174Y306473D01*
X-11240Y306276D01*
X-11338Y306112D01*
X-11420Y305981D01*
X-11502Y305882D01*
X-11551Y305817D01*
X-11568Y305800D01*
X-11666Y305718D01*
X-11781Y305653D01*
X-12027Y305554D01*
X-12306Y305472D01*
X-12568Y305423D01*
X-12831Y305390D01*
X-12929D01*
X-13027Y305374D01*
X-23868D01*
X-24278Y305390D01*
X-24622Y305440D01*
X-24901Y305505D01*
X-25131Y305587D01*
X-25295Y305669D01*
X-25409Y305735D01*
X-25491Y305784D01*
X-25508Y305800D01*
X-25672Y305964D01*
X-25787Y306161D01*
X-25885Y306342D01*
X-25934Y306522D01*
X-25967Y306686D01*
X-26000Y306817D01*
Y306899D01*
Y306932D01*
X-25983Y307178D01*
X-25918Y307407D01*
X-25852Y307588D01*
X-25754Y307752D01*
X-25672Y307883D01*
X-25590Y307982D01*
X-25524Y308047D01*
X-25508Y308064D01*
X-25295Y308211D01*
X-25049Y308326D01*
X-24786Y308392D01*
X-24507Y308457D01*
X-24261Y308490D01*
X-24147D01*
X-24065Y308506D01*
X-20112D01*
Y325185D01*
X-14241D01*
X-14044Y325169D01*
D02*
G37*
G36*
X-56586Y319642D02*
X-56159Y319593D01*
X-55782Y319544D01*
X-55454Y319478D01*
X-55307Y319429D01*
X-55175Y319396D01*
X-55061Y319363D01*
X-54962Y319347D01*
X-54880Y319314D01*
X-54831Y319298D01*
X-54798Y319281D01*
X-54782D01*
X-54405Y319133D01*
X-54060Y318953D01*
X-53749Y318773D01*
X-53470Y318609D01*
X-53240Y318445D01*
X-53060Y318314D01*
X-52994Y318264D01*
X-52945Y318232D01*
X-52929Y318215D01*
X-52912Y318199D01*
Y319232D01*
X-49567D01*
X-49370Y319215D01*
X-49025Y319166D01*
X-48730Y319084D01*
X-48517Y319019D01*
X-48337Y318937D01*
X-48222Y318855D01*
X-48140Y318806D01*
X-48123Y318789D01*
X-47959Y318625D01*
X-47845Y318428D01*
X-47763Y318248D01*
X-47713Y318068D01*
X-47681Y317920D01*
X-47648Y317789D01*
Y317707D01*
Y317674D01*
X-47664Y317428D01*
X-47730Y317198D01*
X-47795Y317002D01*
X-47894Y316838D01*
X-47976Y316706D01*
X-48058Y316608D01*
X-48107Y316542D01*
X-48123Y316526D01*
X-48222Y316444D01*
X-48337Y316378D01*
X-48583Y316280D01*
X-48861Y316198D01*
X-49124Y316149D01*
X-49386Y316116D01*
X-49485D01*
X-49583Y316100D01*
X-49780D01*
Y308506D01*
X-49567D01*
X-49370Y308490D01*
X-49206Y308473D01*
X-49042Y308457D01*
X-48911Y308441D01*
X-48796Y308408D01*
X-48599Y308359D01*
X-48451Y308310D01*
X-48353Y308260D01*
X-48304Y308227D01*
X-48287Y308211D01*
X-48074Y307998D01*
X-47910Y307768D01*
X-47812Y307555D01*
X-47730Y307358D01*
X-47681Y307194D01*
X-47664Y307063D01*
X-47648Y306981D01*
Y306948D01*
X-47664Y306702D01*
X-47730Y306473D01*
X-47795Y306276D01*
X-47894Y306112D01*
X-47976Y305981D01*
X-48058Y305882D01*
X-48107Y305817D01*
X-48123Y305800D01*
X-48222Y305718D01*
X-48337Y305653D01*
X-48583Y305554D01*
X-48861Y305472D01*
X-49124Y305423D01*
X-49386Y305390D01*
X-49485D01*
X-49583Y305374D01*
X-52912D01*
X-53322Y305390D01*
X-53667Y305439D01*
X-53945Y305505D01*
X-54175Y305587D01*
X-54339Y305669D01*
X-54454Y305735D01*
X-54536Y305784D01*
X-54552Y305800D01*
X-54716Y305964D01*
X-54831Y306161D01*
X-54929Y306342D01*
X-54979Y306522D01*
X-55011Y306686D01*
X-55044Y306817D01*
Y306899D01*
Y306932D01*
X-55011Y307178D01*
X-54946Y307424D01*
X-54831Y307637D01*
X-54716Y307834D01*
X-54601Y307981D01*
X-54487Y308113D01*
X-54421Y308178D01*
X-54388Y308211D01*
X-54323Y308260D01*
X-54241Y308310D01*
X-54027Y308375D01*
X-53781Y308441D01*
X-53535Y308473D01*
X-53289Y308490D01*
X-53093Y308506D01*
X-52912D01*
Y314328D01*
X-53142Y314574D01*
X-53355Y314788D01*
X-53568Y314984D01*
X-53765Y315181D01*
X-53945Y315329D01*
X-54109Y315476D01*
X-54257Y315608D01*
X-54405Y315722D01*
X-54651Y315886D01*
X-54733Y315952D01*
X-54815Y316018D01*
X-54880Y316050D01*
X-54929Y316083D01*
X-54946Y316100D01*
X-54962D01*
X-55274Y316247D01*
X-55602Y316346D01*
X-55930Y316427D01*
X-56225Y316477D01*
X-56487Y316510D01*
X-56586D01*
X-56684Y316526D01*
X-57127D01*
X-57373Y316493D01*
X-57586Y316477D01*
X-57799Y316427D01*
X-57996Y316378D01*
X-58177Y316329D01*
X-58324Y316280D01*
X-58472Y316214D01*
X-58603Y316149D01*
X-58718Y316100D01*
X-58800Y316050D01*
X-58882Y316001D01*
X-58931Y315968D01*
X-58980Y315935D01*
X-59013Y315903D01*
X-59193Y315706D01*
X-59341Y315476D01*
X-59439Y315214D01*
X-59505Y314984D01*
X-59538Y314755D01*
X-59571Y314574D01*
Y314509D01*
Y314459D01*
Y314427D01*
Y314410D01*
Y308506D01*
X-59357D01*
X-59161Y308490D01*
X-58816Y308441D01*
X-58521Y308359D01*
X-58308Y308293D01*
X-58127Y308211D01*
X-58013Y308129D01*
X-57931Y308080D01*
X-57914Y308064D01*
X-57750Y307899D01*
X-57635Y307703D01*
X-57553Y307522D01*
X-57504Y307342D01*
X-57471Y307194D01*
X-57439Y307063D01*
Y306981D01*
Y306948D01*
X-57455Y306702D01*
X-57521Y306473D01*
X-57586Y306276D01*
X-57685Y306112D01*
X-57767Y305981D01*
X-57849Y305882D01*
X-57898Y305817D01*
X-57914Y305800D01*
X-58013Y305718D01*
X-58127Y305653D01*
X-58373Y305554D01*
X-58652Y305472D01*
X-58915Y305423D01*
X-59177Y305390D01*
X-59275D01*
X-59374Y305374D01*
X-62703D01*
X-63113Y305390D01*
X-63457Y305439D01*
X-63736Y305505D01*
X-63966Y305587D01*
X-64130Y305669D01*
X-64245Y305735D01*
X-64327Y305784D01*
X-64343Y305800D01*
X-64507Y305964D01*
X-64622Y306161D01*
X-64720Y306342D01*
X-64769Y306522D01*
X-64802Y306686D01*
X-64835Y306817D01*
Y306899D01*
Y306932D01*
X-64819Y307178D01*
X-64753Y307407D01*
X-64687Y307588D01*
X-64589Y307752D01*
X-64507Y307883D01*
X-64425Y307981D01*
X-64359Y308047D01*
X-64343Y308064D01*
X-64130Y308211D01*
X-63884Y308326D01*
X-63621Y308391D01*
X-63343Y308457D01*
X-63097Y308490D01*
X-62982D01*
X-62900Y308506D01*
X-62703D01*
Y314312D01*
X-62687Y314722D01*
X-62654Y315115D01*
X-62588Y315476D01*
X-62506Y315821D01*
X-62408Y316132D01*
X-62293Y316427D01*
X-62178Y316706D01*
X-62063Y316952D01*
X-61932Y317165D01*
X-61817Y317362D01*
X-61703Y317526D01*
X-61604Y317674D01*
X-61522Y317772D01*
X-61457Y317854D01*
X-61424Y317903D01*
X-61407Y317920D01*
X-61096Y318232D01*
X-60751Y318494D01*
X-60407Y318724D01*
X-60046Y318920D01*
X-59685Y319101D01*
X-59308Y319232D01*
X-58964Y319347D01*
X-58619Y319445D01*
X-58291Y319511D01*
X-57996Y319560D01*
X-57717Y319609D01*
X-57488Y319625D01*
X-57291Y319642D01*
X-57143Y319658D01*
X-57029D01*
X-56586Y319642D01*
D02*
G37*
G36*
X484926Y325169D02*
X485270Y325120D01*
X485565Y325038D01*
X485779Y324972D01*
X485959Y324890D01*
X486074Y324808D01*
X486156Y324759D01*
X486172Y324742D01*
X486336Y324562D01*
X486451Y324382D01*
X486533Y324185D01*
X486582Y324004D01*
X486615Y323857D01*
X486648Y323726D01*
Y323644D01*
Y323611D01*
X486631Y323365D01*
X486566Y323135D01*
X486500Y322938D01*
X486402Y322774D01*
X486320Y322660D01*
X486238Y322561D01*
X486189Y322496D01*
X486172Y322479D01*
X486074Y322397D01*
X485959Y322332D01*
X485713Y322233D01*
X485434Y322151D01*
X485172Y322102D01*
X484909Y322069D01*
X484811D01*
X484713Y322053D01*
X483975D01*
Y318150D01*
X484401Y318412D01*
X484827Y318642D01*
X485221Y318838D01*
X485565Y319002D01*
X485729Y319068D01*
X485861Y319117D01*
X485992Y319166D01*
X486107Y319216D01*
X486189Y319248D01*
X486254Y319265D01*
X486287Y319281D01*
X486303D01*
X486746Y319412D01*
X487173Y319494D01*
X487566Y319560D01*
X487943Y319609D01*
X488107Y319626D01*
X488239Y319642D01*
X488370D01*
X488485Y319658D01*
X488698D01*
X489288Y319626D01*
X489862Y319560D01*
X490403Y319445D01*
X490912Y319314D01*
X491404Y319134D01*
X491863Y318953D01*
X492273Y318740D01*
X492650Y318543D01*
X492995Y318330D01*
X493306Y318117D01*
X493569Y317936D01*
X493782Y317756D01*
X493962Y317625D01*
X494093Y317510D01*
X494159Y317444D01*
X494192Y317412D01*
X494585Y316985D01*
X494930Y316526D01*
X495225Y316083D01*
X495487Y315624D01*
X495701Y315165D01*
X495897Y314706D01*
X496045Y314279D01*
X496160Y313853D01*
X496242Y313459D01*
X496324Y313115D01*
X496373Y312787D01*
X496406Y312508D01*
X496422Y312295D01*
X496439Y312131D01*
Y312065D01*
Y312016D01*
Y312000D01*
Y311983D01*
X496406Y311426D01*
X496340Y310901D01*
X496242Y310392D01*
X496094Y309917D01*
X495947Y309458D01*
X495766Y309048D01*
X495569Y308670D01*
X495356Y308310D01*
X495159Y307998D01*
X494963Y307719D01*
X494782Y307473D01*
X494618Y307276D01*
X494487Y307129D01*
X494389Y307014D01*
X494307Y306932D01*
X494290Y306916D01*
X493880Y306555D01*
X493437Y306243D01*
X492962Y305981D01*
X492503Y305735D01*
X492027Y305538D01*
X491551Y305374D01*
X491092Y305243D01*
X490649Y305144D01*
X490239Y305046D01*
X489862Y304997D01*
X489518Y304948D01*
X489206Y304915D01*
X488977Y304898D01*
X488878D01*
X488780Y304882D01*
X488632D01*
X488173Y304898D01*
X487730Y304931D01*
X487320Y304980D01*
X486959Y305046D01*
X486795Y305062D01*
X486648Y305095D01*
X486533Y305128D01*
X486418Y305144D01*
X486336Y305161D01*
X486271Y305177D01*
X486238Y305194D01*
X486221D01*
X485795Y305325D01*
X485385Y305472D01*
X484991Y305636D01*
X484663Y305784D01*
X484516Y305866D01*
X484385Y305932D01*
X484253Y305981D01*
X484155Y306046D01*
X484089Y306079D01*
X484024Y306112D01*
X483991Y306145D01*
X483975D01*
Y305374D01*
X480301D01*
X479891Y305390D01*
X479547Y305440D01*
X479268Y305505D01*
X479038Y305587D01*
X478874Y305669D01*
X478759Y305735D01*
X478677Y305784D01*
X478661Y305800D01*
X478497Y305964D01*
X478382Y306161D01*
X478284Y306342D01*
X478235Y306522D01*
X478202Y306686D01*
X478169Y306817D01*
Y306899D01*
Y306932D01*
X478185Y307178D01*
X478251Y307408D01*
X478317Y307588D01*
X478415Y307752D01*
X478497Y307883D01*
X478579Y307982D01*
X478645Y308047D01*
X478661Y308064D01*
X478874Y308211D01*
X479120Y308326D01*
X479383Y308392D01*
X479661Y308457D01*
X479907Y308490D01*
X480022D01*
X480104Y308506D01*
X480842D01*
Y325185D01*
X484729D01*
X484926Y325169D01*
D02*
G37*
G36*
X225724Y319642D02*
X226117Y319609D01*
X226495Y319560D01*
X226855Y319494D01*
X227216Y319412D01*
X227544Y319330D01*
X227856Y319232D01*
X228151Y319134D01*
X228430Y319035D01*
X228676Y318937D01*
X228873Y318855D01*
X229053Y318773D01*
X229201Y318707D01*
X229315Y318658D01*
X229381Y318625D01*
X229397Y318609D01*
X229758Y318412D01*
X230086Y318182D01*
X230398Y317969D01*
X230693Y317723D01*
X230955Y317494D01*
X231201Y317248D01*
X231415Y317018D01*
X231628Y316788D01*
X231792Y316575D01*
X231956Y316378D01*
X232087Y316214D01*
X232185Y316050D01*
X232267Y315936D01*
X232333Y315837D01*
X232366Y315772D01*
X232382Y315755D01*
X232563Y315411D01*
X232727Y315083D01*
X232858Y314755D01*
X232973Y314427D01*
X233071Y314099D01*
X233169Y313804D01*
X233235Y313508D01*
X233284Y313246D01*
X233333Y313000D01*
X233366Y312770D01*
X233383Y312574D01*
X233399Y312410D01*
X233415Y312262D01*
Y312164D01*
Y312098D01*
Y312082D01*
X233399Y311737D01*
X233366Y311393D01*
X233317Y311065D01*
X233251Y310753D01*
X233186Y310442D01*
X233087Y310146D01*
X233005Y309868D01*
X232907Y309622D01*
X232809Y309376D01*
X232727Y309179D01*
X232628Y308982D01*
X232563Y308834D01*
X232497Y308703D01*
X232448Y308621D01*
X232415Y308556D01*
X232399Y308539D01*
X232202Y308228D01*
X231972Y307932D01*
X231743Y307670D01*
X231513Y307408D01*
X231267Y307178D01*
X231005Y306948D01*
X230775Y306752D01*
X230529Y306571D01*
X230316Y306407D01*
X230103Y306260D01*
X229906Y306145D01*
X229758Y306046D01*
X229611Y305964D01*
X229512Y305915D01*
X229447Y305882D01*
X229430Y305866D01*
X229053Y305686D01*
X228692Y305538D01*
X228315Y305407D01*
X227954Y305292D01*
X227610Y305210D01*
X227265Y305128D01*
X226937Y305062D01*
X226642Y305013D01*
X226363Y304964D01*
X226101Y304931D01*
X225888Y304915D01*
X225691Y304898D01*
X225543Y304882D01*
X225330D01*
X224937Y304898D01*
X224543Y304931D01*
X224149Y304980D01*
X223772Y305030D01*
X223411Y305112D01*
X223083Y305194D01*
X222755Y305276D01*
X222460Y305374D01*
X222181Y305472D01*
X221935Y305554D01*
X221722Y305636D01*
X221542Y305718D01*
X221394Y305768D01*
X221279Y305817D01*
X221214Y305850D01*
X221197Y305866D01*
X220837Y306063D01*
X220492Y306276D01*
X220181Y306489D01*
X219885Y306702D01*
X219623Y306932D01*
X219377Y307162D01*
X219164Y307375D01*
X218967Y307588D01*
X218787Y307785D01*
X218639Y307965D01*
X218508Y308129D01*
X218393Y308277D01*
X218311Y308392D01*
X218262Y308474D01*
X218229Y308539D01*
X218213Y308556D01*
X218032Y308867D01*
X217885Y309195D01*
X217753Y309507D01*
X217639Y309818D01*
X217540Y310114D01*
X217458Y310409D01*
X217393Y310671D01*
X217343Y310934D01*
X217294Y311180D01*
X217261Y311393D01*
X217245Y311573D01*
X217229Y311737D01*
X217212Y311868D01*
Y311967D01*
Y312032D01*
Y312049D01*
X217229Y312393D01*
X217261Y312754D01*
X217311Y313082D01*
X217376Y313426D01*
X217442Y313738D01*
X217540Y314033D01*
X217622Y314328D01*
X217721Y314591D01*
X217819Y314837D01*
X217901Y315050D01*
X217999Y315247D01*
X218065Y315411D01*
X218131Y315542D01*
X218180Y315640D01*
X218213Y315706D01*
X218229Y315722D01*
X218426Y316050D01*
X218639Y316362D01*
X218869Y316657D01*
X219115Y316936D01*
X219361Y317182D01*
X219607Y317428D01*
X219853Y317641D01*
X220099Y317838D01*
X220328Y318002D01*
X220525Y318166D01*
X220722Y318297D01*
X220886Y318396D01*
X221017Y318478D01*
X221132Y318543D01*
X221197Y318576D01*
X221214Y318592D01*
X221591Y318773D01*
X221952Y318937D01*
X222329Y319084D01*
X222690Y319216D01*
X223051Y319314D01*
X223395Y319396D01*
X223707Y319462D01*
X224018Y319527D01*
X224297Y319576D01*
X224543Y319609D01*
X224773Y319626D01*
X224969Y319642D01*
X225117Y319658D01*
X225330D01*
X225724Y319642D01*
D02*
G37*
G36*
X-93240Y308998D02*
X-92895Y308933D01*
X-92600Y308834D01*
X-92354Y308736D01*
X-92174Y308621D01*
X-92026Y308523D01*
X-91944Y308457D01*
X-91911Y308424D01*
X-91698Y308195D01*
X-91551Y307949D01*
X-91436Y307703D01*
X-91370Y307473D01*
X-91321Y307260D01*
X-91305Y307096D01*
X-91288Y307030D01*
Y306981D01*
Y306965D01*
Y306948D01*
X-91321Y306637D01*
X-91387Y306342D01*
X-91485Y306096D01*
X-91600Y305882D01*
X-91715Y305702D01*
X-91813Y305587D01*
X-91879Y305505D01*
X-91911Y305472D01*
X-92157Y305276D01*
X-92436Y305128D01*
X-92731Y305030D01*
X-93010Y304964D01*
X-93256Y304915D01*
X-93355Y304898D01*
X-93453D01*
X-93535Y304882D01*
X-93633D01*
X-94027Y304915D01*
X-94371Y304980D01*
X-94667Y305062D01*
X-94913Y305177D01*
X-95093Y305292D01*
X-95241Y305374D01*
X-95323Y305439D01*
X-95355Y305472D01*
X-95569Y305702D01*
X-95733Y305948D01*
X-95847Y306194D01*
X-95913Y306440D01*
X-95962Y306637D01*
X-95979Y306801D01*
X-95995Y306866D01*
Y306915D01*
Y306932D01*
Y306948D01*
X-95962Y307260D01*
X-95897Y307555D01*
X-95798Y307801D01*
X-95683Y308014D01*
X-95552Y308195D01*
X-95454Y308326D01*
X-95388Y308391D01*
X-95355Y308424D01*
X-95109Y308621D01*
X-94831Y308769D01*
X-94535Y308884D01*
X-94257Y308949D01*
X-94011Y308998D01*
X-93912Y309015D01*
X-93814D01*
X-93732Y309031D01*
X-93633D01*
X-93240Y308998D01*
D02*
G37*
%LPC*%
G36*
X-432Y316526D02*
X-514D01*
X-875Y316510D01*
X-1219Y316477D01*
X-1547Y316395D01*
X-1859Y316313D01*
X-2154Y316214D01*
X-2417Y316100D01*
X-2679Y315985D01*
X-2909Y315854D01*
X-3105Y315722D01*
X-3286Y315608D01*
X-3450Y315493D01*
X-3581Y315394D01*
X-3696Y315312D01*
X-3761Y315247D01*
X-3811Y315198D01*
X-3827Y315181D01*
X-4073Y314919D01*
X-4270Y314656D01*
X-4467Y314378D01*
X-4614Y314099D01*
X-4745Y313820D01*
X-4860Y313558D01*
X-4942Y313295D01*
X-5024Y313033D01*
X-5073Y312803D01*
X-5123Y312590D01*
X-5139Y312393D01*
X-5172Y312229D01*
Y312082D01*
X-5188Y311983D01*
Y311917D01*
Y311901D01*
X-5172Y311590D01*
X-5139Y311294D01*
X-5073Y311016D01*
X-4991Y310753D01*
X-4909Y310507D01*
X-4795Y310278D01*
X-4696Y310064D01*
X-4581Y309868D01*
X-4467Y309703D01*
X-4352Y309556D01*
X-4237Y309425D01*
X-4155Y309310D01*
X-4073Y309228D01*
X-4007Y309162D01*
X-3975Y309130D01*
X-3958Y309113D01*
X-3712Y308916D01*
X-3450Y308752D01*
X-3187Y308605D01*
X-2909Y308473D01*
X-2613Y308375D01*
X-2335Y308277D01*
X-1777Y308146D01*
X-1515Y308113D01*
X-1285Y308080D01*
X-1072Y308047D01*
X-875Y308031D01*
X-727Y308014D01*
X-514D01*
X-104Y308031D01*
X273Y308064D01*
X634Y308113D01*
X962Y308195D01*
X1273Y308277D01*
X1552Y308359D01*
X1815Y308457D01*
X2044Y308572D01*
X2241Y308670D01*
X2421Y308769D01*
X2585Y308851D01*
X2700Y308949D01*
X2799Y309015D01*
X2881Y309064D01*
X2913Y309097D01*
X2930Y309113D01*
X3143Y309326D01*
X3323Y309556D01*
X3487Y309786D01*
X3635Y310015D01*
X3750Y310261D01*
X3848Y310491D01*
X3930Y310720D01*
X3996Y310934D01*
X4045Y311147D01*
X4078Y311327D01*
X4111Y311508D01*
X4127Y311655D01*
Y311770D01*
X4143Y311852D01*
Y311917D01*
Y311934D01*
X4127Y312278D01*
X4078Y312623D01*
X4012Y312934D01*
X3930Y313246D01*
X3832Y313525D01*
X3717Y313804D01*
X3602Y314050D01*
X3471Y314279D01*
X3340Y314476D01*
X3225Y314656D01*
X3110Y314804D01*
X3012Y314935D01*
X2930Y315050D01*
X2848Y315115D01*
X2815Y315165D01*
X2799Y315181D01*
X2536Y315411D01*
X2257Y315624D01*
X1995Y315804D01*
X1700Y315952D01*
X1421Y316083D01*
X1159Y316198D01*
X880Y316280D01*
X634Y316362D01*
X388Y316411D01*
X175Y316460D01*
X-22Y316493D01*
X-186Y316510D01*
X-334D01*
X-432Y316526D01*
D02*
G37*
G36*
X413815Y311344D02*
X413635D01*
X413028Y311327D01*
X412421Y311278D01*
X411831Y311229D01*
X411552Y311196D01*
X411306Y311163D01*
X411060Y311114D01*
X410831Y311081D01*
X410650Y311048D01*
X410470Y311032D01*
X410339Y310999D01*
X410240Y310983D01*
X410175Y310966D01*
X410158D01*
Y309622D01*
X410585Y309359D01*
X411027Y309113D01*
X411454Y308916D01*
X411847Y308736D01*
X412028Y308670D01*
X412192Y308605D01*
X412339Y308556D01*
X412454Y308506D01*
X412553Y308474D01*
X412635Y308441D01*
X412684Y308424D01*
X412700D01*
X413225Y308277D01*
X413701Y308162D01*
X414143Y308096D01*
X414340Y308064D01*
X414521Y308031D01*
X414685Y308014D01*
X414832Y307998D01*
X414947D01*
X415062Y307982D01*
X415259D01*
X415734Y307998D01*
X416144Y308064D01*
X416505Y308146D01*
X416800Y308228D01*
X417030Y308326D01*
X417128Y308359D01*
X417210Y308392D01*
X417259Y308424D01*
X417309Y308457D01*
X417325Y308474D01*
X417341D01*
X417473Y308588D01*
X417571Y308703D01*
X417653Y308818D01*
X417702Y308933D01*
X417735Y309048D01*
X417751Y309130D01*
Y309179D01*
Y309195D01*
X417735Y309310D01*
X417719Y309425D01*
X417620Y309638D01*
X417489Y309851D01*
X417325Y310032D01*
X417161Y310179D01*
X417030Y310310D01*
X416931Y310376D01*
X416915Y310409D01*
X416899D01*
X416636Y310573D01*
X416374Y310720D01*
X416095Y310835D01*
X415816Y310950D01*
X415537Y311048D01*
X415275Y311114D01*
X414750Y311229D01*
X414521Y311262D01*
X414307Y311294D01*
X414111Y311311D01*
X413947Y311327D01*
X413815Y311344D01*
D02*
G37*
G36*
X188676Y311344D02*
X188496D01*
X187889Y311327D01*
X187282Y311278D01*
X186692Y311229D01*
X186413Y311196D01*
X186167Y311163D01*
X185921Y311114D01*
X185691Y311081D01*
X185511Y311048D01*
X185331Y311032D01*
X185199Y310999D01*
X185101Y310983D01*
X185035Y310966D01*
X185019D01*
Y309622D01*
X185445Y309359D01*
X185888Y309113D01*
X186315Y308916D01*
X186708Y308736D01*
X186889Y308670D01*
X187053Y308605D01*
X187200Y308556D01*
X187315Y308506D01*
X187413Y308474D01*
X187495Y308441D01*
X187545Y308424D01*
X187561D01*
X188086Y308277D01*
X188561Y308162D01*
X189004Y308096D01*
X189201Y308064D01*
X189381Y308031D01*
X189545Y308014D01*
X189693Y307998D01*
X189808D01*
X189923Y307982D01*
X190119D01*
X190595Y307998D01*
X191005Y308064D01*
X191366Y308146D01*
X191661Y308228D01*
X191891Y308326D01*
X191989Y308359D01*
X192071Y308392D01*
X192120Y308424D01*
X192169Y308457D01*
X192186Y308474D01*
X192202D01*
X192333Y308588D01*
X192432Y308703D01*
X192514Y308818D01*
X192563Y308933D01*
X192596Y309048D01*
X192612Y309130D01*
Y309179D01*
Y309195D01*
X192596Y309310D01*
X192579Y309425D01*
X192481Y309638D01*
X192350Y309851D01*
X192186Y310032D01*
X192022Y310179D01*
X191891Y310310D01*
X191792Y310376D01*
X191776Y310409D01*
X191759D01*
X191497Y310573D01*
X191235Y310720D01*
X190956Y310835D01*
X190677Y310950D01*
X190398Y311048D01*
X190136Y311114D01*
X189611Y311229D01*
X189381Y311262D01*
X189168Y311294D01*
X188971Y311311D01*
X188807Y311327D01*
X188676Y311344D01*
D02*
G37*
G36*
X-36463Y311344D02*
X-36643D01*
X-37250Y311327D01*
X-37857Y311278D01*
X-38447Y311229D01*
X-38726Y311196D01*
X-38972Y311163D01*
X-39218Y311114D01*
X-39448Y311081D01*
X-39628Y311048D01*
X-39809Y311032D01*
X-39940Y310999D01*
X-40038Y310983D01*
X-40104Y310966D01*
X-40120D01*
Y309622D01*
X-39694Y309359D01*
X-39251Y309113D01*
X-38825Y308916D01*
X-38431Y308736D01*
X-38251Y308670D01*
X-38087Y308605D01*
X-37939Y308556D01*
X-37824Y308506D01*
X-37726Y308473D01*
X-37644Y308441D01*
X-37595Y308424D01*
X-37578D01*
X-37053Y308277D01*
X-36578Y308162D01*
X-36135Y308096D01*
X-35938Y308064D01*
X-35758Y308031D01*
X-35594Y308014D01*
X-35446Y307998D01*
X-35331D01*
X-35217Y307982D01*
X-35020D01*
X-34544Y307998D01*
X-34134Y308064D01*
X-33773Y308146D01*
X-33478Y308228D01*
X-33249Y308326D01*
X-33150Y308359D01*
X-33068Y308392D01*
X-33019Y308424D01*
X-32970Y308457D01*
X-32953Y308473D01*
X-32937D01*
X-32806Y308588D01*
X-32707Y308703D01*
X-32625Y308818D01*
X-32576Y308933D01*
X-32543Y309048D01*
X-32527Y309130D01*
Y309179D01*
Y309195D01*
X-32543Y309310D01*
X-32560Y309425D01*
X-32658Y309638D01*
X-32789Y309851D01*
X-32953Y310032D01*
X-33117Y310179D01*
X-33249Y310310D01*
X-33347Y310376D01*
X-33363Y310409D01*
X-33380D01*
X-33642Y310573D01*
X-33905Y310720D01*
X-34183Y310835D01*
X-34462Y310950D01*
X-34741Y311048D01*
X-35003Y311114D01*
X-35528Y311229D01*
X-35758Y311262D01*
X-35971Y311294D01*
X-36168Y311311D01*
X-36332Y311327D01*
X-36463Y311344D01*
D02*
G37*
G36*
X469641Y316526D02*
X469493D01*
X468919Y316493D01*
X468395Y316428D01*
X468149Y316378D01*
X467919Y316313D01*
X467706Y316247D01*
X467525Y316198D01*
X467345Y316132D01*
X467197Y316067D01*
X467050Y316018D01*
X466951Y315952D01*
X466853Y315919D01*
X466787Y315886D01*
X466755Y315854D01*
X466738D01*
X466328Y315575D01*
X465951Y315263D01*
X465623Y314935D01*
X465361Y314624D01*
X465147Y314328D01*
X465049Y314197D01*
X464983Y314082D01*
X464918Y314000D01*
X464885Y313935D01*
X464852Y313886D01*
Y313869D01*
X474135D01*
X473839Y314328D01*
X473528Y314738D01*
X473216Y315083D01*
X472921Y315362D01*
X472659Y315575D01*
X472544Y315657D01*
X472445Y315739D01*
X472363Y315788D01*
X472298Y315821D01*
X472265Y315854D01*
X472249D01*
X471789Y316083D01*
X471330Y316247D01*
X470871Y316362D01*
X470428Y316444D01*
X470231Y316477D01*
X470051Y316493D01*
X469903Y316510D01*
X469756D01*
X469641Y316526D01*
D02*
G37*
G36*
X300787Y316526D02*
X300639D01*
X300065Y316493D01*
X299540Y316428D01*
X299294Y316378D01*
X299065Y316313D01*
X298851Y316247D01*
X298671Y316198D01*
X298491Y316132D01*
X298343Y316067D01*
X298195Y316018D01*
X298097Y315952D01*
X297999Y315919D01*
X297933Y315886D01*
X297900Y315854D01*
X297884D01*
X297474Y315575D01*
X297097Y315263D01*
X296769Y314935D01*
X296506Y314624D01*
X296293Y314328D01*
X296195Y314197D01*
X296129Y314082D01*
X296063Y314000D01*
X296031Y313935D01*
X295998Y313886D01*
Y313869D01*
X305280D01*
X304985Y314328D01*
X304673Y314738D01*
X304362Y315083D01*
X304067Y315362D01*
X303804Y315575D01*
X303689Y315657D01*
X303591Y315739D01*
X303509Y315788D01*
X303443Y315821D01*
X303411Y315854D01*
X303394D01*
X302935Y316083D01*
X302476Y316247D01*
X302017Y316362D01*
X301574Y316444D01*
X301377Y316477D01*
X301197Y316493D01*
X301049Y316510D01*
X300901D01*
X300787Y316526D01*
D02*
G37*
G36*
X75647Y316526D02*
X75500D01*
X74926Y316493D01*
X74401Y316428D01*
X74155Y316378D01*
X73925Y316313D01*
X73712Y316247D01*
X73532Y316198D01*
X73351Y316132D01*
X73204Y316067D01*
X73056Y316018D01*
X72958Y315952D01*
X72859Y315919D01*
X72794Y315886D01*
X72761Y315854D01*
X72745D01*
X72335Y315575D01*
X71957Y315263D01*
X71629Y314935D01*
X71367Y314624D01*
X71154Y314328D01*
X71055Y314197D01*
X70990Y314082D01*
X70924Y314000D01*
X70891Y313935D01*
X70859Y313886D01*
Y313869D01*
X80141Y313869D01*
X79846Y314328D01*
X79534Y314738D01*
X79223Y315083D01*
X78927Y315362D01*
X78665Y315575D01*
X78550Y315657D01*
X78452Y315739D01*
X78370Y315788D01*
X78304Y315821D01*
X78271Y315854D01*
X78255D01*
X77796Y316083D01*
X77337Y316247D01*
X76877Y316362D01*
X76435Y316444D01*
X76238Y316477D01*
X76057Y316493D01*
X75910Y316510D01*
X75762D01*
X75647Y316526D01*
D02*
G37*
G36*
X488731Y316526D02*
X488649D01*
X488288Y316510D01*
X487943Y316477D01*
X487615Y316395D01*
X487304Y316313D01*
X487009Y316214D01*
X486746Y316100D01*
X486484Y315985D01*
X486254Y315854D01*
X486057Y315722D01*
X485877Y315608D01*
X485713Y315493D01*
X485582Y315394D01*
X485467Y315312D01*
X485401Y315247D01*
X485352Y315198D01*
X485336Y315181D01*
X485090Y314919D01*
X484893Y314656D01*
X484696Y314378D01*
X484549Y314099D01*
X484417Y313820D01*
X484303Y313558D01*
X484221Y313295D01*
X484139Y313033D01*
X484089Y312803D01*
X484040Y312590D01*
X484024Y312393D01*
X483991Y312229D01*
Y312082D01*
X483975Y311983D01*
Y311918D01*
Y311901D01*
X483991Y311590D01*
X484024Y311294D01*
X484089Y311016D01*
X484171Y310753D01*
X484270Y310507D01*
X484368Y310278D01*
X484483Y310064D01*
X484598Y309868D01*
X484713Y309704D01*
X484827Y309556D01*
X484926Y309425D01*
X485024Y309310D01*
X485106Y309228D01*
X485172Y309162D01*
X485205Y309130D01*
X485221Y309113D01*
X485467Y308916D01*
X485713Y308752D01*
X485992Y308605D01*
X486271Y308474D01*
X486566Y308375D01*
X486845Y308277D01*
X487402Y308146D01*
X487648Y308113D01*
X487894Y308080D01*
X488107Y308047D01*
X488288Y308031D01*
X488435Y308014D01*
X488649D01*
X489059Y308031D01*
X489436Y308064D01*
X489797Y308113D01*
X490125Y308195D01*
X490436Y308277D01*
X490715Y308359D01*
X490977Y308457D01*
X491207Y308572D01*
X491404Y308670D01*
X491584Y308769D01*
X491748Y308851D01*
X491863Y308949D01*
X491961Y309015D01*
X492043Y309064D01*
X492076Y309097D01*
X492093Y309113D01*
X492306Y309326D01*
X492486Y309556D01*
X492650Y309786D01*
X492798Y310015D01*
X492913Y310261D01*
X493011Y310491D01*
X493093Y310720D01*
X493159Y310934D01*
X493208Y311147D01*
X493241Y311327D01*
X493273Y311508D01*
X493290Y311655D01*
Y311770D01*
X493306Y311852D01*
Y311918D01*
Y311934D01*
X493290Y312278D01*
X493241Y312623D01*
X493175Y312934D01*
X493093Y313246D01*
X492995Y313525D01*
X492880Y313804D01*
X492765Y314050D01*
X492634Y314279D01*
X492503Y314476D01*
X492388Y314656D01*
X492273Y314804D01*
X492175Y314935D01*
X492093Y315050D01*
X492011Y315116D01*
X491978Y315165D01*
X491961Y315181D01*
X491699Y315411D01*
X491420Y315624D01*
X491158Y315804D01*
X490863Y315952D01*
X490584Y316083D01*
X490321Y316198D01*
X490043Y316280D01*
X489797Y316362D01*
X489551Y316411D01*
X489337Y316460D01*
X489141Y316493D01*
X488977Y316510D01*
X488829D01*
X488731Y316526D01*
D02*
G37*
G36*
X225429Y316526D02*
X225330D01*
X224887Y316510D01*
X224477Y316460D01*
X224084Y316362D01*
X223707Y316264D01*
X223362Y316132D01*
X223034Y315985D01*
X222755Y315821D01*
X222477Y315673D01*
X222247Y315509D01*
X222034Y315345D01*
X221853Y315198D01*
X221706Y315066D01*
X221591Y314968D01*
X221509Y314886D01*
X221460Y314820D01*
X221443Y314804D01*
X221247Y314558D01*
X221083Y314328D01*
X220935Y314082D01*
X220804Y313836D01*
X220705Y313607D01*
X220607Y313377D01*
X220476Y312951D01*
X220443Y312754D01*
X220410Y312574D01*
X220377Y312426D01*
X220361Y312295D01*
X220345Y312180D01*
Y312098D01*
Y312049D01*
Y312032D01*
X220361Y311754D01*
X220410Y311491D01*
X220476Y311229D01*
X220574Y310983D01*
X220673Y310737D01*
X220804Y310507D01*
X220935Y310294D01*
X221066Y310097D01*
X221197Y309917D01*
X221329Y309753D01*
X221460Y309622D01*
X221558Y309507D01*
X221657Y309408D01*
X221722Y309343D01*
X221771Y309294D01*
X221788Y309277D01*
X222067Y309048D01*
X222345Y308867D01*
X222641Y308687D01*
X222936Y308556D01*
X223247Y308424D01*
X223543Y308326D01*
X223821Y308244D01*
X224100Y308178D01*
X224346Y308113D01*
X224592Y308080D01*
X224789Y308047D01*
X224969Y308031D01*
X225117D01*
X225232Y308014D01*
X225330D01*
X225707Y308031D01*
X226085Y308064D01*
X226429Y308129D01*
X226757Y308211D01*
X227069Y308310D01*
X227364Y308408D01*
X227626Y308523D01*
X227872Y308654D01*
X228102Y308769D01*
X228282Y308884D01*
X228463Y308982D01*
X228594Y309080D01*
X228709Y309162D01*
X228791Y309228D01*
X228840Y309261D01*
X228856Y309277D01*
X229102Y309523D01*
X229332Y309769D01*
X229512Y309999D01*
X229676Y310245D01*
X229824Y310474D01*
X229939Y310704D01*
X230021Y310917D01*
X230103Y311130D01*
X230168Y311311D01*
X230201Y311491D01*
X230234Y311639D01*
X230267Y311770D01*
Y311868D01*
X230283Y311950D01*
Y312000D01*
Y312016D01*
X230267Y312344D01*
X230217Y312672D01*
X230152Y312967D01*
X230070Y313262D01*
X229955Y313541D01*
X229840Y313804D01*
X229709Y314033D01*
X229578Y314263D01*
X229447Y314460D01*
X229315Y314640D01*
X229201Y314788D01*
X229086Y314919D01*
X229004Y315034D01*
X228938Y315099D01*
X228889Y315148D01*
X228873Y315165D01*
X228594Y315411D01*
X228315Y315608D01*
X228020Y315804D01*
X227725Y315952D01*
X227413Y316083D01*
X227118Y316198D01*
X226839Y316280D01*
X226560Y316362D01*
X226314Y316411D01*
X226068Y316460D01*
X225871Y316477D01*
X225675Y316510D01*
X225527D01*
X225429Y316526D01*
D02*
G37*
%LPD*%
D11*
X174134Y755905D02*
G03*
X179134Y760906I0J5000D01*
G01*
X184134Y767717D02*
G03*
X179134Y762716I0J-5000D01*
G01*
X352362D02*
G03*
X347362Y767717I-5000J0D01*
G01*
X352362Y760906D02*
G03*
X357362Y755905I5000J0D01*
G01*
X-118110Y755905D02*
G03*
X-145669Y728346I0J-27559D01*
G01*
X677165D02*
G03*
X649606Y755905I-27559J0D01*
G01*
Y-66929D02*
G03*
X677165Y-39370I0J27559D01*
G01*
X-145669D02*
G03*
X-118110Y-66929I27559J0D01*
G01*
X364173Y755905D02*
X649606Y755905D01*
X-118110D02*
X167323D01*
Y755905D02*
X174134D01*
X179134Y760906D02*
Y762716D01*
X184134Y767717D02*
X265748D01*
X347362D01*
X352362Y760906D02*
Y762716D01*
X357362Y755905D02*
X364173D01*
X677165Y-39370D02*
Y728347D01*
X-145669Y728346D02*
X-145669Y-39370D01*
X-118151Y-66929D02*
X649606D01*
M02*
