G04*
G04 #@! TF.GenerationSoftware,Altium Limited,Altium Designer,26.3.0 (6)*
G04*
G04 Layer_Color=2752767*
%FSLAX25Y25*%
%MOIN*%
G70*
G04*
G04 #@! TF.SameCoordinates,A806FC3E-2AF5-410F-BC78-0BCB0F8315C3*
G04*
G04*
G04 #@! TF.FilePolarity,Positive*
G04*
G01*
G75*
%ADD11C,0.00591*%
%ADD59C,0.00200*%
%ADD60C,0.00945*%
D11*
X174134Y755905D02*
G03*
X179134Y760906I0J5000D01*
G01*
X184134Y767717D02*
G03*
X179134Y762716I0J-5000D01*
G01*
X352362D02*
G03*
X347362Y767717I-5000J0D01*
G01*
X352362Y760906D02*
G03*
X357362Y755905I5000J0D01*
G01*
X-118110Y755905D02*
G03*
X-145669Y728346I0J-27559D01*
G01*
X677165D02*
G03*
X649606Y755905I-27559J0D01*
G01*
Y-66929D02*
G03*
X677165Y-39370I0J27559D01*
G01*
X-145669D02*
G03*
X-118110Y-66929I27559J0D01*
G01*
X364173Y755905D02*
X649606Y755905D01*
X-118110D02*
X167323D01*
Y755905D02*
X174134D01*
X179134Y760906D02*
Y762716D01*
X184134Y767717D02*
X265748D01*
X347362D01*
X352362Y760906D02*
Y762716D01*
X357362Y755905D02*
X364173D01*
X677165Y-39370D02*
Y728347D01*
X-145669Y728346D02*
X-145669Y-39370D01*
X-118151Y-66929D02*
X649606D01*
X716672Y146891D02*
G03*
X716672Y146891I-1750J0D01*
G01*
X710013Y166401D02*
X1211398D01*
X710013Y119157D02*
X1211398D01*
X710013Y111283D02*
X1211398D01*
Y174275D01*
X710013D02*
X1211398D01*
X710013Y111283D02*
Y174275D01*
X1137560Y111283D02*
Y174275D01*
X1091904Y111283D02*
Y174275D01*
X1046116Y111283D02*
Y174275D01*
X1006756Y111283D02*
Y174275D01*
X975583Y111283D02*
Y174275D01*
X896735Y111283D02*
Y174275D01*
X858006Y111283D02*
Y174275D01*
X831241Y111283D02*
Y174275D01*
X770759Y111283D02*
Y174275D01*
X739141Y111283D02*
Y174275D01*
X714047Y161764D02*
X714922Y160889D01*
X713172Y161764D02*
X714047D01*
X713172D02*
X714047Y162639D01*
X713172Y163514D02*
X714047Y162639D01*
X713172Y163514D02*
X714047D01*
X714922Y164389D01*
X715797Y163514D01*
X716672D01*
X715797Y162639D02*
X716672Y163514D01*
X715797Y162639D02*
X716672Y161764D01*
X715797D02*
X716672D01*
X714922Y160889D02*
X715797Y161764D01*
X713172Y153015D02*
X714922Y153890D01*
X716672Y153015D01*
X715797Y154765D02*
X716672Y153015D01*
X715797Y154765D02*
X716672Y156515D01*
X714922Y155640D02*
X716672Y156515D01*
X713172D02*
X714922Y155640D01*
X713172Y156515D02*
X714047Y154765D01*
X713172Y153015D02*
X714047Y154765D01*
X713172Y138142D02*
X714047D01*
X713172D02*
Y139892D01*
X714047D01*
Y140767D01*
X715797D01*
Y139892D02*
Y140767D01*
Y139892D02*
X716672D01*
Y138142D02*
Y139892D01*
X715797Y138142D02*
X716672D01*
X715797Y137267D02*
Y138142D01*
X714047Y137267D02*
X715797D01*
X714047D02*
Y138142D01*
X713172Y129393D02*
X716672D01*
Y132893D01*
X713172D02*
X716672D01*
X713172Y129393D02*
Y132893D01*
X714922Y121519D02*
X716672Y125019D01*
X713172D02*
X716672D01*
X713172D02*
X714922Y121519D01*
X1139923Y162463D02*
X1142022D01*
X1139923Y154589D02*
X1142022D01*
X1139923Y146715D02*
X1142022D01*
X1139923Y138841D02*
X1142022D01*
X1139923Y130967D02*
X1142022D01*
X1139923Y123093D02*
X1142022D01*
X1094266Y162463D02*
X1096365D01*
X1094266Y154589D02*
X1096365D01*
X1094266Y146715D02*
X1096365D01*
X1094266Y138841D02*
X1096365D01*
X1094266Y130967D02*
X1096365D01*
X1094266Y123093D02*
X1096365D01*
X1050577Y162988D02*
X1049003D01*
X1048478Y162463D01*
Y161414D01*
X1049003Y160889D01*
X1050577D01*
X1053726Y164038D02*
X1052676Y163513D01*
X1051627Y162463D01*
Y161414D01*
X1052152Y160889D01*
X1053201D01*
X1053726Y161414D01*
Y161939D01*
X1053201Y162463D01*
X1051627D01*
X1056874Y164038D02*
X1054775D01*
Y162463D01*
X1055825Y162988D01*
X1056350D01*
X1056874Y162463D01*
Y161414D01*
X1056350Y160889D01*
X1055300D01*
X1054775Y161414D01*
X1057924Y164038D02*
Y160889D01*
Y162463D01*
X1058449Y162988D01*
X1059498D01*
X1060023Y162463D01*
Y160889D01*
X1061073D02*
Y162988D01*
X1062647D01*
X1063172Y162463D01*
Y160889D01*
X1066320Y164038D02*
X1065271Y163513D01*
X1064221Y162463D01*
Y161414D01*
X1064746Y160889D01*
X1065796D01*
X1066320Y161414D01*
Y161939D01*
X1065796Y162463D01*
X1064221D01*
X1069469Y164038D02*
X1067370D01*
Y162463D01*
X1068419Y162988D01*
X1068944D01*
X1069469Y162463D01*
Y161414D01*
X1068944Y160889D01*
X1067894D01*
X1067370Y161414D01*
X1049528Y153015D02*
X1048478Y154065D01*
Y155114D01*
X1049528Y156164D01*
X1051102Y153015D02*
Y156164D01*
X1052152Y155114D01*
X1053201Y156164D01*
Y153015D01*
X1054251D02*
X1055300D01*
X1054775D01*
Y155114D01*
X1054251D01*
X1056874D02*
X1058974Y153015D01*
X1057924Y154065D01*
X1058974Y155114D01*
X1056874Y153015D01*
X1061597D02*
X1060548D01*
X1060023Y153540D01*
Y154589D01*
X1060548Y155114D01*
X1061597D01*
X1062122Y154589D01*
Y154065D01*
X1060023D01*
X1065271Y156164D02*
Y153015D01*
X1063696D01*
X1063172Y153540D01*
Y154589D01*
X1063696Y155114D01*
X1065271D01*
X1066320Y153015D02*
X1067370Y154065D01*
Y155114D01*
X1066320Y156164D01*
X1050577Y147240D02*
X1049003D01*
X1048478Y146715D01*
Y145666D01*
X1049003Y145141D01*
X1050577D01*
X1051627Y147765D02*
X1052152Y148290D01*
X1053201D01*
X1053726Y147765D01*
Y147240D01*
X1053201Y146715D01*
X1052676D01*
X1053201D01*
X1053726Y146190D01*
Y145666D01*
X1053201Y145141D01*
X1052152D01*
X1051627Y145666D01*
X1056874Y145141D02*
X1054775D01*
X1056874Y147240D01*
Y147765D01*
X1056350Y148290D01*
X1055300D01*
X1054775Y147765D01*
X1057924D02*
X1058449Y148290D01*
X1059498D01*
X1060023Y147765D01*
Y145666D01*
X1059498Y145141D01*
X1058449D01*
X1057924Y145666D01*
Y147765D01*
X1061073Y148290D02*
Y145141D01*
Y146715D01*
X1061597Y147240D01*
X1062647D01*
X1063172Y146715D01*
Y145141D01*
X1064221D02*
Y147240D01*
X1065796D01*
X1066320Y146715D01*
Y145141D01*
X1067370Y147765D02*
X1067894Y148290D01*
X1068944D01*
X1069469Y147765D01*
Y147240D01*
X1068944Y146715D01*
X1068419D01*
X1068944D01*
X1069469Y146190D01*
Y145666D01*
X1068944Y145141D01*
X1067894D01*
X1067370Y145666D01*
X1072617Y145141D02*
X1070518D01*
X1072617Y147240D01*
Y147765D01*
X1072093Y148290D01*
X1071043D01*
X1070518Y147765D01*
X1073667D02*
X1074192Y148290D01*
X1075241D01*
X1075766Y147765D01*
Y145666D01*
X1075241Y145141D01*
X1074192D01*
X1073667Y145666D01*
Y147765D01*
X1076816Y145141D02*
Y147240D01*
X1077340D01*
X1077865Y146715D01*
Y145141D01*
Y146715D01*
X1078390Y147240D01*
X1078915Y146715D01*
Y145141D01*
X1082063Y148290D02*
X1081014Y147765D01*
X1079964Y146715D01*
Y145666D01*
X1080489Y145141D01*
X1081538D01*
X1082063Y145666D01*
Y146190D01*
X1081538Y146715D01*
X1079964D01*
X1085212Y145141D02*
X1083113D01*
X1085212Y147240D01*
Y147765D01*
X1084687Y148290D01*
X1083638D01*
X1083113Y147765D01*
X1086261D02*
X1086786Y148290D01*
X1087836D01*
X1088360Y147765D01*
Y145666D01*
X1087836Y145141D01*
X1086786D01*
X1086261Y145666D01*
Y147765D01*
X1050577Y139366D02*
X1049003D01*
X1048478Y138841D01*
Y137792D01*
X1049003Y137267D01*
X1050577D01*
X1051627Y139891D02*
X1052152Y140416D01*
X1053201D01*
X1053726Y139891D01*
Y139366D01*
X1053201Y138841D01*
X1052676D01*
X1053201D01*
X1053726Y138316D01*
Y137792D01*
X1053201Y137267D01*
X1052152D01*
X1051627Y137792D01*
X1054775Y137267D02*
X1055825D01*
X1055300D01*
Y140416D01*
X1054775Y139891D01*
X1057399D02*
X1057924Y140416D01*
X1058974D01*
X1059498Y139891D01*
Y137792D01*
X1058974Y137267D01*
X1057924D01*
X1057399Y137792D01*
Y139891D01*
X1060548Y140416D02*
Y137267D01*
Y138841D01*
X1061073Y139366D01*
X1062122D01*
X1062647Y138841D01*
Y137267D01*
X1063696D02*
Y139366D01*
X1065271D01*
X1065796Y138841D01*
Y137267D01*
X1066845Y139891D02*
X1067370Y140416D01*
X1068419D01*
X1068944Y139891D01*
Y139366D01*
X1068419Y138841D01*
X1067894D01*
X1068419D01*
X1068944Y138316D01*
Y137792D01*
X1068419Y137267D01*
X1067370D01*
X1066845Y137792D01*
X1069994Y137267D02*
X1071043D01*
X1070518D01*
Y140416D01*
X1069994Y139891D01*
X1072617D02*
X1073142Y140416D01*
X1074192D01*
X1074716Y139891D01*
Y137792D01*
X1074192Y137267D01*
X1073142D01*
X1072617Y137792D01*
Y139891D01*
X1050577Y131492D02*
X1049003D01*
X1048478Y130967D01*
Y129918D01*
X1049003Y129393D01*
X1050577D01*
X1051627Y132017D02*
X1052152Y132542D01*
X1053201D01*
X1053726Y132017D01*
Y131492D01*
X1053201Y130967D01*
X1052676D01*
X1053201D01*
X1053726Y130442D01*
Y129918D01*
X1053201Y129393D01*
X1052152D01*
X1051627Y129918D01*
X1054775Y132017D02*
X1055300Y132542D01*
X1056350D01*
X1056874Y132017D01*
Y129918D01*
X1056350Y129393D01*
X1055300D01*
X1054775Y129918D01*
Y132017D01*
X1057924D02*
X1058449Y132542D01*
X1059498D01*
X1060023Y132017D01*
Y129918D01*
X1059498Y129393D01*
X1058449D01*
X1057924Y129918D01*
Y132017D01*
X1061073Y132542D02*
Y129393D01*
Y130967D01*
X1061597Y131492D01*
X1062647D01*
X1063172Y130967D01*
Y129393D01*
X1064221D02*
Y131492D01*
X1065796D01*
X1066320Y130967D01*
Y129393D01*
X1067370Y132017D02*
X1067894Y132542D01*
X1068944D01*
X1069469Y132017D01*
Y131492D01*
X1068944Y130967D01*
X1068419D01*
X1068944D01*
X1069469Y130442D01*
Y129918D01*
X1068944Y129393D01*
X1067894D01*
X1067370Y129918D01*
X1070518Y132017D02*
X1071043Y132542D01*
X1072093D01*
X1072617Y132017D01*
Y129918D01*
X1072093Y129393D01*
X1071043D01*
X1070518Y129918D01*
Y132017D01*
X1073667D02*
X1074192Y132542D01*
X1075241D01*
X1075766Y132017D01*
Y129918D01*
X1075241Y129393D01*
X1074192D01*
X1073667Y129918D01*
Y132017D01*
X1048478Y123618D02*
X1049528Y121519D01*
X1050577Y123618D01*
X1053726Y124668D02*
X1052676Y124143D01*
X1051627Y123093D01*
Y122044D01*
X1052152Y121519D01*
X1053201D01*
X1053726Y122044D01*
Y122568D01*
X1053201Y123093D01*
X1051627D01*
X1054775Y124143D02*
X1055300Y124668D01*
X1056350D01*
X1056874Y124143D01*
Y122044D01*
X1056350Y121519D01*
X1055300D01*
X1054775Y122044D01*
Y124143D01*
X1057924Y124668D02*
Y121519D01*
Y123093D01*
X1058449Y123618D01*
X1059498D01*
X1060023Y123093D01*
Y121519D01*
X1063172D02*
X1061073D01*
X1063172Y123618D01*
Y124143D01*
X1062647Y124668D01*
X1061597D01*
X1061073Y124143D01*
X1066320Y124668D02*
X1064221D01*
Y123093D01*
X1065271Y123618D01*
X1065796D01*
X1066320Y123093D01*
Y122044D01*
X1065796Y121519D01*
X1064746D01*
X1064221Y122044D01*
X1067370Y121519D02*
Y123618D01*
X1067894D01*
X1068419Y123093D01*
Y121519D01*
Y123093D01*
X1068944Y123618D01*
X1069469Y123093D01*
Y121519D01*
X1072093D02*
Y124668D01*
X1070518Y123093D01*
X1072617D01*
X1075766Y124668D02*
X1073667D01*
Y123093D01*
X1074716Y123618D01*
X1075241D01*
X1075766Y123093D01*
Y122044D01*
X1075241Y121519D01*
X1074192D01*
X1073667Y122044D01*
X1009119Y160889D02*
Y164038D01*
X1010693D01*
X1011218Y163513D01*
Y162463D01*
X1010693Y161939D01*
X1009119D01*
X1010168D02*
X1011218Y160889D01*
X1012792D02*
X1013842D01*
X1014366Y161414D01*
Y162463D01*
X1013842Y162988D01*
X1012792D01*
X1012267Y162463D01*
Y161414D01*
X1012792Y160889D01*
X1015416Y162988D02*
Y161414D01*
X1015941Y160889D01*
X1017515D01*
Y162988D01*
X1018565Y160889D02*
Y162988D01*
X1020139D01*
X1020664Y162463D01*
Y160889D01*
X1023812Y164038D02*
Y160889D01*
X1022238D01*
X1021713Y161414D01*
Y162463D01*
X1022238Y162988D01*
X1023812D01*
X1026436Y160889D02*
X1025386D01*
X1024862Y161414D01*
Y162463D01*
X1025386Y162988D01*
X1026436D01*
X1026961Y162463D01*
Y161939D01*
X1024862D01*
X1030109Y164038D02*
Y160889D01*
X1028535D01*
X1028010Y161414D01*
Y162463D01*
X1028535Y162988D01*
X1030109D01*
X1010168Y153015D02*
X1009119Y154065D01*
Y155114D01*
X1010168Y156164D01*
X1011742Y153015D02*
Y156164D01*
X1012792Y155114D01*
X1013842Y156164D01*
Y153015D01*
X1014891D02*
X1015941D01*
X1015416D01*
Y155114D01*
X1014891D01*
X1017515D02*
X1019614Y153015D01*
X1018565Y154065D01*
X1019614Y155114D01*
X1017515Y153015D01*
X1022238D02*
X1021188D01*
X1020664Y153540D01*
Y154589D01*
X1021188Y155114D01*
X1022238D01*
X1022763Y154589D01*
Y154065D01*
X1020664D01*
X1025911Y156164D02*
Y153015D01*
X1024337D01*
X1023812Y153540D01*
Y154589D01*
X1024337Y155114D01*
X1025911D01*
X1026961Y153015D02*
X1028010Y154065D01*
Y155114D01*
X1026961Y156164D01*
X1009119Y145141D02*
Y148290D01*
X1010693D01*
X1011218Y147765D01*
Y146715D01*
X1010693Y146190D01*
X1009119D01*
X1010168D02*
X1011218Y145141D01*
X1012792D02*
X1013842D01*
X1014366Y145666D01*
Y146715D01*
X1013842Y147240D01*
X1012792D01*
X1012267Y146715D01*
Y145666D01*
X1012792Y145141D01*
X1015416Y147240D02*
Y145666D01*
X1015941Y145141D01*
X1017515D01*
Y147240D01*
X1018565Y145141D02*
Y147240D01*
X1020139D01*
X1020664Y146715D01*
Y145141D01*
X1023812Y148290D02*
Y145141D01*
X1022238D01*
X1021713Y145666D01*
Y146715D01*
X1022238Y147240D01*
X1023812D01*
X1026436Y145141D02*
X1025386D01*
X1024862Y145666D01*
Y146715D01*
X1025386Y147240D01*
X1026436D01*
X1026961Y146715D01*
Y146190D01*
X1024862D01*
X1030109Y148290D02*
Y145141D01*
X1028535D01*
X1028010Y145666D01*
Y146715D01*
X1028535Y147240D01*
X1030109D01*
X1009119Y137267D02*
Y140416D01*
X1010693D01*
X1011218Y139891D01*
Y138841D01*
X1010693Y138316D01*
X1009119D01*
X1010168D02*
X1011218Y137267D01*
X1012792D02*
X1013842D01*
X1014366Y137792D01*
Y138841D01*
X1013842Y139366D01*
X1012792D01*
X1012267Y138841D01*
Y137792D01*
X1012792Y137267D01*
X1015416Y139366D02*
Y137792D01*
X1015941Y137267D01*
X1017515D01*
Y139366D01*
X1018565Y137267D02*
Y139366D01*
X1020139D01*
X1020664Y138841D01*
Y137267D01*
X1023812Y140416D02*
Y137267D01*
X1022238D01*
X1021713Y137792D01*
Y138841D01*
X1022238Y139366D01*
X1023812D01*
X1026436Y137267D02*
X1025386D01*
X1024862Y137792D01*
Y138841D01*
X1025386Y139366D01*
X1026436D01*
X1026961Y138841D01*
Y138316D01*
X1024862D01*
X1030109Y140416D02*
Y137267D01*
X1028535D01*
X1028010Y137792D01*
Y138841D01*
X1028535Y139366D01*
X1030109D01*
X1009119Y129393D02*
Y132542D01*
X1010693D01*
X1011218Y132017D01*
Y130967D01*
X1010693Y130442D01*
X1009119D01*
X1010168D02*
X1011218Y129393D01*
X1012792D02*
X1013842D01*
X1014366Y129918D01*
Y130967D01*
X1013842Y131492D01*
X1012792D01*
X1012267Y130967D01*
Y129918D01*
X1012792Y129393D01*
X1015416Y131492D02*
Y129918D01*
X1015941Y129393D01*
X1017515D01*
Y131492D01*
X1018565Y129393D02*
Y131492D01*
X1020139D01*
X1020664Y130967D01*
Y129393D01*
X1023812Y132542D02*
Y129393D01*
X1022238D01*
X1021713Y129918D01*
Y130967D01*
X1022238Y131492D01*
X1023812D01*
X1026436Y129393D02*
X1025386D01*
X1024862Y129918D01*
Y130967D01*
X1025386Y131492D01*
X1026436D01*
X1026961Y130967D01*
Y130442D01*
X1024862D01*
X1030109Y132542D02*
Y129393D01*
X1028535D01*
X1028010Y129918D01*
Y130967D01*
X1028535Y131492D01*
X1030109D01*
X1009119Y121519D02*
Y124668D01*
X1010693D01*
X1011218Y124143D01*
Y123093D01*
X1010693Y122568D01*
X1009119D01*
X1010168D02*
X1011218Y121519D01*
X1012792D02*
X1013842D01*
X1014366Y122044D01*
Y123093D01*
X1013842Y123618D01*
X1012792D01*
X1012267Y123093D01*
Y122044D01*
X1012792Y121519D01*
X1015416Y123618D02*
Y122044D01*
X1015941Y121519D01*
X1017515D01*
Y123618D01*
X1018565Y121519D02*
Y123618D01*
X1020139D01*
X1020664Y123093D01*
Y121519D01*
X1023812Y124668D02*
Y121519D01*
X1022238D01*
X1021713Y122044D01*
Y123093D01*
X1022238Y123618D01*
X1023812D01*
X1026436Y121519D02*
X1025386D01*
X1024862Y122044D01*
Y123093D01*
X1025386Y123618D01*
X1026436D01*
X1026961Y123093D01*
Y122568D01*
X1024862D01*
X1030109Y124668D02*
Y121519D01*
X1028535D01*
X1028010Y122044D01*
Y123093D01*
X1028535Y123618D01*
X1030109D01*
X977946Y160889D02*
Y164038D01*
X979520D01*
X980045Y163513D01*
Y162463D01*
X979520Y161939D01*
X977946D01*
X981619Y162988D02*
X982668D01*
X983193Y162463D01*
Y160889D01*
X981619D01*
X981094Y161414D01*
X981619Y161939D01*
X983193D01*
X986342Y164038D02*
Y160889D01*
X984768D01*
X984243Y161414D01*
Y162463D01*
X984768Y162988D01*
X986342D01*
X977946Y153015D02*
Y156164D01*
X979520D01*
X980045Y155639D01*
Y154589D01*
X979520Y154065D01*
X977946D01*
X981619Y155114D02*
X982668D01*
X983193Y154589D01*
Y153015D01*
X981619D01*
X981094Y153540D01*
X981619Y154065D01*
X983193D01*
X986342Y156164D02*
Y153015D01*
X984768D01*
X984243Y153540D01*
Y154589D01*
X984768Y155114D01*
X986342D01*
X977946Y145141D02*
Y148290D01*
X979520D01*
X980045Y147765D01*
Y146715D01*
X979520Y146190D01*
X977946D01*
X981619Y147240D02*
X982668D01*
X983193Y146715D01*
Y145141D01*
X981619D01*
X981094Y145666D01*
X981619Y146190D01*
X983193D01*
X986342Y148290D02*
Y145141D01*
X984768D01*
X984243Y145666D01*
Y146715D01*
X984768Y147240D01*
X986342D01*
X977946Y137267D02*
Y140416D01*
X979520D01*
X980045Y139891D01*
Y138841D01*
X979520Y138316D01*
X977946D01*
X981619Y139366D02*
X982668D01*
X983193Y138841D01*
Y137267D01*
X981619D01*
X981094Y137792D01*
X981619Y138316D01*
X983193D01*
X986342Y140416D02*
Y137267D01*
X984768D01*
X984243Y137792D01*
Y138841D01*
X984768Y139366D01*
X986342D01*
X977946Y129393D02*
Y132542D01*
X979520D01*
X980045Y132017D01*
Y130967D01*
X979520Y130442D01*
X977946D01*
X981619Y131492D02*
X982668D01*
X983193Y130967D01*
Y129393D01*
X981619D01*
X981094Y129918D01*
X981619Y130442D01*
X983193D01*
X986342Y132542D02*
Y129393D01*
X984768D01*
X984243Y129918D01*
Y130967D01*
X984768Y131492D01*
X986342D01*
X977946Y124668D02*
Y122568D01*
X978995Y121519D01*
X980045Y122568D01*
Y124668D01*
X981094Y121519D02*
X982144D01*
X981619D01*
Y123618D01*
X981094D01*
X984243D02*
X985292D01*
X985817Y123093D01*
Y121519D01*
X984243D01*
X983718Y122044D01*
X984243Y122568D01*
X985817D01*
X899098Y164038D02*
X901197D01*
X900147D01*
Y160889D01*
X902771D02*
X903821D01*
X904345Y161414D01*
Y162463D01*
X903821Y162988D01*
X902771D01*
X902246Y162463D01*
Y161414D01*
X902771Y160889D01*
X905395Y159839D02*
Y162988D01*
X906969D01*
X907494Y162463D01*
Y161414D01*
X906969Y160889D01*
X905395D01*
X911692Y164038D02*
Y160889D01*
X913791D01*
X915365Y162988D02*
X916415D01*
X916940Y162463D01*
Y160889D01*
X915365D01*
X914841Y161414D01*
X915365Y161939D01*
X916940D01*
X917989Y162988D02*
Y161414D01*
X918514Y160889D01*
X920088D01*
Y160364D01*
X919564Y159839D01*
X919039D01*
X920088Y160889D02*
Y162988D01*
X922712Y160889D02*
X921663D01*
X921138Y161414D01*
Y162463D01*
X921663Y162988D01*
X922712D01*
X923237Y162463D01*
Y161939D01*
X921138D01*
X924286Y162988D02*
Y160889D01*
Y161939D01*
X924811Y162463D01*
X925336Y162988D01*
X925861D01*
X930584Y162463D02*
X932683D01*
X936881Y164038D02*
Y160889D01*
X938455D01*
X938980Y161414D01*
Y161939D01*
X938455Y162463D01*
X936881D01*
X938455D01*
X938980Y162988D01*
Y163513D01*
X938455Y164038D01*
X936881D01*
X940554Y160889D02*
X941604D01*
X942128Y161414D01*
Y162463D01*
X941604Y162988D01*
X940554D01*
X940029Y162463D01*
Y161414D01*
X940554Y160889D01*
X943703Y163513D02*
Y162988D01*
X943178D01*
X944228D01*
X943703D01*
Y161414D01*
X944228Y160889D01*
X946327Y163513D02*
Y162988D01*
X945802D01*
X946851D01*
X946327D01*
Y161414D01*
X946851Y160889D01*
X948950D02*
X950000D01*
X950525Y161414D01*
Y162463D01*
X950000Y162988D01*
X948950D01*
X948426Y162463D01*
Y161414D01*
X948950Y160889D01*
X951574D02*
Y162988D01*
X952099D01*
X952624Y162463D01*
Y160889D01*
Y162463D01*
X953148Y162988D01*
X953673Y162463D01*
Y160889D01*
X957871Y164038D02*
Y160889D01*
X959970D01*
X961545Y162988D02*
X962594D01*
X963119Y162463D01*
Y160889D01*
X961545D01*
X961020Y161414D01*
X961545Y161939D01*
X963119D01*
X964169Y162988D02*
Y161414D01*
X964693Y160889D01*
X966268D01*
Y160364D01*
X965743Y159839D01*
X965218D01*
X966268Y160889D02*
Y162988D01*
X968892Y160889D02*
X967842D01*
X967317Y161414D01*
Y162463D01*
X967842Y162988D01*
X968892D01*
X969416Y162463D01*
Y161939D01*
X967317D01*
X970466Y162988D02*
Y160889D01*
Y161939D01*
X970990Y162463D01*
X971515Y162988D01*
X972040D01*
X899098Y156164D02*
X901197D01*
X900147D01*
Y153015D01*
X902771D02*
X903821D01*
X904345Y153540D01*
Y154589D01*
X903821Y155114D01*
X902771D01*
X902246Y154589D01*
Y153540D01*
X902771Y153015D01*
X905395Y151965D02*
Y155114D01*
X906969D01*
X907494Y154589D01*
Y153540D01*
X906969Y153015D01*
X905395D01*
X911692Y156164D02*
Y153015D01*
X913791D01*
X915365Y155114D02*
X916415D01*
X916940Y154589D01*
Y153015D01*
X915365D01*
X914841Y153540D01*
X915365Y154065D01*
X916940D01*
X917989Y155114D02*
Y153540D01*
X918514Y153015D01*
X920088D01*
Y152490D01*
X919564Y151965D01*
X919039D01*
X920088Y153015D02*
Y155114D01*
X922712Y153015D02*
X921663D01*
X921138Y153540D01*
Y154589D01*
X921663Y155114D01*
X922712D01*
X923237Y154589D01*
Y154065D01*
X921138D01*
X924286Y155114D02*
Y153015D01*
Y154065D01*
X924811Y154589D01*
X925336Y155114D01*
X925861D01*
X930584Y154589D02*
X932683D01*
X936881Y156164D02*
Y153015D01*
X938455D01*
X938980Y153540D01*
Y154065D01*
X938455Y154589D01*
X936881D01*
X938455D01*
X938980Y155114D01*
Y155639D01*
X938455Y156164D01*
X936881D01*
X940554Y153015D02*
X941604D01*
X942128Y153540D01*
Y154589D01*
X941604Y155114D01*
X940554D01*
X940029Y154589D01*
Y153540D01*
X940554Y153015D01*
X943703Y155639D02*
Y155114D01*
X943178D01*
X944228D01*
X943703D01*
Y153540D01*
X944228Y153015D01*
X946327Y155639D02*
Y155114D01*
X945802D01*
X946851D01*
X946327D01*
Y153540D01*
X946851Y153015D01*
X948950D02*
X950000D01*
X950525Y153540D01*
Y154589D01*
X950000Y155114D01*
X948950D01*
X948426Y154589D01*
Y153540D01*
X948950Y153015D01*
X951574D02*
Y155114D01*
X952099D01*
X952624Y154589D01*
Y153015D01*
Y154589D01*
X953148Y155114D01*
X953673Y154589D01*
Y153015D01*
X957871Y156164D02*
Y153015D01*
X959970D01*
X961545Y155114D02*
X962594D01*
X963119Y154589D01*
Y153015D01*
X961545D01*
X961020Y153540D01*
X961545Y154065D01*
X963119D01*
X964169Y155114D02*
Y153540D01*
X964693Y153015D01*
X966268D01*
Y152490D01*
X965743Y151965D01*
X965218D01*
X966268Y153015D02*
Y155114D01*
X968892Y153015D02*
X967842D01*
X967317Y153540D01*
Y154589D01*
X967842Y155114D01*
X968892D01*
X969416Y154589D01*
Y154065D01*
X967317D01*
X970466Y155114D02*
Y153015D01*
Y154065D01*
X970990Y154589D01*
X971515Y155114D01*
X972040D01*
X899098Y148290D02*
X901197D01*
X900147D01*
Y145141D01*
X902771D02*
X903821D01*
X904345Y145666D01*
Y146715D01*
X903821Y147240D01*
X902771D01*
X902246Y146715D01*
Y145666D01*
X902771Y145141D01*
X905395Y144091D02*
Y147240D01*
X906969D01*
X907494Y146715D01*
Y145666D01*
X906969Y145141D01*
X905395D01*
X911692Y148290D02*
Y145141D01*
X913791D01*
X915365Y147240D02*
X916415D01*
X916940Y146715D01*
Y145141D01*
X915365D01*
X914841Y145666D01*
X915365Y146190D01*
X916940D01*
X917989Y147240D02*
Y145666D01*
X918514Y145141D01*
X920088D01*
Y144616D01*
X919564Y144091D01*
X919039D01*
X920088Y145141D02*
Y147240D01*
X922712Y145141D02*
X921663D01*
X921138Y145666D01*
Y146715D01*
X921663Y147240D01*
X922712D01*
X923237Y146715D01*
Y146190D01*
X921138D01*
X924286Y147240D02*
Y145141D01*
Y146190D01*
X924811Y146715D01*
X925336Y147240D01*
X925861D01*
X930584Y146715D02*
X932683D01*
X936881Y148290D02*
Y145141D01*
X938455D01*
X938980Y145666D01*
Y146190D01*
X938455Y146715D01*
X936881D01*
X938455D01*
X938980Y147240D01*
Y147765D01*
X938455Y148290D01*
X936881D01*
X940554Y145141D02*
X941604D01*
X942128Y145666D01*
Y146715D01*
X941604Y147240D01*
X940554D01*
X940029Y146715D01*
Y145666D01*
X940554Y145141D01*
X943703Y147765D02*
Y147240D01*
X943178D01*
X944228D01*
X943703D01*
Y145666D01*
X944228Y145141D01*
X946327Y147765D02*
Y147240D01*
X945802D01*
X946851D01*
X946327D01*
Y145666D01*
X946851Y145141D01*
X948950D02*
X950000D01*
X950525Y145666D01*
Y146715D01*
X950000Y147240D01*
X948950D01*
X948426Y146715D01*
Y145666D01*
X948950Y145141D01*
X951574D02*
Y147240D01*
X952099D01*
X952624Y146715D01*
Y145141D01*
Y146715D01*
X953148Y147240D01*
X953673Y146715D01*
Y145141D01*
X957871Y148290D02*
Y145141D01*
X959970D01*
X961545Y147240D02*
X962594D01*
X963119Y146715D01*
Y145141D01*
X961545D01*
X961020Y145666D01*
X961545Y146190D01*
X963119D01*
X964169Y147240D02*
Y145666D01*
X964693Y145141D01*
X966268D01*
Y144616D01*
X965743Y144091D01*
X965218D01*
X966268Y145141D02*
Y147240D01*
X968892Y145141D02*
X967842D01*
X967317Y145666D01*
Y146715D01*
X967842Y147240D01*
X968892D01*
X969416Y146715D01*
Y146190D01*
X967317D01*
X970466Y147240D02*
Y145141D01*
Y146190D01*
X970990Y146715D01*
X971515Y147240D01*
X972040D01*
X899098Y140416D02*
X901197D01*
X900147D01*
Y137267D01*
X902771D02*
X903821D01*
X904345Y137792D01*
Y138841D01*
X903821Y139366D01*
X902771D01*
X902246Y138841D01*
Y137792D01*
X902771Y137267D01*
X905395Y136217D02*
Y139366D01*
X906969D01*
X907494Y138841D01*
Y137792D01*
X906969Y137267D01*
X905395D01*
X911692Y140416D02*
Y137267D01*
X913791D01*
X915365Y139366D02*
X916415D01*
X916940Y138841D01*
Y137267D01*
X915365D01*
X914841Y137792D01*
X915365Y138316D01*
X916940D01*
X917989Y139366D02*
Y137792D01*
X918514Y137267D01*
X920088D01*
Y136742D01*
X919564Y136217D01*
X919039D01*
X920088Y137267D02*
Y139366D01*
X922712Y137267D02*
X921663D01*
X921138Y137792D01*
Y138841D01*
X921663Y139366D01*
X922712D01*
X923237Y138841D01*
Y138316D01*
X921138D01*
X924286Y139366D02*
Y137267D01*
Y138316D01*
X924811Y138841D01*
X925336Y139366D01*
X925861D01*
X930584Y138841D02*
X932683D01*
X936881Y140416D02*
Y137267D01*
X938455D01*
X938980Y137792D01*
Y138316D01*
X938455Y138841D01*
X936881D01*
X938455D01*
X938980Y139366D01*
Y139891D01*
X938455Y140416D01*
X936881D01*
X940554Y137267D02*
X941604D01*
X942128Y137792D01*
Y138841D01*
X941604Y139366D01*
X940554D01*
X940029Y138841D01*
Y137792D01*
X940554Y137267D01*
X943703Y139891D02*
Y139366D01*
X943178D01*
X944228D01*
X943703D01*
Y137792D01*
X944228Y137267D01*
X946327Y139891D02*
Y139366D01*
X945802D01*
X946851D01*
X946327D01*
Y137792D01*
X946851Y137267D01*
X948950D02*
X950000D01*
X950525Y137792D01*
Y138841D01*
X950000Y139366D01*
X948950D01*
X948426Y138841D01*
Y137792D01*
X948950Y137267D01*
X951574D02*
Y139366D01*
X952099D01*
X952624Y138841D01*
Y137267D01*
Y138841D01*
X953148Y139366D01*
X953673Y138841D01*
Y137267D01*
X957871Y140416D02*
Y137267D01*
X959970D01*
X961545Y139366D02*
X962594D01*
X963119Y138841D01*
Y137267D01*
X961545D01*
X961020Y137792D01*
X961545Y138316D01*
X963119D01*
X964169Y139366D02*
Y137792D01*
X964693Y137267D01*
X966268D01*
Y136742D01*
X965743Y136217D01*
X965218D01*
X966268Y137267D02*
Y139366D01*
X968892Y137267D02*
X967842D01*
X967317Y137792D01*
Y138841D01*
X967842Y139366D01*
X968892D01*
X969416Y138841D01*
Y138316D01*
X967317D01*
X970466Y139366D02*
Y137267D01*
Y138316D01*
X970990Y138841D01*
X971515Y139366D01*
X972040D01*
X899098Y132542D02*
X901197D01*
X900147D01*
Y129393D01*
X902771D02*
X903821D01*
X904345Y129918D01*
Y130967D01*
X903821Y131492D01*
X902771D01*
X902246Y130967D01*
Y129918D01*
X902771Y129393D01*
X905395Y128343D02*
Y131492D01*
X906969D01*
X907494Y130967D01*
Y129918D01*
X906969Y129393D01*
X905395D01*
X911692Y132542D02*
Y129393D01*
X913791D01*
X915365Y131492D02*
X916415D01*
X916940Y130967D01*
Y129393D01*
X915365D01*
X914841Y129918D01*
X915365Y130442D01*
X916940D01*
X917989Y131492D02*
Y129918D01*
X918514Y129393D01*
X920088D01*
Y128868D01*
X919564Y128343D01*
X919039D01*
X920088Y129393D02*
Y131492D01*
X922712Y129393D02*
X921663D01*
X921138Y129918D01*
Y130967D01*
X921663Y131492D01*
X922712D01*
X923237Y130967D01*
Y130442D01*
X921138D01*
X924286Y131492D02*
Y129393D01*
Y130442D01*
X924811Y130967D01*
X925336Y131492D01*
X925861D01*
X930584Y130967D02*
X932683D01*
X936881Y132542D02*
Y129393D01*
X938455D01*
X938980Y129918D01*
Y130442D01*
X938455Y130967D01*
X936881D01*
X938455D01*
X938980Y131492D01*
Y132017D01*
X938455Y132542D01*
X936881D01*
X940554Y129393D02*
X941604D01*
X942128Y129918D01*
Y130967D01*
X941604Y131492D01*
X940554D01*
X940029Y130967D01*
Y129918D01*
X940554Y129393D01*
X943703Y132017D02*
Y131492D01*
X943178D01*
X944228D01*
X943703D01*
Y129918D01*
X944228Y129393D01*
X946327Y132017D02*
Y131492D01*
X945802D01*
X946851D01*
X946327D01*
Y129918D01*
X946851Y129393D01*
X948950D02*
X950000D01*
X950525Y129918D01*
Y130967D01*
X950000Y131492D01*
X948950D01*
X948426Y130967D01*
Y129918D01*
X948950Y129393D01*
X951574D02*
Y131492D01*
X952099D01*
X952624Y130967D01*
Y129393D01*
Y130967D01*
X953148Y131492D01*
X953673Y130967D01*
Y129393D01*
X957871Y132542D02*
Y129393D01*
X959970D01*
X961545Y131492D02*
X962594D01*
X963119Y130967D01*
Y129393D01*
X961545D01*
X961020Y129918D01*
X961545Y130442D01*
X963119D01*
X964169Y131492D02*
Y129918D01*
X964693Y129393D01*
X966268D01*
Y128868D01*
X965743Y128343D01*
X965218D01*
X966268Y129393D02*
Y131492D01*
X968892Y129393D02*
X967842D01*
X967317Y129918D01*
Y130967D01*
X967842Y131492D01*
X968892D01*
X969416Y130967D01*
Y130442D01*
X967317D01*
X970466Y131492D02*
Y129393D01*
Y130442D01*
X970990Y130967D01*
X971515Y131492D01*
X972040D01*
X899098Y124668D02*
X901197D01*
X900147D01*
Y121519D01*
X902771D02*
X903821D01*
X904345Y122044D01*
Y123093D01*
X903821Y123618D01*
X902771D01*
X902246Y123093D01*
Y122044D01*
X902771Y121519D01*
X905395Y120469D02*
Y123618D01*
X906969D01*
X907494Y123093D01*
Y122044D01*
X906969Y121519D01*
X905395D01*
X911692Y124668D02*
Y121519D01*
X913791D01*
X915365Y123618D02*
X916415D01*
X916940Y123093D01*
Y121519D01*
X915365D01*
X914841Y122044D01*
X915365Y122568D01*
X916940D01*
X917989Y123618D02*
Y122044D01*
X918514Y121519D01*
X920088D01*
Y120994D01*
X919564Y120469D01*
X919039D01*
X920088Y121519D02*
Y123618D01*
X922712Y121519D02*
X921663D01*
X921138Y122044D01*
Y123093D01*
X921663Y123618D01*
X922712D01*
X923237Y123093D01*
Y122568D01*
X921138D01*
X924286Y123618D02*
Y121519D01*
Y122568D01*
X924811Y123093D01*
X925336Y123618D01*
X925861D01*
X930584Y123093D02*
X932683D01*
X936881Y124668D02*
Y121519D01*
X938455D01*
X938980Y122044D01*
Y122568D01*
X938455Y123093D01*
X936881D01*
X938455D01*
X938980Y123618D01*
Y124143D01*
X938455Y124668D01*
X936881D01*
X940554Y121519D02*
X941604D01*
X942128Y122044D01*
Y123093D01*
X941604Y123618D01*
X940554D01*
X940029Y123093D01*
Y122044D01*
X940554Y121519D01*
X943703Y124143D02*
Y123618D01*
X943178D01*
X944228D01*
X943703D01*
Y122044D01*
X944228Y121519D01*
X946327Y124143D02*
Y123618D01*
X945802D01*
X946851D01*
X946327D01*
Y122044D01*
X946851Y121519D01*
X948950D02*
X950000D01*
X950525Y122044D01*
Y123093D01*
X950000Y123618D01*
X948950D01*
X948426Y123093D01*
Y122044D01*
X948950Y121519D01*
X951574D02*
Y123618D01*
X952099D01*
X952624Y123093D01*
Y121519D01*
Y123093D01*
X953148Y123618D01*
X953673Y123093D01*
Y121519D01*
X957871Y124668D02*
Y121519D01*
X959970D01*
X961545Y123618D02*
X962594D01*
X963119Y123093D01*
Y121519D01*
X961545D01*
X961020Y122044D01*
X961545Y122568D01*
X963119D01*
X964169Y123618D02*
Y122044D01*
X964693Y121519D01*
X966268D01*
Y120994D01*
X965743Y120469D01*
X965218D01*
X966268Y121519D02*
Y123618D01*
X968892Y121519D02*
X967842D01*
X967317Y122044D01*
Y123093D01*
X967842Y123618D01*
X968892D01*
X969416Y123093D01*
Y122568D01*
X967317D01*
X970466Y123618D02*
Y121519D01*
Y122568D01*
X970990Y123093D01*
X971515Y123618D01*
X972040D01*
X860368Y160889D02*
Y164038D01*
X861942D01*
X862467Y163513D01*
Y162463D01*
X861942Y161939D01*
X860368D01*
X861417D02*
X862467Y160889D01*
X864041D02*
X865091D01*
X865616Y161414D01*
Y162463D01*
X865091Y162988D01*
X864041D01*
X863517Y162463D01*
Y161414D01*
X864041Y160889D01*
X866665Y162988D02*
Y161414D01*
X867190Y160889D01*
X868764D01*
Y162988D01*
X869814Y160889D02*
Y162988D01*
X871388D01*
X871913Y162463D01*
Y160889D01*
X875061Y164038D02*
Y160889D01*
X873487D01*
X872962Y161414D01*
Y162463D01*
X873487Y162988D01*
X875061D01*
X860368Y153015D02*
Y156164D01*
X861942D01*
X862467Y155639D01*
Y154589D01*
X861942Y154065D01*
X860368D01*
X861417D02*
X862467Y153015D01*
X864041D02*
X865091D01*
X865616Y153540D01*
Y154589D01*
X865091Y155114D01*
X864041D01*
X863517Y154589D01*
Y153540D01*
X864041Y153015D01*
X866665Y155114D02*
Y153540D01*
X867190Y153015D01*
X868764D01*
Y155114D01*
X869814Y153015D02*
Y155114D01*
X871388D01*
X871913Y154589D01*
Y153015D01*
X875061Y156164D02*
Y153015D01*
X873487D01*
X872962Y153540D01*
Y154589D01*
X873487Y155114D01*
X875061D01*
X860368Y145141D02*
Y148290D01*
X861942D01*
X862467Y147765D01*
Y146715D01*
X861942Y146190D01*
X860368D01*
X861417D02*
X862467Y145141D01*
X864041D02*
X865091D01*
X865616Y145666D01*
Y146715D01*
X865091Y147240D01*
X864041D01*
X863517Y146715D01*
Y145666D01*
X864041Y145141D01*
X866665Y147240D02*
Y145666D01*
X867190Y145141D01*
X868764D01*
Y147240D01*
X869814Y145141D02*
Y147240D01*
X871388D01*
X871913Y146715D01*
Y145141D01*
X875061Y148290D02*
Y145141D01*
X873487D01*
X872962Y145666D01*
Y146715D01*
X873487Y147240D01*
X875061D01*
X860368Y137267D02*
Y140416D01*
X861942D01*
X862467Y139891D01*
Y138841D01*
X861942Y138316D01*
X860368D01*
X861417D02*
X862467Y137267D01*
X864041D02*
X865091D01*
X865616Y137792D01*
Y138841D01*
X865091Y139366D01*
X864041D01*
X863517Y138841D01*
Y137792D01*
X864041Y137267D01*
X866665Y139366D02*
Y137792D01*
X867190Y137267D01*
X868764D01*
Y139366D01*
X869814Y137267D02*
Y139366D01*
X871388D01*
X871913Y138841D01*
Y137267D01*
X875061Y140416D02*
Y137267D01*
X873487D01*
X872962Y137792D01*
Y138841D01*
X873487Y139366D01*
X875061D01*
X860368Y129393D02*
Y132542D01*
X861942D01*
X862467Y132017D01*
Y130967D01*
X861942Y130442D01*
X860368D01*
X861417D02*
X862467Y129393D01*
X864041D02*
X865091D01*
X865616Y129918D01*
Y130967D01*
X865091Y131492D01*
X864041D01*
X863517Y130967D01*
Y129918D01*
X864041Y129393D01*
X866665Y131492D02*
Y129918D01*
X867190Y129393D01*
X868764D01*
Y131492D01*
X869814Y129393D02*
Y131492D01*
X871388D01*
X871913Y130967D01*
Y129393D01*
X875061Y132542D02*
Y129393D01*
X873487D01*
X872962Y129918D01*
Y130967D01*
X873487Y131492D01*
X875061D01*
X860368Y121519D02*
Y124668D01*
X861942D01*
X862467Y124143D01*
Y123093D01*
X861942Y122568D01*
X860368D01*
X861417D02*
X862467Y121519D01*
X864041D02*
X865091D01*
X865616Y122044D01*
Y123093D01*
X865091Y123618D01*
X864041D01*
X863517Y123093D01*
Y122044D01*
X864041Y121519D01*
X866665Y123618D02*
Y122044D01*
X867190Y121519D01*
X868764D01*
Y123618D01*
X869814Y121519D02*
Y123618D01*
X871388D01*
X871913Y123093D01*
Y121519D01*
X875061Y124668D02*
Y121519D01*
X873487D01*
X872962Y122044D01*
Y123093D01*
X873487Y123618D01*
X875061D01*
X833603Y160889D02*
Y164038D01*
X835702Y160889D01*
Y164038D01*
X836751Y160889D02*
Y164038D01*
X838326D01*
X838850Y163513D01*
Y162463D01*
X838326Y161939D01*
X836751D01*
X839900Y164038D02*
X841999D01*
X840950D01*
Y160889D01*
X843049Y164038D02*
Y160889D01*
Y162463D01*
X845148D01*
Y164038D01*
Y160889D01*
X833603Y153015D02*
Y156164D01*
X835177D01*
X835702Y155639D01*
Y154589D01*
X835177Y154065D01*
X833603D01*
X836751Y156164D02*
X838850D01*
X837801D01*
Y153015D01*
X839900Y156164D02*
Y153015D01*
Y154589D01*
X841999D01*
Y156164D01*
Y153015D01*
X833603Y145141D02*
Y148290D01*
X835702Y145141D01*
Y148290D01*
X836751Y145141D02*
Y148290D01*
X838326D01*
X838850Y147765D01*
Y146715D01*
X838326Y146190D01*
X836751D01*
X839900Y148290D02*
X841999D01*
X840950D01*
Y145141D01*
X843049Y148290D02*
Y145141D01*
Y146715D01*
X845148D01*
Y148290D01*
Y145141D01*
X833603Y137267D02*
Y140416D01*
X835702Y137267D01*
Y140416D01*
X836751Y137267D02*
Y140416D01*
X838326D01*
X838850Y139891D01*
Y138841D01*
X838326Y138316D01*
X836751D01*
X839900Y140416D02*
X841999D01*
X840950D01*
Y137267D01*
X843049Y140416D02*
Y137267D01*
Y138841D01*
X845148D01*
Y140416D01*
Y137267D01*
X833603Y129393D02*
Y132542D01*
X835702Y129393D01*
Y132542D01*
X836751Y129393D02*
Y132542D01*
X838326D01*
X838850Y132017D01*
Y130967D01*
X838326Y130442D01*
X836751D01*
X839900Y132542D02*
X841999D01*
X840950D01*
Y129393D01*
X843049Y132542D02*
Y129393D01*
Y130967D01*
X845148D01*
Y132542D01*
Y129393D01*
X833603Y121519D02*
Y124668D01*
X835177D01*
X835702Y124143D01*
Y123093D01*
X835177Y122568D01*
X833603D01*
X836751Y124668D02*
X838850D01*
X837801D01*
Y121519D01*
X839900Y124668D02*
Y121519D01*
Y123093D01*
X841999D01*
Y124668D01*
Y121519D01*
X773122Y163513D02*
X773646Y164038D01*
X774696D01*
X775221Y163513D01*
Y161414D01*
X774696Y160889D01*
X773646D01*
X773122Y161414D01*
Y163513D01*
X776270Y160889D02*
Y161414D01*
X776795D01*
Y160889D01*
X776270D01*
X780993Y164038D02*
X779944Y163513D01*
X778894Y162463D01*
Y161414D01*
X779419Y160889D01*
X780468D01*
X780993Y161414D01*
Y161939D01*
X780468Y162463D01*
X778894D01*
X784142Y164038D02*
X782043D01*
Y162463D01*
X783092Y162988D01*
X783617D01*
X784142Y162463D01*
Y161414D01*
X783617Y160889D01*
X782568D01*
X782043Y161414D01*
X785191Y163513D02*
X785716Y164038D01*
X786766D01*
X787290Y163513D01*
Y161414D01*
X786766Y160889D01*
X785716D01*
X785191Y161414D01*
Y163513D01*
X788340Y160889D02*
Y162988D01*
X788865D01*
X789389Y162463D01*
Y160889D01*
Y162463D01*
X789914Y162988D01*
X790439Y162463D01*
Y160889D01*
X791489D02*
Y162988D01*
X792013D01*
X792538Y162463D01*
Y160889D01*
Y162463D01*
X793063Y162988D01*
X793588Y162463D01*
Y160889D01*
X798835D02*
X797786Y161939D01*
Y162988D01*
X798835Y164038D01*
X802509Y160889D02*
X800410D01*
X802509Y162988D01*
Y163513D01*
X801984Y164038D01*
X800934D01*
X800410Y163513D01*
X805657Y164038D02*
X803558D01*
Y162463D01*
X804608Y162988D01*
X805132D01*
X805657Y162463D01*
Y161414D01*
X805132Y160889D01*
X804083D01*
X803558Y161414D01*
X806707Y160889D02*
Y161414D01*
X807232D01*
Y160889D01*
X806707D01*
X811430Y164038D02*
X809330D01*
Y162463D01*
X810380Y162988D01*
X810905D01*
X811430Y162463D01*
Y161414D01*
X810905Y160889D01*
X809855D01*
X809330Y161414D01*
X812479D02*
X813004Y160889D01*
X814053D01*
X814578Y161414D01*
Y163513D01*
X814053Y164038D01*
X813004D01*
X812479Y163513D01*
Y162988D01*
X813004Y162463D01*
X814578D01*
X815628Y160889D02*
Y162988D01*
X816152D01*
X816677Y162463D01*
Y160889D01*
Y162463D01*
X817202Y162988D01*
X817727Y162463D01*
Y160889D01*
X818776D02*
X819826D01*
X819301D01*
Y162988D01*
X818776D01*
X821400Y160889D02*
X822450D01*
X821925D01*
Y164038D01*
X821400D01*
X824024Y160889D02*
X825074Y161939D01*
Y162988D01*
X824024Y164038D01*
X773122Y155639D02*
X773646Y156164D01*
X774696D01*
X775221Y155639D01*
Y153540D01*
X774696Y153015D01*
X773646D01*
X773122Y153540D01*
Y155639D01*
X776270Y153015D02*
Y153540D01*
X776795D01*
Y153015D01*
X776270D01*
X778894Y153540D02*
X779419Y153015D01*
X780468D01*
X780993Y153540D01*
Y155639D01*
X780468Y156164D01*
X779419D01*
X778894Y155639D01*
Y155114D01*
X779419Y154589D01*
X780993D01*
X782043Y155639D02*
X782568Y156164D01*
X783617D01*
X784142Y155639D01*
Y153540D01*
X783617Y153015D01*
X782568D01*
X782043Y153540D01*
Y155639D01*
X785191D02*
X785716Y156164D01*
X786766D01*
X787290Y155639D01*
Y153540D01*
X786766Y153015D01*
X785716D01*
X785191Y153540D01*
Y155639D01*
X788340Y153015D02*
Y155114D01*
X788865D01*
X789389Y154589D01*
Y153015D01*
Y154589D01*
X789914Y155114D01*
X790439Y154589D01*
Y153015D01*
X791489D02*
Y155114D01*
X792013D01*
X792538Y154589D01*
Y153015D01*
Y154589D01*
X793063Y155114D01*
X793588Y154589D01*
Y153015D01*
X798835D02*
X797786Y154065D01*
Y155114D01*
X798835Y156164D01*
X800410Y155639D02*
X800934Y156164D01*
X801984D01*
X802509Y155639D01*
Y155114D01*
X801984Y154589D01*
X801459D01*
X801984D01*
X802509Y154065D01*
Y153540D01*
X801984Y153015D01*
X800934D01*
X800410Y153540D01*
X805657Y156164D02*
X803558D01*
Y154589D01*
X804608Y155114D01*
X805132D01*
X805657Y154589D01*
Y153540D01*
X805132Y153015D01*
X804083D01*
X803558Y153540D01*
X806707Y153015D02*
Y153540D01*
X807232D01*
Y153015D01*
X806707D01*
X810905D02*
Y156164D01*
X809330Y154589D01*
X811430D01*
X812479Y155639D02*
X813004Y156164D01*
X814053D01*
X814578Y155639D01*
Y155114D01*
X814053Y154589D01*
X813529D01*
X814053D01*
X814578Y154065D01*
Y153540D01*
X814053Y153015D01*
X813004D01*
X812479Y153540D01*
X815628Y153015D02*
Y155114D01*
X816152D01*
X816677Y154589D01*
Y153015D01*
Y154589D01*
X817202Y155114D01*
X817727Y154589D01*
Y153015D01*
X818776D02*
X819826D01*
X819301D01*
Y155114D01*
X818776D01*
X821400Y153015D02*
X822450D01*
X821925D01*
Y156164D01*
X821400D01*
X824024Y153015D02*
X825074Y154065D01*
Y155114D01*
X824024Y156164D01*
X773122Y147765D02*
X773646Y148290D01*
X774696D01*
X775221Y147765D01*
Y147240D01*
X774696Y146715D01*
X774171D01*
X774696D01*
X775221Y146190D01*
Y145666D01*
X774696Y145141D01*
X773646D01*
X773122Y145666D01*
X776270Y145141D02*
Y145666D01*
X776795D01*
Y145141D01*
X776270D01*
X780993D02*
X778894D01*
X780993Y147240D01*
Y147765D01*
X780468Y148290D01*
X779419D01*
X778894Y147765D01*
X782043D02*
X782568Y148290D01*
X783617D01*
X784142Y147765D01*
Y145666D01*
X783617Y145141D01*
X782568D01*
X782043Y145666D01*
Y147765D01*
X785191D02*
X785716Y148290D01*
X786766D01*
X787290Y147765D01*
Y145666D01*
X786766Y145141D01*
X785716D01*
X785191Y145666D01*
Y147765D01*
X788340Y145141D02*
Y147240D01*
X788865D01*
X789389Y146715D01*
Y145141D01*
Y146715D01*
X789914Y147240D01*
X790439Y146715D01*
Y145141D01*
X791489D02*
Y147240D01*
X792013D01*
X792538Y146715D01*
Y145141D01*
Y146715D01*
X793063Y147240D01*
X793588Y146715D01*
Y145141D01*
X798835D02*
X797786Y146190D01*
Y147240D01*
X798835Y148290D01*
X800410Y145141D02*
X801459D01*
X800934D01*
Y148290D01*
X800410Y147765D01*
X805132Y145141D02*
X803033D01*
X805132Y147240D01*
Y147765D01*
X804608Y148290D01*
X803558D01*
X803033Y147765D01*
X808281Y148290D02*
X806182D01*
Y146715D01*
X807232Y147240D01*
X807756D01*
X808281Y146715D01*
Y145666D01*
X807756Y145141D01*
X806707D01*
X806182Y145666D01*
X809330Y145141D02*
Y145666D01*
X809855D01*
Y145141D01*
X809330D01*
X811954Y145666D02*
X812479Y145141D01*
X813529D01*
X814053Y145666D01*
Y147765D01*
X813529Y148290D01*
X812479D01*
X811954Y147765D01*
Y147240D01*
X812479Y146715D01*
X814053D01*
X815103Y147765D02*
X815628Y148290D01*
X816677D01*
X817202Y147765D01*
Y147240D01*
X816677Y146715D01*
X817202Y146190D01*
Y145666D01*
X816677Y145141D01*
X815628D01*
X815103Y145666D01*
Y146190D01*
X815628Y146715D01*
X815103Y147240D01*
Y147765D01*
X815628Y146715D02*
X816677D01*
X818252Y145141D02*
Y147240D01*
X818776D01*
X819301Y146715D01*
Y145141D01*
Y146715D01*
X819826Y147240D01*
X820351Y146715D01*
Y145141D01*
X821400D02*
X822450D01*
X821925D01*
Y147240D01*
X821400D01*
X824024Y145141D02*
X825074D01*
X824549D01*
Y148290D01*
X824024D01*
X826648Y145141D02*
X827697Y146190D01*
Y147240D01*
X826648Y148290D01*
X773122Y139891D02*
X773646Y140416D01*
X774696D01*
X775221Y139891D01*
Y139366D01*
X774696Y138841D01*
X774171D01*
X774696D01*
X775221Y138316D01*
Y137792D01*
X774696Y137267D01*
X773646D01*
X773122Y137792D01*
X776270Y137267D02*
Y137792D01*
X776795D01*
Y137267D01*
X776270D01*
X778894D02*
X779944D01*
X779419D01*
Y140416D01*
X778894Y139891D01*
X781518D02*
X782043Y140416D01*
X783092D01*
X783617Y139891D01*
Y137792D01*
X783092Y137267D01*
X782043D01*
X781518Y137792D01*
Y139891D01*
X784667D02*
X785191Y140416D01*
X786241D01*
X786766Y139891D01*
Y137792D01*
X786241Y137267D01*
X785191D01*
X784667Y137792D01*
Y139891D01*
X787815Y137267D02*
Y139366D01*
X788340D01*
X788865Y138841D01*
Y137267D01*
Y138841D01*
X789389Y139366D01*
X789914Y138841D01*
Y137267D01*
X790964D02*
Y139366D01*
X791489D01*
X792013Y138841D01*
Y137267D01*
Y138841D01*
X792538Y139366D01*
X793063Y138841D01*
Y137267D01*
X798310D02*
X797261Y138316D01*
Y139366D01*
X798310Y140416D01*
X799885Y137267D02*
X800934D01*
X800410D01*
Y140416D01*
X799885Y139891D01*
X804608Y137267D02*
X802509D01*
X804608Y139366D01*
Y139891D01*
X804083Y140416D01*
X803033D01*
X802509Y139891D01*
X807756Y137267D02*
X805657D01*
X807756Y139366D01*
Y139891D01*
X807232Y140416D01*
X806182D01*
X805657Y139891D01*
X808806Y137267D02*
Y137792D01*
X809330D01*
Y137267D01*
X808806D01*
X811430Y139891D02*
X811954Y140416D01*
X813004D01*
X813529Y139891D01*
Y137792D01*
X813004Y137267D01*
X811954D01*
X811430Y137792D01*
Y139891D01*
X816677Y140416D02*
X814578D01*
Y138841D01*
X815628Y139366D01*
X816152D01*
X816677Y138841D01*
Y137792D01*
X816152Y137267D01*
X815103D01*
X814578Y137792D01*
X817727Y137267D02*
Y139366D01*
X818252D01*
X818776Y138841D01*
Y137267D01*
Y138841D01*
X819301Y139366D01*
X819826Y138841D01*
Y137267D01*
X820875D02*
X821925D01*
X821400D01*
Y139366D01*
X820875D01*
X823499Y137267D02*
X824549D01*
X824024D01*
Y140416D01*
X823499D01*
X826123Y137267D02*
X827172Y138316D01*
Y139366D01*
X826123Y140416D01*
X773122Y132017D02*
X773646Y132542D01*
X774696D01*
X775221Y132017D01*
Y131492D01*
X774696Y130967D01*
X774171D01*
X774696D01*
X775221Y130442D01*
Y129918D01*
X774696Y129393D01*
X773646D01*
X773122Y129918D01*
X776270Y129393D02*
Y129918D01*
X776795D01*
Y129393D01*
X776270D01*
X778894Y132017D02*
X779419Y132542D01*
X780468D01*
X780993Y132017D01*
Y129918D01*
X780468Y129393D01*
X779419D01*
X778894Y129918D01*
Y132017D01*
X782043D02*
X782568Y132542D01*
X783617D01*
X784142Y132017D01*
Y129918D01*
X783617Y129393D01*
X782568D01*
X782043Y129918D01*
Y132017D01*
X785191D02*
X785716Y132542D01*
X786766D01*
X787290Y132017D01*
Y129918D01*
X786766Y129393D01*
X785716D01*
X785191Y129918D01*
Y132017D01*
X788340Y129393D02*
Y131492D01*
X788865D01*
X789389Y130967D01*
Y129393D01*
Y130967D01*
X789914Y131492D01*
X790439Y130967D01*
Y129393D01*
X791489D02*
Y131492D01*
X792013D01*
X792538Y130967D01*
Y129393D01*
Y130967D01*
X793063Y131492D01*
X793588Y130967D01*
Y129393D01*
X798835D02*
X797786Y130442D01*
Y131492D01*
X798835Y132542D01*
X800410Y129393D02*
X801459D01*
X800934D01*
Y132542D01*
X800410Y132017D01*
X803033Y129393D02*
X804083D01*
X803558D01*
Y132542D01*
X803033Y132017D01*
X805657D02*
X806182Y132542D01*
X807232D01*
X807756Y132017D01*
Y131492D01*
X807232Y130967D01*
X807756Y130442D01*
Y129918D01*
X807232Y129393D01*
X806182D01*
X805657Y129918D01*
Y130442D01*
X806182Y130967D01*
X805657Y131492D01*
Y132017D01*
X806182Y130967D02*
X807232D01*
X808806Y129393D02*
Y129918D01*
X809330D01*
Y129393D01*
X808806D01*
X811430D02*
X812479D01*
X811954D01*
Y132542D01*
X811430Y132017D01*
X814053Y129393D02*
X815103D01*
X814578D01*
Y132542D01*
X814053Y132017D01*
X816677Y129393D02*
Y131492D01*
X817202D01*
X817727Y130967D01*
Y129393D01*
Y130967D01*
X818252Y131492D01*
X818776Y130967D01*
Y129393D01*
X819826D02*
X820875D01*
X820351D01*
Y131492D01*
X819826D01*
X822450Y129393D02*
X823499D01*
X822974D01*
Y132542D01*
X822450D01*
X825074Y129393D02*
X826123Y130442D01*
Y131492D01*
X825074Y132542D01*
X773122Y124143D02*
X773646Y124668D01*
X774696D01*
X775221Y124143D01*
Y122044D01*
X774696Y121519D01*
X773646D01*
X773122Y122044D01*
Y124143D01*
X776270Y121519D02*
Y122044D01*
X776795D01*
Y121519D01*
X776270D01*
X780993D02*
X778894D01*
X780993Y123618D01*
Y124143D01*
X780468Y124668D01*
X779419D01*
X778894Y124143D01*
X784142Y124668D02*
X782043D01*
Y123093D01*
X783092Y123618D01*
X783617D01*
X784142Y123093D01*
Y122044D01*
X783617Y121519D01*
X782568D01*
X782043Y122044D01*
X785191Y124143D02*
X785716Y124668D01*
X786766D01*
X787290Y124143D01*
Y122044D01*
X786766Y121519D01*
X785716D01*
X785191Y122044D01*
Y124143D01*
X788340Y121519D02*
Y123618D01*
X788865D01*
X789389Y123093D01*
Y121519D01*
Y123093D01*
X789914Y123618D01*
X790439Y123093D01*
Y121519D01*
X791489D02*
Y123618D01*
X792013D01*
X792538Y123093D01*
Y121519D01*
Y123093D01*
X793063Y123618D01*
X793588Y123093D01*
Y121519D01*
X798835D02*
X797786Y122568D01*
Y123618D01*
X798835Y124668D01*
X800410Y122044D02*
X800934Y121519D01*
X801984D01*
X802509Y122044D01*
Y124143D01*
X801984Y124668D01*
X800934D01*
X800410Y124143D01*
Y123618D01*
X800934Y123093D01*
X802509D01*
X803558Y121519D02*
Y122044D01*
X804083D01*
Y121519D01*
X803558D01*
X806182Y124143D02*
X806707Y124668D01*
X807756D01*
X808281Y124143D01*
Y123618D01*
X807756Y123093D01*
X808281Y122568D01*
Y122044D01*
X807756Y121519D01*
X806707D01*
X806182Y122044D01*
Y122568D01*
X806707Y123093D01*
X806182Y123618D01*
Y124143D01*
X806707Y123093D02*
X807756D01*
X810905Y121519D02*
Y124668D01*
X809330Y123093D01*
X811430D01*
X812479Y121519D02*
Y123618D01*
X813004D01*
X813529Y123093D01*
Y121519D01*
Y123093D01*
X814053Y123618D01*
X814578Y123093D01*
Y121519D01*
X815628D02*
X816677D01*
X816152D01*
Y123618D01*
X815628D01*
X818252Y121519D02*
X819301D01*
X818776D01*
Y124668D01*
X818252D01*
X820875Y121519D02*
X821925Y122568D01*
Y123618D01*
X820875Y124668D01*
X743602Y116794D02*
X741503D01*
Y115219D01*
X742552Y115744D01*
X743077D01*
X743602Y115219D01*
Y114170D01*
X743077Y113645D01*
X742028D01*
X741503Y114170D01*
X744651Y116269D02*
X745176Y116794D01*
X746226D01*
X746750Y116269D01*
Y115744D01*
X746226Y115219D01*
X745701D01*
X746226D01*
X746750Y114694D01*
Y114170D01*
X746226Y113645D01*
X745176D01*
X744651Y114170D01*
X747800D02*
X748325Y113645D01*
X749374D01*
X749899Y114170D01*
Y116269D01*
X749374Y116794D01*
X748325D01*
X747800Y116269D01*
Y115744D01*
X748325Y115219D01*
X749899D01*
X754097Y116794D02*
X756196D01*
X755147D01*
Y113645D01*
X757770D02*
X758820D01*
X759345Y114170D01*
Y115219D01*
X758820Y115744D01*
X757770D01*
X757246Y115219D01*
Y114170D01*
X757770Y113645D01*
X760919Y116269D02*
Y115744D01*
X760394D01*
X761444D01*
X760919D01*
Y114170D01*
X761444Y113645D01*
X763543Y115744D02*
X764592D01*
X765117Y115219D01*
Y113645D01*
X763543D01*
X763018Y114170D01*
X763543Y114694D01*
X765117D01*
X766167Y113645D02*
X767216D01*
X766691D01*
Y116794D01*
X766167D01*
X743602Y160889D02*
X741503D01*
X743602Y162988D01*
Y163513D01*
X743077Y164038D01*
X742028D01*
X741503Y163513D01*
X743077Y153015D02*
Y156164D01*
X741503Y154589D01*
X743602D01*
Y148290D02*
X742552Y147765D01*
X741503Y146715D01*
Y145666D01*
X742028Y145141D01*
X743077D01*
X743602Y145666D01*
Y146190D01*
X743077Y146715D01*
X741503D01*
Y139891D02*
X742028Y140416D01*
X743077D01*
X743602Y139891D01*
Y139366D01*
X743077Y138841D01*
X743602Y138316D01*
Y137792D01*
X743077Y137267D01*
X742028D01*
X741503Y137792D01*
Y138316D01*
X742028Y138841D01*
X741503Y139366D01*
Y139891D01*
X742028Y138841D02*
X743077D01*
X743602Y132542D02*
X742552Y132017D01*
X741503Y130967D01*
Y129918D01*
X742028Y129393D01*
X743077D01*
X743602Y129918D01*
Y130442D01*
X743077Y130967D01*
X741503D01*
X744651Y132017D02*
X745176Y132542D01*
X746226D01*
X746750Y132017D01*
Y131492D01*
X746226Y130967D01*
X746750Y130442D01*
Y129918D01*
X746226Y129393D01*
X745176D01*
X744651Y129918D01*
Y130442D01*
X745176Y130967D01*
X744651Y131492D01*
Y132017D01*
X745176Y130967D02*
X746226D01*
X743077Y121519D02*
Y124668D01*
X741503Y123093D01*
X743602D01*
X746750Y124668D02*
X744651D01*
Y123093D01*
X745701Y123618D01*
X746226D01*
X746750Y123093D01*
Y122044D01*
X746226Y121519D01*
X745176D01*
X744651Y122044D01*
X747800Y121519D02*
X748849D01*
X748325D01*
Y124668D01*
X747800Y124143D01*
D59*
X-117110Y728346D02*
G03*
X-117110Y728346I-1000J0D01*
G01*
Y-39370D02*
G03*
X-117110Y-39370I-1000J0D01*
G01*
X650606D02*
G03*
X650606Y-39370I-1000J0D01*
G01*
Y728346D02*
G03*
X650606Y728346I-1000J0D01*
G01*
X266748Y147638D02*
G03*
X266748Y147638I-1000J0D01*
G01*
Y541339D02*
G03*
X266748Y541339I-1000J0D01*
G01*
X-75394Y675772D02*
X-74394Y677772D01*
X-76394D02*
X-74394D01*
X-76394D02*
X-75394Y675772D01*
X-82087D02*
X-81087Y677772D01*
X-83087D02*
X-81087D01*
X-83087D02*
X-82087Y675772D01*
X-86221Y697031D02*
X-85220Y699031D01*
X-87221D02*
X-85220D01*
X-87221D02*
X-86221Y697031D01*
X-72047Y686008D02*
X-71047Y688008D01*
X-73047D02*
X-71047D01*
X-73047D02*
X-72047Y686008D01*
X26378D02*
X27378Y688008D01*
X25378D02*
X27378D01*
X25378D02*
X26378Y686008D01*
X12205Y697031D02*
X13205Y699031D01*
X11205D02*
X13205D01*
X11205D02*
X12205Y697031D01*
X16338Y675772D02*
X17338Y677772D01*
X15338D02*
X17338D01*
X15338D02*
X16338Y675772D01*
X23031D02*
X24031Y677772D01*
X22031D02*
X24031D01*
X22031D02*
X23031Y675772D01*
X-72047Y587583D02*
X-71047Y589583D01*
X-73047D02*
X-71047D01*
X-73047D02*
X-72047Y587583D01*
Y595063D02*
X-71047Y597063D01*
X-73047D02*
X-71047D01*
X-73047D02*
X-72047Y595063D01*
X-86221Y598606D02*
X-85220Y600606D01*
X-87221D02*
X-85220D01*
X-87221D02*
X-86221Y598606D01*
X-82087Y577347D02*
X-81087Y579347D01*
X-83087D02*
X-81087D01*
X-83087D02*
X-82087Y577347D01*
X-75394D02*
X-74394Y579347D01*
X-76394D02*
X-74394D01*
X-76394D02*
X-75394Y577347D01*
X26378Y587583D02*
X27378Y589583D01*
X25378D02*
X27378D01*
X25378D02*
X26378Y587583D01*
Y595063D02*
X27378Y597063D01*
X25378D02*
X27378D01*
X25378D02*
X26378Y595063D01*
X12205Y598606D02*
X13205Y600606D01*
X11205D02*
X13205D01*
X11205D02*
X12205Y598606D01*
X16338Y577347D02*
X17338Y579347D01*
X15338D02*
X17338D01*
X15338D02*
X16338Y577347D01*
X23031D02*
X24031Y579347D01*
X22031D02*
X24031D01*
X22031D02*
X23031Y577347D01*
X124803Y686008D02*
X125803Y688008D01*
X123803D02*
X125803D01*
X123803D02*
X124803Y686008D01*
X110630Y697031D02*
X111630Y699031D01*
X109630D02*
X111630D01*
X109630D02*
X110630Y697031D01*
X114763Y675772D02*
X115763Y677772D01*
X113763D02*
X115763D01*
X113763D02*
X114763Y675772D01*
X121456D02*
X122456Y677772D01*
X120456D02*
X122456D01*
X120456D02*
X121456Y675772D01*
X124803Y587583D02*
X125803Y589583D01*
X123803D02*
X125803D01*
X123803D02*
X124803Y587583D01*
Y595063D02*
X125803Y597063D01*
X123803D02*
X125803D01*
X123803D02*
X124803Y595063D01*
X110630Y598606D02*
X111630Y600606D01*
X109630D02*
X111630D01*
X109630D02*
X110630Y598606D01*
X114763Y577347D02*
X115763Y579347D01*
X113763D02*
X115763D01*
X113763D02*
X114763Y577347D01*
X121456D02*
X122456Y579347D01*
X120456D02*
X122456D01*
X120456D02*
X121456Y577347D01*
X223228Y686008D02*
X224228Y688008D01*
X222228D02*
X224228D01*
X222228D02*
X223228Y686008D01*
X209055Y697031D02*
X210055Y699031D01*
X208055D02*
X210055D01*
X208055D02*
X209055Y697031D01*
X213189Y675772D02*
X214189Y677772D01*
X212189D02*
X214189D01*
X212189D02*
X213189Y675772D01*
X219882D02*
X220882Y677772D01*
X218882D02*
X220882D01*
X218882D02*
X219882Y675772D01*
X223228Y587583D02*
X224228Y589583D01*
X222228D02*
X224228D01*
X222228D02*
X223228Y587583D01*
Y595063D02*
X224228Y597063D01*
X222228D02*
X224228D01*
X222228D02*
X223228Y595063D01*
X209055Y598606D02*
X210055Y600606D01*
X208055D02*
X210055D01*
X208055D02*
X209055Y598606D01*
X213189Y577347D02*
X214189Y579347D01*
X212189D02*
X214189D01*
X212189D02*
X213189Y577347D01*
X219882D02*
X220882Y579347D01*
X218882D02*
X220882D01*
X218882D02*
X219882Y577347D01*
X613582D02*
X614582Y579347D01*
X612582D02*
X614582D01*
X612582D02*
X613582Y577347D01*
X606889D02*
X607889Y579347D01*
X605889D02*
X607889D01*
X605889D02*
X606889Y577347D01*
X602756Y598606D02*
X603756Y600606D01*
X601756D02*
X603756D01*
X601756D02*
X602756Y598606D01*
X616929Y595063D02*
X617929Y597063D01*
X615929D02*
X617929D01*
X615929D02*
X616929Y595063D01*
Y587583D02*
X617929Y589583D01*
X615929D02*
X617929D01*
X615929D02*
X616929Y587583D01*
X613582Y675772D02*
X614582Y677772D01*
X612582D02*
X614582D01*
X612582D02*
X613582Y675772D01*
X606889D02*
X607889Y677772D01*
X605889D02*
X607889D01*
X605889D02*
X606889Y675772D01*
X602756Y697031D02*
X603756Y699031D01*
X601756D02*
X603756D01*
X601756D02*
X602756Y697031D01*
X616929Y686008D02*
X617929Y688008D01*
X615929D02*
X617929D01*
X615929D02*
X616929Y686008D01*
X515157Y577347D02*
X516157Y579347D01*
X514157D02*
X516157D01*
X514157D02*
X515157Y577347D01*
X508464D02*
X509464Y579347D01*
X507464D02*
X509464D01*
X507464D02*
X508464Y577347D01*
X504331Y598606D02*
X505331Y600606D01*
X503331D02*
X505331D01*
X503331D02*
X504331Y598606D01*
X518504Y595063D02*
X519504Y597063D01*
X517504D02*
X519504D01*
X517504D02*
X518504Y595063D01*
Y587583D02*
X519504Y589583D01*
X517504D02*
X519504D01*
X517504D02*
X518504Y587583D01*
X515157Y675772D02*
X516157Y677772D01*
X514157D02*
X516157D01*
X514157D02*
X515157Y675772D01*
X508464D02*
X509464Y677772D01*
X507464D02*
X509464D01*
X507464D02*
X508464Y675772D01*
X504331Y697031D02*
X505331Y699031D01*
X503331D02*
X505331D01*
X503331D02*
X504331Y697031D01*
X518504Y686008D02*
X519504Y688008D01*
X517504D02*
X519504D01*
X517504D02*
X518504Y686008D01*
X416732Y577347D02*
X417732Y579347D01*
X415732D02*
X417732D01*
X415732D02*
X416732Y577347D01*
X410039D02*
X411039Y579347D01*
X409039D02*
X411039D01*
X409039D02*
X410039Y577347D01*
X405905Y598606D02*
X406906Y600606D01*
X404906D02*
X406906D01*
X404906D02*
X405905Y598606D01*
X420079Y595063D02*
X421079Y597063D01*
X419079D02*
X421079D01*
X419079D02*
X420079Y595063D01*
Y587583D02*
X421079Y589583D01*
X419079D02*
X421079D01*
X419079D02*
X420079Y587583D01*
X318307Y577347D02*
X319307Y579347D01*
X317307D02*
X319307D01*
X317307D02*
X318307Y577347D01*
X311614D02*
X312614Y579347D01*
X310614D02*
X312614D01*
X310614D02*
X311614Y577347D01*
X307480Y598606D02*
X308480Y600606D01*
X306480D02*
X308480D01*
X306480D02*
X307480Y598606D01*
X321654Y595063D02*
X322654Y597063D01*
X320654D02*
X322654D01*
X320654D02*
X321654Y595063D01*
Y587583D02*
X322654Y589583D01*
X320654D02*
X322654D01*
X320654D02*
X321654Y587583D01*
X416732Y675772D02*
X417732Y677772D01*
X415732D02*
X417732D01*
X415732D02*
X416732Y675772D01*
X410039D02*
X411039Y677772D01*
X409039D02*
X411039D01*
X409039D02*
X410039Y675772D01*
X405905Y697031D02*
X406906Y699031D01*
X404906D02*
X406906D01*
X404906D02*
X405905Y697031D01*
X420079Y686008D02*
X421079Y688008D01*
X419079D02*
X421079D01*
X419079D02*
X420079Y686008D01*
X321654D02*
X322654Y688008D01*
X320654D02*
X322654D01*
X320654D02*
X321654Y686008D01*
X307480Y697031D02*
X308480Y699031D01*
X306480D02*
X308480D01*
X306480D02*
X307480Y697031D01*
X311614Y675772D02*
X312614Y677772D01*
X310614D02*
X312614D01*
X310614D02*
X311614Y675772D01*
X318307D02*
X319307Y677772D01*
X317307D02*
X319307D01*
X317307D02*
X318307Y675772D01*
Y478921D02*
X319307Y480921D01*
X317307D02*
X319307D01*
X317307D02*
X318307Y478921D01*
X311614D02*
X312614Y480921D01*
X310614D02*
X312614D01*
X310614D02*
X311614Y478921D01*
X307480Y500181D02*
X308480Y502181D01*
X306480D02*
X308480D01*
X306480D02*
X307480Y500181D01*
X321654Y496638D02*
X322654Y498638D01*
X320654D02*
X322654D01*
X320654D02*
X321654Y496638D01*
Y489157D02*
X322654Y491157D01*
X320654D02*
X322654D01*
X320654D02*
X321654Y489157D01*
X420079D02*
X421079Y491157D01*
X419079D02*
X421079D01*
X419079D02*
X420079Y489157D01*
Y496638D02*
X421079Y498638D01*
X419079D02*
X421079D01*
X419079D02*
X420079Y496638D01*
X405905Y500181D02*
X406906Y502181D01*
X404906D02*
X406906D01*
X404906D02*
X405905Y500181D01*
X410039Y478921D02*
X411039Y480921D01*
X409039D02*
X411039D01*
X409039D02*
X410039Y478921D01*
X416732D02*
X417732Y480921D01*
X415732D02*
X417732D01*
X415732D02*
X416732Y478921D01*
X321654Y390732D02*
X322654Y392732D01*
X320654D02*
X322654D01*
X320654D02*
X321654Y390732D01*
Y398213D02*
X322654Y400213D01*
X320654D02*
X322654D01*
X320654D02*
X321654Y398213D01*
X307480Y401756D02*
X308480Y403756D01*
X306480D02*
X308480D01*
X306480D02*
X307480Y401756D01*
X311614Y380496D02*
X312614Y382496D01*
X310614D02*
X312614D01*
X310614D02*
X311614Y380496D01*
X318307D02*
X319307Y382496D01*
X317307D02*
X319307D01*
X317307D02*
X318307Y380496D01*
X420079Y390732D02*
X421079Y392732D01*
X419079D02*
X421079D01*
X419079D02*
X420079Y390732D01*
Y398213D02*
X421079Y400213D01*
X419079D02*
X421079D01*
X419079D02*
X420079Y398213D01*
X405905Y401756D02*
X406906Y403756D01*
X404906D02*
X406906D01*
X404906D02*
X405905Y401756D01*
X410039Y380496D02*
X411039Y382496D01*
X409039D02*
X411039D01*
X409039D02*
X410039Y380496D01*
X416732D02*
X417732Y382496D01*
X415732D02*
X417732D01*
X415732D02*
X416732Y380496D01*
X518504Y489157D02*
X519504Y491157D01*
X517504D02*
X519504D01*
X517504D02*
X518504Y489157D01*
Y496638D02*
X519504Y498638D01*
X517504D02*
X519504D01*
X517504D02*
X518504Y496638D01*
X504331Y500181D02*
X505331Y502181D01*
X503331D02*
X505331D01*
X503331D02*
X504331Y500181D01*
X508464Y478921D02*
X509464Y480921D01*
X507464D02*
X509464D01*
X507464D02*
X508464Y478921D01*
X515157D02*
X516157Y480921D01*
X514157D02*
X516157D01*
X514157D02*
X515157Y478921D01*
X518504Y390732D02*
X519504Y392732D01*
X517504D02*
X519504D01*
X517504D02*
X518504Y390732D01*
Y398213D02*
X519504Y400213D01*
X517504D02*
X519504D01*
X517504D02*
X518504Y398213D01*
X504331Y401756D02*
X505331Y403756D01*
X503331D02*
X505331D01*
X503331D02*
X504331Y401756D01*
X508464Y380496D02*
X509464Y382496D01*
X507464D02*
X509464D01*
X507464D02*
X508464Y380496D01*
X515157D02*
X516157Y382496D01*
X514157D02*
X516157D01*
X514157D02*
X515157Y380496D01*
X616929Y489157D02*
X617929Y491157D01*
X615929D02*
X617929D01*
X615929D02*
X616929Y489157D01*
Y496638D02*
X617929Y498638D01*
X615929D02*
X617929D01*
X615929D02*
X616929Y496638D01*
X602756Y500181D02*
X603756Y502181D01*
X601756D02*
X603756D01*
X601756D02*
X602756Y500181D01*
X606889Y478921D02*
X607889Y480921D01*
X605889D02*
X607889D01*
X605889D02*
X606889Y478921D01*
X613582D02*
X614582Y480921D01*
X612582D02*
X614582D01*
X612582D02*
X613582Y478921D01*
X616929Y390732D02*
X617929Y392732D01*
X615929D02*
X617929D01*
X615929D02*
X616929Y390732D01*
Y398213D02*
X617929Y400213D01*
X615929D02*
X617929D01*
X615929D02*
X616929Y398213D01*
X602756Y401756D02*
X603756Y403756D01*
X601756D02*
X603756D01*
X601756D02*
X602756Y401756D01*
X606889Y380496D02*
X607889Y382496D01*
X605889D02*
X607889D01*
X605889D02*
X606889Y380496D01*
X613582D02*
X614582Y382496D01*
X612582D02*
X614582D01*
X612582D02*
X613582Y380496D01*
X219882D02*
X220882Y382496D01*
X218882D02*
X220882D01*
X218882D02*
X219882Y380496D01*
X213189D02*
X214189Y382496D01*
X212189D02*
X214189D01*
X212189D02*
X213189Y380496D01*
X209055Y401756D02*
X210055Y403756D01*
X208055D02*
X210055D01*
X208055D02*
X209055Y401756D01*
X223228Y398213D02*
X224228Y400213D01*
X222228D02*
X224228D01*
X222228D02*
X223228Y398213D01*
Y390732D02*
X224228Y392732D01*
X222228D02*
X224228D01*
X222228D02*
X223228Y390732D01*
X219882Y478921D02*
X220882Y480921D01*
X218882D02*
X220882D01*
X218882D02*
X219882Y478921D01*
X213189D02*
X214189Y480921D01*
X212189D02*
X214189D01*
X212189D02*
X213189Y478921D01*
X209055Y500181D02*
X210055Y502181D01*
X208055D02*
X210055D01*
X208055D02*
X209055Y500181D01*
X223228Y496638D02*
X224228Y498638D01*
X222228D02*
X224228D01*
X222228D02*
X223228Y496638D01*
Y489157D02*
X224228Y491157D01*
X222228D02*
X224228D01*
X222228D02*
X223228Y489157D01*
X121456Y380496D02*
X122456Y382496D01*
X120456D02*
X122456D01*
X120456D02*
X121456Y380496D01*
X114763D02*
X115763Y382496D01*
X113763D02*
X115763D01*
X113763D02*
X114763Y380496D01*
X110630Y401756D02*
X111630Y403756D01*
X109630D02*
X111630D01*
X109630D02*
X110630Y401756D01*
X124803Y398213D02*
X125803Y400213D01*
X123803D02*
X125803D01*
X123803D02*
X124803Y398213D01*
Y390732D02*
X125803Y392732D01*
X123803D02*
X125803D01*
X123803D02*
X124803Y390732D01*
X121456Y478921D02*
X122456Y480921D01*
X120456D02*
X122456D01*
X120456D02*
X121456Y478921D01*
X114763D02*
X115763Y480921D01*
X113763D02*
X115763D01*
X113763D02*
X114763Y478921D01*
X110630Y500181D02*
X111630Y502181D01*
X109630D02*
X111630D01*
X109630D02*
X110630Y500181D01*
X124803Y496638D02*
X125803Y498638D01*
X123803D02*
X125803D01*
X123803D02*
X124803Y496638D01*
Y489157D02*
X125803Y491157D01*
X123803D02*
X125803D01*
X123803D02*
X124803Y489157D01*
X23031Y380496D02*
X24031Y382496D01*
X22031D02*
X24031D01*
X22031D02*
X23031Y380496D01*
X16338D02*
X17338Y382496D01*
X15338D02*
X17338D01*
X15338D02*
X16338Y380496D01*
X12205Y401756D02*
X13205Y403756D01*
X11205D02*
X13205D01*
X11205D02*
X12205Y401756D01*
X26378Y398213D02*
X27378Y400213D01*
X25378D02*
X27378D01*
X25378D02*
X26378Y398213D01*
Y390732D02*
X27378Y392732D01*
X25378D02*
X27378D01*
X25378D02*
X26378Y390732D01*
X-75394Y380496D02*
X-74394Y382496D01*
X-76394D02*
X-74394D01*
X-76394D02*
X-75394Y380496D01*
X-82087D02*
X-81087Y382496D01*
X-83087D02*
X-81087D01*
X-83087D02*
X-82087Y380496D01*
X-86221Y401756D02*
X-85220Y403756D01*
X-87221D02*
X-85220D01*
X-87221D02*
X-86221Y401756D01*
X-72047Y398213D02*
X-71047Y400213D01*
X-73047D02*
X-71047D01*
X-73047D02*
X-72047Y398213D01*
Y390732D02*
X-71047Y392732D01*
X-73047D02*
X-71047D01*
X-73047D02*
X-72047Y390732D01*
X23031Y478921D02*
X24031Y480921D01*
X22031D02*
X24031D01*
X22031D02*
X23031Y478921D01*
X16338D02*
X17338Y480921D01*
X15338D02*
X17338D01*
X15338D02*
X16338Y478921D01*
X12205Y500181D02*
X13205Y502181D01*
X11205D02*
X13205D01*
X11205D02*
X12205Y500181D01*
X26378Y496638D02*
X27378Y498638D01*
X25378D02*
X27378D01*
X25378D02*
X26378Y496638D01*
Y489157D02*
X27378Y491157D01*
X25378D02*
X27378D01*
X25378D02*
X26378Y489157D01*
X-72047D02*
X-71047Y491157D01*
X-73047D02*
X-71047D01*
X-73047D02*
X-72047Y489157D01*
Y496638D02*
X-71047Y498638D01*
X-73047D02*
X-71047D01*
X-73047D02*
X-72047Y496638D01*
X-86221Y500181D02*
X-85220Y502181D01*
X-87221D02*
X-85220D01*
X-87221D02*
X-86221Y500181D01*
X-82087Y478921D02*
X-81087Y480921D01*
X-83087D02*
X-81087D01*
X-83087D02*
X-82087Y478921D01*
X-75394D02*
X-74394Y480921D01*
X-76394D02*
X-74394D01*
X-76394D02*
X-75394Y478921D01*
X318307Y282071D02*
X319307Y284071D01*
X317307D02*
X319307D01*
X317307D02*
X318307Y282071D01*
X311614D02*
X312614Y284071D01*
X310614D02*
X312614D01*
X310614D02*
X311614Y282071D01*
X307480Y303331D02*
X308480Y305331D01*
X306480D02*
X308480D01*
X306480D02*
X307480Y303331D01*
X321654Y299787D02*
X322654Y301787D01*
X320654D02*
X322654D01*
X320654D02*
X321654Y299787D01*
Y292307D02*
X322654Y294307D01*
X320654D02*
X322654D01*
X320654D02*
X321654Y292307D01*
X420079D02*
X421079Y294307D01*
X419079D02*
X421079D01*
X419079D02*
X420079Y292307D01*
Y299787D02*
X421079Y301787D01*
X419079D02*
X421079D01*
X419079D02*
X420079Y299787D01*
X405905Y303331D02*
X406906Y305331D01*
X404906D02*
X406906D01*
X404906D02*
X405905Y303331D01*
X410039Y282071D02*
X411039Y284071D01*
X409039D02*
X411039D01*
X409039D02*
X410039Y282071D01*
X416732D02*
X417732Y284071D01*
X415732D02*
X417732D01*
X415732D02*
X416732Y282071D01*
X321654Y193882D02*
X322654Y195882D01*
X320654D02*
X322654D01*
X320654D02*
X321654Y193882D01*
Y201362D02*
X322654Y203362D01*
X320654D02*
X322654D01*
X320654D02*
X321654Y201362D01*
X307480Y204906D02*
X308480Y206906D01*
X306480D02*
X308480D01*
X306480D02*
X307480Y204906D01*
X311614Y183646D02*
X312614Y185646D01*
X310614D02*
X312614D01*
X310614D02*
X311614Y183646D01*
X318307D02*
X319307Y185646D01*
X317307D02*
X319307D01*
X317307D02*
X318307Y183646D01*
X420079Y193882D02*
X421079Y195882D01*
X419079D02*
X421079D01*
X419079D02*
X420079Y193882D01*
Y201362D02*
X421079Y203362D01*
X419079D02*
X421079D01*
X419079D02*
X420079Y201362D01*
X405905Y204906D02*
X406906Y206906D01*
X404906D02*
X406906D01*
X404906D02*
X405905Y204906D01*
X410039Y183646D02*
X411039Y185646D01*
X409039D02*
X411039D01*
X409039D02*
X410039Y183646D01*
X416732D02*
X417732Y185646D01*
X415732D02*
X417732D01*
X415732D02*
X416732Y183646D01*
X518504Y292307D02*
X519504Y294307D01*
X517504D02*
X519504D01*
X517504D02*
X518504Y292307D01*
Y299787D02*
X519504Y301787D01*
X517504D02*
X519504D01*
X517504D02*
X518504Y299787D01*
X504331Y303331D02*
X505331Y305331D01*
X503331D02*
X505331D01*
X503331D02*
X504331Y303331D01*
X508464Y282071D02*
X509464Y284071D01*
X507464D02*
X509464D01*
X507464D02*
X508464Y282071D01*
X515157D02*
X516157Y284071D01*
X514157D02*
X516157D01*
X514157D02*
X515157Y282071D01*
X518504Y193882D02*
X519504Y195882D01*
X517504D02*
X519504D01*
X517504D02*
X518504Y193882D01*
Y201362D02*
X519504Y203362D01*
X517504D02*
X519504D01*
X517504D02*
X518504Y201362D01*
X504331Y204906D02*
X505331Y206906D01*
X503331D02*
X505331D01*
X503331D02*
X504331Y204906D01*
X508464Y183646D02*
X509464Y185646D01*
X507464D02*
X509464D01*
X507464D02*
X508464Y183646D01*
X515157D02*
X516157Y185646D01*
X514157D02*
X516157D01*
X514157D02*
X515157Y183646D01*
X616929Y292307D02*
X617929Y294307D01*
X615929D02*
X617929D01*
X615929D02*
X616929Y292307D01*
Y299787D02*
X617929Y301787D01*
X615929D02*
X617929D01*
X615929D02*
X616929Y299787D01*
X602756Y303331D02*
X603756Y305331D01*
X601756D02*
X603756D01*
X601756D02*
X602756Y303331D01*
X606889Y282071D02*
X607889Y284071D01*
X605889D02*
X607889D01*
X605889D02*
X606889Y282071D01*
X613582D02*
X614582Y284071D01*
X612582D02*
X614582D01*
X612582D02*
X613582Y282071D01*
X616929Y193882D02*
X617929Y195882D01*
X615929D02*
X617929D01*
X615929D02*
X616929Y193882D01*
Y201362D02*
X617929Y203362D01*
X615929D02*
X617929D01*
X615929D02*
X616929Y201362D01*
X602756Y204906D02*
X603756Y206906D01*
X601756D02*
X603756D01*
X601756D02*
X602756Y204906D01*
X606889Y183646D02*
X607889Y185646D01*
X605889D02*
X607889D01*
X605889D02*
X606889Y183646D01*
X613582D02*
X614582Y185646D01*
X612582D02*
X614582D01*
X612582D02*
X613582Y183646D01*
X219882D02*
X220882Y185646D01*
X218882D02*
X220882D01*
X218882D02*
X219882Y183646D01*
X213189D02*
X214189Y185646D01*
X212189D02*
X214189D01*
X212189D02*
X213189Y183646D01*
X209055Y204906D02*
X210055Y206906D01*
X208055D02*
X210055D01*
X208055D02*
X209055Y204906D01*
X223228Y201362D02*
X224228Y203362D01*
X222228D02*
X224228D01*
X222228D02*
X223228Y201362D01*
Y193882D02*
X224228Y195882D01*
X222228D02*
X224228D01*
X222228D02*
X223228Y193882D01*
X219882Y282071D02*
X220882Y284071D01*
X218882D02*
X220882D01*
X218882D02*
X219882Y282071D01*
X213189D02*
X214189Y284071D01*
X212189D02*
X214189D01*
X212189D02*
X213189Y282071D01*
X209055Y303331D02*
X210055Y305331D01*
X208055D02*
X210055D01*
X208055D02*
X209055Y303331D01*
X223228Y299787D02*
X224228Y301787D01*
X222228D02*
X224228D01*
X222228D02*
X223228Y299787D01*
Y292307D02*
X224228Y294307D01*
X222228D02*
X224228D01*
X222228D02*
X223228Y292307D01*
X121456Y183646D02*
X122456Y185646D01*
X120456D02*
X122456D01*
X120456D02*
X121456Y183646D01*
X114763D02*
X115763Y185646D01*
X113763D02*
X115763D01*
X113763D02*
X114763Y183646D01*
X110630Y204906D02*
X111630Y206906D01*
X109630D02*
X111630D01*
X109630D02*
X110630Y204906D01*
X124803Y201362D02*
X125803Y203362D01*
X123803D02*
X125803D01*
X123803D02*
X124803Y201362D01*
Y193882D02*
X125803Y195882D01*
X123803D02*
X125803D01*
X123803D02*
X124803Y193882D01*
X121456Y282071D02*
X122456Y284071D01*
X120456D02*
X122456D01*
X120456D02*
X121456Y282071D01*
X114763D02*
X115763Y284071D01*
X113763D02*
X115763D01*
X113763D02*
X114763Y282071D01*
X110630Y303331D02*
X111630Y305331D01*
X109630D02*
X111630D01*
X109630D02*
X110630Y303331D01*
X124803Y299787D02*
X125803Y301787D01*
X123803D02*
X125803D01*
X123803D02*
X124803Y299787D01*
Y292307D02*
X125803Y294307D01*
X123803D02*
X125803D01*
X123803D02*
X124803Y292307D01*
X23031Y183646D02*
X24031Y185646D01*
X22031D02*
X24031D01*
X22031D02*
X23031Y183646D01*
X16338D02*
X17338Y185646D01*
X15338D02*
X17338D01*
X15338D02*
X16338Y183646D01*
X12205Y204906D02*
X13205Y206906D01*
X11205D02*
X13205D01*
X11205D02*
X12205Y204906D01*
X26378Y201362D02*
X27378Y203362D01*
X25378D02*
X27378D01*
X25378D02*
X26378Y201362D01*
Y193882D02*
X27378Y195882D01*
X25378D02*
X27378D01*
X25378D02*
X26378Y193882D01*
X-75394Y183646D02*
X-74394Y185646D01*
X-76394D02*
X-74394D01*
X-76394D02*
X-75394Y183646D01*
X-82087D02*
X-81087Y185646D01*
X-83087D02*
X-81087D01*
X-83087D02*
X-82087Y183646D01*
X-86221Y204906D02*
X-85220Y206906D01*
X-87221D02*
X-85220D01*
X-87221D02*
X-86221Y204906D01*
X-72047Y201362D02*
X-71047Y203362D01*
X-73047D02*
X-71047D01*
X-73047D02*
X-72047Y201362D01*
Y193882D02*
X-71047Y195882D01*
X-73047D02*
X-71047D01*
X-73047D02*
X-72047Y193882D01*
X23031Y282071D02*
X24031Y284071D01*
X22031D02*
X24031D01*
X22031D02*
X23031Y282071D01*
X16338D02*
X17338Y284071D01*
X15338D02*
X17338D01*
X15338D02*
X16338Y282071D01*
X12205Y303331D02*
X13205Y305331D01*
X11205D02*
X13205D01*
X11205D02*
X12205Y303331D01*
X26378Y299787D02*
X27378Y301787D01*
X25378D02*
X27378D01*
X25378D02*
X26378Y299787D01*
Y292307D02*
X27378Y294307D01*
X25378D02*
X27378D01*
X25378D02*
X26378Y292307D01*
X-72047D02*
X-71047Y294307D01*
X-73047D02*
X-71047D01*
X-73047D02*
X-72047Y292307D01*
Y299787D02*
X-71047Y301787D01*
X-73047D02*
X-71047D01*
X-73047D02*
X-72047Y299787D01*
X-86221Y303331D02*
X-85220Y305331D01*
X-87221D02*
X-85220D01*
X-87221D02*
X-86221Y303331D01*
X-82087Y282071D02*
X-81087Y284071D01*
X-83087D02*
X-81087D01*
X-83087D02*
X-82087Y282071D01*
X-75394D02*
X-74394Y284071D01*
X-76394D02*
X-74394D01*
X-76394D02*
X-75394Y282071D01*
X318307Y85220D02*
X319307Y87221D01*
X317307D02*
X319307D01*
X317307D02*
X318307Y85220D01*
X311614D02*
X312614Y87221D01*
X310614D02*
X312614D01*
X310614D02*
X311614Y85220D01*
X307480Y106480D02*
X308480Y108480D01*
X306480D02*
X308480D01*
X306480D02*
X307480Y106480D01*
X321654Y102937D02*
X322654Y104937D01*
X320654D02*
X322654D01*
X320654D02*
X321654Y102937D01*
Y95457D02*
X322654Y97457D01*
X320654D02*
X322654D01*
X320654D02*
X321654Y95457D01*
X420079D02*
X421079Y97457D01*
X419079D02*
X421079D01*
X419079D02*
X420079Y95457D01*
Y102937D02*
X421079Y104937D01*
X419079D02*
X421079D01*
X419079D02*
X420079Y102937D01*
X405905Y106480D02*
X406906Y108480D01*
X404906D02*
X406906D01*
X404906D02*
X405905Y106480D01*
X410039Y85220D02*
X411039Y87221D01*
X409039D02*
X411039D01*
X409039D02*
X410039Y85220D01*
X416732D02*
X417732Y87221D01*
X415732D02*
X417732D01*
X415732D02*
X416732Y85220D01*
X321654Y4512D02*
X322654Y6512D01*
X320654D02*
X322654D01*
X320654D02*
X321654Y4512D01*
X307480Y8055D02*
X308480Y10055D01*
X306480D02*
X308480D01*
X306480D02*
X307480Y8055D01*
X311614Y-13205D02*
X312614Y-11205D01*
X310614D02*
X312614D01*
X310614D02*
X311614Y-13205D01*
X318307D02*
X319307Y-11205D01*
X317307D02*
X319307D01*
X317307D02*
X318307Y-13205D01*
X420079Y4512D02*
X421079Y6512D01*
X419079D02*
X421079D01*
X419079D02*
X420079Y4512D01*
X405905Y8055D02*
X406906Y10055D01*
X404906D02*
X406906D01*
X404906D02*
X405905Y8055D01*
X410039Y-13205D02*
X411039Y-11205D01*
X409039D02*
X411039D01*
X409039D02*
X410039Y-13205D01*
X416732D02*
X417732Y-11205D01*
X415732D02*
X417732D01*
X415732D02*
X416732Y-13205D01*
X518504Y102937D02*
X519504Y104937D01*
X517504D02*
X519504D01*
X517504D02*
X518504Y102937D01*
X504331Y106480D02*
X505331Y108480D01*
X503331D02*
X505331D01*
X503331D02*
X504331Y106480D01*
X508464Y85220D02*
X509464Y87221D01*
X507464D02*
X509464D01*
X507464D02*
X508464Y85220D01*
X515157D02*
X516157Y87221D01*
X514157D02*
X516157D01*
X514157D02*
X515157Y85220D01*
X518504Y4512D02*
X519504Y6512D01*
X517504D02*
X519504D01*
X517504D02*
X518504Y4512D01*
X504331Y8055D02*
X505331Y10055D01*
X503331D02*
X505331D01*
X503331D02*
X504331Y8055D01*
X508464Y-13205D02*
X509464Y-11205D01*
X507464D02*
X509464D01*
X507464D02*
X508464Y-13205D01*
X515157D02*
X516157Y-11205D01*
X514157D02*
X516157D01*
X514157D02*
X515157Y-13205D01*
X616929Y95457D02*
X617929Y97457D01*
X615929D02*
X617929D01*
X615929D02*
X616929Y95457D01*
Y102937D02*
X617929Y104937D01*
X615929D02*
X617929D01*
X615929D02*
X616929Y102937D01*
X602756Y106480D02*
X603756Y108480D01*
X601756D02*
X603756D01*
X601756D02*
X602756Y106480D01*
X606889Y85220D02*
X607889Y87221D01*
X605889D02*
X607889D01*
X605889D02*
X606889Y85220D01*
X613582D02*
X614582Y87221D01*
X612582D02*
X614582D01*
X612582D02*
X613582Y85220D01*
X616929Y4512D02*
X617929Y6512D01*
X615929D02*
X617929D01*
X615929D02*
X616929Y4512D01*
X602756Y8055D02*
X603756Y10055D01*
X601756D02*
X603756D01*
X601756D02*
X602756Y8055D01*
X606889Y-13205D02*
X607889Y-11205D01*
X605889D02*
X607889D01*
X605889D02*
X606889Y-13205D01*
X613582D02*
X614582Y-11205D01*
X612582D02*
X614582D01*
X612582D02*
X613582Y-13205D01*
X219882D02*
X220882Y-11205D01*
X218882D02*
X220882D01*
X218882D02*
X219882Y-13205D01*
X213189D02*
X214189Y-11205D01*
X212189D02*
X214189D01*
X212189D02*
X213189Y-13205D01*
X209055Y8055D02*
X210055Y10055D01*
X208055D02*
X210055D01*
X208055D02*
X209055Y8055D01*
X223228Y4512D02*
X224228Y6512D01*
X222228D02*
X224228D01*
X222228D02*
X223228Y4512D01*
X219882Y85220D02*
X220882Y87221D01*
X218882D02*
X220882D01*
X218882D02*
X219882Y85220D01*
X213189D02*
X214189Y87221D01*
X212189D02*
X214189D01*
X212189D02*
X213189Y85220D01*
X209055Y106480D02*
X210055Y108480D01*
X208055D02*
X210055D01*
X208055D02*
X209055Y106480D01*
X223228Y102937D02*
X224228Y104937D01*
X222228D02*
X224228D01*
X222228D02*
X223228Y102937D01*
Y95457D02*
X224228Y97457D01*
X222228D02*
X224228D01*
X222228D02*
X223228Y95457D01*
X121456Y-13205D02*
X122456Y-11205D01*
X120456D02*
X122456D01*
X120456D02*
X121456Y-13205D01*
X114763D02*
X115763Y-11205D01*
X113763D02*
X115763D01*
X113763D02*
X114763Y-13205D01*
X110630Y8055D02*
X111630Y10055D01*
X109630D02*
X111630D01*
X109630D02*
X110630Y8055D01*
X124803Y4512D02*
X125803Y6512D01*
X123803D02*
X125803D01*
X123803D02*
X124803Y4512D01*
X121456Y85220D02*
X122456Y87221D01*
X120456D02*
X122456D01*
X120456D02*
X121456Y85220D01*
X114763D02*
X115763Y87221D01*
X113763D02*
X115763D01*
X113763D02*
X114763Y85220D01*
X110630Y106480D02*
X111630Y108480D01*
X109630D02*
X111630D01*
X109630D02*
X110630Y106480D01*
X124803Y102937D02*
X125803Y104937D01*
X123803D02*
X125803D01*
X123803D02*
X124803Y102937D01*
Y95457D02*
X125803Y97457D01*
X123803D02*
X125803D01*
X123803D02*
X124803Y95457D01*
X23031Y-13205D02*
X24031Y-11205D01*
X22031D02*
X24031D01*
X22031D02*
X23031Y-13205D01*
X16338D02*
X17338Y-11205D01*
X15338D02*
X17338D01*
X15338D02*
X16338Y-13205D01*
X12205Y8055D02*
X13205Y10055D01*
X11205D02*
X13205D01*
X11205D02*
X12205Y8055D01*
X26378Y4512D02*
X27378Y6512D01*
X25378D02*
X27378D01*
X25378D02*
X26378Y4512D01*
X-75394Y-13205D02*
X-74394Y-11205D01*
X-76394D02*
X-74394D01*
X-76394D02*
X-75394Y-13205D01*
X-82087D02*
X-81087Y-11205D01*
X-83087D02*
X-81087D01*
X-83087D02*
X-82087Y-13205D01*
X-86221Y8055D02*
X-85220Y10055D01*
X-87221D02*
X-85220D01*
X-87221D02*
X-86221Y8055D01*
X-72047Y4512D02*
X-71047Y6512D01*
X-73047D02*
X-71047D01*
X-73047D02*
X-72047Y4512D01*
X23031Y85220D02*
X24031Y87221D01*
X22031D02*
X24031D01*
X22031D02*
X23031Y85220D01*
X16338D02*
X17338Y87221D01*
X15338D02*
X17338D01*
X15338D02*
X16338Y85220D01*
X12205Y106480D02*
X13205Y108480D01*
X11205D02*
X13205D01*
X11205D02*
X12205Y106480D01*
X26378Y102937D02*
X27378Y104937D01*
X25378D02*
X27378D01*
X25378D02*
X26378Y102937D01*
Y95457D02*
X27378Y97457D01*
X25378D02*
X27378D01*
X25378D02*
X26378Y95457D01*
X-72047D02*
X-71047Y97457D01*
X-73047D02*
X-71047D01*
X-73047D02*
X-72047Y95457D01*
Y102937D02*
X-71047Y104937D01*
X-73047D02*
X-71047D01*
X-73047D02*
X-72047Y102937D01*
X-86221Y106480D02*
X-85220Y108480D01*
X-87221D02*
X-85220D01*
X-87221D02*
X-86221Y106480D01*
X-82087Y85220D02*
X-81087Y87221D01*
X-83087D02*
X-81087D01*
X-83087D02*
X-82087Y85220D01*
X-75394D02*
X-74394Y87221D01*
X-76394D02*
X-74394D01*
X-76394D02*
X-75394Y85220D01*
X616929Y693488D02*
X617929Y695488D01*
X615929D02*
X617929D01*
X615929D02*
X616929Y693488D01*
X518504D02*
X519504Y695488D01*
X517504D02*
X519504D01*
X517504D02*
X518504Y693488D01*
X420079D02*
X421079Y695488D01*
X419079D02*
X421079D01*
X419079D02*
X420079Y693488D01*
X321654D02*
X322654Y695488D01*
X320654D02*
X322654D01*
X320654D02*
X321654Y693488D01*
X223228D02*
X224228Y695488D01*
X222228D02*
X224228D01*
X222228D02*
X223228Y693488D01*
X124803D02*
X125803Y695488D01*
X123803D02*
X125803D01*
X123803D02*
X124803Y693488D01*
X26378D02*
X27378Y695488D01*
X25378D02*
X27378D01*
X25378D02*
X26378Y693488D01*
X-67126Y-3165D02*
X-66126Y-1165D01*
X-68126D02*
X-66126D01*
X-68126D02*
X-67126Y-3165D01*
X31299D02*
X32299Y-1165D01*
X30299D02*
X32299D01*
X30299D02*
X31299Y-3165D01*
X124803Y693488D02*
X125803Y695488D01*
X123803D02*
X125803D01*
X123803D02*
X124803Y693488D01*
X129724Y-3165D02*
X130724Y-1165D01*
X128724D02*
X130724D01*
X128724D02*
X129724Y-3165D01*
X228150D02*
X229150Y-1165D01*
X227150D02*
X229150D01*
X227150D02*
X228150Y-3165D01*
X326575D02*
X327575Y-1165D01*
X325575D02*
X327575D01*
X325575D02*
X326575Y-3165D01*
X425000D02*
X426000Y-1165D01*
X424000D02*
X426000D01*
X424000D02*
X425000Y-3165D01*
X518504Y693488D02*
X519504Y695488D01*
X517504D02*
X519504D01*
X517504D02*
X518504Y693488D01*
X523425Y-3165D02*
X524425Y-1165D01*
X522425D02*
X524425D01*
X522425D02*
X523425Y-3165D01*
X518504Y95457D02*
X519504Y97457D01*
X517504D02*
X519504D01*
X517504D02*
X518504Y95457D01*
X21654Y156957D02*
X22654Y158957D01*
X20654D02*
X22654D01*
X20654D02*
X21654Y156957D01*
X16338Y134971D02*
X17338Y136971D01*
X15338D02*
X17338D01*
X15338D02*
X16338Y134971D01*
X-82087D02*
X-81087Y136971D01*
X-83087D02*
X-81087D01*
X-83087D02*
X-82087Y134971D01*
X-76772Y156957D02*
X-75772Y158957D01*
X-77772D02*
X-75772D01*
X-77772D02*
X-76772Y156957D01*
X114763Y134971D02*
X115763Y136971D01*
X113763D02*
X115763D01*
X113763D02*
X114763Y134971D01*
X120079Y156957D02*
X121079Y158957D01*
X119079D02*
X121079D01*
X119079D02*
X120079Y156957D01*
X213189Y134971D02*
X214189Y136971D01*
X212189D02*
X214189D01*
X212189D02*
X213189Y134971D01*
X218504Y156957D02*
X219504Y158957D01*
X217504D02*
X219504D01*
X217504D02*
X218504Y156957D01*
X311614Y134971D02*
X312614Y136971D01*
X310614D02*
X312614D01*
X310614D02*
X311614Y134971D01*
X316929Y156957D02*
X317929Y158957D01*
X315929D02*
X317929D01*
X315929D02*
X316929Y156957D01*
X410039Y134971D02*
X411039Y136971D01*
X409039D02*
X411039D01*
X409039D02*
X410039Y134971D01*
X415354Y156957D02*
X416354Y158957D01*
X414354D02*
X416354D01*
X414354D02*
X415354Y156957D01*
X508464Y134971D02*
X509464Y136971D01*
X507464D02*
X509464D01*
X507464D02*
X508464Y134971D01*
X513779Y156957D02*
X514780Y158957D01*
X512780D02*
X514780D01*
X512780D02*
X513779Y156957D01*
X606889Y134971D02*
X607889Y136971D01*
X605889D02*
X607889D01*
X605889D02*
X606889Y134971D01*
X612205Y156957D02*
X613205Y158957D01*
X611205D02*
X613205D01*
X611205D02*
X612205Y156957D01*
Y550657D02*
X613205Y552657D01*
X611205D02*
X613205D01*
X611205D02*
X612205Y550657D01*
X606889Y528672D02*
X607889Y530672D01*
X605889D02*
X607889D01*
X605889D02*
X606889Y528672D01*
X513779Y550657D02*
X514780Y552657D01*
X512780D02*
X514780D01*
X512780D02*
X513779Y550657D01*
X508464Y528672D02*
X509464Y530672D01*
X507464D02*
X509464D01*
X507464D02*
X508464Y528672D01*
X415354Y550657D02*
X416354Y552657D01*
X414354D02*
X416354D01*
X414354D02*
X415354Y550657D01*
X410039Y528672D02*
X411039Y530672D01*
X409039D02*
X411039D01*
X409039D02*
X410039Y528672D01*
X316929Y550657D02*
X317929Y552657D01*
X315929D02*
X317929D01*
X315929D02*
X316929Y550657D01*
X311614Y528672D02*
X312614Y530672D01*
X310614D02*
X312614D01*
X310614D02*
X311614Y528672D01*
X218504Y550657D02*
X219504Y552657D01*
X217504D02*
X219504D01*
X217504D02*
X218504Y550657D01*
X213189Y528672D02*
X214189Y530672D01*
X212189D02*
X214189D01*
X212189D02*
X213189Y528672D01*
X120079Y550657D02*
X121079Y552657D01*
X119079D02*
X121079D01*
X119079D02*
X120079Y550657D01*
X114763Y528672D02*
X115763Y530672D01*
X113763D02*
X115763D01*
X113763D02*
X114763Y528672D01*
X-76772Y550657D02*
X-75772Y552657D01*
X-77772D02*
X-75772D01*
X-77772D02*
X-76772Y550657D01*
X-82087Y528672D02*
X-81087Y530672D01*
X-83087D02*
X-81087D01*
X-83087D02*
X-82087Y528672D01*
X16338D02*
X17338Y530672D01*
X15338D02*
X17338D01*
X15338D02*
X16338Y528672D01*
X21654Y550657D02*
X22654Y552657D01*
X20654D02*
X22654D01*
X20654D02*
X21654Y550657D01*
X337643Y763553D02*
X338643Y765553D01*
X336643D02*
X338643D01*
X336643D02*
X337643Y763553D01*
X340945Y763567D02*
X341945Y765567D01*
X339945D02*
X341945D01*
X339945D02*
X340945Y763567D01*
X343714Y761326D02*
X344714Y763326D01*
X342714D02*
X344714D01*
X342714D02*
X343714Y761326D01*
X327939D02*
X328939Y763326D01*
X326939D02*
X328939D01*
X326939D02*
X327939Y761326D01*
X330709Y763567D02*
X331709Y765567D01*
X329709D02*
X331709D01*
X329709D02*
X330709Y763567D01*
X334011Y763553D02*
X335011Y765553D01*
X333011D02*
X335011D01*
X333011D02*
X334011Y763553D01*
X-89370Y689945D02*
X-88370Y691945D01*
X-90370D02*
X-88370D01*
X-90370D02*
X-89370Y689945D01*
X318898Y723961D02*
X319898Y725961D01*
X317898D02*
X319898D01*
X317898D02*
X318898Y723961D01*
X353937Y720260D02*
X354937Y722260D01*
X352937D02*
X354937D01*
X352937D02*
X353937Y720260D01*
Y736795D02*
X354937Y738795D01*
X352937D02*
X354937D01*
X352937D02*
X353937Y736795D01*
X332677Y747031D02*
X333677Y749031D01*
X331677D02*
X333677D01*
X331677D02*
X332677Y747031D01*
X262795Y749197D02*
X263795Y751197D01*
X261795D02*
X263795D01*
X261795D02*
X262795Y749197D01*
X269291Y749141D02*
X270291Y751141D01*
X268291D02*
X270291D01*
X268291D02*
X269291Y749141D01*
X251693Y762573D02*
X252693Y764573D01*
X250693D02*
X252693D01*
X250693D02*
X251693Y762573D01*
X279803D02*
X280803Y764573D01*
X278803D02*
X280803D01*
X278803D02*
X279803Y762573D01*
X285709Y740211D02*
X286709Y742211D01*
X284709D02*
X286709D01*
X284709D02*
X285709Y740211D01*
X245787D02*
X246787Y742211D01*
X244787D02*
X246787D01*
X244787D02*
X245787Y740211D01*
X256299Y737829D02*
X257299Y739829D01*
X255299D02*
X257299D01*
X255299D02*
X256299Y737829D01*
X275197D02*
X276197Y739829D01*
X274197D02*
X276197D01*
X274197D02*
X275197Y737829D01*
X312599Y736008D02*
X313599Y738008D01*
X311599D02*
X313599D01*
X311599D02*
X312599Y736008D01*
X323622Y744669D02*
X324622Y746669D01*
X322622D02*
X324622D01*
X322622D02*
X323622Y744669D01*
X-94095Y650969D02*
X-93094Y652969D01*
X-95095D02*
X-93094D01*
X-95095D02*
X-94095Y650969D01*
X-74803D02*
X-73803Y652969D01*
X-75803D02*
X-73803D01*
X-75803D02*
X-74803Y650969D01*
X23622D02*
X24622Y652969D01*
X22622D02*
X24622D01*
X22622D02*
X23622Y650969D01*
X122047D02*
X123047Y652969D01*
X121047D02*
X123047D01*
X121047D02*
X122047Y650969D01*
X318898D02*
X319898Y652969D01*
X317898D02*
X319898D01*
X317898D02*
X318898Y650969D01*
X220472D02*
X221472Y652969D01*
X219472D02*
X221472D01*
X219472D02*
X220472Y650969D01*
X417323D02*
X418323Y652969D01*
X416323D02*
X418323D01*
X416323D02*
X417323Y650969D01*
X614173D02*
X615173Y652969D01*
X613173D02*
X615173D01*
X613173D02*
X614173Y650969D01*
X515748D02*
X516748Y652969D01*
X514748D02*
X516748D01*
X514748D02*
X515748Y650969D01*
X669685Y649394D02*
X670685Y651394D01*
X668685D02*
X670685D01*
X668685D02*
X669685Y649394D01*
X668504Y573016D02*
X669504Y575016D01*
X667504D02*
X669504D01*
X667504D02*
X668504Y573016D01*
X669356Y489470D02*
X670356Y491470D01*
X668356D02*
X670356D01*
X668356D02*
X669356Y489470D01*
X666929Y402543D02*
X667929Y404543D01*
X665929D02*
X667929D01*
X665929D02*
X666929Y402543D01*
X662992Y293882D02*
X663992Y295882D01*
X661992D02*
X663992D01*
X661992D02*
X662992Y293882D01*
X669685Y205693D02*
X670685Y207693D01*
X668685D02*
X670685D01*
X668685D02*
X669685Y205693D01*
X665748Y78921D02*
X666748Y80921D01*
X664748D02*
X666748D01*
X664748D02*
X665748Y78921D01*
X668504Y148213D02*
X669504Y150213D01*
X667504D02*
X669504D01*
X667504D02*
X668504Y148213D01*
X666929Y-9268D02*
X667929Y-7268D01*
X665929D02*
X667929D01*
X665929D02*
X666929Y-9268D01*
X612598Y-49425D02*
X613598Y-47425D01*
X611598D02*
X613598D01*
X611598D02*
X612598Y-49425D01*
X529675Y-57651D02*
X530675Y-55651D01*
X528675D02*
X530675D01*
X528675D02*
X529675Y-57651D01*
X461768Y-38740D02*
X462768Y-36740D01*
X460768D02*
X462768D01*
X460768D02*
X461768Y-38740D01*
X421260Y-54150D02*
X422260Y-52150D01*
X420260D02*
X422260D01*
X420260D02*
X421260Y-54150D01*
X360630Y-45094D02*
X361630Y-43095D01*
X359630D02*
X361630D01*
X359630D02*
X360630Y-45094D01*
X305512Y-49425D02*
X306512Y-47425D01*
X304512D02*
X306512D01*
X304512D02*
X305512Y-49425D01*
X218898Y-50606D02*
X219898Y-48606D01*
X217898D02*
X219898D01*
X217898D02*
X218898Y-50606D01*
X148022Y-41749D02*
X149022Y-39749D01*
X147022D02*
X149022D01*
X147022D02*
X148022Y-41749D01*
X65748Y-50606D02*
X66748Y-48606D01*
X64748D02*
X66748D01*
X64748D02*
X65748Y-50606D01*
X12992Y-55331D02*
X13992Y-53331D01*
X11992D02*
X13992D01*
X11992D02*
X12992Y-55331D01*
X-38976Y-36039D02*
X-37976Y-34039D01*
X-39976D02*
X-37976D01*
X-39976D02*
X-38976Y-36039D01*
X-63386Y-53362D02*
X-62386Y-51362D01*
X-64386D02*
X-62386D01*
X-64386D02*
X-63386Y-53362D01*
X-132677Y-10055D02*
X-131677Y-8055D01*
X-133677D02*
X-131677D01*
X-133677D02*
X-132677Y-10055D01*
X-120866Y31677D02*
X-119866Y33677D01*
X-121866D02*
X-119866D01*
X-121866D02*
X-120866Y31677D01*
X-129134Y78921D02*
X-128134Y80921D01*
X-130134D02*
X-128134D01*
X-130134D02*
X-129134Y78921D01*
X-116298Y127158D02*
X-115298Y129158D01*
X-117298D02*
X-115298D01*
X-117298D02*
X-116298Y127158D01*
X-127953Y154235D02*
X-126953Y156235D01*
X-128953D02*
X-126953D01*
X-128953D02*
X-127953Y154235D01*
X-132677Y228921D02*
X-131677Y230921D01*
X-133677D02*
X-131677D01*
X-133677D02*
X-132677Y228921D01*
X-116535Y275378D02*
X-115535Y277378D01*
X-117535D02*
X-115535D01*
X-117535D02*
X-116535Y275378D01*
X-136221Y316717D02*
X-135221Y318717D01*
X-137221D02*
X-135221D01*
X-137221D02*
X-136221Y316717D01*
X-121456Y388470D02*
X-120456Y390470D01*
X-122456D02*
X-120456D01*
X-122456D02*
X-121456Y388470D01*
X-139077Y465402D02*
X-138077Y467402D01*
X-140077D02*
X-138077D01*
X-140077D02*
X-139077Y465402D01*
X-121026Y524284D02*
X-120026Y526284D01*
X-122026D02*
X-120026D01*
X-122026D02*
X-121026Y524284D01*
X-129921Y553331D02*
X-128921Y555331D01*
X-130921D02*
X-128921D01*
X-130921D02*
X-129921Y553331D01*
X-125591Y606874D02*
X-124591Y608874D01*
X-126591D02*
X-124591D01*
X-126591D02*
X-125591Y606874D01*
X-109449Y634039D02*
X-108449Y636039D01*
X-110449D02*
X-108449D01*
X-110449D02*
X-109449Y634039D01*
X-126772Y700575D02*
X-125772Y702575D01*
X-127772D02*
X-125772D01*
X-127772D02*
X-126772Y700575D01*
X-102212Y743471D02*
X-101212Y745471D01*
X-103212D02*
X-101212D01*
X-103212D02*
X-102212Y743471D01*
X-49494Y743715D02*
X-48494Y745716D01*
X-50494D02*
X-48494D01*
X-50494D02*
X-49494Y743715D01*
X26378Y748606D02*
X27378Y750606D01*
X25378D02*
X27378D01*
X25378D02*
X26378Y748606D01*
X82284Y745850D02*
X83284Y747850D01*
X81283D02*
X83284D01*
X81283D02*
X82284Y745850D01*
X113541Y742495D02*
X114541Y744495D01*
X112541D02*
X114541D01*
X112541D02*
X113541Y742495D01*
X152835Y740055D02*
X153835Y742055D01*
X151835D02*
X153835D01*
X151835D02*
X152835Y740055D01*
X181102Y743094D02*
X182102Y745094D01*
X180102D02*
X182102D01*
X180102D02*
X181102Y743094D01*
X266535Y760024D02*
X267535Y762024D01*
X265535D02*
X267535D01*
X265535D02*
X266535Y760024D01*
X373622Y750181D02*
X374622Y752181D01*
X372622D02*
X374622D01*
X372622D02*
X373622Y750181D01*
X402394Y747396D02*
X403394Y749396D01*
X401394D02*
X403394D01*
X401394D02*
X402394Y747396D01*
X461024Y747425D02*
X462024Y749425D01*
X460024D02*
X462024D01*
X460024D02*
X461024Y747425D01*
X507866Y746841D02*
X508866Y748841D01*
X506866D02*
X508866D01*
X506866D02*
X507866Y746841D01*
X554331Y745850D02*
X555331Y747850D01*
X553331D02*
X555331D01*
X553331D02*
X554331Y745850D01*
X595736Y746702D02*
X596736Y748702D01*
X594736D02*
X596736D01*
X594736D02*
X595736Y746702D01*
X637731Y746980D02*
X638731Y748980D01*
X636731D02*
X638731D01*
X636731D02*
X637731Y746980D01*
X671687Y735615D02*
X672687Y737615D01*
X670687D02*
X672687D01*
X670687D02*
X671687Y735615D01*
X271260Y632465D02*
X272260Y634465D01*
X270260D02*
X272260D01*
X270260D02*
X271260Y632465D01*
X364918Y628270D02*
X365918Y630270D01*
X363918D02*
X365918D01*
X363918D02*
X364918Y628270D01*
X461417Y629315D02*
X462417Y631315D01*
X460417D02*
X462417D01*
X460417D02*
X461417Y629315D01*
X165748Y633646D02*
X166748Y635646D01*
X164748D02*
X166748D01*
X164748D02*
X165748Y633646D01*
X178347Y439945D02*
X179347Y441945D01*
X177347D02*
X179347D01*
X177347D02*
X178347Y439945D01*
X268332Y441968D02*
X269332Y443968D01*
X267332D02*
X269332D01*
X267332D02*
X268332Y441968D01*
X380709Y441126D02*
X381709Y443126D01*
X379709D02*
X381709D01*
X379709D02*
X380709Y441126D01*
X361417Y337583D02*
X362417Y339583D01*
X360417D02*
X362417D01*
X360417D02*
X361417Y337583D01*
X177559Y338370D02*
X178559Y340370D01*
X176559D02*
X178559D01*
X176559D02*
X177559Y338370D01*
X174016Y258449D02*
X175016Y260449D01*
X173016D02*
X175016D01*
X173016D02*
X174016Y258449D01*
X264713Y248130D02*
X265712Y250130D01*
X263713D02*
X265712D01*
X263713D02*
X264713Y248130D01*
X67323Y348213D02*
X68323Y350213D01*
X66323D02*
X68323D01*
X66323D02*
X67323Y348213D01*
X70866Y439157D02*
X71866Y441157D01*
X69866D02*
X71866D01*
X69866D02*
X70866Y439157D01*
X325590Y759236D02*
X326590Y761236D01*
X324590D02*
X326590D01*
X324590D02*
X325590Y759236D01*
X323228Y761517D02*
X324228Y763517D01*
X322228D02*
X324228D01*
X322228D02*
X323228Y761517D01*
X220748Y728134D02*
X221748Y730134D01*
X219748D02*
X221748D01*
X219748D02*
X220748Y728134D01*
X200787Y761205D02*
X201787Y763205D01*
X199787D02*
X201787D01*
X199787D02*
X200787Y761205D01*
X412386Y441913D02*
X414386D01*
Y443913D01*
X412386D02*
X414386D01*
X412386Y441913D02*
Y443913D01*
X363173Y392701D02*
X365173D01*
Y394701D01*
X363173D02*
X365173D01*
X363173Y392701D02*
Y394701D01*
Y491126D02*
X365173D01*
Y493126D01*
X363173D02*
X365173D01*
X363173Y491126D02*
Y493126D01*
X313961Y441913D02*
X315961D01*
Y443913D01*
X313961D02*
X315961D01*
X313961Y441913D02*
Y443913D01*
X609236Y441913D02*
X611236D01*
Y443913D01*
X609236D02*
X611236D01*
X609236Y441913D02*
Y443913D01*
X560024Y392701D02*
X562024D01*
Y394701D01*
X560024D02*
X562024D01*
X560024Y392701D02*
Y394701D01*
Y491126D02*
X562024D01*
Y493126D01*
X560024D02*
X562024D01*
X560024Y491126D02*
Y493126D01*
X510811Y441913D02*
X512811D01*
Y443913D01*
X510811D02*
X512811D01*
X510811Y441913D02*
Y443913D01*
X609236Y638764D02*
X611236D01*
Y640764D01*
X609236D02*
X611236D01*
X609236Y638764D02*
Y640764D01*
X560024Y589551D02*
X562024D01*
Y591551D01*
X560024D02*
X562024D01*
X560024Y589551D02*
Y591551D01*
Y687976D02*
X562024D01*
Y689976D01*
X560024D02*
X562024D01*
X560024Y687976D02*
Y689976D01*
X510811Y638764D02*
X512811D01*
Y640764D01*
X510811D02*
X512811D01*
X510811Y638764D02*
Y640764D01*
X274590Y353831D02*
X275091D01*
X274590D02*
Y354831D01*
X275091D01*
Y355331D01*
X276091D01*
Y354831D02*
Y355331D01*
Y354831D02*
X276590D01*
Y353831D02*
Y354831D01*
X276091Y353831D02*
X276590D01*
X276091Y353331D02*
Y353831D01*
X275091Y353331D02*
X276091D01*
X275091D02*
Y353831D01*
X648606D02*
X649106D01*
X648606D02*
Y354831D01*
X649106D01*
Y355331D01*
X650106D01*
Y354831D02*
Y355331D01*
Y354831D02*
X650606D01*
Y353831D02*
Y354831D01*
X650106Y353831D02*
X650606D01*
X650106Y353331D02*
Y353831D01*
X649106Y353331D02*
X650106D01*
X649106D02*
Y353831D01*
X274590Y727347D02*
X276590D01*
Y729347D01*
X274590D02*
X276590D01*
X274590Y727347D02*
Y729347D01*
X412386Y638764D02*
X414386D01*
Y640764D01*
X412386D02*
X414386D01*
X412386Y638764D02*
Y640764D01*
X363173Y589551D02*
X365173D01*
Y591551D01*
X363173D02*
X365173D01*
X363173Y589551D02*
Y591551D01*
Y687976D02*
X365173D01*
Y689976D01*
X363173D02*
X365173D01*
X363173Y687976D02*
Y689976D01*
X313961Y638764D02*
X315961D01*
Y640764D01*
X313961D02*
X315961D01*
X313961Y638764D02*
Y640764D01*
X412386Y48213D02*
X414386D01*
Y50213D01*
X412386D02*
X414386D01*
X412386Y48213D02*
Y50213D01*
X363173Y-1000D02*
X365173D01*
Y1000D01*
X363173D02*
X365173D01*
X363173Y-1000D02*
Y1000D01*
Y97425D02*
X365173D01*
Y99425D01*
X363173D02*
X365173D01*
X363173Y97425D02*
Y99425D01*
X313961Y48213D02*
X315961D01*
Y50213D01*
X313961D02*
X315961D01*
X313961Y48213D02*
Y50213D01*
X609236Y48213D02*
X611236D01*
Y50213D01*
X609236D02*
X611236D01*
X609236Y48213D02*
Y50213D01*
X560024Y-1000D02*
X562024D01*
Y1000D01*
X560024D02*
X562024D01*
X560024Y-1000D02*
Y1000D01*
Y97425D02*
X562024D01*
Y99425D01*
X560024D02*
X562024D01*
X560024Y97425D02*
Y99425D01*
X510811Y48213D02*
X512811D01*
Y50213D01*
X510811D02*
X512811D01*
X510811Y48213D02*
Y50213D01*
X609236Y245063D02*
X611236D01*
Y247063D01*
X609236D02*
X611236D01*
X609236Y245063D02*
Y247063D01*
X560024Y195850D02*
X562024D01*
Y197850D01*
X560024D02*
X562024D01*
X560024Y195850D02*
Y197850D01*
Y294276D02*
X562024D01*
Y296276D01*
X560024D02*
X562024D01*
X560024Y294276D02*
Y296276D01*
X510811Y245063D02*
X512811D01*
Y247063D01*
X510811D02*
X512811D01*
X510811Y245063D02*
Y247063D01*
X274590Y-40370D02*
X276590D01*
Y-38370D01*
X274590D02*
X276590D01*
X274590Y-40370D02*
Y-38370D01*
X648606Y334146D02*
X649106D01*
X648606D02*
Y335146D01*
X649106D01*
Y335646D01*
X650106D01*
Y335146D02*
Y335646D01*
Y335146D02*
X650606D01*
Y334146D02*
Y335146D01*
X650106Y334146D02*
X650606D01*
X650106Y333646D02*
Y334146D01*
X649106Y333646D02*
X650106D01*
X649106D02*
Y334146D01*
X274590D02*
X275091D01*
X274590D02*
Y335146D01*
X275091D01*
Y335646D01*
X276091D01*
Y335146D02*
Y335646D01*
Y335146D02*
X276590D01*
Y334146D02*
Y335146D01*
X276091Y334146D02*
X276590D01*
X276091Y333646D02*
Y334146D01*
X275091Y333646D02*
X276091D01*
X275091D02*
Y334146D01*
X412386Y245063D02*
X414386D01*
Y247063D01*
X412386D02*
X414386D01*
X412386Y245063D02*
Y247063D01*
X363173Y195850D02*
X365173D01*
Y197850D01*
X363173D02*
X365173D01*
X363173Y195850D02*
Y197850D01*
Y294276D02*
X365173D01*
Y296276D01*
X363173D02*
X365173D01*
X363173Y294276D02*
Y296276D01*
X313961Y245063D02*
X315961D01*
Y247063D01*
X313961D02*
X315961D01*
X313961Y245063D02*
Y247063D01*
X18685Y441913D02*
X20685D01*
Y443913D01*
X18685D02*
X20685D01*
X18685Y441913D02*
Y443913D01*
X-30528Y392701D02*
X-28528D01*
Y394701D01*
X-30528D02*
X-28528D01*
X-30528Y392701D02*
Y394701D01*
Y491126D02*
X-28528D01*
Y493126D01*
X-30528D02*
X-28528D01*
X-30528Y491126D02*
Y493126D01*
X-79740Y441913D02*
X-77740D01*
Y443913D01*
X-79740D02*
X-77740D01*
X-79740Y441913D02*
Y443913D01*
X215535Y441913D02*
X217535D01*
Y443913D01*
X215535D02*
X217535D01*
X215535Y441913D02*
Y443913D01*
X166323Y392701D02*
X168323D01*
Y394701D01*
X166323D02*
X168323D01*
X166323Y392701D02*
Y394701D01*
Y491126D02*
X168323D01*
Y493126D01*
X166323D02*
X168323D01*
X166323Y491126D02*
Y493126D01*
X117110Y441913D02*
X119110D01*
Y443913D01*
X117110D02*
X119110D01*
X117110Y441913D02*
Y443913D01*
X215535Y638764D02*
X217535D01*
Y640764D01*
X215535D02*
X217535D01*
X215535Y638764D02*
Y640764D01*
X166323Y589551D02*
X168323D01*
Y591551D01*
X166323D02*
X168323D01*
X166323Y589551D02*
Y591551D01*
Y687976D02*
X168323D01*
Y689976D01*
X166323D02*
X168323D01*
X166323Y687976D02*
Y689976D01*
X117110Y638764D02*
X119110D01*
Y640764D01*
X117110D02*
X119110D01*
X117110Y638764D02*
Y640764D01*
X-119110Y353831D02*
X-118610D01*
X-119110D02*
Y354831D01*
X-118610D01*
Y355331D01*
X-117610D01*
Y354831D02*
Y355331D01*
Y354831D02*
X-117110D01*
Y353831D02*
Y354831D01*
X-117610Y353831D02*
X-117110D01*
X-117610Y353331D02*
Y353831D01*
X-118610Y353331D02*
X-117610D01*
X-118610D02*
Y353831D01*
X254906D02*
X255405D01*
X254906D02*
Y354831D01*
X255405D01*
Y355331D01*
X256405D01*
Y354831D02*
Y355331D01*
Y354831D02*
X256906D01*
Y353831D02*
Y354831D01*
X256405Y353831D02*
X256906D01*
X256405Y353331D02*
Y353831D01*
X255405Y353331D02*
X256405D01*
X255405D02*
Y353831D01*
X254906Y727347D02*
X256906D01*
Y729347D01*
X254906D02*
X256906D01*
X254906Y727347D02*
Y729347D01*
X18685Y638764D02*
X20685D01*
Y640764D01*
X18685D02*
X20685D01*
X18685Y638764D02*
Y640764D01*
X-30528Y589551D02*
X-28528D01*
Y591551D01*
X-30528D02*
X-28528D01*
X-30528Y589551D02*
Y591551D01*
Y687976D02*
X-28528D01*
Y689976D01*
X-30528D02*
X-28528D01*
X-30528Y687976D02*
Y689976D01*
X-79740Y638764D02*
X-77740D01*
Y640764D01*
X-79740D02*
X-77740D01*
X-79740Y638764D02*
Y640764D01*
X18685Y48213D02*
X20685D01*
Y50213D01*
X18685D02*
X20685D01*
X18685Y48213D02*
Y50213D01*
X-30528Y-1000D02*
X-28528D01*
Y1000D01*
X-30528D02*
X-28528D01*
X-30528Y-1000D02*
Y1000D01*
Y97425D02*
X-28528D01*
Y99425D01*
X-30528D02*
X-28528D01*
X-30528Y97425D02*
Y99425D01*
X-79740Y48213D02*
X-77740D01*
Y50213D01*
X-79740D02*
X-77740D01*
X-79740Y48213D02*
Y50213D01*
X215535Y48213D02*
X217535D01*
Y50213D01*
X215535D02*
X217535D01*
X215535Y48213D02*
Y50213D01*
X166323Y-1000D02*
X168323D01*
Y1000D01*
X166323D02*
X168323D01*
X166323Y-1000D02*
Y1000D01*
Y97425D02*
X168323D01*
Y99425D01*
X166323D02*
X168323D01*
X166323Y97425D02*
Y99425D01*
X117110Y48213D02*
X119110D01*
Y50213D01*
X117110D02*
X119110D01*
X117110Y48213D02*
Y50213D01*
X215535Y245063D02*
X217535D01*
Y247063D01*
X215535D02*
X217535D01*
X215535Y245063D02*
Y247063D01*
X166323Y195850D02*
X168323D01*
Y197850D01*
X166323D02*
X168323D01*
X166323Y195850D02*
Y197850D01*
Y294276D02*
X168323D01*
Y296276D01*
X166323D02*
X168323D01*
X166323Y294276D02*
Y296276D01*
X117110Y245063D02*
X119110D01*
Y247063D01*
X117110D02*
X119110D01*
X117110Y245063D02*
Y247063D01*
X254906Y-40370D02*
X256906D01*
Y-38370D01*
X254906D02*
X256906D01*
X254906Y-40370D02*
Y-38370D01*
Y334146D02*
X255405D01*
X254906D02*
Y335146D01*
X255405D01*
Y335646D01*
X256405D01*
Y335146D02*
Y335646D01*
Y335146D02*
X256906D01*
Y334146D02*
Y335146D01*
X256405Y334146D02*
X256906D01*
X256405Y333646D02*
Y334146D01*
X255405Y333646D02*
X256405D01*
X255405D02*
Y334146D01*
X-119110D02*
X-118610D01*
X-119110D02*
Y335146D01*
X-118610D01*
Y335646D01*
X-117610D01*
Y335146D02*
Y335646D01*
Y335146D02*
X-117110D01*
Y334146D02*
Y335146D01*
X-117610Y334146D02*
X-117110D01*
X-117610Y333646D02*
Y334146D01*
X-118610Y333646D02*
X-117610D01*
X-118610D02*
Y334146D01*
X18685Y245063D02*
X20685D01*
Y247063D01*
X18685D02*
X20685D01*
X18685Y245063D02*
Y247063D01*
X-30528Y195850D02*
X-28528D01*
Y197850D01*
X-30528D02*
X-28528D01*
X-30528Y195850D02*
Y197850D01*
Y294276D02*
X-28528D01*
Y296276D01*
X-30528D02*
X-28528D01*
X-30528Y294276D02*
Y296276D01*
X-79740Y245063D02*
X-77740D01*
Y247063D01*
X-79740D02*
X-77740D01*
X-79740Y245063D02*
Y247063D01*
X253870Y748705D02*
X254370Y748205D01*
X253370Y748705D02*
X253870D01*
X253370D02*
X253870Y749205D01*
X253370Y749705D02*
X253870Y749205D01*
X253370Y749705D02*
X253870D01*
X254370Y750205D01*
X254870Y749705D01*
X255370D01*
X254870Y749205D02*
X255370Y749705D01*
X254870Y749205D02*
X255370Y748705D01*
X254870D02*
X255370D01*
X254370Y748205D02*
X254870Y748705D01*
X276626D02*
X277126Y748205D01*
X276126Y748705D02*
X276626D01*
X276126D02*
X276626Y749205D01*
X276126Y749705D02*
X276626Y749205D01*
X276126Y749705D02*
X276626D01*
X277126Y750205D01*
X277626Y749705D01*
X278126D01*
X277626Y749205D02*
X278126Y749705D01*
X277626Y749205D02*
X278126Y748705D01*
X277626D02*
X278126D01*
X277126Y748205D02*
X277626Y748705D01*
X229748Y761598D02*
X230748Y762098D01*
X231748Y761598D01*
X231248Y762598D02*
X231748Y761598D01*
X231248Y762598D02*
X231748Y763598D01*
X230748Y763098D02*
X231748Y763598D01*
X229748D02*
X230748Y763098D01*
X229748Y763598D02*
X230248Y762598D01*
X229748Y761598D02*
X230248Y762598D01*
X219748Y761598D02*
X220748Y762098D01*
X221748Y761598D01*
X221248Y762598D02*
X221748Y761598D01*
X221248Y762598D02*
X221748Y763598D01*
X220748Y763098D02*
X221748Y763598D01*
X219748D02*
X220748Y763098D01*
X219748Y763598D02*
X220248Y762598D01*
X219748Y761598D02*
X220248Y762598D01*
X309748Y761598D02*
X310748Y762098D01*
X311748Y761598D01*
X311248Y762598D02*
X311748Y761598D01*
X311248Y762598D02*
X311748Y763598D01*
X310748Y763098D02*
X311748Y763598D01*
X309748D02*
X310748Y763098D01*
X309748Y763598D02*
X310248Y762598D01*
X309748Y761598D02*
X310248Y762598D01*
X299748Y761598D02*
X300748Y762098D01*
X301748Y761598D01*
X301248Y762598D02*
X301748Y761598D01*
X301248Y762598D02*
X301748Y763598D01*
X300748Y763098D02*
X301748Y763598D01*
X299748D02*
X300748Y763098D01*
X299748Y763598D02*
X300248Y762598D01*
X299748Y761598D02*
X300248Y762598D01*
D60*
X1139923Y168763D02*
Y172541D01*
X1141812D01*
X1142441Y171912D01*
Y170652D01*
X1141812Y170022D01*
X1139923D01*
X1141182D02*
X1142441Y168763D01*
X1144331D02*
X1145590D01*
X1146220Y169393D01*
Y170652D01*
X1145590Y171282D01*
X1144331D01*
X1143701Y170652D01*
Y169393D01*
X1144331Y168763D01*
X1147479Y171282D02*
Y169393D01*
X1148109Y168763D01*
X1149998D01*
Y171282D01*
X1151887Y171912D02*
Y171282D01*
X1151258D01*
X1152517D01*
X1151887D01*
Y169393D01*
X1152517Y168763D01*
X1156295D02*
X1155036D01*
X1154406Y169393D01*
Y170652D01*
X1155036Y171282D01*
X1156295D01*
X1156925Y170652D01*
Y170022D01*
X1154406D01*
X1160703Y172541D02*
Y168763D01*
X1158814D01*
X1158184Y169393D01*
Y170652D01*
X1158814Y171282D01*
X1160703D01*
X1165741Y168763D02*
Y172541D01*
X1167630D01*
X1168260Y171912D01*
Y170652D01*
X1167630Y170022D01*
X1165741D01*
X1170149Y171282D02*
X1171408D01*
X1172038Y170652D01*
Y168763D01*
X1170149D01*
X1169519Y169393D01*
X1170149Y170022D01*
X1172038D01*
X1173927Y171912D02*
Y171282D01*
X1173298D01*
X1174557D01*
X1173927D01*
Y169393D01*
X1174557Y168763D01*
X1176446Y172541D02*
Y168763D01*
Y170652D01*
X1177076Y171282D01*
X1178335D01*
X1178965Y170652D01*
Y168763D01*
X1184003Y172541D02*
Y168763D01*
X1186522D01*
X1189670D02*
X1188411D01*
X1187781Y169393D01*
Y170652D01*
X1188411Y171282D01*
X1189670D01*
X1190300Y170652D01*
Y170022D01*
X1187781D01*
X1191559Y168763D02*
Y171282D01*
X1193449D01*
X1194078Y170652D01*
Y168763D01*
X1196597Y167503D02*
X1197227D01*
X1197857Y168133D01*
Y171282D01*
X1195967D01*
X1195338Y170652D01*
Y169393D01*
X1195967Y168763D01*
X1197857D01*
X1199746Y171912D02*
Y171282D01*
X1199116D01*
X1200375D01*
X1199746D01*
Y169393D01*
X1200375Y168763D01*
X1202265Y172541D02*
Y168763D01*
Y170652D01*
X1202894Y171282D01*
X1204154D01*
X1204784Y170652D01*
Y168763D01*
X1094266Y172541D02*
Y168763D01*
Y170652D01*
X1096785D01*
Y172541D01*
Y168763D01*
X1098674D02*
X1099933D01*
X1100563Y169393D01*
Y170652D01*
X1099933Y171282D01*
X1098674D01*
X1098044Y170652D01*
Y169393D01*
X1098674Y168763D01*
X1101822D02*
X1103082D01*
X1102452D01*
Y172541D01*
X1101822D01*
X1106860Y168763D02*
X1105601D01*
X1104971Y169393D01*
Y170652D01*
X1105601Y171282D01*
X1106860D01*
X1107490Y170652D01*
Y170022D01*
X1104971D01*
X1112528Y172541D02*
Y168763D01*
X1115047D01*
X1118195D02*
X1116936D01*
X1116306Y169393D01*
Y170652D01*
X1116936Y171282D01*
X1118195D01*
X1118825Y170652D01*
Y170022D01*
X1116306D01*
X1120084Y168763D02*
Y171282D01*
X1121973D01*
X1122603Y170652D01*
Y168763D01*
X1125122Y167503D02*
X1125752D01*
X1126381Y168133D01*
Y171282D01*
X1124492D01*
X1123863Y170652D01*
Y169393D01*
X1124492Y168763D01*
X1126381D01*
X1128271Y171912D02*
Y171282D01*
X1127641D01*
X1128900D01*
X1128271D01*
Y169393D01*
X1128900Y168763D01*
X1130789Y172541D02*
Y168763D01*
Y170652D01*
X1131419Y171282D01*
X1132679D01*
X1133308Y170652D01*
Y168763D01*
X1048478Y172541D02*
X1050997D01*
X1049738D01*
Y168763D01*
X1054146D02*
X1052886D01*
X1052256Y169393D01*
Y170652D01*
X1052886Y171282D01*
X1054146D01*
X1054775Y170652D01*
Y170022D01*
X1052256D01*
X1056035Y168763D02*
Y171282D01*
X1056665D01*
X1057294Y170652D01*
Y168763D01*
Y170652D01*
X1057924Y171282D01*
X1058554Y170652D01*
Y168763D01*
X1059813Y167503D02*
Y171282D01*
X1061702D01*
X1062332Y170652D01*
Y169393D01*
X1061702Y168763D01*
X1059813D01*
X1063591D02*
X1064851D01*
X1064221D01*
Y172541D01*
X1063591D01*
X1067370Y171282D02*
X1068629D01*
X1069259Y170652D01*
Y168763D01*
X1067370D01*
X1066740Y169393D01*
X1067370Y170022D01*
X1069259D01*
X1071148Y171912D02*
Y171282D01*
X1070518D01*
X1071778D01*
X1071148D01*
Y169393D01*
X1071778Y168763D01*
X1075556D02*
X1074297D01*
X1073667Y169393D01*
Y170652D01*
X1074297Y171282D01*
X1075556D01*
X1076186Y170652D01*
Y170022D01*
X1073667D01*
X1009119Y168763D02*
Y172541D01*
X1011008D01*
X1011638Y171912D01*
Y170652D01*
X1011008Y170022D01*
X1009119D01*
X1013527Y171282D02*
X1014786D01*
X1015416Y170652D01*
Y168763D01*
X1013527D01*
X1012897Y169393D01*
X1013527Y170022D01*
X1015416D01*
X1019194Y172541D02*
Y168763D01*
X1017305D01*
X1016675Y169393D01*
Y170652D01*
X1017305Y171282D01*
X1019194D01*
X1026751Y171912D02*
X1026121Y172541D01*
X1024862D01*
X1024232Y171912D01*
Y171282D01*
X1024862Y170652D01*
X1026121D01*
X1026751Y170022D01*
Y169393D01*
X1026121Y168763D01*
X1024862D01*
X1024232Y169393D01*
X1028010Y172541D02*
Y168763D01*
Y170652D01*
X1028640Y171282D01*
X1029899D01*
X1030529Y170652D01*
Y168763D01*
X1032418Y171282D02*
X1033678D01*
X1034307Y170652D01*
Y168763D01*
X1032418D01*
X1031789Y169393D01*
X1032418Y170022D01*
X1034307D01*
X1035567Y167503D02*
Y171282D01*
X1037456D01*
X1038086Y170652D01*
Y169393D01*
X1037456Y168763D01*
X1035567D01*
X1041234D02*
X1039975D01*
X1039345Y169393D01*
Y170652D01*
X1039975Y171282D01*
X1041234D01*
X1041864Y170652D01*
Y170022D01*
X1039345D01*
X977946Y172541D02*
Y170022D01*
X979205Y168763D01*
X980464Y170022D01*
Y172541D01*
X981724Y168763D02*
X982983D01*
X982354D01*
Y171282D01*
X981724D01*
X985502D02*
X986762D01*
X987391Y170652D01*
Y168763D01*
X985502D01*
X984872Y169393D01*
X985502Y170022D01*
X987391D01*
X988651Y168763D02*
X991170Y171282D01*
X992429Y168763D02*
Y172541D01*
X994318D01*
X994948Y171912D01*
Y170652D01*
X994318Y170022D01*
X992429D01*
X996837Y171282D02*
X998096D01*
X998726Y170652D01*
Y168763D01*
X996837D01*
X996207Y169393D01*
X996837Y170022D01*
X998726D01*
X1002505Y172541D02*
Y168763D01*
X1000615D01*
X999986Y169393D01*
Y170652D01*
X1000615Y171282D01*
X1002505D01*
X899098Y172541D02*
Y168763D01*
X900987D01*
X901617Y169393D01*
Y171912D01*
X900987Y172541D01*
X899098D01*
X902876Y171282D02*
Y168763D01*
Y170022D01*
X903506Y170652D01*
X904136Y171282D01*
X904765D01*
X906654Y168763D02*
X907914D01*
X907284D01*
Y171282D01*
X906654D01*
X909803Y168763D02*
X911062D01*
X910433D01*
Y172541D01*
X909803D01*
X912951Y168763D02*
X914211D01*
X913581D01*
Y172541D01*
X912951D01*
X919878D02*
Y168763D01*
X922397D01*
X924286Y171282D02*
X925546D01*
X926176Y170652D01*
Y168763D01*
X924286D01*
X923657Y169393D01*
X924286Y170022D01*
X926176D01*
X927435Y171282D02*
Y169393D01*
X928065Y168763D01*
X929954D01*
Y168133D01*
X929324Y167503D01*
X928695D01*
X929954Y168763D02*
Y171282D01*
X933103Y168763D02*
X931843D01*
X931213Y169393D01*
Y170652D01*
X931843Y171282D01*
X933103D01*
X933732Y170652D01*
Y170022D01*
X931213D01*
X934992Y171282D02*
Y168763D01*
Y170022D01*
X935621Y170652D01*
X936251Y171282D01*
X936881D01*
X942548Y168763D02*
Y172541D01*
X944437D01*
X945067Y171912D01*
Y170652D01*
X944437Y170022D01*
X942548D01*
X946956Y171282D02*
X948216D01*
X948845Y170652D01*
Y168763D01*
X946956D01*
X946327Y169393D01*
X946956Y170022D01*
X948845D01*
X950105Y168763D02*
X951364D01*
X950735D01*
Y171282D01*
X950105D01*
X953253D02*
Y168763D01*
Y170022D01*
X953883Y170652D01*
X954513Y171282D01*
X955143D01*
X860368Y172541D02*
Y168763D01*
Y170652D01*
X862887D01*
Y172541D01*
Y168763D01*
X864776D02*
X866035D01*
X866665Y169393D01*
Y170652D01*
X866035Y171282D01*
X864776D01*
X864146Y170652D01*
Y169393D01*
X864776Y168763D01*
X867924D02*
X869184D01*
X868554D01*
Y172541D01*
X867924D01*
X872962Y168763D02*
X871703D01*
X871073Y169393D01*
Y170652D01*
X871703Y171282D01*
X872962D01*
X873592Y170652D01*
Y170022D01*
X871073D01*
X878630Y172541D02*
X881149D01*
X879889D01*
Y168763D01*
X882408Y171282D02*
Y169393D01*
X883038Y168763D01*
X884927D01*
Y168133D01*
X884297Y167503D01*
X883667D01*
X884927Y168763D02*
Y171282D01*
X886186Y167503D02*
Y171282D01*
X888076D01*
X888705Y170652D01*
Y169393D01*
X888076Y168763D01*
X886186D01*
X891854D02*
X890594D01*
X889965Y169393D01*
Y170652D01*
X890594Y171282D01*
X891854D01*
X892484Y170652D01*
Y170022D01*
X889965D01*
X833603Y168763D02*
Y172541D01*
X835492D01*
X836122Y171912D01*
Y170652D01*
X835492Y170022D01*
X833603D01*
X837381Y168763D02*
X838640D01*
X838011D01*
Y172541D01*
X837381D01*
X841159Y171282D02*
X842419D01*
X843049Y170652D01*
Y168763D01*
X841159D01*
X840530Y169393D01*
X841159Y170022D01*
X843049D01*
X844938Y171912D02*
Y171282D01*
X844308D01*
X845567D01*
X844938D01*
Y169393D01*
X845567Y168763D01*
X849346D02*
X848086D01*
X847457Y169393D01*
Y170652D01*
X848086Y171282D01*
X849346D01*
X849975Y170652D01*
Y170022D01*
X847457D01*
X853754Y172541D02*
Y168763D01*
X851865D01*
X851235Y169393D01*
Y170652D01*
X851865Y171282D01*
X853754D01*
X773122Y172541D02*
Y168763D01*
Y170652D01*
X775641D01*
Y172541D01*
Y168763D01*
X777530D02*
X778789D01*
X779419Y169393D01*
Y170652D01*
X778789Y171282D01*
X777530D01*
X776900Y170652D01*
Y169393D01*
X777530Y168763D01*
X780678D02*
X781938D01*
X781308D01*
Y172541D01*
X780678D01*
X785716Y168763D02*
X784457D01*
X783827Y169393D01*
Y170652D01*
X784457Y171282D01*
X785716D01*
X786346Y170652D01*
Y170022D01*
X783827D01*
X793902Y171912D02*
X793273Y172541D01*
X792013D01*
X791384Y171912D01*
Y171282D01*
X792013Y170652D01*
X793273D01*
X793902Y170022D01*
Y169393D01*
X793273Y168763D01*
X792013D01*
X791384Y169393D01*
X795162Y168763D02*
X796421D01*
X795792D01*
Y171282D01*
X795162D01*
X798310D02*
X800829D01*
X798310Y168763D01*
X800829D01*
X803978D02*
X802719D01*
X802089Y169393D01*
Y170652D01*
X802719Y171282D01*
X803978D01*
X804608Y170652D01*
Y170022D01*
X802089D01*
X744022Y171912D02*
X743392Y172541D01*
X742133D01*
X741503Y171912D01*
Y169393D01*
X742133Y168763D01*
X743392D01*
X744022Y169393D01*
X745911Y168763D02*
X747170D01*
X747800Y169393D01*
Y170652D01*
X747170Y171282D01*
X745911D01*
X745281Y170652D01*
Y169393D01*
X745911Y168763D01*
X749059Y171282D02*
Y169393D01*
X749689Y168763D01*
X751578D01*
Y171282D01*
X752838Y168763D02*
Y171282D01*
X754727D01*
X755357Y170652D01*
Y168763D01*
X757246Y171912D02*
Y171282D01*
X756616D01*
X757875D01*
X757246D01*
Y169393D01*
X757875Y168763D01*
X717256Y171912D02*
X716627Y172541D01*
X715367D01*
X714738Y171912D01*
Y171282D01*
X715367Y170652D01*
X716627D01*
X717256Y170022D01*
Y169393D01*
X716627Y168763D01*
X715367D01*
X714738Y169393D01*
X718516Y171282D02*
Y169393D01*
X719146Y168763D01*
X721035D01*
Y168133D01*
X720405Y167503D01*
X719775D01*
X721035Y168763D02*
Y171282D01*
X722294Y168763D02*
Y171282D01*
X722924D01*
X723554Y170652D01*
Y168763D01*
Y170652D01*
X724183Y171282D01*
X724813Y170652D01*
Y168763D01*
X726073Y172541D02*
Y168763D01*
X727962D01*
X728591Y169393D01*
Y170022D01*
Y170652D01*
X727962Y171282D01*
X726073D01*
X730481Y168763D02*
X731740D01*
X732370Y169393D01*
Y170652D01*
X731740Y171282D01*
X730481D01*
X729851Y170652D01*
Y169393D01*
X730481Y168763D01*
X733629D02*
X734889D01*
X734259D01*
Y172541D01*
X733629D01*
M02*
