G04*
G04 #@! TF.GenerationSoftware,Altium Limited,Altium Designer,26.3.0 (6)*
G04*
G04 Layer_Color=16711935*
%FSLAX25Y25*%
%MOIN*%
G70*
G04*
G04 #@! TF.SameCoordinates,A806FC3E-2AF5-410F-BC78-0BCB0F8315C3*
G04*
G04*
G04 #@! TF.FilePolarity,Negative*
G04*
G01*
G75*
%ADD11C,0.00591*%
%ADD40C,0.06299*%
%ADD41R,0.06299X0.06299*%
%ADD42C,0.02953*%
%ADD43C,0.24410*%
%ADD44C,0.12205*%
%ADD45C,0.12598*%
%ADD46C,0.01772*%
D11*
X174134Y755905D02*
G03*
X179134Y760906I0J5000D01*
G01*
X184134Y767717D02*
G03*
X179134Y762716I0J-5000D01*
G01*
X352362D02*
G03*
X347362Y767717I-5000J0D01*
G01*
X352362Y760906D02*
G03*
X357362Y755905I5000J0D01*
G01*
X-118110Y755905D02*
G03*
X-145669Y728346I0J-27559D01*
G01*
X677165D02*
G03*
X649606Y755905I-27559J0D01*
G01*
Y-66929D02*
G03*
X677165Y-39370I0J27559D01*
G01*
X-145669D02*
G03*
X-118110Y-66929I27559J0D01*
G01*
X364173Y755905D02*
X649606Y755905D01*
X-118110D02*
X167323D01*
Y755905D02*
X174134D01*
X179134Y760906D02*
Y762716D01*
X184134Y767717D02*
X265748D01*
X347362D01*
X352362Y760906D02*
Y762716D01*
X357362Y755905D02*
X364173D01*
X677165Y-39370D02*
Y728347D01*
X-145669Y728346D02*
X-145669Y-39370D01*
X-118151Y-66929D02*
X649606D01*
D40*
X300748Y762598D02*
D03*
X220748D02*
D03*
D41*
X310748D02*
D03*
X230748D02*
D03*
D42*
X277126Y749205D02*
D03*
X254370D02*
D03*
D43*
X265748Y541339D02*
D03*
Y147638D02*
D03*
X649606Y728346D02*
D03*
Y-39370D02*
D03*
X-118110D02*
D03*
Y728346D02*
D03*
D44*
X-78740Y246063D02*
D03*
X-29528Y295276D02*
D03*
Y196850D02*
D03*
X19685Y246063D02*
D03*
X255906Y-39370D02*
D03*
X-118110D02*
D03*
X118110Y246063D02*
D03*
X167323Y295276D02*
D03*
Y196850D02*
D03*
X216535Y246063D02*
D03*
X118110Y49213D02*
D03*
X167323Y98425D02*
D03*
Y0D02*
D03*
X216535Y49213D02*
D03*
X-78740D02*
D03*
X-29528Y98425D02*
D03*
Y0D02*
D03*
X19685Y49213D02*
D03*
X-78740Y639764D02*
D03*
X-29528Y688976D02*
D03*
Y590551D02*
D03*
X19685Y639764D02*
D03*
X-118110Y728346D02*
D03*
X255906D02*
D03*
X118110Y639764D02*
D03*
X167323Y688976D02*
D03*
Y590551D02*
D03*
X216535Y639764D02*
D03*
X118110Y442913D02*
D03*
X167323Y492126D02*
D03*
Y393701D02*
D03*
X216535Y442913D02*
D03*
X-78740D02*
D03*
X-29528Y492126D02*
D03*
Y393701D02*
D03*
X19685Y442913D02*
D03*
X314961Y246063D02*
D03*
X364173Y295276D02*
D03*
Y196850D02*
D03*
X413386Y246063D02*
D03*
X649606Y-39370D02*
D03*
X275590D02*
D03*
X511811Y246063D02*
D03*
X561024Y295276D02*
D03*
Y196850D02*
D03*
X610236Y246063D02*
D03*
X511811Y49213D02*
D03*
X561024Y98425D02*
D03*
Y0D02*
D03*
X610236Y49213D02*
D03*
X314961D02*
D03*
X364173Y98425D02*
D03*
Y0D02*
D03*
X413386Y49213D02*
D03*
X314961Y639764D02*
D03*
X364173Y688976D02*
D03*
Y590551D02*
D03*
X413386Y639764D02*
D03*
X275590Y728346D02*
D03*
X649606D02*
D03*
X511811Y639764D02*
D03*
X561024Y688976D02*
D03*
Y590551D02*
D03*
X610236Y639764D02*
D03*
X511811Y442913D02*
D03*
X561024Y492126D02*
D03*
Y393701D02*
D03*
X610236Y442913D02*
D03*
X314961D02*
D03*
X364173Y492126D02*
D03*
Y393701D02*
D03*
X413386Y442913D02*
D03*
D45*
X-118110Y334646D02*
D03*
X255906D02*
D03*
Y354331D02*
D03*
X-118110D02*
D03*
X275590Y334646D02*
D03*
X649606D02*
D03*
Y354331D02*
D03*
X275590D02*
D03*
D46*
X200787Y762205D02*
D03*
X220748Y729134D02*
D03*
X323228Y762517D02*
D03*
X325590Y760236D02*
D03*
X70866Y440158D02*
D03*
X67323Y349213D02*
D03*
X264713Y249130D02*
D03*
X174016Y259449D02*
D03*
X177559Y339370D02*
D03*
X361417Y338583D02*
D03*
X380709Y442126D02*
D03*
X268332Y442969D02*
D03*
X178347Y440945D02*
D03*
X165748Y634646D02*
D03*
X461417Y630315D02*
D03*
X364918Y629270D02*
D03*
X271260Y633465D02*
D03*
X671687Y736615D02*
D03*
X637731Y747980D02*
D03*
X595736Y747703D02*
D03*
X554331Y746850D02*
D03*
X507866Y747841D02*
D03*
X461024Y748425D02*
D03*
X402394Y748395D02*
D03*
X373622Y751181D02*
D03*
X266535Y761024D02*
D03*
X181102Y744095D02*
D03*
X152835Y741054D02*
D03*
X113541Y743495D02*
D03*
X82284Y746850D02*
D03*
X26378Y749606D02*
D03*
X-49494Y744715D02*
D03*
X-102212Y744471D02*
D03*
X-126772Y701575D02*
D03*
X-109449Y635039D02*
D03*
X-125591Y607874D02*
D03*
X-129921Y554331D02*
D03*
X-121026Y525284D02*
D03*
X-139077Y466402D02*
D03*
X-121456Y389470D02*
D03*
X-136221Y317717D02*
D03*
X-116535Y276378D02*
D03*
X-132677Y229921D02*
D03*
X-127953Y155235D02*
D03*
X-116298Y128158D02*
D03*
X-129134Y79921D02*
D03*
X-120866Y32677D02*
D03*
X-132677Y-9055D02*
D03*
X-63386Y-52362D02*
D03*
X-38976Y-35039D02*
D03*
X12992Y-54331D02*
D03*
X65748Y-49606D02*
D03*
X148022Y-40749D02*
D03*
X218898Y-49606D02*
D03*
X305512Y-48425D02*
D03*
X360630Y-44094D02*
D03*
X421260Y-53150D02*
D03*
X461768Y-37740D02*
D03*
X529675Y-56651D02*
D03*
X612598Y-48425D02*
D03*
X666929Y-8268D02*
D03*
X668504Y149213D02*
D03*
X665748Y79921D02*
D03*
X669685Y206693D02*
D03*
X662992Y294882D02*
D03*
X666929Y403543D02*
D03*
X669356Y490471D02*
D03*
X668504Y574016D02*
D03*
X669685Y650394D02*
D03*
X515748Y651968D02*
D03*
X614173D02*
D03*
X417323D02*
D03*
X220472D02*
D03*
X318898D02*
D03*
X122047D02*
D03*
X23622D02*
D03*
X-74803D02*
D03*
X-94095D02*
D03*
X323622Y745669D02*
D03*
X312599Y737008D02*
D03*
X275197Y738829D02*
D03*
X256299D02*
D03*
X245787Y741211D02*
D03*
X285709D02*
D03*
X279803Y763573D02*
D03*
X251693D02*
D03*
X269291Y750141D02*
D03*
X262795Y750197D02*
D03*
X332677Y748032D02*
D03*
X353937Y737795D02*
D03*
Y721260D02*
D03*
X318898Y724961D02*
D03*
X-89370Y690945D02*
D03*
X334011Y764552D02*
D03*
X330709Y764567D02*
D03*
X327939Y762326D02*
D03*
X343714D02*
D03*
X340945Y764567D02*
D03*
X337643Y764552D02*
D03*
X21654Y551657D02*
D03*
X16338Y529672D02*
D03*
X-82087D02*
D03*
X-76772Y551657D02*
D03*
X114763Y529672D02*
D03*
X120079Y551657D02*
D03*
X213189Y529672D02*
D03*
X218504Y551657D02*
D03*
X311614Y529672D02*
D03*
X316929Y551657D02*
D03*
X410039Y529672D02*
D03*
X415354Y551657D02*
D03*
X508464Y529672D02*
D03*
X513779Y551657D02*
D03*
X606889Y529672D02*
D03*
X612205Y551657D02*
D03*
Y157957D02*
D03*
X606889Y135971D02*
D03*
X513779Y157957D02*
D03*
X508464Y135971D02*
D03*
X415354Y157957D02*
D03*
X410039Y135971D02*
D03*
X316929Y157957D02*
D03*
X311614Y135971D02*
D03*
X218504Y157957D02*
D03*
X213189Y135971D02*
D03*
X120079Y157957D02*
D03*
X114763Y135971D02*
D03*
X-76772Y157957D02*
D03*
X-82087Y135971D02*
D03*
X16338D02*
D03*
X21654Y157957D02*
D03*
X518504Y96457D02*
D03*
X616929Y694488D02*
D03*
X523425Y-2165D02*
D03*
X518504Y694488D02*
D03*
X425000Y-2165D02*
D03*
X420079Y694488D02*
D03*
X326575Y-2165D02*
D03*
X321654Y694488D02*
D03*
X228150Y-2165D02*
D03*
X223228Y694488D02*
D03*
X129724Y-2165D02*
D03*
X124803Y694488D02*
D03*
X31299Y-2165D02*
D03*
X-67126D02*
D03*
X26378Y694488D02*
D03*
X124803D02*
D03*
X223228D02*
D03*
X321654D02*
D03*
X420079D02*
D03*
X518504D02*
D03*
X616929D02*
D03*
X-75394Y86221D02*
D03*
X-82087D02*
D03*
X-86221Y107480D02*
D03*
X-72047Y103937D02*
D03*
Y96457D02*
D03*
X26378D02*
D03*
Y103937D02*
D03*
X12205Y107480D02*
D03*
X16338Y86221D02*
D03*
X23031D02*
D03*
X-72047Y5512D02*
D03*
X-86221Y9055D02*
D03*
X-82087Y-12205D02*
D03*
X-75394D02*
D03*
X26378Y5512D02*
D03*
X12205Y9055D02*
D03*
X16338Y-12205D02*
D03*
X23031D02*
D03*
X124803Y96457D02*
D03*
Y103937D02*
D03*
X110630Y107480D02*
D03*
X114763Y86221D02*
D03*
X121456D02*
D03*
X124803Y5512D02*
D03*
X110630Y9055D02*
D03*
X114763Y-12205D02*
D03*
X121456D02*
D03*
X223228Y96457D02*
D03*
Y103937D02*
D03*
X209055Y107480D02*
D03*
X213189Y86221D02*
D03*
X219882D02*
D03*
X223228Y5512D02*
D03*
X209055Y9055D02*
D03*
X213189Y-12205D02*
D03*
X219882D02*
D03*
X613582D02*
D03*
X606889D02*
D03*
X602756Y9055D02*
D03*
X616929Y5512D02*
D03*
X613582Y86221D02*
D03*
X606889D02*
D03*
X602756Y107480D02*
D03*
X616929Y103937D02*
D03*
Y96457D02*
D03*
X515157Y-12205D02*
D03*
X508464D02*
D03*
X504331Y9055D02*
D03*
X518504Y5512D02*
D03*
X515157Y86221D02*
D03*
X508464D02*
D03*
X504331Y107480D02*
D03*
X518504Y103937D02*
D03*
X416732Y-12205D02*
D03*
X410039D02*
D03*
X405905Y9055D02*
D03*
X420079Y5512D02*
D03*
X318307Y-12205D02*
D03*
X311614D02*
D03*
X307480Y9055D02*
D03*
X321654Y5512D02*
D03*
X416732Y86221D02*
D03*
X410039D02*
D03*
X405905Y107480D02*
D03*
X420079Y103937D02*
D03*
Y96457D02*
D03*
X321654D02*
D03*
Y103937D02*
D03*
X307480Y107480D02*
D03*
X311614Y86221D02*
D03*
X318307D02*
D03*
X-75394Y283071D02*
D03*
X-82087D02*
D03*
X-86221Y304331D02*
D03*
X-72047Y300787D02*
D03*
Y293307D02*
D03*
X26378D02*
D03*
Y300787D02*
D03*
X12205Y304331D02*
D03*
X16338Y283071D02*
D03*
X23031D02*
D03*
X-72047Y194882D02*
D03*
Y202362D02*
D03*
X-86221Y205906D02*
D03*
X-82087Y184646D02*
D03*
X-75394D02*
D03*
X26378Y194882D02*
D03*
Y202362D02*
D03*
X12205Y205906D02*
D03*
X16338Y184646D02*
D03*
X23031D02*
D03*
X124803Y293307D02*
D03*
Y300787D02*
D03*
X110630Y304331D02*
D03*
X114763Y283071D02*
D03*
X121456D02*
D03*
X124803Y194882D02*
D03*
Y202362D02*
D03*
X110630Y205906D02*
D03*
X114763Y184646D02*
D03*
X121456D02*
D03*
X223228Y293307D02*
D03*
Y300787D02*
D03*
X209055Y304331D02*
D03*
X213189Y283071D02*
D03*
X219882D02*
D03*
X223228Y194882D02*
D03*
Y202362D02*
D03*
X209055Y205906D02*
D03*
X213189Y184646D02*
D03*
X219882D02*
D03*
X613582D02*
D03*
X606889D02*
D03*
X602756Y205906D02*
D03*
X616929Y202362D02*
D03*
Y194882D02*
D03*
X613582Y283071D02*
D03*
X606889D02*
D03*
X602756Y304331D02*
D03*
X616929Y300787D02*
D03*
Y293307D02*
D03*
X515157Y184646D02*
D03*
X508464D02*
D03*
X504331Y205906D02*
D03*
X518504Y202362D02*
D03*
Y194882D02*
D03*
X515157Y283071D02*
D03*
X508464D02*
D03*
X504331Y304331D02*
D03*
X518504Y300787D02*
D03*
Y293307D02*
D03*
X416732Y184646D02*
D03*
X410039D02*
D03*
X405905Y205906D02*
D03*
X420079Y202362D02*
D03*
Y194882D02*
D03*
X318307Y184646D02*
D03*
X311614D02*
D03*
X307480Y205906D02*
D03*
X321654Y202362D02*
D03*
Y194882D02*
D03*
X416732Y283071D02*
D03*
X410039D02*
D03*
X405905Y304331D02*
D03*
X420079Y300787D02*
D03*
Y293307D02*
D03*
X321654D02*
D03*
Y300787D02*
D03*
X307480Y304331D02*
D03*
X311614Y283071D02*
D03*
X318307D02*
D03*
X-75394Y479921D02*
D03*
X-82087D02*
D03*
X-86221Y501181D02*
D03*
X-72047Y497638D02*
D03*
Y490158D02*
D03*
X26378D02*
D03*
Y497638D02*
D03*
X12205Y501181D02*
D03*
X16338Y479921D02*
D03*
X23031D02*
D03*
X-72047Y391732D02*
D03*
Y399213D02*
D03*
X-86221Y402756D02*
D03*
X-82087Y381496D02*
D03*
X-75394D02*
D03*
X26378Y391732D02*
D03*
Y399213D02*
D03*
X12205Y402756D02*
D03*
X16338Y381496D02*
D03*
X23031D02*
D03*
X124803Y490158D02*
D03*
Y497638D02*
D03*
X110630Y501181D02*
D03*
X114763Y479921D02*
D03*
X121456D02*
D03*
X124803Y391732D02*
D03*
Y399213D02*
D03*
X110630Y402756D02*
D03*
X114763Y381496D02*
D03*
X121456D02*
D03*
X223228Y490158D02*
D03*
Y497638D02*
D03*
X209055Y501181D02*
D03*
X213189Y479921D02*
D03*
X219882D02*
D03*
X223228Y391732D02*
D03*
Y399213D02*
D03*
X209055Y402756D02*
D03*
X213189Y381496D02*
D03*
X219882D02*
D03*
X613582D02*
D03*
X606889D02*
D03*
X602756Y402756D02*
D03*
X616929Y399213D02*
D03*
Y391732D02*
D03*
X613582Y479921D02*
D03*
X606889D02*
D03*
X602756Y501181D02*
D03*
X616929Y497638D02*
D03*
Y490158D02*
D03*
X515157Y381496D02*
D03*
X508464D02*
D03*
X504331Y402756D02*
D03*
X518504Y399213D02*
D03*
Y391732D02*
D03*
X515157Y479921D02*
D03*
X508464D02*
D03*
X504331Y501181D02*
D03*
X518504Y497638D02*
D03*
Y490158D02*
D03*
X416732Y381496D02*
D03*
X410039D02*
D03*
X405905Y402756D02*
D03*
X420079Y399213D02*
D03*
Y391732D02*
D03*
X318307Y381496D02*
D03*
X311614D02*
D03*
X307480Y402756D02*
D03*
X321654Y399213D02*
D03*
Y391732D02*
D03*
X416732Y479921D02*
D03*
X410039D02*
D03*
X405905Y501181D02*
D03*
X420079Y497638D02*
D03*
Y490158D02*
D03*
X321654D02*
D03*
Y497638D02*
D03*
X307480Y501181D02*
D03*
X311614Y479921D02*
D03*
X318307D02*
D03*
Y676772D02*
D03*
X311614D02*
D03*
X307480Y698032D02*
D03*
X321654Y687008D02*
D03*
X420079D02*
D03*
X405905Y698032D02*
D03*
X410039Y676772D02*
D03*
X416732D02*
D03*
X321654Y588583D02*
D03*
Y596063D02*
D03*
X307480Y599606D02*
D03*
X311614Y578346D02*
D03*
X318307D02*
D03*
X420079Y588583D02*
D03*
Y596063D02*
D03*
X405905Y599606D02*
D03*
X410039Y578346D02*
D03*
X416732D02*
D03*
X518504Y687008D02*
D03*
X504331Y698032D02*
D03*
X508464Y676772D02*
D03*
X515157D02*
D03*
X518504Y588583D02*
D03*
Y596063D02*
D03*
X504331Y599606D02*
D03*
X508464Y578346D02*
D03*
X515157D02*
D03*
X616929Y687008D02*
D03*
X602756Y698032D02*
D03*
X606889Y676772D02*
D03*
X613582D02*
D03*
X616929Y588583D02*
D03*
Y596063D02*
D03*
X602756Y599606D02*
D03*
X606889Y578346D02*
D03*
X613582D02*
D03*
X219882D02*
D03*
X213189D02*
D03*
X209055Y599606D02*
D03*
X223228Y596063D02*
D03*
Y588583D02*
D03*
X219882Y676772D02*
D03*
X213189D02*
D03*
X209055Y698032D02*
D03*
X223228Y687008D02*
D03*
X121456Y578346D02*
D03*
X114763D02*
D03*
X110630Y599606D02*
D03*
X124803Y596063D02*
D03*
Y588583D02*
D03*
X121456Y676772D02*
D03*
X114763D02*
D03*
X110630Y698032D02*
D03*
X124803Y687008D02*
D03*
X23031Y578346D02*
D03*
X16338D02*
D03*
X12205Y599606D02*
D03*
X26378Y596063D02*
D03*
Y588583D02*
D03*
X-75394Y578346D02*
D03*
X-82087D02*
D03*
X-86221Y599606D02*
D03*
X-72047Y596063D02*
D03*
Y588583D02*
D03*
X23031Y676772D02*
D03*
X16338D02*
D03*
X12205Y698032D02*
D03*
X26378Y687008D02*
D03*
X-72047D02*
D03*
X-86221Y698032D02*
D03*
X-82087Y676772D02*
D03*
X-75394D02*
D03*
M02*
