G04*
G04 #@! TF.GenerationSoftware,Altium Limited,Altium Designer,26.3.0 (6)*
G04*
G04 Layer_Color=8388736*
%FSLAX25Y25*%
%MOIN*%
G70*
G04*
G04 #@! TF.SameCoordinates,A806FC3E-2AF5-410F-BC78-0BCB0F8315C3*
G04*
G04*
G04 #@! TF.FilePolarity,Negative*
G04*
G01*
G75*
%ADD11C,0.00591*%
%ADD27C,0.15748*%
%ADD28C,0.02362*%
%ADD29R,0.01575X0.06102*%
%ADD30R,0.07480X0.06102*%
%ADD31R,0.07480X0.05118*%
%ADD32O,0.01181X0.03347*%
%ADD33O,0.03347X0.01181*%
%ADD34R,0.11417X0.11417*%
%ADD35R,0.07087X0.03543*%
%ADD36R,0.04331X0.04724*%
%ADD37R,0.04724X0.04331*%
%ADD38R,0.03150X0.03150*%
%ADD39R,0.02323X0.02165*%
%ADD40C,0.06299*%
%ADD41R,0.06299X0.06299*%
%ADD42C,0.02953*%
%ADD43C,0.24410*%
%ADD44C,0.12205*%
%ADD45C,0.12598*%
%ADD46C,0.01772*%
D11*
X174134Y755905D02*
G03*
X179134Y760906I0J5000D01*
G01*
X184134Y767717D02*
G03*
X179134Y762716I0J-5000D01*
G01*
X352362D02*
G03*
X347362Y767717I-5000J0D01*
G01*
X352362Y760906D02*
G03*
X357362Y755905I5000J0D01*
G01*
X-118110Y755905D02*
G03*
X-145669Y728346I0J-27559D01*
G01*
X677165D02*
G03*
X649606Y755905I-27559J0D01*
G01*
Y-66929D02*
G03*
X677165Y-39370I0J27559D01*
G01*
X-145669D02*
G03*
X-118110Y-66929I27559J0D01*
G01*
X364173Y755905D02*
X649606Y755905D01*
X-118110D02*
X167323D01*
Y755905D02*
X174134D01*
X179134Y760906D02*
Y762716D01*
X184134Y767717D02*
X265748D01*
X347362D01*
X352362Y760906D02*
Y762716D01*
X357362Y755905D02*
X364173D01*
X677165Y-39370D02*
Y728347D01*
X-145669Y728346D02*
X-145669Y-39370D01*
X-118151Y-66929D02*
X649606D01*
D27*
X-54134Y0D02*
G03*
X-54134Y0I-24606J0D01*
G01*
X44291D02*
G03*
X44291Y0I-24606J0D01*
G01*
X142717D02*
G03*
X142717Y0I-24606J0D01*
G01*
X241142D02*
G03*
X241142Y0I-24606J0D01*
G01*
X-54134Y98425D02*
G03*
X-54134Y98425I-24606J0D01*
G01*
X44291D02*
G03*
X44291Y98425I-24606J0D01*
G01*
X142717D02*
G03*
X142717Y98425I-24606J0D01*
G01*
X241142D02*
G03*
X241142Y98425I-24606J0D01*
G01*
X-54134Y196850D02*
G03*
X-54134Y196850I-24606J0D01*
G01*
X44291D02*
G03*
X44291Y196850I-24606J0D01*
G01*
X142717D02*
G03*
X142717Y196850I-24606J0D01*
G01*
X241142D02*
G03*
X241142Y196850I-24606J0D01*
G01*
Y295276D02*
G03*
X241142Y295276I-24606J0D01*
G01*
X142717D02*
G03*
X142717Y295276I-24606J0D01*
G01*
X44291D02*
G03*
X44291Y295276I-24606J0D01*
G01*
X-54134D02*
G03*
X-54134Y295276I-24606J0D01*
G01*
Y393701D02*
G03*
X-54134Y393701I-24606J0D01*
G01*
X44291D02*
G03*
X44291Y393701I-24606J0D01*
G01*
X142717D02*
G03*
X142717Y393701I-24606J0D01*
G01*
X241142D02*
G03*
X241142Y393701I-24606J0D01*
G01*
X-54134Y492126D02*
G03*
X-54134Y492126I-24606J0D01*
G01*
X44291D02*
G03*
X44291Y492126I-24606J0D01*
G01*
X142717D02*
G03*
X142717Y492126I-24606J0D01*
G01*
X241142D02*
G03*
X241142Y492126I-24606J0D01*
G01*
X-54134Y590551D02*
G03*
X-54134Y590551I-24606J0D01*
G01*
X44291D02*
G03*
X44291Y590551I-24606J0D01*
G01*
X142717D02*
G03*
X142717Y590551I-24606J0D01*
G01*
X241142D02*
G03*
X241142Y590551I-24606J0D01*
G01*
Y688976D02*
G03*
X241142Y688976I-24606J0D01*
G01*
X142717D02*
G03*
X142717Y688976I-24606J0D01*
G01*
X44291D02*
G03*
X44291Y688976I-24606J0D01*
G01*
X-54134D02*
G03*
X-54134Y688976I-24606J0D01*
G01*
X339567Y0D02*
G03*
X339567Y0I-24606J0D01*
G01*
X437992D02*
G03*
X437992Y0I-24606J0D01*
G01*
X536417D02*
G03*
X536417Y0I-24606J0D01*
G01*
X634842D02*
G03*
X634842Y0I-24606J0D01*
G01*
X339567Y98425D02*
G03*
X339567Y98425I-24606J0D01*
G01*
X437992D02*
G03*
X437992Y98425I-24606J0D01*
G01*
X536417D02*
G03*
X536417Y98425I-24606J0D01*
G01*
X634842D02*
G03*
X634842Y98425I-24606J0D01*
G01*
X339567Y196850D02*
G03*
X339567Y196850I-24606J0D01*
G01*
X437992D02*
G03*
X437992Y196850I-24606J0D01*
G01*
X536417D02*
G03*
X536417Y196850I-24606J0D01*
G01*
X634842D02*
G03*
X634842Y196850I-24606J0D01*
G01*
Y295276D02*
G03*
X634842Y295276I-24606J0D01*
G01*
X536417D02*
G03*
X536417Y295276I-24606J0D01*
G01*
X437992D02*
G03*
X437992Y295276I-24606J0D01*
G01*
X339567D02*
G03*
X339567Y295276I-24606J0D01*
G01*
Y393701D02*
G03*
X339567Y393701I-24606J0D01*
G01*
X437992D02*
G03*
X437992Y393701I-24606J0D01*
G01*
X536417D02*
G03*
X536417Y393701I-24606J0D01*
G01*
X634842D02*
G03*
X634842Y393701I-24606J0D01*
G01*
X339567Y492126D02*
G03*
X339567Y492126I-24606J0D01*
G01*
X437992D02*
G03*
X437992Y492126I-24606J0D01*
G01*
X536417D02*
G03*
X536417Y492126I-24606J0D01*
G01*
X634842D02*
G03*
X634842Y492126I-24606J0D01*
G01*
X339567Y590551D02*
G03*
X339567Y590551I-24606J0D01*
G01*
X437992D02*
G03*
X437992Y590551I-24606J0D01*
G01*
X536417D02*
G03*
X536417Y590551I-24606J0D01*
G01*
X634842D02*
G03*
X634842Y590551I-24606J0D01*
G01*
Y688976D02*
G03*
X634842Y688976I-24606J0D01*
G01*
X536417D02*
G03*
X536417Y688976I-24606J0D01*
G01*
X437992D02*
G03*
X437992Y688976I-24606J0D01*
G01*
X339567D02*
G03*
X339567Y688976I-24606J0D01*
G01*
D28*
X606299Y720225D02*
G03*
X598425Y718174I3937J-31249D01*
G01*
X622047D02*
G03*
X606299Y720225I-11811J-29198D01*
G01*
X622047Y324473D02*
G03*
X598425Y324473I-11811J-29198D01*
G01*
X630690Y319226D02*
G03*
X622047Y324473I-20454J-23950D01*
G01*
X598425D02*
G03*
X589782Y319226I11811J-29198D01*
G01*
X532265D02*
G03*
X523622Y324473I-20454J-23950D01*
G01*
D02*
G03*
X500000Y324473I-11811J-29198D01*
G01*
D02*
G03*
X491357Y319226I11811J-29198D01*
G01*
D02*
G03*
X487861Y315730I20454J-23950D01*
G01*
X634187D02*
G03*
X630690Y319226I-23950J-20454D01*
G01*
X589782D02*
G03*
X586286Y315730I20454J-23950D01*
G01*
D02*
G03*
X581039Y307087I23950J-20454D01*
G01*
X641485Y299218D02*
G03*
X639434Y307087I-31248J-3942D01*
G01*
D02*
G03*
X634187Y315730I-29198J-11811D01*
G01*
X535761D02*
G03*
X532265Y319226I-23950J-20454D01*
G01*
X487861Y315730D02*
G03*
X482613Y307087I23950J-20454D01*
G01*
X543059Y299218D02*
G03*
X541009Y307087I-31248J-3942D01*
G01*
D02*
G03*
X535761Y315730I-29198J-11811D01*
G01*
X425197Y324473D02*
G03*
X401575Y324473I-11811J-29198D01*
G01*
D02*
G03*
X392932Y319226I11811J-29198D01*
G01*
X433840D02*
G03*
X425197Y324473I-20454J-23950D01*
G01*
X392932Y319226D02*
G03*
X389435Y315730I20454J-23950D01*
G01*
X326772Y324473D02*
G03*
X303150Y324473I-11811J-29198D01*
G01*
X335415Y319226D02*
G03*
X326772Y324473I-20454J-23950D01*
G01*
X303150D02*
G03*
X294506Y319226I11811J-29198D01*
G01*
X338911Y315730D02*
G03*
X335415Y319226I-23950J-20454D01*
G01*
X294506D02*
G03*
X291010Y315730I20454J-23950D01*
G01*
X437336D02*
G03*
X433840Y319226I-23950J-20454D01*
G01*
X444634Y299218D02*
G03*
X442584Y307087I-31248J-3942D01*
G01*
D02*
G03*
X437336Y315730I-29198J-11811D01*
G01*
X344158Y307087D02*
G03*
X338911Y315730I-29198J-11811D01*
G01*
X291010D02*
G03*
X285763Y307087I23950J-20454D01*
G01*
X389435Y315730D02*
G03*
X384188Y307087I23950J-20454D01*
G01*
X346209Y299218D02*
G03*
X344158Y307087I-31248J-3942D01*
G01*
X639434Y283465D02*
G03*
X641485Y291334I-29198J11811D01*
G01*
X634187Y274821D02*
G03*
X639434Y283465I-23950J20454D01*
G01*
X581039D02*
G03*
X586286Y274821I29198J11811D01*
G01*
X541009Y283465D02*
G03*
X543059Y291334I-29198J11811D01*
G01*
X581039Y307087D02*
G03*
X581039Y283465I29198J-11811D01*
G01*
X535761Y274821D02*
G03*
X541009Y283465I-23950J20454D01*
G01*
X482613D02*
G03*
X487861Y274821I29198J11811D01*
G01*
X630690Y271325D02*
G03*
X634187Y274821I-20454J23950D01*
G01*
X589782Y271325D02*
G03*
X598425Y266078I20454J23950D01*
G01*
X586286Y274821D02*
G03*
X589782Y271325I23950J20454D01*
G01*
X622047Y266078D02*
G03*
X630690Y271325I-11811J29198D01*
G01*
X598425Y266078D02*
G03*
X622047Y266078I11811J29198D01*
G01*
X532265Y271325D02*
G03*
X535761Y274821I-20454J23950D01*
G01*
X491357Y271325D02*
G03*
X500000Y266078I20454J23950D01*
G01*
X487861Y274821D02*
G03*
X491357Y271325I23950J20454D01*
G01*
X523622Y266078D02*
G03*
X532265Y271325I-11811J29198D01*
G01*
X500000Y266078D02*
G03*
X523622Y266078I11811J29198D01*
G01*
X442584Y283465D02*
G03*
X444634Y291334I-29198J11811D01*
G01*
X482613Y307087D02*
G03*
X482613Y283465I29198J-11811D01*
G01*
X437336Y274821D02*
G03*
X442584Y283465I-23950J20454D01*
G01*
X384188D02*
G03*
X389435Y274821I29198J11811D01*
G01*
X344158Y283465D02*
G03*
X346209Y291334I-29198J11811D01*
G01*
X384188Y307087D02*
G03*
X384188Y283465I29198J-11811D01*
G01*
X338911Y274821D02*
G03*
X344158Y283465I-23950J20454D01*
G01*
X285763D02*
G03*
X291010Y274821I29198J11811D01*
G01*
X433840Y271325D02*
G03*
X437336Y274821I-20454J23950D01*
G01*
X392932Y271325D02*
G03*
X401575Y266078I20454J23950D01*
G01*
X389435Y274821D02*
G03*
X392932Y271325I23950J20454D01*
G01*
X425197Y266078D02*
G03*
X433840Y271325I-11811J29198D01*
G01*
X401575Y266078D02*
G03*
X425197Y266078I11811J29198D01*
G01*
X335415Y271325D02*
G03*
X338911Y274821I-20454J23950D01*
G01*
X294506Y271325D02*
G03*
X303150Y266078I20454J23950D01*
G01*
X291010Y274821D02*
G03*
X294506Y271325I23950J20454D01*
G01*
X326772Y266078D02*
G03*
X335415Y271325I-11811J29198D01*
G01*
X303150Y266078D02*
G03*
X326772Y266078I11811J29198D01*
G01*
X228346Y324473D02*
G03*
X204724Y324473I-11811J-29198D01*
G01*
X236990Y319226D02*
G03*
X228346Y324473I-20454J-23950D01*
G01*
X204724D02*
G03*
X196081Y319226I11811J-29198D01*
G01*
X240486Y315730D02*
G03*
X236990Y319226I-23950J-20454D01*
G01*
X196081D02*
G03*
X192585Y315730I20454J-23950D01*
G01*
X129921Y324473D02*
G03*
X106299Y324473I-11811J-29198D01*
G01*
X138565Y319226D02*
G03*
X129921Y324473I-20454J-23950D01*
G01*
X106299D02*
G03*
X97656Y319226I11811J-29198D01*
G01*
X142061Y315730D02*
G03*
X138565Y319226I-23950J-20454D01*
G01*
X97656D02*
G03*
X94160Y315730I20454J-23950D01*
G01*
X245733Y307087D02*
G03*
X240486Y315730I-29198J-11811D01*
G01*
X192585D02*
G03*
X187338Y307087I23950J-20454D01*
G01*
X247784Y299218D02*
G03*
X245733Y307087I-31248J-3942D01*
G01*
X147308D02*
G03*
X142061Y315730I-29198J-11811D01*
G01*
X94160D02*
G03*
X88913Y307087I23950J-20454D01*
G01*
X149359Y299218D02*
G03*
X147308Y307087I-31248J-3942D01*
G01*
X31496Y324473D02*
G03*
X7874Y324473I-11811J-29198D01*
G01*
X40139Y319226D02*
G03*
X31496Y324473I-20454J-23950D01*
G01*
X7874D02*
G03*
X-769Y319226I11811J-29198D01*
G01*
X43635Y315730D02*
G03*
X40139Y319226I-23950J-20454D01*
G01*
X-769D02*
G03*
X-4265Y315730I20454J-23950D01*
G01*
X-66929Y324473D02*
G03*
X-90551Y324473I-11811J-29198D01*
G01*
X-58286Y319226D02*
G03*
X-66929Y324473I-20454J-23950D01*
G01*
X-90551D02*
G03*
X-99195Y319226I11811J-29198D01*
G01*
X-54790Y315730D02*
G03*
X-58286Y319226I-23950J-20454D01*
G01*
X-99195D02*
G03*
X-102691Y315730I20454J-23950D01*
G01*
X48883Y307087D02*
G03*
X43635Y315730I-29198J-11811D01*
G01*
X-4265D02*
G03*
X-9513Y307087I23950J-20454D01*
G01*
X50933Y299218D02*
G03*
X48883Y307087I-31248J-3942D01*
G01*
X-49542D02*
G03*
X-54790Y315730I-29198J-11811D01*
G01*
X-102691D02*
G03*
X-107938Y307087I23950J-20454D01*
G01*
X-47492Y299218D02*
G03*
X-49542Y307087I-31248J-3942D01*
G01*
X245733Y283465D02*
G03*
X247784Y291334I-29198J11811D01*
G01*
X285763Y307087D02*
G03*
X285763Y283465I29198J-11811D01*
G01*
X240486Y274821D02*
G03*
X245733Y283465I-23950J20454D01*
G01*
X187338D02*
G03*
X192585Y274821I29198J11811D01*
G01*
X147308Y283465D02*
G03*
X149359Y291334I-29198J11811D01*
G01*
X187338Y307087D02*
G03*
X187338Y283465I29198J-11811D01*
G01*
X142061Y274821D02*
G03*
X147308Y283465I-23950J20454D01*
G01*
X88913D02*
G03*
X94160Y274821I29198J11811D01*
G01*
X236990Y271325D02*
G03*
X240486Y274821I-20454J23950D01*
G01*
X196081Y271325D02*
G03*
X204724Y266078I20454J23950D01*
G01*
X192585Y274821D02*
G03*
X196081Y271325I23950J20454D01*
G01*
X228346Y266078D02*
G03*
X236990Y271325I-11811J29198D01*
G01*
X204724Y266078D02*
G03*
X228346Y266078I11811J29198D01*
G01*
X138565Y271325D02*
G03*
X142061Y274821I-20454J23950D01*
G01*
X97656Y271325D02*
G03*
X106299Y266078I20454J23950D01*
G01*
X94160Y274821D02*
G03*
X97656Y271325I23950J20454D01*
G01*
X129921Y266078D02*
G03*
X138565Y271325I-11811J29198D01*
G01*
X106299Y266078D02*
G03*
X129921Y266078I11811J29198D01*
G01*
X48883Y283465D02*
G03*
X50933Y291334I-29198J11811D01*
G01*
X88913Y307087D02*
G03*
X88913Y283465I29198J-11811D01*
G01*
X43635Y274821D02*
G03*
X48883Y283465I-23950J20454D01*
G01*
X-9513D02*
G03*
X-4265Y274821I29198J11811D01*
G01*
X-49542Y283465D02*
G03*
X-47492Y291334I-29198J11811D01*
G01*
X-107938Y307087D02*
G03*
X-107938Y283465I29198J-11811D01*
G01*
X-9513Y307087D02*
G03*
X-9513Y283465I29198J-11811D01*
G01*
X-54790Y274821D02*
G03*
X-49542Y283465I-23950J20454D01*
G01*
X-107938D02*
G03*
X-102691Y274821I29198J11811D01*
G01*
X40139Y271325D02*
G03*
X43635Y274821I-20454J23950D01*
G01*
X-769Y271325D02*
G03*
X7874Y266078I20454J23950D01*
G01*
X-4265Y274821D02*
G03*
X-769Y271325I23950J20454D01*
G01*
X31496Y266078D02*
G03*
X40139Y271325I-11811J29198D01*
G01*
X7874Y266078D02*
G03*
X31496Y266078I11811J29198D01*
G01*
X-58286Y271325D02*
G03*
X-54790Y274821I-20454J23950D01*
G01*
X-99195Y271325D02*
G03*
X-90551Y266078I20454J23950D01*
G01*
X-102691Y274821D02*
G03*
X-99195Y271325I23950J20454D01*
G01*
X-66929Y266078D02*
G03*
X-58286Y271325I-11811J29198D01*
G01*
X-90551Y266078D02*
G03*
X-66929Y266078I11811J29198D01*
G01*
X622047Y226048D02*
G03*
X598425Y226048I-11811J-29198D01*
G01*
X630690Y220801D02*
G03*
X622047Y226048I-20454J-23950D01*
G01*
X598425D02*
G03*
X589782Y220801I11811J-29198D01*
G01*
X532265D02*
G03*
X523622Y226048I-20454J-23950D01*
G01*
D02*
G03*
X500000Y226048I-11811J-29198D01*
G01*
D02*
G03*
X491357Y220801I11811J-29198D01*
G01*
X535761Y217305D02*
G03*
X532265Y220801I-23950J-20454D01*
G01*
X589782D02*
G03*
X586286Y217305I20454J-23950D01*
G01*
X634187D02*
G03*
X630690Y220801I-23950J-20454D01*
G01*
X586286Y217305D02*
G03*
X581039Y208661I23950J-20454D01*
G01*
X641485Y200793D02*
G03*
X639434Y208661I-31248J-3942D01*
G01*
D02*
G03*
X634187Y217305I-29198J-11811D01*
G01*
X491357Y220801D02*
G03*
X487861Y217305I20454J-23950D01*
G01*
D02*
G03*
X482613Y208661I23950J-20454D01*
G01*
X543059Y200793D02*
G03*
X541009Y208661I-31248J-3942D01*
G01*
D02*
G03*
X535761Y217305I-29198J-11811D01*
G01*
X425197Y226048D02*
G03*
X401575Y226048I-11811J-29198D01*
G01*
D02*
G03*
X392932Y220801I11811J-29198D01*
G01*
X433840D02*
G03*
X425197Y226048I-20454J-23950D01*
G01*
X335415Y220801D02*
G03*
X326772Y226048I-20454J-23950D01*
G01*
D02*
G03*
X303150Y226048I-11811J-29198D01*
G01*
D02*
G03*
X294506Y220801I11811J-29198D01*
G01*
X338911Y217305D02*
G03*
X335415Y220801I-23950J-20454D01*
G01*
X437336Y217305D02*
G03*
X433840Y220801I-23950J-20454D01*
G01*
X392932D02*
G03*
X389435Y217305I20454J-23950D01*
G01*
X444634Y200793D02*
G03*
X442584Y208661I-31248J-3942D01*
G01*
D02*
G03*
X437336Y217305I-29198J-11811D01*
G01*
X294506Y220801D02*
G03*
X291010Y217305I20454J-23950D01*
G01*
D02*
G03*
X285763Y208661I23950J-20454D01*
G01*
X389435Y217305D02*
G03*
X384188Y208661I23950J-20454D01*
G01*
X344158D02*
G03*
X338911Y217305I-29198J-11811D01*
G01*
X346209Y200793D02*
G03*
X344158Y208661I-31248J-3942D01*
G01*
X581039D02*
G03*
X581039Y185039I29198J-11811D01*
G01*
X639434D02*
G03*
X641485Y192908I-29198J11811D01*
G01*
X634187Y176396D02*
G03*
X639434Y185039I-23950J20454D01*
G01*
X581039D02*
G03*
X586286Y176396I29198J11811D01*
G01*
X541009Y185039D02*
G03*
X543059Y192908I-29198J11811D01*
G01*
X535761Y176396D02*
G03*
X541009Y185039I-23950J20454D01*
G01*
X482613D02*
G03*
X487861Y176396I29198J11811D01*
G01*
X630690Y172900D02*
G03*
X634187Y176396I-20454J23950D01*
G01*
X589782Y172900D02*
G03*
X598425Y167653I20454J23950D01*
G01*
X586286Y176396D02*
G03*
X589782Y172900I23950J20454D01*
G01*
X622047Y167653D02*
G03*
X630690Y172900I-11811J29198D01*
G01*
X598425Y167653D02*
G03*
X622047Y167653I11811J29198D01*
G01*
X532265Y172900D02*
G03*
X535761Y176396I-20454J23950D01*
G01*
X491357Y172900D02*
G03*
X500000Y167653I20454J23950D01*
G01*
X487861Y176396D02*
G03*
X491357Y172900I23950J20454D01*
G01*
X523622Y167653D02*
G03*
X532265Y172900I-11811J29198D01*
G01*
X500000Y167653D02*
G03*
X523622Y167653I11811J29198D01*
G01*
X442584Y185039D02*
G03*
X444634Y192908I-29198J11811D01*
G01*
X482613Y208661D02*
G03*
X482613Y185039I29198J-11811D01*
G01*
X437336Y176396D02*
G03*
X442584Y185039I-23950J20454D01*
G01*
X384188D02*
G03*
X389435Y176396I29198J11811D01*
G01*
X344158Y185039D02*
G03*
X346209Y192908I-29198J11811D01*
G01*
X384188Y208661D02*
G03*
X384188Y185039I29198J-11811D01*
G01*
X338911Y176396D02*
G03*
X344158Y185039I-23950J20454D01*
G01*
X285763D02*
G03*
X291010Y176396I29198J11811D01*
G01*
X433840Y172900D02*
G03*
X437336Y176396I-20454J23950D01*
G01*
X392932Y172900D02*
G03*
X401575Y167653I20454J23950D01*
G01*
X389435Y176396D02*
G03*
X392932Y172900I23950J20454D01*
G01*
X425197Y167653D02*
G03*
X433840Y172900I-11811J29198D01*
G01*
X401575Y167653D02*
G03*
X425197Y167653I11811J29198D01*
G01*
X335415Y172900D02*
G03*
X338911Y176396I-20454J23950D01*
G01*
X294506Y172900D02*
G03*
X303150Y167653I20454J23950D01*
G01*
X291010Y176396D02*
G03*
X294506Y172900I23950J20454D01*
G01*
X326772Y167653D02*
G03*
X335415Y172900I-11811J29198D01*
G01*
X303150Y167653D02*
G03*
X326772Y167653I11811J29198D01*
G01*
X228346Y226048D02*
G03*
X204724Y226048I-11811J-29198D01*
G01*
X236990Y220801D02*
G03*
X228346Y226048I-20454J-23950D01*
G01*
X204724D02*
G03*
X196081Y220801I11811J-29198D01*
G01*
X240486Y217305D02*
G03*
X236990Y220801I-23950J-20454D01*
G01*
X196081D02*
G03*
X192585Y217305I20454J-23950D01*
G01*
X129921Y226048D02*
G03*
X106299Y226048I-11811J-29198D01*
G01*
X138565Y220801D02*
G03*
X129921Y226048I-20454J-23950D01*
G01*
X106299D02*
G03*
X97656Y220801I11811J-29198D01*
G01*
X142061Y217305D02*
G03*
X138565Y220801I-23950J-20454D01*
G01*
X97656D02*
G03*
X94160Y217305I20454J-23950D01*
G01*
X245733Y208661D02*
G03*
X240486Y217305I-29198J-11811D01*
G01*
X192585D02*
G03*
X187338Y208661I23950J-20454D01*
G01*
X247784Y200793D02*
G03*
X245733Y208661I-31248J-3942D01*
G01*
X147308D02*
G03*
X142061Y217305I-29198J-11811D01*
G01*
X94160D02*
G03*
X88913Y208661I23950J-20454D01*
G01*
X149359Y200793D02*
G03*
X147308Y208661I-31248J-3942D01*
G01*
X31496Y226048D02*
G03*
X7874Y226048I-11811J-29198D01*
G01*
X40139Y220801D02*
G03*
X31496Y226048I-20454J-23950D01*
G01*
X7874D02*
G03*
X-769Y220801I11811J-29198D01*
G01*
X43635Y217305D02*
G03*
X40139Y220801I-23950J-20454D01*
G01*
X-769D02*
G03*
X-4265Y217305I20454J-23950D01*
G01*
X-66929Y226048D02*
G03*
X-90551Y226048I-11811J-29198D01*
G01*
X-58286Y220801D02*
G03*
X-66929Y226048I-20454J-23950D01*
G01*
X-90551D02*
G03*
X-99195Y220801I11811J-29198D01*
G01*
X-54790Y217305D02*
G03*
X-58286Y220801I-23950J-20454D01*
G01*
X-99195D02*
G03*
X-102691Y217305I20454J-23950D01*
G01*
X48883Y208661D02*
G03*
X43635Y217305I-29198J-11811D01*
G01*
X-4265D02*
G03*
X-9513Y208661I23950J-20454D01*
G01*
X50933Y200793D02*
G03*
X48883Y208661I-31248J-3942D01*
G01*
X-49542D02*
G03*
X-54790Y217305I-29198J-11811D01*
G01*
X-102691D02*
G03*
X-107938Y208661I23950J-20454D01*
G01*
X-47492Y200793D02*
G03*
X-49542Y208661I-31248J-3942D01*
G01*
X245733Y185039D02*
G03*
X247784Y192908I-29198J11811D01*
G01*
X285763Y208661D02*
G03*
X285763Y185039I29198J-11811D01*
G01*
X240486Y176396D02*
G03*
X245733Y185039I-23950J20454D01*
G01*
X187338D02*
G03*
X192585Y176396I29198J11811D01*
G01*
X147308Y185039D02*
G03*
X149359Y192908I-29198J11811D01*
G01*
X187338Y208661D02*
G03*
X187338Y185039I29198J-11811D01*
G01*
X142061Y176396D02*
G03*
X147308Y185039I-23950J20454D01*
G01*
X88913D02*
G03*
X94160Y176396I29198J11811D01*
G01*
X236990Y172900D02*
G03*
X240486Y176396I-20454J23950D01*
G01*
X196081Y172900D02*
G03*
X204724Y167653I20454J23950D01*
G01*
X192585Y176396D02*
G03*
X196081Y172900I23950J20454D01*
G01*
X228346Y167653D02*
G03*
X236990Y172900I-11811J29198D01*
G01*
X204724Y167653D02*
G03*
X228346Y167653I11811J29198D01*
G01*
X138565Y172900D02*
G03*
X142061Y176396I-20454J23950D01*
G01*
X97656Y172900D02*
G03*
X106299Y167653I20454J23950D01*
G01*
X94160Y176396D02*
G03*
X97656Y172900I23950J20454D01*
G01*
X129921Y167653D02*
G03*
X138565Y172900I-11811J29198D01*
G01*
X106299Y167653D02*
G03*
X129921Y167653I11811J29198D01*
G01*
X48883Y185039D02*
G03*
X50933Y192908I-29198J11811D01*
G01*
X88913Y208661D02*
G03*
X88913Y185039I29198J-11811D01*
G01*
X43635Y176396D02*
G03*
X48883Y185039I-23950J20454D01*
G01*
X-9513D02*
G03*
X-4265Y176396I29198J11811D01*
G01*
X-49542Y185039D02*
G03*
X-47492Y192908I-29198J11811D01*
G01*
X-107938Y208661D02*
G03*
X-107938Y185039I29198J-11811D01*
G01*
X-9513Y208661D02*
G03*
X-9513Y185039I29198J-11811D01*
G01*
X-54790Y176396D02*
G03*
X-49542Y185039I-23950J20454D01*
G01*
X-107938D02*
G03*
X-102691Y176396I29198J11811D01*
G01*
X40139Y172900D02*
G03*
X43635Y176396I-20454J23950D01*
G01*
X-769Y172900D02*
G03*
X7874Y167653I20454J23950D01*
G01*
X-4265Y176396D02*
G03*
X-769Y172900I23950J20454D01*
G01*
X31496Y167653D02*
G03*
X40139Y172900I-11811J29198D01*
G01*
X7874Y167653D02*
G03*
X31496Y167653I11811J29198D01*
G01*
X-58286Y172900D02*
G03*
X-54790Y176396I-20454J23950D01*
G01*
X-99195Y172900D02*
G03*
X-90551Y167653I20454J23950D01*
G01*
X-102691Y176396D02*
G03*
X-99195Y172900I23950J20454D01*
G01*
X-66929Y167653D02*
G03*
X-58286Y172900I-11811J29198D01*
G01*
X-90551Y167653D02*
G03*
X-66929Y167653I11811J29198D01*
G01*
X622047Y127623D02*
G03*
X598425Y127623I-11811J-29198D01*
G01*
X630690Y122376D02*
G03*
X622047Y127623I-20454J-23950D01*
G01*
X598425D02*
G03*
X589782Y122376I11811J-29198D01*
G01*
X532265D02*
G03*
X523622Y127623I-20454J-23950D01*
G01*
D02*
G03*
X500000Y127623I-11811J-29198D01*
G01*
D02*
G03*
X491357Y122376I11811J-29198D01*
G01*
X535761Y118879D02*
G03*
X532265Y122376I-23950J-20454D01*
G01*
X589782D02*
G03*
X586286Y118879I20454J-23950D01*
G01*
X634187D02*
G03*
X630690Y122376I-23950J-20454D01*
G01*
X586286Y118879D02*
G03*
X581039Y110236I23950J-20454D01*
G01*
X641485Y102367D02*
G03*
X639434Y110236I-31248J-3942D01*
G01*
D02*
G03*
X634187Y118879I-29198J-11811D01*
G01*
X491357Y122376D02*
G03*
X487861Y118879I20454J-23950D01*
G01*
D02*
G03*
X482613Y110236I23950J-20454D01*
G01*
X543059Y102367D02*
G03*
X541009Y110236I-31248J-3942D01*
G01*
D02*
G03*
X535761Y118879I-29198J-11811D01*
G01*
X425197Y127623D02*
G03*
X401575Y127623I-11811J-29198D01*
G01*
D02*
G03*
X392932Y122376I11811J-29198D01*
G01*
X433840D02*
G03*
X425197Y127623I-20454J-23950D01*
G01*
X335415Y122376D02*
G03*
X326772Y127623I-20454J-23950D01*
G01*
D02*
G03*
X303150Y127623I-11811J-29198D01*
G01*
D02*
G03*
X294506Y122376I11811J-29198D01*
G01*
X338911Y118879D02*
G03*
X335415Y122376I-23950J-20454D01*
G01*
X437336Y118879D02*
G03*
X433840Y122376I-23950J-20454D01*
G01*
X392932D02*
G03*
X389435Y118879I20454J-23950D01*
G01*
X444634Y102367D02*
G03*
X442584Y110236I-31248J-3942D01*
G01*
D02*
G03*
X437336Y118879I-29198J-11811D01*
G01*
X294506Y122376D02*
G03*
X291010Y118879I20454J-23950D01*
G01*
D02*
G03*
X285763Y110236I23950J-20454D01*
G01*
X389435Y118879D02*
G03*
X384188Y110236I23950J-20454D01*
G01*
X344158D02*
G03*
X338911Y118879I-29198J-11811D01*
G01*
X346209Y102367D02*
G03*
X344158Y110236I-31248J-3942D01*
G01*
X581039D02*
G03*
X581039Y86614I29198J-11811D01*
G01*
X639434D02*
G03*
X641485Y94483I-29198J11811D01*
G01*
X634187Y77971D02*
G03*
X639434Y86614I-23950J20454D01*
G01*
X581039D02*
G03*
X586286Y77971I29198J11811D01*
G01*
X541009Y86614D02*
G03*
X543059Y94483I-29198J11811D01*
G01*
X535761Y77971D02*
G03*
X541009Y86614I-23950J20454D01*
G01*
X482613D02*
G03*
X487861Y77971I29198J11811D01*
G01*
X630690Y74475D02*
G03*
X634187Y77971I-20454J23950D01*
G01*
X589782Y74475D02*
G03*
X598425Y69228I20454J23950D01*
G01*
X586286Y77971D02*
G03*
X589782Y74475I23950J20454D01*
G01*
X622047Y69228D02*
G03*
X630690Y74475I-11811J29198D01*
G01*
X598425Y69228D02*
G03*
X622047Y69228I11811J29198D01*
G01*
X532265Y74475D02*
G03*
X535761Y77971I-20454J23950D01*
G01*
X491357Y74475D02*
G03*
X500000Y69228I20454J23950D01*
G01*
X487861Y77971D02*
G03*
X491357Y74475I23950J20454D01*
G01*
X523622Y69228D02*
G03*
X532265Y74475I-11811J29198D01*
G01*
X500000Y69228D02*
G03*
X523622Y69228I11811J29198D01*
G01*
X442584Y86614D02*
G03*
X444634Y94483I-29198J11811D01*
G01*
X482613Y110236D02*
G03*
X482613Y86614I29198J-11811D01*
G01*
X437336Y77971D02*
G03*
X442584Y86614I-23950J20454D01*
G01*
X384188D02*
G03*
X389435Y77971I29198J11811D01*
G01*
X344158Y86614D02*
G03*
X346209Y94483I-29198J11811D01*
G01*
X384188Y110236D02*
G03*
X384188Y86614I29198J-11811D01*
G01*
X338911Y77971D02*
G03*
X344158Y86614I-23950J20454D01*
G01*
X285763D02*
G03*
X291010Y77971I29198J11811D01*
G01*
X433840Y74475D02*
G03*
X437336Y77971I-20454J23950D01*
G01*
X392932Y74475D02*
G03*
X401575Y69228I20454J23950D01*
G01*
X389435Y77971D02*
G03*
X392932Y74475I23950J20454D01*
G01*
X425197Y69228D02*
G03*
X433840Y74475I-11811J29198D01*
G01*
X401575Y69228D02*
G03*
X425197Y69228I11811J29198D01*
G01*
X335415Y74475D02*
G03*
X338911Y77971I-20454J23950D01*
G01*
X294506Y74475D02*
G03*
X303150Y69228I20454J23950D01*
G01*
X291010Y77971D02*
G03*
X294506Y74475I23950J20454D01*
G01*
X326772Y69228D02*
G03*
X335415Y74475I-11811J29198D01*
G01*
X303150Y69228D02*
G03*
X326772Y69228I11811J29198D01*
G01*
X228346Y127623D02*
G03*
X204724Y127623I-11811J-29198D01*
G01*
X236990Y122376D02*
G03*
X228346Y127623I-20454J-23950D01*
G01*
X204724D02*
G03*
X196081Y122376I11811J-29198D01*
G01*
X240486Y118879D02*
G03*
X236990Y122376I-23950J-20454D01*
G01*
X196081D02*
G03*
X192585Y118879I20454J-23950D01*
G01*
X129921Y127623D02*
G03*
X106299Y127623I-11811J-29198D01*
G01*
X138565Y122376D02*
G03*
X129921Y127623I-20454J-23950D01*
G01*
X106299D02*
G03*
X97656Y122376I11811J-29198D01*
G01*
X142061Y118879D02*
G03*
X138565Y122376I-23950J-20454D01*
G01*
X97656D02*
G03*
X94160Y118879I20454J-23950D01*
G01*
X245733Y110236D02*
G03*
X240486Y118879I-29198J-11811D01*
G01*
X192585D02*
G03*
X187338Y110236I23950J-20454D01*
G01*
X247784Y102367D02*
G03*
X245733Y110236I-31248J-3942D01*
G01*
X147308D02*
G03*
X142061Y118879I-29198J-11811D01*
G01*
X94160D02*
G03*
X88913Y110236I23950J-20454D01*
G01*
X149359Y102367D02*
G03*
X147308Y110236I-31248J-3942D01*
G01*
X31496Y127623D02*
G03*
X7874Y127623I-11811J-29198D01*
G01*
X40139Y122376D02*
G03*
X31496Y127623I-20454J-23950D01*
G01*
X7874D02*
G03*
X-769Y122376I11811J-29198D01*
G01*
X43635Y118879D02*
G03*
X40139Y122376I-23950J-20454D01*
G01*
X-769D02*
G03*
X-4265Y118879I20454J-23950D01*
G01*
X-66929Y127623D02*
G03*
X-90551Y127623I-11811J-29198D01*
G01*
X-58286Y122376D02*
G03*
X-66929Y127623I-20454J-23950D01*
G01*
X-90551D02*
G03*
X-99195Y122376I11811J-29198D01*
G01*
X-54790Y118879D02*
G03*
X-58286Y122376I-23950J-20454D01*
G01*
X-99195D02*
G03*
X-102691Y118879I20454J-23950D01*
G01*
X48883Y110236D02*
G03*
X43635Y118879I-29198J-11811D01*
G01*
X-4265D02*
G03*
X-9513Y110236I23950J-20454D01*
G01*
X50933Y102367D02*
G03*
X48883Y110236I-31248J-3942D01*
G01*
X-49542D02*
G03*
X-54790Y118879I-29198J-11811D01*
G01*
X-102691D02*
G03*
X-107938Y110236I23950J-20454D01*
G01*
X-47492Y102367D02*
G03*
X-49542Y110236I-31248J-3942D01*
G01*
X245733Y86614D02*
G03*
X247784Y94483I-29198J11811D01*
G01*
X285763Y110236D02*
G03*
X285763Y86614I29198J-11811D01*
G01*
X240486Y77971D02*
G03*
X245733Y86614I-23950J20454D01*
G01*
X187338D02*
G03*
X192585Y77971I29198J11811D01*
G01*
X147308Y86614D02*
G03*
X149359Y94483I-29198J11811D01*
G01*
X187338Y110236D02*
G03*
X187338Y86614I29198J-11811D01*
G01*
X142061Y77971D02*
G03*
X147308Y86614I-23950J20454D01*
G01*
X88913D02*
G03*
X94160Y77971I29198J11811D01*
G01*
X236990Y74475D02*
G03*
X240486Y77971I-20454J23950D01*
G01*
X196081Y74475D02*
G03*
X204724Y69228I20454J23950D01*
G01*
X192585Y77971D02*
G03*
X196081Y74475I23950J20454D01*
G01*
X228346Y69228D02*
G03*
X236990Y74475I-11811J29198D01*
G01*
X204724Y69228D02*
G03*
X228346Y69228I11811J29198D01*
G01*
X138565Y74475D02*
G03*
X142061Y77971I-20454J23950D01*
G01*
X97656Y74475D02*
G03*
X106299Y69228I20454J23950D01*
G01*
X94160Y77971D02*
G03*
X97656Y74475I23950J20454D01*
G01*
X129921Y69228D02*
G03*
X138565Y74475I-11811J29198D01*
G01*
X106299Y69228D02*
G03*
X129921Y69228I11811J29198D01*
G01*
X48883Y86614D02*
G03*
X50933Y94483I-29198J11811D01*
G01*
X88913Y110236D02*
G03*
X88913Y86614I29198J-11811D01*
G01*
X43635Y77971D02*
G03*
X48883Y86614I-23950J20454D01*
G01*
X-9513D02*
G03*
X-4265Y77971I29198J11811D01*
G01*
X-49542Y86614D02*
G03*
X-47492Y94483I-29198J11811D01*
G01*
X-107938Y110236D02*
G03*
X-107938Y86614I29198J-11811D01*
G01*
X-9513Y110236D02*
G03*
X-9513Y86614I29198J-11811D01*
G01*
X-54790Y77971D02*
G03*
X-49542Y86614I-23950J20454D01*
G01*
X-107938D02*
G03*
X-102691Y77971I29198J11811D01*
G01*
X40139Y74475D02*
G03*
X43635Y77971I-20454J23950D01*
G01*
X-769Y74475D02*
G03*
X7874Y69228I20454J23950D01*
G01*
X-4265Y77971D02*
G03*
X-769Y74475I23950J20454D01*
G01*
X31496Y69228D02*
G03*
X40139Y74475I-11811J29198D01*
G01*
X7874Y69228D02*
G03*
X31496Y69228I11811J29198D01*
G01*
X-58286Y74475D02*
G03*
X-54790Y77971I-20454J23950D01*
G01*
X-99195Y74475D02*
G03*
X-90551Y69228I20454J23950D01*
G01*
X-102691Y77971D02*
G03*
X-99195Y74475I23950J20454D01*
G01*
X-66929Y69228D02*
G03*
X-58286Y74475I-11811J29198D01*
G01*
X-90551Y69228D02*
G03*
X-66929Y69228I11811J29198D01*
G01*
X622047Y29198D02*
G03*
X598425Y29198I-11811J-29198D01*
G01*
X630690Y23950D02*
G03*
X622047Y29198I-20454J-23950D01*
G01*
X598425D02*
G03*
X589782Y23950I11811J-29198D01*
G01*
X532265D02*
G03*
X523622Y29198I-20454J-23950D01*
G01*
D02*
G03*
X500000Y29198I-11811J-29198D01*
G01*
D02*
G03*
X491357Y23950I11811J-29198D01*
G01*
X535761Y20454D02*
G03*
X532265Y23950I-23950J-20454D01*
G01*
X589782D02*
G03*
X586286Y20454I20454J-23950D01*
G01*
X634187D02*
G03*
X630690Y23950I-23950J-20454D01*
G01*
X586286Y20454D02*
G03*
X581039Y11811I23950J-20454D01*
G01*
X641485Y3942D02*
G03*
X639434Y11811I-31248J-3942D01*
G01*
D02*
G03*
X634187Y20454I-29198J-11811D01*
G01*
X491357Y23950D02*
G03*
X487861Y20454I20454J-23950D01*
G01*
D02*
G03*
X482613Y11811I23950J-20454D01*
G01*
X543059Y3942D02*
G03*
X541009Y11811I-31248J-3942D01*
G01*
D02*
G03*
X535761Y20454I-29198J-11811D01*
G01*
X425197Y29198D02*
G03*
X401575Y29198I-11811J-29198D01*
G01*
D02*
G03*
X392932Y23950I11811J-29198D01*
G01*
X433840D02*
G03*
X425197Y29198I-20454J-23950D01*
G01*
X335415Y23950D02*
G03*
X326772Y29198I-20454J-23950D01*
G01*
D02*
G03*
X303150Y29198I-11811J-29198D01*
G01*
D02*
G03*
X294506Y23950I11811J-29198D01*
G01*
X338911Y20454D02*
G03*
X335415Y23950I-23950J-20454D01*
G01*
X437336Y20454D02*
G03*
X433840Y23950I-23950J-20454D01*
G01*
X392932D02*
G03*
X389435Y20454I20454J-23950D01*
G01*
X444634Y3942D02*
G03*
X442584Y11811I-31248J-3942D01*
G01*
D02*
G03*
X437336Y20454I-29198J-11811D01*
G01*
X294506Y23950D02*
G03*
X291010Y20454I20454J-23950D01*
G01*
D02*
G03*
X285763Y11811I23950J-20454D01*
G01*
X389435Y20454D02*
G03*
X384188Y11811I23950J-20454D01*
G01*
X344158D02*
G03*
X338911Y20454I-29198J-11811D01*
G01*
X346209Y3942D02*
G03*
X344158Y11811I-31248J-3942D01*
G01*
X581039D02*
G03*
X581039Y-11811I29198J-11811D01*
G01*
X639434D02*
G03*
X641485Y-3942I-29198J11811D01*
G01*
X634187Y-20454D02*
G03*
X639434Y-11811I-23950J20454D01*
G01*
X581039D02*
G03*
X586286Y-20454I29198J11811D01*
G01*
X541009Y-11811D02*
G03*
X543059Y-3942I-29198J11811D01*
G01*
X535761Y-20454D02*
G03*
X541009Y-11811I-23950J20454D01*
G01*
X482613D02*
G03*
X487861Y-20454I29198J11811D01*
G01*
X630690Y-23950D02*
G03*
X634187Y-20454I-20454J23950D01*
G01*
X589782Y-23950D02*
G03*
X598425Y-29198I20454J23950D01*
G01*
X586286Y-20454D02*
G03*
X589782Y-23950I23950J20454D01*
G01*
X622047Y-29198D02*
G03*
X630690Y-23950I-11811J29198D01*
G01*
X598425Y-29198D02*
G03*
X622047Y-29198I11811J29198D01*
G01*
X532265Y-23950D02*
G03*
X535761Y-20454I-20454J23950D01*
G01*
X491357Y-23950D02*
G03*
X500000Y-29198I20454J23950D01*
G01*
X487861Y-20454D02*
G03*
X491357Y-23950I23950J20454D01*
G01*
X523622Y-29198D02*
G03*
X532265Y-23950I-11811J29198D01*
G01*
X500000Y-29198D02*
G03*
X523622Y-29198I11811J29198D01*
G01*
X442584Y-11811D02*
G03*
X444634Y-3942I-29198J11811D01*
G01*
X482613Y11811D02*
G03*
X482613Y-11811I29198J-11811D01*
G01*
X437336Y-20454D02*
G03*
X442584Y-11811I-23950J20454D01*
G01*
X384188D02*
G03*
X389435Y-20454I29198J11811D01*
G01*
X344158Y-11811D02*
G03*
X346209Y-3942I-29198J11811D01*
G01*
X384188Y11811D02*
G03*
X384188Y-11811I29198J-11811D01*
G01*
X338911Y-20454D02*
G03*
X344158Y-11811I-23950J20454D01*
G01*
X285763D02*
G03*
X291010Y-20454I29198J11811D01*
G01*
X433840Y-23950D02*
G03*
X437336Y-20454I-20454J23950D01*
G01*
X392932Y-23950D02*
G03*
X401575Y-29198I20454J23950D01*
G01*
X389435Y-20454D02*
G03*
X392932Y-23950I23950J20454D01*
G01*
X425197Y-29198D02*
G03*
X433840Y-23950I-11811J29198D01*
G01*
X401575Y-29198D02*
G03*
X425197Y-29198I11811J29198D01*
G01*
X335415Y-23950D02*
G03*
X338911Y-20454I-20454J23950D01*
G01*
X294506Y-23950D02*
G03*
X303150Y-29198I20454J23950D01*
G01*
X291010Y-20454D02*
G03*
X294506Y-23950I23950J20454D01*
G01*
X326772Y-29198D02*
G03*
X335415Y-23950I-11811J29198D01*
G01*
X303150Y-29198D02*
G03*
X326772Y-29198I11811J29198D01*
G01*
X228346Y29198D02*
G03*
X204724Y29198I-11811J-29198D01*
G01*
X236990Y23950D02*
G03*
X228346Y29198I-20454J-23950D01*
G01*
X204724D02*
G03*
X196081Y23950I11811J-29198D01*
G01*
X240486Y20454D02*
G03*
X236990Y23950I-23950J-20454D01*
G01*
X196081D02*
G03*
X192585Y20454I20454J-23950D01*
G01*
X129921Y29198D02*
G03*
X106299Y29198I-11811J-29198D01*
G01*
X138565Y23950D02*
G03*
X129921Y29198I-20454J-23950D01*
G01*
X106299D02*
G03*
X97656Y23950I11811J-29198D01*
G01*
X142061Y20454D02*
G03*
X138565Y23950I-23950J-20454D01*
G01*
X97656D02*
G03*
X94160Y20454I20454J-23950D01*
G01*
X245733Y11811D02*
G03*
X240486Y20454I-29198J-11811D01*
G01*
X192585D02*
G03*
X187338Y11811I23950J-20454D01*
G01*
X247784Y3942D02*
G03*
X245733Y11811I-31248J-3942D01*
G01*
X147308D02*
G03*
X142061Y20454I-29198J-11811D01*
G01*
X94160D02*
G03*
X88913Y11811I23950J-20454D01*
G01*
X149359Y3942D02*
G03*
X147308Y11811I-31248J-3942D01*
G01*
X31496Y29198D02*
G03*
X7874Y29198I-11811J-29198D01*
G01*
X40139Y23950D02*
G03*
X31496Y29198I-20454J-23950D01*
G01*
X7874D02*
G03*
X-769Y23950I11811J-29198D01*
G01*
X43635Y20454D02*
G03*
X40139Y23950I-23950J-20454D01*
G01*
X-769D02*
G03*
X-4265Y20454I20454J-23950D01*
G01*
X-66929Y29198D02*
G03*
X-90551Y29198I-11811J-29198D01*
G01*
X-58286Y23950D02*
G03*
X-66929Y29198I-20454J-23950D01*
G01*
X-90551D02*
G03*
X-99195Y23950I11811J-29198D01*
G01*
X-54790Y20454D02*
G03*
X-58286Y23950I-23950J-20454D01*
G01*
X-99195D02*
G03*
X-102691Y20454I20454J-23950D01*
G01*
X48883Y11811D02*
G03*
X43635Y20454I-29198J-11811D01*
G01*
X-4265D02*
G03*
X-9513Y11811I23950J-20454D01*
G01*
X50933Y3942D02*
G03*
X48883Y11811I-31248J-3942D01*
G01*
X-49542D02*
G03*
X-54790Y20454I-29198J-11811D01*
G01*
X-102691D02*
G03*
X-107938Y11811I23950J-20454D01*
G01*
X-47492Y3942D02*
G03*
X-49542Y11811I-31248J-3942D01*
G01*
X245733Y-11811D02*
G03*
X247784Y-3942I-29198J11811D01*
G01*
X285763Y11811D02*
G03*
X285763Y-11811I29198J-11811D01*
G01*
X240486Y-20454D02*
G03*
X245733Y-11811I-23950J20454D01*
G01*
X187338D02*
G03*
X192585Y-20454I29198J11811D01*
G01*
X147308Y-11811D02*
G03*
X149359Y-3942I-29198J11811D01*
G01*
X187338Y11811D02*
G03*
X187338Y-11811I29198J-11811D01*
G01*
X142061Y-20454D02*
G03*
X147308Y-11811I-23950J20454D01*
G01*
X88913D02*
G03*
X94160Y-20454I29198J11811D01*
G01*
X236990Y-23950D02*
G03*
X240486Y-20454I-20454J23950D01*
G01*
X196081Y-23950D02*
G03*
X204724Y-29198I20454J23950D01*
G01*
X192585Y-20454D02*
G03*
X196081Y-23950I23950J20454D01*
G01*
X228346Y-29198D02*
G03*
X236990Y-23950I-11811J29198D01*
G01*
X204724Y-29198D02*
G03*
X228346Y-29198I11811J29198D01*
G01*
X138565Y-23950D02*
G03*
X142061Y-20454I-20454J23950D01*
G01*
X97656Y-23950D02*
G03*
X106299Y-29198I20454J23950D01*
G01*
X94160Y-20454D02*
G03*
X97656Y-23950I23950J20454D01*
G01*
X129921Y-29198D02*
G03*
X138565Y-23950I-11811J29198D01*
G01*
X106299Y-29198D02*
G03*
X129921Y-29198I11811J29198D01*
G01*
X48883Y-11811D02*
G03*
X50933Y-3942I-29198J11811D01*
G01*
X88913Y11811D02*
G03*
X88913Y-11811I29198J-11811D01*
G01*
X43635Y-20454D02*
G03*
X48883Y-11811I-23950J20454D01*
G01*
X-9513D02*
G03*
X-4265Y-20454I29198J11811D01*
G01*
X-49542Y-11811D02*
G03*
X-47492Y-3942I-29198J11811D01*
G01*
X-107938Y11811D02*
G03*
X-107938Y-11811I29198J-11811D01*
G01*
X-9513Y11811D02*
G03*
X-9513Y-11811I29198J-11811D01*
G01*
X-54790Y-20454D02*
G03*
X-49542Y-11811I-23950J20454D01*
G01*
X-107938D02*
G03*
X-102691Y-20454I29198J11811D01*
G01*
X40139Y-23950D02*
G03*
X43635Y-20454I-20454J23950D01*
G01*
X-769Y-23950D02*
G03*
X7874Y-29198I20454J23950D01*
G01*
X-4265Y-20454D02*
G03*
X-769Y-23950I23950J20454D01*
G01*
X31496Y-29198D02*
G03*
X40139Y-23950I-11811J29198D01*
G01*
X7874Y-29198D02*
G03*
X31496Y-29198I11811J29198D01*
G01*
X-58286Y-23950D02*
G03*
X-54790Y-20454I-20454J23950D01*
G01*
X-99195Y-23950D02*
G03*
X-90551Y-29198I20454J23950D01*
G01*
X-102691Y-20454D02*
G03*
X-99195Y-23950I23950J20454D01*
G01*
X-66929Y-29198D02*
G03*
X-58286Y-23950I-11811J29198D01*
G01*
X-90551Y-29198D02*
G03*
X-66929Y-29198I11811J29198D01*
G01*
X630690Y417651D02*
G03*
X622047Y422898I-20454J-23950D01*
G01*
D02*
G03*
X598425Y422898I-11811J-29198D01*
G01*
D02*
G03*
X589782Y417651I11811J-29198D01*
G01*
X532265D02*
G03*
X523622Y422898I-20454J-23950D01*
G01*
D02*
G03*
X500000Y422898I-11811J-29198D01*
G01*
D02*
G03*
X491357Y417651I11811J-29198D01*
G01*
D02*
G03*
X487861Y414155I20454J-23950D01*
G01*
X634187D02*
G03*
X630690Y417651I-23950J-20454D01*
G01*
X589782D02*
G03*
X586286Y414155I20454J-23950D01*
G01*
D02*
G03*
X581039Y405512I23950J-20454D01*
G01*
X641485Y397643D02*
G03*
X639434Y405512I-31248J-3942D01*
G01*
D02*
G03*
X634187Y414155I-29198J-11811D01*
G01*
X535761D02*
G03*
X532265Y417651I-23950J-20454D01*
G01*
X487861Y414155D02*
G03*
X482613Y405512I23950J-20454D01*
G01*
X543059Y397643D02*
G03*
X541009Y405512I-31248J-3942D01*
G01*
D02*
G03*
X535761Y414155I-29198J-11811D01*
G01*
X425197Y422898D02*
G03*
X401575Y422898I-11811J-29198D01*
G01*
X433840Y417651D02*
G03*
X425197Y422898I-20454J-23950D01*
G01*
X401575D02*
G03*
X392932Y417651I11811J-29198D01*
G01*
D02*
G03*
X389435Y414155I20454J-23950D01*
G01*
X335415Y417651D02*
G03*
X326772Y422898I-20454J-23950D01*
G01*
D02*
G03*
X303150Y422898I-11811J-29198D01*
G01*
D02*
G03*
X294506Y417651I11811J-29198D01*
G01*
X338911Y414155D02*
G03*
X335415Y417651I-23950J-20454D01*
G01*
X294506D02*
G03*
X291010Y414155I20454J-23950D01*
G01*
X437336D02*
G03*
X433840Y417651I-23950J-20454D01*
G01*
X389435Y414155D02*
G03*
X384188Y405512I23950J-20454D01*
G01*
X444634Y397643D02*
G03*
X442584Y405512I-31248J-3942D01*
G01*
D02*
G03*
X437336Y414155I-29198J-11811D01*
G01*
X344158Y405512D02*
G03*
X338911Y414155I-29198J-11811D01*
G01*
X291010D02*
G03*
X285763Y405512I23950J-20454D01*
G01*
X346209Y397643D02*
G03*
X344158Y405512I-31248J-3942D01*
G01*
X639434Y381890D02*
G03*
X641485Y389759I-29198J11811D01*
G01*
X634187Y373247D02*
G03*
X639434Y381890I-23950J20454D01*
G01*
X581039D02*
G03*
X586286Y373247I29198J11811D01*
G01*
X541009Y381890D02*
G03*
X543059Y389759I-29198J11811D01*
G01*
X581039Y405512D02*
G03*
X581039Y381890I29198J-11811D01*
G01*
X535761Y373247D02*
G03*
X541009Y381890I-23950J20454D01*
G01*
X482613D02*
G03*
X487861Y373247I29198J11811D01*
G01*
X630690Y369750D02*
G03*
X634187Y373247I-20454J23950D01*
G01*
X589782Y369750D02*
G03*
X598425Y364503I20454J23950D01*
G01*
X586286Y373247D02*
G03*
X589782Y369750I23950J20454D01*
G01*
X622047Y364503D02*
G03*
X630690Y369750I-11811J29198D01*
G01*
X598425Y364503D02*
G03*
X622047Y364503I11811J29198D01*
G01*
X532265Y369750D02*
G03*
X535761Y373247I-20454J23950D01*
G01*
X491357Y369750D02*
G03*
X500000Y364503I20454J23950D01*
G01*
X487861Y373247D02*
G03*
X491357Y369750I23950J20454D01*
G01*
X523622Y364503D02*
G03*
X532265Y369750I-11811J29198D01*
G01*
X500000Y364503D02*
G03*
X523622Y364503I11811J29198D01*
G01*
X442584Y381890D02*
G03*
X444634Y389759I-29198J11811D01*
G01*
X482613Y405512D02*
G03*
X482613Y381890I29198J-11811D01*
G01*
X437336Y373247D02*
G03*
X442584Y381890I-23950J20454D01*
G01*
X384188D02*
G03*
X389435Y373247I29198J11811D01*
G01*
X344158Y381890D02*
G03*
X346209Y389759I-29198J11811D01*
G01*
X384188Y405512D02*
G03*
X384188Y381890I29198J-11811D01*
G01*
X338911Y373247D02*
G03*
X344158Y381890I-23950J20454D01*
G01*
X285763D02*
G03*
X291010Y373247I29198J11811D01*
G01*
X433840Y369750D02*
G03*
X437336Y373247I-20454J23950D01*
G01*
X392932Y369750D02*
G03*
X401575Y364503I20454J23950D01*
G01*
X389435Y373247D02*
G03*
X392932Y369750I23950J20454D01*
G01*
X425197Y364503D02*
G03*
X433840Y369750I-11811J29198D01*
G01*
X401575Y364503D02*
G03*
X425197Y364503I11811J29198D01*
G01*
X335415Y369750D02*
G03*
X338911Y373247I-20454J23950D01*
G01*
X294506Y369750D02*
G03*
X303150Y364503I20454J23950D01*
G01*
X291010Y373247D02*
G03*
X294506Y369750I23950J20454D01*
G01*
X326772Y364503D02*
G03*
X335415Y369750I-11811J29198D01*
G01*
X303150Y364503D02*
G03*
X326772Y364503I11811J29198D01*
G01*
X228346Y422898D02*
G03*
X204724Y422898I-11811J-29198D01*
G01*
X236990Y417651D02*
G03*
X228346Y422898I-20454J-23950D01*
G01*
X204724D02*
G03*
X196081Y417651I11811J-29198D01*
G01*
X240486Y414155D02*
G03*
X236990Y417651I-23950J-20454D01*
G01*
X196081D02*
G03*
X192585Y414155I20454J-23950D01*
G01*
X129921Y422898D02*
G03*
X106299Y422898I-11811J-29198D01*
G01*
X138565Y417651D02*
G03*
X129921Y422898I-20454J-23950D01*
G01*
X106299D02*
G03*
X97656Y417651I11811J-29198D01*
G01*
X142061Y414155D02*
G03*
X138565Y417651I-23950J-20454D01*
G01*
X97656D02*
G03*
X94160Y414155I20454J-23950D01*
G01*
X245733Y405512D02*
G03*
X240486Y414155I-29198J-11811D01*
G01*
X192585D02*
G03*
X187338Y405512I23950J-20454D01*
G01*
X247784Y397643D02*
G03*
X245733Y405512I-31248J-3942D01*
G01*
X147308D02*
G03*
X142061Y414155I-29198J-11811D01*
G01*
X94160D02*
G03*
X88913Y405512I23950J-20454D01*
G01*
X149359Y397643D02*
G03*
X147308Y405512I-31248J-3942D01*
G01*
X31496Y422898D02*
G03*
X7874Y422898I-11811J-29198D01*
G01*
X40139Y417651D02*
G03*
X31496Y422898I-20454J-23950D01*
G01*
X7874D02*
G03*
X-769Y417651I11811J-29198D01*
G01*
X43635Y414155D02*
G03*
X40139Y417651I-23950J-20454D01*
G01*
X-769D02*
G03*
X-4265Y414155I20454J-23950D01*
G01*
X-66929Y422898D02*
G03*
X-90551Y422898I-11811J-29198D01*
G01*
X-58286Y417651D02*
G03*
X-66929Y422898I-20454J-23950D01*
G01*
X-90551D02*
G03*
X-99195Y417651I11811J-29198D01*
G01*
X-54790Y414155D02*
G03*
X-58286Y417651I-23950J-20454D01*
G01*
X-99195D02*
G03*
X-102691Y414155I20454J-23950D01*
G01*
X48883Y405512D02*
G03*
X43635Y414155I-29198J-11811D01*
G01*
X-4265D02*
G03*
X-9513Y405512I23950J-20454D01*
G01*
X50933Y397643D02*
G03*
X48883Y405512I-31248J-3942D01*
G01*
X-49542D02*
G03*
X-54790Y414155I-29198J-11811D01*
G01*
X-102691D02*
G03*
X-107938Y405512I23950J-20454D01*
G01*
X-47492Y397643D02*
G03*
X-49542Y405512I-31248J-3942D01*
G01*
X245733Y381890D02*
G03*
X247784Y389759I-29198J11811D01*
G01*
X285763Y405512D02*
G03*
X285763Y381890I29198J-11811D01*
G01*
X240486Y373247D02*
G03*
X245733Y381890I-23950J20454D01*
G01*
X187338D02*
G03*
X192585Y373247I29198J11811D01*
G01*
X147308Y381890D02*
G03*
X149359Y389759I-29198J11811D01*
G01*
X187338Y405512D02*
G03*
X187338Y381890I29198J-11811D01*
G01*
X142061Y373247D02*
G03*
X147308Y381890I-23950J20454D01*
G01*
X88913D02*
G03*
X94160Y373247I29198J11811D01*
G01*
X236990Y369750D02*
G03*
X240486Y373247I-20454J23950D01*
G01*
X196081Y369750D02*
G03*
X204724Y364503I20454J23950D01*
G01*
X192585Y373247D02*
G03*
X196081Y369750I23950J20454D01*
G01*
X228346Y364503D02*
G03*
X236990Y369750I-11811J29198D01*
G01*
X204724Y364503D02*
G03*
X228346Y364503I11811J29198D01*
G01*
X138565Y369750D02*
G03*
X142061Y373247I-20454J23950D01*
G01*
X97656Y369750D02*
G03*
X106299Y364503I20454J23950D01*
G01*
X94160Y373247D02*
G03*
X97656Y369750I23950J20454D01*
G01*
X129921Y364503D02*
G03*
X138565Y369750I-11811J29198D01*
G01*
X106299Y364503D02*
G03*
X129921Y364503I11811J29198D01*
G01*
X48883Y381890D02*
G03*
X50933Y389759I-29198J11811D01*
G01*
X88913Y405512D02*
G03*
X88913Y381890I29198J-11811D01*
G01*
X43635Y373247D02*
G03*
X48883Y381890I-23950J20454D01*
G01*
X-9513D02*
G03*
X-4265Y373247I29198J11811D01*
G01*
X-49542Y381890D02*
G03*
X-47492Y389759I-29198J11811D01*
G01*
X-107938Y405512D02*
G03*
X-107938Y381890I29198J-11811D01*
G01*
X-9513Y405512D02*
G03*
X-9513Y381890I29198J-11811D01*
G01*
X-54790Y373247D02*
G03*
X-49542Y381890I-23950J20454D01*
G01*
X-107938D02*
G03*
X-102691Y373247I29198J11811D01*
G01*
X40139Y369750D02*
G03*
X43635Y373247I-20454J23950D01*
G01*
X-769Y369750D02*
G03*
X7874Y364503I20454J23950D01*
G01*
X-4265Y373247D02*
G03*
X-769Y369750I23950J20454D01*
G01*
X31496Y364503D02*
G03*
X40139Y369750I-11811J29198D01*
G01*
X7874Y364503D02*
G03*
X31496Y364503I11811J29198D01*
G01*
X-58286Y369750D02*
G03*
X-54790Y373247I-20454J23950D01*
G01*
X-99195Y369750D02*
G03*
X-90551Y364503I20454J23950D01*
G01*
X-102691Y373247D02*
G03*
X-99195Y369750I23950J20454D01*
G01*
X-66929Y364503D02*
G03*
X-58286Y369750I-11811J29198D01*
G01*
X-90551Y364503D02*
G03*
X-66929Y364503I11811J29198D01*
G01*
X641485Y692918D02*
G03*
X639434Y700787I-31248J-3942D01*
G01*
X630690Y712927D02*
G03*
X622047Y718174I-20454J-23950D01*
G01*
X598425D02*
G03*
X589782Y712927I11811J-29198D01*
G01*
X634187Y709431D02*
G03*
X630690Y712927I-23950J-20454D01*
G01*
X535761Y709431D02*
G03*
X532265Y712927I-23950J-20454D01*
G01*
X523622Y718174D02*
G03*
X500000Y718174I-11811J-29198D01*
G01*
X532265Y712927D02*
G03*
X523622Y718174I-20454J-23950D01*
G01*
X500000D02*
G03*
X491357Y712927I11811J-29198D01*
G01*
D02*
G03*
X487861Y709431I20454J-23950D01*
G01*
X589782Y712927D02*
G03*
X586286Y709431I20454J-23950D01*
G01*
D02*
G03*
X581039Y700787I23950J-20454D01*
G01*
X639434D02*
G03*
X634187Y709431I-29198J-11811D01*
G01*
X487861D02*
G03*
X482613Y700787I23950J-20454D01*
G01*
X543059Y692918D02*
G03*
X541009Y700787I-31248J-3942D01*
G01*
D02*
G03*
X535761Y709431I-29198J-11811D01*
G01*
X425197Y718174D02*
G03*
X401575Y718174I-11811J-29198D01*
G01*
X433840Y712927D02*
G03*
X425197Y718174I-20454J-23950D01*
G01*
X401575D02*
G03*
X392932Y712927I11811J-29198D01*
G01*
X437336Y709431D02*
G03*
X433840Y712927I-23950J-20454D01*
G01*
X326772Y718174D02*
G03*
X303150Y718174I-11811J-29198D01*
G01*
X335415Y712927D02*
G03*
X326772Y718174I-20454J-23950D01*
G01*
X303150D02*
G03*
X294506Y712927I11811J-29198D01*
G01*
D02*
G03*
X291010Y709431I20454J-23950D01*
G01*
X392932Y712927D02*
G03*
X389435Y709431I20454J-23950D01*
G01*
D02*
G03*
X384188Y700787I23950J-20454D01*
G01*
X444634Y692918D02*
G03*
X442584Y700787I-31248J-3942D01*
G01*
D02*
G03*
X437336Y709431I-29198J-11811D01*
G01*
X338911D02*
G03*
X335415Y712927I-23950J-20454D01*
G01*
X291010Y709431D02*
G03*
X285763Y700787I23950J-20454D01*
G01*
X346209Y692918D02*
G03*
X344158Y700787I-31248J-3942D01*
G01*
D02*
G03*
X338911Y709431I-29198J-11811D01*
G01*
X639434Y677165D02*
G03*
X641485Y685034I-29198J11811D01*
G01*
X634187Y668522D02*
G03*
X639434Y677165I-23950J20454D01*
G01*
X581039D02*
G03*
X586286Y668522I29198J11811D01*
G01*
X541009Y677165D02*
G03*
X543059Y685034I-29198J11811D01*
G01*
X482613Y700787D02*
G03*
X482613Y677165I29198J-11811D01*
G01*
X581039Y700787D02*
G03*
X581039Y677165I29198J-11811D01*
G01*
X535761Y668522D02*
G03*
X541009Y677165I-23950J20454D01*
G01*
X482613D02*
G03*
X487861Y668522I29198J11811D01*
G01*
X630690Y665026D02*
G03*
X634187Y668522I-20454J23950D01*
G01*
X589782Y665026D02*
G03*
X598425Y659779I20454J23950D01*
G01*
X586286Y668522D02*
G03*
X589782Y665026I23950J20454D01*
G01*
X622047Y659779D02*
G03*
X630690Y665026I-11811J29198D01*
G01*
X598425Y659779D02*
G03*
X622047Y659779I11811J29198D01*
G01*
X532265Y665026D02*
G03*
X535761Y668522I-20454J23950D01*
G01*
X491357Y665026D02*
G03*
X500000Y659779I20454J23950D01*
G01*
X487861Y668522D02*
G03*
X491357Y665026I23950J20454D01*
G01*
X523622Y659779D02*
G03*
X532265Y665026I-11811J29198D01*
G01*
X500000Y659779D02*
G03*
X523622Y659779I11811J29198D01*
G01*
X442584Y677165D02*
G03*
X444634Y685034I-29198J11811D01*
G01*
X437336Y668522D02*
G03*
X442584Y677165I-23950J20454D01*
G01*
X384188D02*
G03*
X389435Y668522I29198J11811D01*
G01*
X344158Y677165D02*
G03*
X346209Y685034I-29198J11811D01*
G01*
X384188Y700787D02*
G03*
X384188Y677165I29198J-11811D01*
G01*
X338911Y668522D02*
G03*
X344158Y677165I-23950J20454D01*
G01*
X285763D02*
G03*
X291010Y668522I29198J11811D01*
G01*
X433840Y665026D02*
G03*
X437336Y668522I-20454J23950D01*
G01*
X392932Y665026D02*
G03*
X401575Y659779I20454J23950D01*
G01*
X389435Y668522D02*
G03*
X392932Y665026I23950J20454D01*
G01*
X425197Y659779D02*
G03*
X433840Y665026I-11811J29198D01*
G01*
X401575Y659779D02*
G03*
X425197Y659779I11811J29198D01*
G01*
X335415Y665026D02*
G03*
X338911Y668522I-20454J23950D01*
G01*
X294506Y665026D02*
G03*
X303150Y659779I20454J23950D01*
G01*
X291010Y668522D02*
G03*
X294506Y665026I23950J20454D01*
G01*
X326772Y659779D02*
G03*
X335415Y665026I-11811J29198D01*
G01*
X303150Y659779D02*
G03*
X326772Y659779I11811J29198D01*
G01*
X228346Y718174D02*
G03*
X204724Y718174I-11811J-29198D01*
G01*
X236990Y712927D02*
G03*
X228346Y718174I-20454J-23950D01*
G01*
X204724D02*
G03*
X196081Y712927I11811J-29198D01*
G01*
X240486Y709431D02*
G03*
X236990Y712927I-23950J-20454D01*
G01*
X196081D02*
G03*
X192585Y709431I20454J-23950D01*
G01*
X129921Y718174D02*
G03*
X106299Y718174I-11811J-29198D01*
G01*
X138565Y712927D02*
G03*
X129921Y718174I-20454J-23950D01*
G01*
X106299D02*
G03*
X97656Y712927I11811J-29198D01*
G01*
X142061Y709431D02*
G03*
X138565Y712927I-23950J-20454D01*
G01*
X97656D02*
G03*
X94160Y709431I20454J-23950D01*
G01*
X245733Y700787D02*
G03*
X240486Y709431I-29198J-11811D01*
G01*
X192585D02*
G03*
X187338Y700787I23950J-20454D01*
G01*
X247784Y692918D02*
G03*
X245733Y700787I-31248J-3942D01*
G01*
X94160Y709431D02*
G03*
X88913Y700787I23950J-20454D01*
G01*
X149359Y692918D02*
G03*
X147308Y700787I-31248J-3942D01*
G01*
D02*
G03*
X142061Y709431I-29198J-11811D01*
G01*
X31496Y718174D02*
G03*
X7874Y718174I-11811J-29198D01*
G01*
X40139Y712927D02*
G03*
X31496Y718174I-20454J-23950D01*
G01*
X7874D02*
G03*
X-769Y712927I11811J-29198D01*
G01*
X43635Y709431D02*
G03*
X40139Y712927I-23950J-20454D01*
G01*
X-769D02*
G03*
X-4265Y709431I20454J-23950D01*
G01*
X-66929Y718174D02*
G03*
X-90551Y718174I-11811J-29198D01*
G01*
X-58286Y712927D02*
G03*
X-66929Y718174I-20454J-23950D01*
G01*
X-90551D02*
G03*
X-99195Y712927I11811J-29198D01*
G01*
X-54790Y709431D02*
G03*
X-58286Y712927I-23950J-20454D01*
G01*
X-99195D02*
G03*
X-102691Y709431I20454J-23950D01*
G01*
X-4265D02*
G03*
X-9513Y700787I23950J-20454D01*
G01*
X50933Y692918D02*
G03*
X48883Y700787I-31248J-3942D01*
G01*
D02*
G03*
X43635Y709431I-29198J-11811D01*
G01*
X-49542Y700787D02*
G03*
X-54790Y709431I-29198J-11811D01*
G01*
X-102691D02*
G03*
X-107938Y700787I23950J-20454D01*
G01*
X-47492Y692918D02*
G03*
X-49542Y700787I-31248J-3942D01*
G01*
X245733Y677165D02*
G03*
X247784Y685034I-29198J11811D01*
G01*
X187338Y700787D02*
G03*
X187338Y677165I29198J-11811D01*
G01*
X285763Y700787D02*
G03*
X285763Y677165I29198J-11811D01*
G01*
X240486Y668522D02*
G03*
X245733Y677165I-23950J20454D01*
G01*
X187338D02*
G03*
X192585Y668522I29198J11811D01*
G01*
X88913Y700787D02*
G03*
X88913Y677165I29198J-11811D01*
G01*
X147308D02*
G03*
X149359Y685034I-29198J11811D01*
G01*
X142061Y668522D02*
G03*
X147308Y677165I-23950J20454D01*
G01*
X88913D02*
G03*
X94160Y668522I29198J11811D01*
G01*
X236990Y665026D02*
G03*
X240486Y668522I-20454J23950D01*
G01*
X196081Y665026D02*
G03*
X204724Y659779I20454J23950D01*
G01*
X192585Y668522D02*
G03*
X196081Y665026I23950J20454D01*
G01*
X228346Y659779D02*
G03*
X236990Y665026I-11811J29198D01*
G01*
X204724Y659779D02*
G03*
X228346Y659779I11811J29198D01*
G01*
X138565Y665026D02*
G03*
X142061Y668522I-20454J23950D01*
G01*
X97656Y665026D02*
G03*
X106299Y659779I20454J23950D01*
G01*
X94160Y668522D02*
G03*
X97656Y665026I23950J20454D01*
G01*
X129921Y659779D02*
G03*
X138565Y665026I-11811J29198D01*
G01*
X106299Y659779D02*
G03*
X129921Y659779I11811J29198D01*
G01*
X48883Y677165D02*
G03*
X50933Y685034I-29198J11811D01*
G01*
X-9513Y700787D02*
G03*
X-9513Y677165I29198J-11811D01*
G01*
X43635Y668522D02*
G03*
X48883Y677165I-23950J20454D01*
G01*
X-9513D02*
G03*
X-4265Y668522I29198J11811D01*
G01*
X-49542Y677165D02*
G03*
X-47492Y685034I-29198J11811D01*
G01*
X-107938Y700787D02*
G03*
X-107938Y677165I29198J-11811D01*
G01*
X-54790Y668522D02*
G03*
X-49542Y677165I-23950J20454D01*
G01*
X-107938D02*
G03*
X-102691Y668522I29198J11811D01*
G01*
X40139Y665026D02*
G03*
X43635Y668522I-20454J23950D01*
G01*
X-769Y665026D02*
G03*
X7874Y659779I20454J23950D01*
G01*
X-4265Y668522D02*
G03*
X-769Y665026I23950J20454D01*
G01*
X31496Y659779D02*
G03*
X40139Y665026I-11811J29198D01*
G01*
X7874Y659779D02*
G03*
X31496Y659779I11811J29198D01*
G01*
X-58286Y665026D02*
G03*
X-54790Y668522I-20454J23950D01*
G01*
X-102691D02*
G03*
X-99195Y665026I23950J20454D01*
G01*
D02*
G03*
X-90551Y659779I20454J23950D01*
G01*
X-66929D02*
G03*
X-58286Y665026I-11811J29198D01*
G01*
X-90551Y659779D02*
G03*
X-66929Y659779I11811J29198D01*
G01*
X622047Y521324D02*
G03*
X598425Y521324I-11811J-29198D01*
G01*
X630690Y516076D02*
G03*
X622047Y521324I-20454J-23950D01*
G01*
X598425D02*
G03*
X589782Y516076I11811J-29198D01*
G01*
X634187Y512580D02*
G03*
X630690Y516076I-23950J-20454D01*
G01*
X535761Y512580D02*
G03*
X532265Y516076I-23950J-20454D01*
G01*
X523622Y521324D02*
G03*
X500000Y521324I-11811J-29198D01*
G01*
X532265Y516076D02*
G03*
X523622Y521324I-20454J-23950D01*
G01*
X500000D02*
G03*
X491357Y516076I11811J-29198D01*
G01*
D02*
G03*
X487861Y512580I20454J-23950D01*
G01*
X589782Y516076D02*
G03*
X586286Y512580I20454J-23950D01*
G01*
D02*
G03*
X581039Y503937I23950J-20454D01*
G01*
X641485Y496068D02*
G03*
X639434Y503937I-31248J-3942D01*
G01*
D02*
G03*
X634187Y512580I-29198J-11811D01*
G01*
X487861D02*
G03*
X482613Y503937I23950J-20454D01*
G01*
X543059Y496068D02*
G03*
X541009Y503937I-31248J-3942D01*
G01*
D02*
G03*
X535761Y512580I-29198J-11811D01*
G01*
X444634Y496068D02*
G03*
X442584Y503937I-31248J-3942D01*
G01*
X425197Y521324D02*
G03*
X401575Y521324I-11811J-29198D01*
G01*
D02*
G03*
X392932Y516076I11811J-29198D01*
G01*
X433840D02*
G03*
X425197Y521324I-20454J-23950D01*
G01*
X437336Y512580D02*
G03*
X433840Y516076I-23950J-20454D01*
G01*
X326772Y521324D02*
G03*
X303150Y521324I-11811J-29198D01*
G01*
X335415Y516076D02*
G03*
X326772Y521324I-20454J-23950D01*
G01*
X303150D02*
G03*
X294506Y516076I11811J-29198D01*
G01*
X338911Y512580D02*
G03*
X335415Y516076I-23950J-20454D01*
G01*
X294506D02*
G03*
X291010Y512580I20454J-23950D01*
G01*
X392932Y516076D02*
G03*
X389435Y512580I20454J-23950D01*
G01*
D02*
G03*
X384188Y503937I23950J-20454D01*
G01*
X442584D02*
G03*
X437336Y512580I-29198J-11811D01*
G01*
X344158Y503937D02*
G03*
X338911Y512580I-29198J-11811D01*
G01*
X291010D02*
G03*
X285763Y503937I23950J-20454D01*
G01*
X346209Y496068D02*
G03*
X344158Y503937I-31248J-3942D01*
G01*
X639434Y480315D02*
G03*
X641485Y488184I-29198J11811D01*
G01*
X634187Y471672D02*
G03*
X639434Y480315I-23950J20454D01*
G01*
X581039D02*
G03*
X586286Y471672I29198J11811D01*
G01*
X541009Y480315D02*
G03*
X543059Y488184I-29198J11811D01*
G01*
X581039Y503937D02*
G03*
X581039Y480315I29198J-11811D01*
G01*
X535761Y471672D02*
G03*
X541009Y480315I-23950J20454D01*
G01*
X482613D02*
G03*
X487861Y471672I29198J11811D01*
G01*
X630690Y468176D02*
G03*
X634187Y471672I-20454J23950D01*
G01*
X589782Y468176D02*
G03*
X598425Y462928I20454J23950D01*
G01*
X586286Y471672D02*
G03*
X589782Y468176I23950J20454D01*
G01*
X622047Y462928D02*
G03*
X630690Y468176I-11811J29198D01*
G01*
X598425Y462928D02*
G03*
X622047Y462928I11811J29198D01*
G01*
X532265Y468176D02*
G03*
X535761Y471672I-20454J23950D01*
G01*
X491357Y468176D02*
G03*
X500000Y462928I20454J23950D01*
G01*
X487861Y471672D02*
G03*
X491357Y468176I23950J20454D01*
G01*
X523622Y462928D02*
G03*
X532265Y468176I-11811J29198D01*
G01*
X500000Y462928D02*
G03*
X523622Y462928I11811J29198D01*
G01*
X442584Y480315D02*
G03*
X444634Y488184I-29198J11811D01*
G01*
X482613Y503937D02*
G03*
X482613Y480315I29198J-11811D01*
G01*
X437336Y471672D02*
G03*
X442584Y480315I-23950J20454D01*
G01*
X384188D02*
G03*
X389435Y471672I29198J11811D01*
G01*
X344158Y480315D02*
G03*
X346209Y488184I-29198J11811D01*
G01*
X384188Y503937D02*
G03*
X384188Y480315I29198J-11811D01*
G01*
X338911Y471672D02*
G03*
X344158Y480315I-23950J20454D01*
G01*
X285763D02*
G03*
X291010Y471672I29198J11811D01*
G01*
X433840Y468176D02*
G03*
X437336Y471672I-20454J23950D01*
G01*
X392932Y468176D02*
G03*
X401575Y462928I20454J23950D01*
G01*
X389435Y471672D02*
G03*
X392932Y468176I23950J20454D01*
G01*
X425197Y462928D02*
G03*
X433840Y468176I-11811J29198D01*
G01*
X401575Y462928D02*
G03*
X425197Y462928I11811J29198D01*
G01*
X335415Y468176D02*
G03*
X338911Y471672I-20454J23950D01*
G01*
X291010D02*
G03*
X294506Y468176I23950J20454D01*
G01*
D02*
G03*
X303150Y462928I20454J23950D01*
G01*
X326772D02*
G03*
X335415Y468176I-11811J29198D01*
G01*
X303150Y462928D02*
G03*
X326772Y462928I11811J29198D01*
G01*
X228346Y521324D02*
G03*
X204724Y521324I-11811J-29198D01*
G01*
X236990Y516076D02*
G03*
X228346Y521324I-20454J-23950D01*
G01*
X204724D02*
G03*
X196081Y516076I11811J-29198D01*
G01*
X240486Y512580D02*
G03*
X236990Y516076I-23950J-20454D01*
G01*
X196081D02*
G03*
X192585Y512580I20454J-23950D01*
G01*
X129921Y521324D02*
G03*
X106299Y521324I-11811J-29198D01*
G01*
X138565Y516076D02*
G03*
X129921Y521324I-20454J-23950D01*
G01*
X106299D02*
G03*
X97656Y516076I11811J-29198D01*
G01*
X142061Y512580D02*
G03*
X138565Y516076I-23950J-20454D01*
G01*
X97656D02*
G03*
X94160Y512580I20454J-23950D01*
G01*
X245733Y503937D02*
G03*
X240486Y512580I-29198J-11811D01*
G01*
X192585D02*
G03*
X187338Y503937I23950J-20454D01*
G01*
X247784Y496068D02*
G03*
X245733Y503937I-31248J-3942D01*
G01*
X94160Y512580D02*
G03*
X88913Y503937I23950J-20454D01*
G01*
X149359Y496068D02*
G03*
X147308Y503937I-31248J-3942D01*
G01*
D02*
G03*
X142061Y512580I-29198J-11811D01*
G01*
X31496Y521324D02*
G03*
X7874Y521324I-11811J-29198D01*
G01*
X40139Y516076D02*
G03*
X31496Y521324I-20454J-23950D01*
G01*
X7874D02*
G03*
X-769Y516076I11811J-29198D01*
G01*
X43635Y512580D02*
G03*
X40139Y516076I-23950J-20454D01*
G01*
X-769D02*
G03*
X-4265Y512580I20454J-23950D01*
G01*
X-66929Y521324D02*
G03*
X-90551Y521324I-11811J-29198D01*
G01*
X-58286Y516076D02*
G03*
X-66929Y521324I-20454J-23950D01*
G01*
X-90551D02*
G03*
X-99195Y516076I11811J-29198D01*
G01*
X-54790Y512580D02*
G03*
X-58286Y516076I-23950J-20454D01*
G01*
X-99195D02*
G03*
X-102691Y512580I20454J-23950D01*
G01*
X48883Y503937D02*
G03*
X43635Y512580I-29198J-11811D01*
G01*
X-4265D02*
G03*
X-9513Y503937I23950J-20454D01*
G01*
X50933Y496068D02*
G03*
X48883Y503937I-31248J-3942D01*
G01*
X-102691Y512580D02*
G03*
X-107938Y503937I23950J-20454D01*
G01*
X-47492Y496068D02*
G03*
X-49542Y503937I-31248J-3942D01*
G01*
D02*
G03*
X-54790Y512580I-29198J-11811D01*
G01*
X245733Y480315D02*
G03*
X247784Y488184I-29198J11811D01*
G01*
X285763Y503937D02*
G03*
X285763Y480315I29198J-11811D01*
G01*
X240486Y471672D02*
G03*
X245733Y480315I-23950J20454D01*
G01*
X187338D02*
G03*
X192585Y471672I29198J11811D01*
G01*
X147308Y480315D02*
G03*
X149359Y488184I-29198J11811D01*
G01*
X187338Y503937D02*
G03*
X187338Y480315I29198J-11811D01*
G01*
X142061Y471672D02*
G03*
X147308Y480315I-23950J20454D01*
G01*
X88913D02*
G03*
X94160Y471672I29198J11811D01*
G01*
X236990Y468176D02*
G03*
X240486Y471672I-20454J23950D01*
G01*
X196081Y468176D02*
G03*
X204724Y462928I20454J23950D01*
G01*
X192585Y471672D02*
G03*
X196081Y468176I23950J20454D01*
G01*
X228346Y462928D02*
G03*
X236990Y468176I-11811J29198D01*
G01*
X204724Y462928D02*
G03*
X228346Y462928I11811J29198D01*
G01*
X138565Y468176D02*
G03*
X142061Y471672I-20454J23950D01*
G01*
X97656Y468176D02*
G03*
X106299Y462928I20454J23950D01*
G01*
X94160Y471672D02*
G03*
X97656Y468176I23950J20454D01*
G01*
X129921Y462928D02*
G03*
X138565Y468176I-11811J29198D01*
G01*
X106299Y462928D02*
G03*
X129921Y462928I11811J29198D01*
G01*
X48883Y480315D02*
G03*
X50933Y488184I-29198J11811D01*
G01*
X-9513Y503937D02*
G03*
X-9513Y480315I29198J-11811D01*
G01*
X88913Y503937D02*
G03*
X88913Y480315I29198J-11811D01*
G01*
X43635Y471672D02*
G03*
X48883Y480315I-23950J20454D01*
G01*
X-9513D02*
G03*
X-4265Y471672I29198J11811D01*
G01*
X-49542Y480315D02*
G03*
X-47492Y488184I-29198J11811D01*
G01*
X-107938Y503937D02*
G03*
X-107938Y480315I29198J-11811D01*
G01*
X-54790Y471672D02*
G03*
X-49542Y480315I-23950J20454D01*
G01*
X-107938D02*
G03*
X-102691Y471672I29198J11811D01*
G01*
X40139Y468176D02*
G03*
X43635Y471672I-20454J23950D01*
G01*
X-769Y468176D02*
G03*
X7874Y462928I20454J23950D01*
G01*
X-4265Y471672D02*
G03*
X-769Y468176I23950J20454D01*
G01*
X31496Y462928D02*
G03*
X40139Y468176I-11811J29198D01*
G01*
X7874Y462928D02*
G03*
X31496Y462928I11811J29198D01*
G01*
X-58286Y468176D02*
G03*
X-54790Y471672I-20454J23950D01*
G01*
X-102691D02*
G03*
X-99195Y468176I23950J20454D01*
G01*
D02*
G03*
X-90551Y462928I20454J23950D01*
G01*
X-66929D02*
G03*
X-58286Y468176I-11811J29198D01*
G01*
X-90551Y462928D02*
G03*
X-66929Y462928I11811J29198D01*
G01*
X622047Y619749D02*
G03*
X598425Y619749I-11811J-29198D01*
G01*
X630690Y614502D02*
G03*
X622047Y619749I-20454J-23950D01*
G01*
X598425D02*
G03*
X589782Y614502I11811J-29198D01*
G01*
X634187Y611005D02*
G03*
X630690Y614502I-23950J-20454D01*
G01*
X535761Y611005D02*
G03*
X532265Y614502I-23950J-20454D01*
G01*
X523622Y619749D02*
G03*
X500000Y619749I-11811J-29198D01*
G01*
X532265Y614502D02*
G03*
X523622Y619749I-20454J-23950D01*
G01*
X500000D02*
G03*
X491357Y614502I11811J-29198D01*
G01*
D02*
G03*
X487861Y611005I20454J-23950D01*
G01*
X589782Y614502D02*
G03*
X586286Y611005I20454J-23950D01*
G01*
D02*
G03*
X581039Y602362I23950J-20454D01*
G01*
X641485Y594493D02*
G03*
X639434Y602362I-31248J-3942D01*
G01*
D02*
G03*
X634187Y611005I-29198J-11811D01*
G01*
X541009Y602362D02*
G03*
X535761Y611005I-29198J-11811D01*
G01*
X487861D02*
G03*
X482613Y602362I23950J-20454D01*
G01*
X543059Y594493D02*
G03*
X541009Y602362I-31248J-3942D01*
G01*
X425197Y619749D02*
G03*
X401575Y619749I-11811J-29198D01*
G01*
D02*
G03*
X392932Y614502I11811J-29198D01*
G01*
X433840D02*
G03*
X425197Y619749I-20454J-23950D01*
G01*
X392932Y614502D02*
G03*
X389435Y611005I20454J-23950D01*
G01*
X326772Y619749D02*
G03*
X303150Y619749I-11811J-29198D01*
G01*
X335415Y614502D02*
G03*
X326772Y619749I-20454J-23950D01*
G01*
X303150D02*
G03*
X294506Y614502I11811J-29198D01*
G01*
X338911Y611005D02*
G03*
X335415Y614502I-23950J-20454D01*
G01*
X294506D02*
G03*
X291010Y611005I20454J-23950D01*
G01*
X437336D02*
G03*
X433840Y614502I-23950J-20454D01*
G01*
X389435Y611005D02*
G03*
X384188Y602362I23950J-20454D01*
G01*
X444634Y594493D02*
G03*
X442584Y602362I-31248J-3942D01*
G01*
D02*
G03*
X437336Y611005I-29198J-11811D01*
G01*
X344158Y602362D02*
G03*
X338911Y611005I-29198J-11811D01*
G01*
X291010D02*
G03*
X285763Y602362I23950J-20454D01*
G01*
X346209Y594493D02*
G03*
X344158Y602362I-31248J-3942D01*
G01*
X581039D02*
G03*
X581039Y578740I29198J-11811D01*
G01*
X639434D02*
G03*
X641485Y586609I-29198J11811D01*
G01*
X634187Y570097D02*
G03*
X639434Y578740I-23950J20454D01*
G01*
X581039D02*
G03*
X586286Y570097I29198J11811D01*
G01*
X482613Y602362D02*
G03*
X482613Y578740I29198J-11811D01*
G01*
X541009D02*
G03*
X543059Y586609I-29198J11811D01*
G01*
X535761Y570097D02*
G03*
X541009Y578740I-23950J20454D01*
G01*
X482613D02*
G03*
X487861Y570097I29198J11811D01*
G01*
X630690Y566601D02*
G03*
X634187Y570097I-20454J23950D01*
G01*
X589782Y566601D02*
G03*
X598425Y561353I20454J23950D01*
G01*
X586286Y570097D02*
G03*
X589782Y566601I23950J20454D01*
G01*
X622047Y561353D02*
G03*
X630690Y566601I-11811J29198D01*
G01*
X598425Y561353D02*
G03*
X622047Y561353I11811J29198D01*
G01*
X532265Y566601D02*
G03*
X535761Y570097I-20454J23950D01*
G01*
X491357Y566601D02*
G03*
X500000Y561353I20454J23950D01*
G01*
X487861Y570097D02*
G03*
X491357Y566601I23950J20454D01*
G01*
X523622Y561353D02*
G03*
X532265Y566601I-11811J29198D01*
G01*
X500000Y561353D02*
G03*
X523622Y561353I11811J29198D01*
G01*
X442584Y578740D02*
G03*
X444634Y586609I-29198J11811D01*
G01*
X437336Y570097D02*
G03*
X442584Y578740I-23950J20454D01*
G01*
X384188D02*
G03*
X389435Y570097I29198J11811D01*
G01*
X344158Y578740D02*
G03*
X346209Y586609I-29198J11811D01*
G01*
X384188Y602362D02*
G03*
X384188Y578740I29198J-11811D01*
G01*
X338911Y570097D02*
G03*
X344158Y578740I-23950J20454D01*
G01*
X285763D02*
G03*
X291010Y570097I29198J11811D01*
G01*
X433840Y566601D02*
G03*
X437336Y570097I-20454J23950D01*
G01*
X392932Y566601D02*
G03*
X401575Y561353I20454J23950D01*
G01*
X389435Y570097D02*
G03*
X392932Y566601I23950J20454D01*
G01*
X425197Y561353D02*
G03*
X433840Y566601I-11811J29198D01*
G01*
X401575Y561353D02*
G03*
X425197Y561353I11811J29198D01*
G01*
X335415Y566601D02*
G03*
X338911Y570097I-20454J23950D01*
G01*
X291010D02*
G03*
X294506Y566601I23950J20454D01*
G01*
D02*
G03*
X303150Y561353I20454J23950D01*
G01*
X326772D02*
G03*
X335415Y566601I-11811J29198D01*
G01*
X303150Y561353D02*
G03*
X326772Y561353I11811J29198D01*
G01*
X228346Y619749D02*
G03*
X204724Y619749I-11811J-29198D01*
G01*
X236990Y614502D02*
G03*
X228346Y619749I-20454J-23950D01*
G01*
X204724D02*
G03*
X196081Y614502I11811J-29198D01*
G01*
X240486Y611005D02*
G03*
X236990Y614502I-23950J-20454D01*
G01*
X196081D02*
G03*
X192585Y611005I20454J-23950D01*
G01*
X129921Y619749D02*
G03*
X106299Y619749I-11811J-29198D01*
G01*
X138565Y614502D02*
G03*
X129921Y619749I-20454J-23950D01*
G01*
X106299D02*
G03*
X97656Y614502I11811J-29198D01*
G01*
X142061Y611005D02*
G03*
X138565Y614502I-23950J-20454D01*
G01*
X97656D02*
G03*
X94160Y611005I20454J-23950D01*
G01*
X245733Y602362D02*
G03*
X240486Y611005I-29198J-11811D01*
G01*
X192585D02*
G03*
X187338Y602362I23950J-20454D01*
G01*
X247784Y594493D02*
G03*
X245733Y602362I-31248J-3942D01*
G01*
X94160Y611005D02*
G03*
X88913Y602362I23950J-20454D01*
G01*
X149359Y594493D02*
G03*
X147308Y602362I-31248J-3942D01*
G01*
D02*
G03*
X142061Y611005I-29198J-11811D01*
G01*
X31496Y619749D02*
G03*
X7874Y619749I-11811J-29198D01*
G01*
X40139Y614502D02*
G03*
X31496Y619749I-20454J-23950D01*
G01*
X7874D02*
G03*
X-769Y614502I11811J-29198D01*
G01*
X43635Y611005D02*
G03*
X40139Y614502I-23950J-20454D01*
G01*
X-769D02*
G03*
X-4265Y611005I20454J-23950D01*
G01*
X-66929Y619749D02*
G03*
X-90551Y619749I-11811J-29198D01*
G01*
X-58286Y614502D02*
G03*
X-66929Y619749I-20454J-23950D01*
G01*
X-90551D02*
G03*
X-99195Y614502I11811J-29198D01*
G01*
X-54790Y611005D02*
G03*
X-58286Y614502I-23950J-20454D01*
G01*
X-99195D02*
G03*
X-102691Y611005I20454J-23950D01*
G01*
X48883Y602362D02*
G03*
X43635Y611005I-29198J-11811D01*
G01*
X-4265D02*
G03*
X-9513Y602362I23950J-20454D01*
G01*
X50933Y594493D02*
G03*
X48883Y602362I-31248J-3942D01*
G01*
X-102691Y611005D02*
G03*
X-107938Y602362I23950J-20454D01*
G01*
X-47492Y594493D02*
G03*
X-49542Y602362I-31248J-3942D01*
G01*
D02*
G03*
X-54790Y611005I-29198J-11811D01*
G01*
X245733Y578740D02*
G03*
X247784Y586609I-29198J11811D01*
G01*
X187338Y602362D02*
G03*
X187338Y578740I29198J-11811D01*
G01*
X285763Y602362D02*
G03*
X285763Y578740I29198J-11811D01*
G01*
X240486Y570097D02*
G03*
X245733Y578740I-23950J20454D01*
G01*
X187338D02*
G03*
X192585Y570097I29198J11811D01*
G01*
X147308Y578740D02*
G03*
X149359Y586609I-29198J11811D01*
G01*
X142061Y570097D02*
G03*
X147308Y578740I-23950J20454D01*
G01*
X88913D02*
G03*
X94160Y570097I29198J11811D01*
G01*
X236990Y566601D02*
G03*
X240486Y570097I-20454J23950D01*
G01*
X196081Y566601D02*
G03*
X204724Y561353I20454J23950D01*
G01*
X192585Y570097D02*
G03*
X196081Y566601I23950J20454D01*
G01*
X228346Y561353D02*
G03*
X236990Y566601I-11811J29198D01*
G01*
X204724Y561353D02*
G03*
X228346Y561353I11811J29198D01*
G01*
X138565Y566601D02*
G03*
X142061Y570097I-20454J23950D01*
G01*
X97656Y566601D02*
G03*
X106299Y561353I20454J23950D01*
G01*
X94160Y570097D02*
G03*
X97656Y566601I23950J20454D01*
G01*
X129921Y561353D02*
G03*
X138565Y566601I-11811J29198D01*
G01*
X106299Y561353D02*
G03*
X129921Y561353I11811J29198D01*
G01*
X48883Y578740D02*
G03*
X50933Y586609I-29198J11811D01*
G01*
X88913Y602362D02*
G03*
X88913Y578740I29198J-11811D01*
G01*
X43635Y570097D02*
G03*
X48883Y578740I-23950J20454D01*
G01*
X-9513D02*
G03*
X-4265Y570097I29198J11811D01*
G01*
X-49542Y578740D02*
G03*
X-47492Y586609I-29198J11811D01*
G01*
X-107938Y602362D02*
G03*
X-107938Y578740I29198J-11811D01*
G01*
X-9513Y602362D02*
G03*
X-9513Y578740I29198J-11811D01*
G01*
X-54790Y570097D02*
G03*
X-49542Y578740I-23950J20454D01*
G01*
X-107938D02*
G03*
X-102691Y570097I29198J11811D01*
G01*
X40139Y566601D02*
G03*
X43635Y570097I-20454J23950D01*
G01*
X-769Y566601D02*
G03*
X7874Y561353I20454J23950D01*
G01*
X-4265Y570097D02*
G03*
X-769Y566601I23950J20454D01*
G01*
X31496Y561353D02*
G03*
X40139Y566601I-11811J29198D01*
G01*
X7874Y561353D02*
G03*
X31496Y561353I11811J29198D01*
G01*
X-58286Y566601D02*
G03*
X-54790Y570097I-20454J23950D01*
G01*
X-99195Y566601D02*
G03*
X-90551Y561353I20454J23950D01*
G01*
X-102691Y570097D02*
G03*
X-99195Y566601I23950J20454D01*
G01*
X-66929Y561353D02*
G03*
X-58286Y566601I-11811J29198D01*
G01*
X-90551Y561353D02*
G03*
X-66929Y561353I11811J29198D01*
G01*
X234252Y0D02*
G03*
X234252Y0I-17717J0D01*
G01*
X135827D02*
G03*
X135827Y0I-17717J0D01*
G01*
X37402D02*
G03*
X37402Y0I-17717J0D01*
G01*
X-61024D02*
G03*
X-61024Y0I-17717J0D01*
G01*
X234252Y98425D02*
G03*
X234252Y98425I-17717J0D01*
G01*
X135827D02*
G03*
X135827Y98425I-17717J0D01*
G01*
X37402D02*
G03*
X37402Y98425I-17717J0D01*
G01*
X-61024D02*
G03*
X-61024Y98425I-17717J0D01*
G01*
X234252Y196850D02*
G03*
X234252Y196850I-17717J0D01*
G01*
X135827D02*
G03*
X135827Y196850I-17717J0D01*
G01*
X37402D02*
G03*
X37402Y196850I-17717J0D01*
G01*
X-61024D02*
G03*
X-61024Y196850I-17717J0D01*
G01*
X234252Y295276D02*
G03*
X234252Y295276I-17717J0D01*
G01*
X135827D02*
G03*
X135827Y295276I-17717J0D01*
G01*
X37402D02*
G03*
X37402Y295276I-17717J0D01*
G01*
X-61024D02*
G03*
X-61024Y295276I-17717J0D01*
G01*
X234252Y393701D02*
G03*
X234252Y393701I-17717J0D01*
G01*
X135827D02*
G03*
X135827Y393701I-17717J0D01*
G01*
X37402D02*
G03*
X37402Y393701I-17717J0D01*
G01*
X-61024D02*
G03*
X-61024Y393701I-17717J0D01*
G01*
X234252Y492126D02*
G03*
X234252Y492126I-17717J0D01*
G01*
X135827D02*
G03*
X135827Y492126I-17717J0D01*
G01*
X37402D02*
G03*
X37402Y492126I-17717J0D01*
G01*
X-61024D02*
G03*
X-61024Y492126I-17717J0D01*
G01*
X234252Y590551D02*
G03*
X234252Y590551I-17717J0D01*
G01*
X135827D02*
G03*
X135827Y590551I-17717J0D01*
G01*
X37402D02*
G03*
X37402Y590551I-17717J0D01*
G01*
X-61024D02*
G03*
X-61024Y590551I-17717J0D01*
G01*
X234252Y688976D02*
G03*
X234252Y688976I-17717J0D01*
G01*
X135827D02*
G03*
X135827Y688976I-17717J0D01*
G01*
X37402D02*
G03*
X37402Y688976I-17717J0D01*
G01*
X-61024D02*
G03*
X-61024Y688976I-17717J0D01*
G01*
X627953Y0D02*
G03*
X627953Y0I-17717J0D01*
G01*
X529528D02*
G03*
X529528Y0I-17717J0D01*
G01*
X431102D02*
G03*
X431102Y0I-17717J0D01*
G01*
X332677D02*
G03*
X332677Y0I-17717J0D01*
G01*
X627953Y98425D02*
G03*
X627953Y98425I-17717J0D01*
G01*
X529528D02*
G03*
X529528Y98425I-17717J0D01*
G01*
X431102D02*
G03*
X431102Y98425I-17717J0D01*
G01*
X332677D02*
G03*
X332677Y98425I-17717J0D01*
G01*
X627953Y196850D02*
G03*
X627953Y196850I-17717J0D01*
G01*
X529528D02*
G03*
X529528Y196850I-17717J0D01*
G01*
X431102D02*
G03*
X431102Y196850I-17717J0D01*
G01*
X332677D02*
G03*
X332677Y196850I-17717J0D01*
G01*
X627953Y295276D02*
G03*
X627953Y295276I-17717J0D01*
G01*
X529528D02*
G03*
X529528Y295276I-17717J0D01*
G01*
X431102D02*
G03*
X431102Y295276I-17717J0D01*
G01*
X332677D02*
G03*
X332677Y295276I-17717J0D01*
G01*
X627953Y393701D02*
G03*
X627953Y393701I-17717J0D01*
G01*
X529528D02*
G03*
X529528Y393701I-17717J0D01*
G01*
X431102D02*
G03*
X431102Y393701I-17717J0D01*
G01*
X332677D02*
G03*
X332677Y393701I-17717J0D01*
G01*
X627953Y492126D02*
G03*
X627953Y492126I-17717J0D01*
G01*
X529528D02*
G03*
X529528Y492126I-17717J0D01*
G01*
X431102D02*
G03*
X431102Y492126I-17717J0D01*
G01*
X332677D02*
G03*
X332677Y492126I-17717J0D01*
G01*
X627953Y590551D02*
G03*
X627953Y590551I-17717J0D01*
G01*
X529528D02*
G03*
X529528Y590551I-17717J0D01*
G01*
X431102D02*
G03*
X431102Y590551I-17717J0D01*
G01*
X332677D02*
G03*
X332677Y590551I-17717J0D01*
G01*
X627953Y688976D02*
G03*
X627953Y688976I-17717J0D01*
G01*
X529528D02*
G03*
X529528Y688976I-17717J0D01*
G01*
X431102D02*
G03*
X431102Y688976I-17717J0D01*
G01*
X332677D02*
G03*
X332677Y688976I-17717J0D01*
G01*
D29*
X275787Y743514D02*
D03*
X274606D02*
D03*
X272638Y743514D02*
D03*
X270669D02*
D03*
X268701Y743514D02*
D03*
X266732D02*
D03*
X264764D02*
D03*
X262795D02*
D03*
X260827Y743514D02*
D03*
X258858Y743514D02*
D03*
X256890D02*
D03*
X255709D02*
D03*
X252461D02*
D03*
X253642D02*
D03*
X277854D02*
D03*
X279035D02*
D03*
D30*
X245787Y747116D02*
D03*
X285709D02*
D03*
D31*
X285709Y763573D02*
D03*
X245787D02*
D03*
D32*
X341339Y744193D02*
D03*
X339764D02*
D03*
X335039D02*
D03*
X338189D02*
D03*
X331890D02*
D03*
X333465D02*
D03*
X336614D02*
D03*
X341339Y759744D02*
D03*
X339764D02*
D03*
X338189D02*
D03*
X336614D02*
D03*
X335039D02*
D03*
X333465D02*
D03*
X331890D02*
D03*
D33*
X344390Y747244D02*
D03*
Y748819D02*
D03*
Y750394D02*
D03*
Y751968D02*
D03*
Y753543D02*
D03*
Y755118D02*
D03*
Y756693D02*
D03*
X328839D02*
D03*
Y755118D02*
D03*
Y753543D02*
D03*
Y751968D02*
D03*
Y750394D02*
D03*
Y748819D02*
D03*
Y747244D02*
D03*
D34*
X336614Y751968D02*
D03*
D35*
X298031Y753937D02*
D03*
Y740551D02*
D03*
D36*
X318111Y741929D02*
D03*
Y748622D02*
D03*
X312599Y741929D02*
D03*
Y748622D02*
D03*
X307087D02*
D03*
X307087Y741929D02*
D03*
X237008Y749015D02*
D03*
X237008Y742322D02*
D03*
X231102Y742323D02*
D03*
X231102Y749016D02*
D03*
D37*
X410039Y-8268D02*
D03*
X416732D02*
D03*
X508464D02*
D03*
X515157D02*
D03*
X16338D02*
D03*
X23031D02*
D03*
X-82087D02*
D03*
X-75394D02*
D03*
X114763D02*
D03*
X121456D02*
D03*
X311614D02*
D03*
X318307D02*
D03*
X213189D02*
D03*
X219882D02*
D03*
X606889D02*
D03*
X613582D02*
D03*
X606889Y90157D02*
D03*
X613582D02*
D03*
X508464D02*
D03*
X515157D02*
D03*
X410039D02*
D03*
X416732D02*
D03*
X311614D02*
D03*
X318307D02*
D03*
X213189D02*
D03*
X219882D02*
D03*
X114763D02*
D03*
X121456D02*
D03*
X16338D02*
D03*
X23031D02*
D03*
X-82087D02*
D03*
X-75394D02*
D03*
X606889Y188582D02*
D03*
X613582D02*
D03*
X508464D02*
D03*
X515157D02*
D03*
X410039D02*
D03*
X416732D02*
D03*
X311614D02*
D03*
X318307D02*
D03*
X213189D02*
D03*
X219882D02*
D03*
X114763D02*
D03*
X121456D02*
D03*
X16338D02*
D03*
X23031D02*
D03*
X-82087D02*
D03*
X-75394D02*
D03*
X606889Y287007D02*
D03*
X613582D02*
D03*
X508464D02*
D03*
X515157D02*
D03*
X410039D02*
D03*
X416732D02*
D03*
X311614D02*
D03*
X318307D02*
D03*
X213189D02*
D03*
X219882D02*
D03*
X114763D02*
D03*
X121456D02*
D03*
X16338D02*
D03*
X23031D02*
D03*
X-82087D02*
D03*
X-75394D02*
D03*
X606889Y385433D02*
D03*
X613582D02*
D03*
X508464D02*
D03*
X515157D02*
D03*
X410039D02*
D03*
X416732D02*
D03*
X311614D02*
D03*
X318307D02*
D03*
X213189D02*
D03*
X219882D02*
D03*
X114763D02*
D03*
X121456D02*
D03*
X16338D02*
D03*
X23031D02*
D03*
X-82087D02*
D03*
X-75394D02*
D03*
X606889Y483858D02*
D03*
X613582D02*
D03*
X508464D02*
D03*
X515157D02*
D03*
X410039D02*
D03*
X416732D02*
D03*
X311614D02*
D03*
X318307D02*
D03*
X213189D02*
D03*
X219882D02*
D03*
X114763D02*
D03*
X121456D02*
D03*
X16338D02*
D03*
X23031D02*
D03*
X-82087D02*
D03*
X-75394D02*
D03*
X606889Y582283D02*
D03*
X613582D02*
D03*
X508464D02*
D03*
X515157D02*
D03*
X410039D02*
D03*
X416732D02*
D03*
X311614D02*
D03*
X318307D02*
D03*
X213189D02*
D03*
X219882D02*
D03*
X114763D02*
D03*
X121456D02*
D03*
X16338D02*
D03*
X23031D02*
D03*
X-82087D02*
D03*
X-75394D02*
D03*
X606889Y680708D02*
D03*
X613582D02*
D03*
X508464D02*
D03*
X515157D02*
D03*
X410039D02*
D03*
X416732D02*
D03*
X311614D02*
D03*
X318307D02*
D03*
X213189D02*
D03*
X219882D02*
D03*
X114763D02*
D03*
X121456D02*
D03*
X23031D02*
D03*
X16338D02*
D03*
X-75394D02*
D03*
X-82087D02*
D03*
D38*
X613839Y2165D02*
D03*
X606634D02*
D03*
Y-2165D02*
D03*
X613839D02*
D03*
Y100591D02*
D03*
X606634D02*
D03*
Y96260D02*
D03*
X613839D02*
D03*
Y199016D02*
D03*
X606634D02*
D03*
Y194685D02*
D03*
X613839D02*
D03*
Y297441D02*
D03*
X606634D02*
D03*
Y293110D02*
D03*
X613839D02*
D03*
Y395866D02*
D03*
X606634D02*
D03*
Y391535D02*
D03*
X613839D02*
D03*
Y494291D02*
D03*
X606634D02*
D03*
Y489961D02*
D03*
X613839D02*
D03*
Y592717D02*
D03*
X606634D02*
D03*
Y588386D02*
D03*
X613839D02*
D03*
Y691142D02*
D03*
X606634D02*
D03*
Y686811D02*
D03*
X613839D02*
D03*
X515413Y2165D02*
D03*
X508209D02*
D03*
Y-2165D02*
D03*
X515413D02*
D03*
Y100591D02*
D03*
X508209D02*
D03*
Y96260D02*
D03*
X515413D02*
D03*
Y199016D02*
D03*
X508209D02*
D03*
Y194685D02*
D03*
X515413D02*
D03*
Y297441D02*
D03*
X508209D02*
D03*
Y293110D02*
D03*
X515413D02*
D03*
Y395866D02*
D03*
X508209D02*
D03*
Y391535D02*
D03*
X515413D02*
D03*
Y494291D02*
D03*
X508209D02*
D03*
Y489961D02*
D03*
X515413D02*
D03*
Y592717D02*
D03*
X508209D02*
D03*
Y588386D02*
D03*
X515413D02*
D03*
Y691142D02*
D03*
X508209D02*
D03*
Y686811D02*
D03*
X515413D02*
D03*
X416988Y2165D02*
D03*
X409784D02*
D03*
Y-2165D02*
D03*
X416988D02*
D03*
Y100591D02*
D03*
X409784D02*
D03*
Y96260D02*
D03*
X416988D02*
D03*
Y199016D02*
D03*
X409784D02*
D03*
Y194685D02*
D03*
X416988D02*
D03*
Y297441D02*
D03*
X409784D02*
D03*
Y293110D02*
D03*
X416988D02*
D03*
Y395866D02*
D03*
X409784D02*
D03*
Y391535D02*
D03*
X416988D02*
D03*
Y494291D02*
D03*
X409784D02*
D03*
Y489961D02*
D03*
X416988D02*
D03*
Y592717D02*
D03*
X409784D02*
D03*
Y588386D02*
D03*
X416988D02*
D03*
Y691142D02*
D03*
X409784D02*
D03*
Y686811D02*
D03*
X416988D02*
D03*
X318563Y2165D02*
D03*
X311358D02*
D03*
Y-2165D02*
D03*
X318563D02*
D03*
Y100591D02*
D03*
X311358D02*
D03*
Y96260D02*
D03*
X318563D02*
D03*
Y199016D02*
D03*
X311358D02*
D03*
Y194685D02*
D03*
X318563D02*
D03*
Y297441D02*
D03*
X311358D02*
D03*
Y293110D02*
D03*
X318563D02*
D03*
Y395866D02*
D03*
X311358D02*
D03*
Y391535D02*
D03*
X318563D02*
D03*
Y494291D02*
D03*
X311358D02*
D03*
Y489961D02*
D03*
X318563D02*
D03*
Y592717D02*
D03*
X311358D02*
D03*
Y588386D02*
D03*
X318563D02*
D03*
Y691142D02*
D03*
X311358D02*
D03*
Y686811D02*
D03*
X318563D02*
D03*
X220138Y2165D02*
D03*
X212933D02*
D03*
Y-2165D02*
D03*
X220138D02*
D03*
Y100591D02*
D03*
X212933D02*
D03*
Y96260D02*
D03*
X220138D02*
D03*
Y199016D02*
D03*
X212933D02*
D03*
Y194685D02*
D03*
X220138D02*
D03*
Y297441D02*
D03*
X212933D02*
D03*
Y293110D02*
D03*
X220138D02*
D03*
Y395866D02*
D03*
X212933D02*
D03*
Y391535D02*
D03*
X220138D02*
D03*
Y494291D02*
D03*
X212933D02*
D03*
Y489961D02*
D03*
X220138D02*
D03*
Y592717D02*
D03*
X212933D02*
D03*
Y588386D02*
D03*
X220138D02*
D03*
Y691142D02*
D03*
X212933D02*
D03*
Y686811D02*
D03*
X220138D02*
D03*
X121713Y2165D02*
D03*
X114508D02*
D03*
Y-2165D02*
D03*
X121713D02*
D03*
Y100591D02*
D03*
X114508D02*
D03*
Y96260D02*
D03*
X121713D02*
D03*
Y199016D02*
D03*
X114508D02*
D03*
Y194685D02*
D03*
X121713D02*
D03*
Y297441D02*
D03*
X114508D02*
D03*
Y293110D02*
D03*
X121713D02*
D03*
Y395866D02*
D03*
X114508D02*
D03*
Y391535D02*
D03*
X121713D02*
D03*
Y494291D02*
D03*
X114508D02*
D03*
Y489961D02*
D03*
X121713D02*
D03*
Y592717D02*
D03*
X114508D02*
D03*
Y588386D02*
D03*
X121713D02*
D03*
Y691142D02*
D03*
X114508D02*
D03*
Y686811D02*
D03*
X121713D02*
D03*
X23287Y2165D02*
D03*
X16083D02*
D03*
Y-2165D02*
D03*
X23287D02*
D03*
Y100591D02*
D03*
X16083D02*
D03*
Y96260D02*
D03*
X23287D02*
D03*
Y199016D02*
D03*
X16083D02*
D03*
Y194685D02*
D03*
X23287D02*
D03*
Y297441D02*
D03*
X16083D02*
D03*
Y293110D02*
D03*
X23287D02*
D03*
Y395866D02*
D03*
X16083D02*
D03*
Y391535D02*
D03*
X23287D02*
D03*
Y494291D02*
D03*
X16083D02*
D03*
Y489961D02*
D03*
X23287D02*
D03*
Y592717D02*
D03*
X16083D02*
D03*
Y588386D02*
D03*
X23287D02*
D03*
Y691142D02*
D03*
X16083D02*
D03*
Y686811D02*
D03*
X23287D02*
D03*
X-75138Y2165D02*
D03*
X-82342D02*
D03*
Y-2165D02*
D03*
X-75138D02*
D03*
Y100591D02*
D03*
X-82342D02*
D03*
Y96260D02*
D03*
X-75138D02*
D03*
Y199016D02*
D03*
X-82342D02*
D03*
Y194685D02*
D03*
X-75138D02*
D03*
Y297441D02*
D03*
X-82342D02*
D03*
Y293110D02*
D03*
X-75138D02*
D03*
Y395866D02*
D03*
X-82342D02*
D03*
Y391535D02*
D03*
X-75138D02*
D03*
Y494291D02*
D03*
X-82342D02*
D03*
Y489961D02*
D03*
X-75138D02*
D03*
Y592717D02*
D03*
X-82342D02*
D03*
Y588386D02*
D03*
X-75138D02*
D03*
Y691142D02*
D03*
X-82342D02*
D03*
Y686811D02*
D03*
X-75138D02*
D03*
D39*
X310472Y9055D02*
D03*
X319449D02*
D03*
X408898D02*
D03*
X417874D02*
D03*
X507323D02*
D03*
X516299D02*
D03*
X605748D02*
D03*
X614724D02*
D03*
X310472Y107480D02*
D03*
X319449D02*
D03*
X408898D02*
D03*
X417874D02*
D03*
X507323D02*
D03*
X516299D02*
D03*
X605748D02*
D03*
X614724D02*
D03*
X310472Y205906D02*
D03*
X319449D02*
D03*
X408898D02*
D03*
X417874D02*
D03*
X507323D02*
D03*
X516299D02*
D03*
X605748D02*
D03*
X614724D02*
D03*
X310472Y304331D02*
D03*
X319449D02*
D03*
X408898D02*
D03*
X417874D02*
D03*
X507323D02*
D03*
X516299D02*
D03*
X605748D02*
D03*
X614724D02*
D03*
X310472Y402756D02*
D03*
X319449D02*
D03*
X408898D02*
D03*
X417874D02*
D03*
X507323D02*
D03*
X516299D02*
D03*
X605748D02*
D03*
X614724D02*
D03*
X310472Y501181D02*
D03*
X319449D02*
D03*
X408898D02*
D03*
X417874D02*
D03*
X507323D02*
D03*
X516299D02*
D03*
X605748D02*
D03*
X614724D02*
D03*
X310472Y599606D02*
D03*
X319449D02*
D03*
X408898D02*
D03*
X417874D02*
D03*
X507323D02*
D03*
X516299D02*
D03*
X605748D02*
D03*
X614724D02*
D03*
X310472Y698032D02*
D03*
X319449D02*
D03*
X408898D02*
D03*
X417874D02*
D03*
X507323D02*
D03*
X516299D02*
D03*
X605748D02*
D03*
X614724D02*
D03*
X-83228Y9055D02*
D03*
X-74252D02*
D03*
X15197D02*
D03*
X24173D02*
D03*
X113622D02*
D03*
X122598D02*
D03*
X212047D02*
D03*
X221024D02*
D03*
X-83228Y107480D02*
D03*
X-74252D02*
D03*
X15197D02*
D03*
X24173D02*
D03*
X113622D02*
D03*
X122598D02*
D03*
X212047D02*
D03*
X221024D02*
D03*
X-83228Y205906D02*
D03*
X-74252D02*
D03*
X15197D02*
D03*
X24173D02*
D03*
X113622D02*
D03*
X122598D02*
D03*
X212047D02*
D03*
X221024D02*
D03*
X-83228Y304331D02*
D03*
X-74252D02*
D03*
X15197D02*
D03*
X24173D02*
D03*
X113622D02*
D03*
X122598D02*
D03*
X212047D02*
D03*
X221024D02*
D03*
X-83228Y402756D02*
D03*
X-74252D02*
D03*
X15197D02*
D03*
X24173D02*
D03*
X113622D02*
D03*
X122598D02*
D03*
X212047D02*
D03*
X221024D02*
D03*
X-83228Y501181D02*
D03*
X-74252D02*
D03*
X15197D02*
D03*
X24173D02*
D03*
X113622D02*
D03*
X122598D02*
D03*
X212047D02*
D03*
X221024D02*
D03*
X-83228Y599606D02*
D03*
X-74252D02*
D03*
X15197D02*
D03*
X24173D02*
D03*
X113622D02*
D03*
X122598D02*
D03*
X212047D02*
D03*
X221024D02*
D03*
X-83228Y698032D02*
D03*
X-74252D02*
D03*
X15197D02*
D03*
X24173D02*
D03*
X113622D02*
D03*
X122598D02*
D03*
X212047D02*
D03*
X221024D02*
D03*
D40*
X300748Y762598D02*
D03*
X220748D02*
D03*
D41*
X310748D02*
D03*
X230748D02*
D03*
D42*
X277126Y749205D02*
D03*
X254370D02*
D03*
D43*
X265748Y541339D02*
D03*
Y147638D02*
D03*
X649606Y728346D02*
D03*
Y-39370D02*
D03*
X-118110D02*
D03*
Y728346D02*
D03*
D44*
X-78740Y246063D02*
D03*
X-29528Y295276D02*
D03*
Y196850D02*
D03*
X19685Y246063D02*
D03*
X255906Y-39370D02*
D03*
X-118110D02*
D03*
X118110Y246063D02*
D03*
X167323Y295276D02*
D03*
Y196850D02*
D03*
X216535Y246063D02*
D03*
X118110Y49213D02*
D03*
X167323Y98425D02*
D03*
Y0D02*
D03*
X216535Y49213D02*
D03*
X-78740D02*
D03*
X-29528Y98425D02*
D03*
Y0D02*
D03*
X19685Y49213D02*
D03*
X-78740Y639764D02*
D03*
X-29528Y688976D02*
D03*
Y590551D02*
D03*
X19685Y639764D02*
D03*
X-118110Y728346D02*
D03*
X255906D02*
D03*
X118110Y639764D02*
D03*
X167323Y688976D02*
D03*
Y590551D02*
D03*
X216535Y639764D02*
D03*
X118110Y442913D02*
D03*
X167323Y492126D02*
D03*
Y393701D02*
D03*
X216535Y442913D02*
D03*
X-78740D02*
D03*
X-29528Y492126D02*
D03*
Y393701D02*
D03*
X19685Y442913D02*
D03*
X314961Y246063D02*
D03*
X364173Y295276D02*
D03*
Y196850D02*
D03*
X413386Y246063D02*
D03*
X649606Y-39370D02*
D03*
X275590D02*
D03*
X511811Y246063D02*
D03*
X561024Y295276D02*
D03*
Y196850D02*
D03*
X610236Y246063D02*
D03*
X511811Y49213D02*
D03*
X561024Y98425D02*
D03*
Y0D02*
D03*
X610236Y49213D02*
D03*
X314961D02*
D03*
X364173Y98425D02*
D03*
Y0D02*
D03*
X413386Y49213D02*
D03*
X314961Y639764D02*
D03*
X364173Y688976D02*
D03*
Y590551D02*
D03*
X413386Y639764D02*
D03*
X275590Y728346D02*
D03*
X649606D02*
D03*
X511811Y639764D02*
D03*
X561024Y688976D02*
D03*
Y590551D02*
D03*
X610236Y639764D02*
D03*
X511811Y442913D02*
D03*
X561024Y492126D02*
D03*
Y393701D02*
D03*
X610236Y442913D02*
D03*
X314961D02*
D03*
X364173Y492126D02*
D03*
Y393701D02*
D03*
X413386Y442913D02*
D03*
D45*
X-118110Y334646D02*
D03*
X255906D02*
D03*
Y354331D02*
D03*
X-118110D02*
D03*
X275590Y334646D02*
D03*
X649606D02*
D03*
Y354331D02*
D03*
X275590D02*
D03*
D46*
X200787Y762205D02*
D03*
X220748Y729134D02*
D03*
X323228Y762517D02*
D03*
X325590Y760236D02*
D03*
X70866Y440158D02*
D03*
X67323Y349213D02*
D03*
X264713Y249130D02*
D03*
X174016Y259449D02*
D03*
X177559Y339370D02*
D03*
X361417Y338583D02*
D03*
X380709Y442126D02*
D03*
X268332Y442969D02*
D03*
X178347Y440945D02*
D03*
X165748Y634646D02*
D03*
X461417Y630315D02*
D03*
X364918Y629270D02*
D03*
X271260Y633465D02*
D03*
X671687Y736615D02*
D03*
X637731Y747980D02*
D03*
X595736Y747703D02*
D03*
X554331Y746850D02*
D03*
X507866Y747841D02*
D03*
X461024Y748425D02*
D03*
X402394Y748395D02*
D03*
X373622Y751181D02*
D03*
X266535Y761024D02*
D03*
X181102Y744095D02*
D03*
X152835Y741054D02*
D03*
X113541Y743495D02*
D03*
X82284Y746850D02*
D03*
X26378Y749606D02*
D03*
X-49494Y744715D02*
D03*
X-102212Y744471D02*
D03*
X-126772Y701575D02*
D03*
X-109449Y635039D02*
D03*
X-125591Y607874D02*
D03*
X-129921Y554331D02*
D03*
X-121026Y525284D02*
D03*
X-139077Y466402D02*
D03*
X-121456Y389470D02*
D03*
X-136221Y317717D02*
D03*
X-116535Y276378D02*
D03*
X-132677Y229921D02*
D03*
X-127953Y155235D02*
D03*
X-116298Y128158D02*
D03*
X-129134Y79921D02*
D03*
X-120866Y32677D02*
D03*
X-132677Y-9055D02*
D03*
X-63386Y-52362D02*
D03*
X-38976Y-35039D02*
D03*
X12992Y-54331D02*
D03*
X65748Y-49606D02*
D03*
X148022Y-40749D02*
D03*
X218898Y-49606D02*
D03*
X305512Y-48425D02*
D03*
X360630Y-44094D02*
D03*
X421260Y-53150D02*
D03*
X461768Y-37740D02*
D03*
X529675Y-56651D02*
D03*
X612598Y-48425D02*
D03*
X666929Y-8268D02*
D03*
X668504Y149213D02*
D03*
X665748Y79921D02*
D03*
X669685Y206693D02*
D03*
X662992Y294882D02*
D03*
X666929Y403543D02*
D03*
X669356Y490471D02*
D03*
X668504Y574016D02*
D03*
X669685Y650394D02*
D03*
X515748Y651968D02*
D03*
X614173D02*
D03*
X417323D02*
D03*
X220472D02*
D03*
X318898D02*
D03*
X122047D02*
D03*
X23622D02*
D03*
X-74803D02*
D03*
X-94095D02*
D03*
X323622Y745669D02*
D03*
X312599Y737008D02*
D03*
X275197Y738829D02*
D03*
X256299D02*
D03*
X245787Y741211D02*
D03*
X285709D02*
D03*
X279803Y763573D02*
D03*
X251693D02*
D03*
X269291Y750141D02*
D03*
X262795Y750197D02*
D03*
X332677Y748032D02*
D03*
X353937Y737795D02*
D03*
Y721260D02*
D03*
X318898Y724961D02*
D03*
X-89370Y690945D02*
D03*
X334011Y764552D02*
D03*
X330709Y764567D02*
D03*
X327939Y762326D02*
D03*
X343714D02*
D03*
X340945Y764567D02*
D03*
X337643Y764552D02*
D03*
X21654Y551657D02*
D03*
X16338Y529672D02*
D03*
X-82087D02*
D03*
X-76772Y551657D02*
D03*
X114763Y529672D02*
D03*
X120079Y551657D02*
D03*
X213189Y529672D02*
D03*
X218504Y551657D02*
D03*
X311614Y529672D02*
D03*
X316929Y551657D02*
D03*
X410039Y529672D02*
D03*
X415354Y551657D02*
D03*
X508464Y529672D02*
D03*
X513779Y551657D02*
D03*
X606889Y529672D02*
D03*
X612205Y551657D02*
D03*
Y157957D02*
D03*
X606889Y135971D02*
D03*
X513779Y157957D02*
D03*
X508464Y135971D02*
D03*
X415354Y157957D02*
D03*
X410039Y135971D02*
D03*
X316929Y157957D02*
D03*
X311614Y135971D02*
D03*
X218504Y157957D02*
D03*
X213189Y135971D02*
D03*
X120079Y157957D02*
D03*
X114763Y135971D02*
D03*
X-76772Y157957D02*
D03*
X-82087Y135971D02*
D03*
X16338D02*
D03*
X21654Y157957D02*
D03*
X518504Y96457D02*
D03*
X616929Y694488D02*
D03*
X523425Y-2165D02*
D03*
X518504Y694488D02*
D03*
X425000Y-2165D02*
D03*
X420079Y694488D02*
D03*
X326575Y-2165D02*
D03*
X321654Y694488D02*
D03*
X228150Y-2165D02*
D03*
X223228Y694488D02*
D03*
X129724Y-2165D02*
D03*
X124803Y694488D02*
D03*
X31299Y-2165D02*
D03*
X-67126D02*
D03*
X26378Y694488D02*
D03*
X124803D02*
D03*
X223228D02*
D03*
X321654D02*
D03*
X420079D02*
D03*
X518504D02*
D03*
X616929D02*
D03*
X-75394Y86221D02*
D03*
X-82087D02*
D03*
X-86221Y107480D02*
D03*
X-72047Y103937D02*
D03*
Y96457D02*
D03*
X26378D02*
D03*
Y103937D02*
D03*
X12205Y107480D02*
D03*
X16338Y86221D02*
D03*
X23031D02*
D03*
X-72047Y5512D02*
D03*
X-86221Y9055D02*
D03*
X-82087Y-12205D02*
D03*
X-75394D02*
D03*
X26378Y5512D02*
D03*
X12205Y9055D02*
D03*
X16338Y-12205D02*
D03*
X23031D02*
D03*
X124803Y96457D02*
D03*
Y103937D02*
D03*
X110630Y107480D02*
D03*
X114763Y86221D02*
D03*
X121456D02*
D03*
X124803Y5512D02*
D03*
X110630Y9055D02*
D03*
X114763Y-12205D02*
D03*
X121456D02*
D03*
X223228Y96457D02*
D03*
Y103937D02*
D03*
X209055Y107480D02*
D03*
X213189Y86221D02*
D03*
X219882D02*
D03*
X223228Y5512D02*
D03*
X209055Y9055D02*
D03*
X213189Y-12205D02*
D03*
X219882D02*
D03*
X613582D02*
D03*
X606889D02*
D03*
X602756Y9055D02*
D03*
X616929Y5512D02*
D03*
X613582Y86221D02*
D03*
X606889D02*
D03*
X602756Y107480D02*
D03*
X616929Y103937D02*
D03*
Y96457D02*
D03*
X515157Y-12205D02*
D03*
X508464D02*
D03*
X504331Y9055D02*
D03*
X518504Y5512D02*
D03*
X515157Y86221D02*
D03*
X508464D02*
D03*
X504331Y107480D02*
D03*
X518504Y103937D02*
D03*
X416732Y-12205D02*
D03*
X410039D02*
D03*
X405905Y9055D02*
D03*
X420079Y5512D02*
D03*
X318307Y-12205D02*
D03*
X311614D02*
D03*
X307480Y9055D02*
D03*
X321654Y5512D02*
D03*
X416732Y86221D02*
D03*
X410039D02*
D03*
X405905Y107480D02*
D03*
X420079Y103937D02*
D03*
Y96457D02*
D03*
X321654D02*
D03*
Y103937D02*
D03*
X307480Y107480D02*
D03*
X311614Y86221D02*
D03*
X318307D02*
D03*
X-75394Y283071D02*
D03*
X-82087D02*
D03*
X-86221Y304331D02*
D03*
X-72047Y300787D02*
D03*
Y293307D02*
D03*
X26378D02*
D03*
Y300787D02*
D03*
X12205Y304331D02*
D03*
X16338Y283071D02*
D03*
X23031D02*
D03*
X-72047Y194882D02*
D03*
Y202362D02*
D03*
X-86221Y205906D02*
D03*
X-82087Y184646D02*
D03*
X-75394D02*
D03*
X26378Y194882D02*
D03*
Y202362D02*
D03*
X12205Y205906D02*
D03*
X16338Y184646D02*
D03*
X23031D02*
D03*
X124803Y293307D02*
D03*
Y300787D02*
D03*
X110630Y304331D02*
D03*
X114763Y283071D02*
D03*
X121456D02*
D03*
X124803Y194882D02*
D03*
Y202362D02*
D03*
X110630Y205906D02*
D03*
X114763Y184646D02*
D03*
X121456D02*
D03*
X223228Y293307D02*
D03*
Y300787D02*
D03*
X209055Y304331D02*
D03*
X213189Y283071D02*
D03*
X219882D02*
D03*
X223228Y194882D02*
D03*
Y202362D02*
D03*
X209055Y205906D02*
D03*
X213189Y184646D02*
D03*
X219882D02*
D03*
X613582D02*
D03*
X606889D02*
D03*
X602756Y205906D02*
D03*
X616929Y202362D02*
D03*
Y194882D02*
D03*
X613582Y283071D02*
D03*
X606889D02*
D03*
X602756Y304331D02*
D03*
X616929Y300787D02*
D03*
Y293307D02*
D03*
X515157Y184646D02*
D03*
X508464D02*
D03*
X504331Y205906D02*
D03*
X518504Y202362D02*
D03*
Y194882D02*
D03*
X515157Y283071D02*
D03*
X508464D02*
D03*
X504331Y304331D02*
D03*
X518504Y300787D02*
D03*
Y293307D02*
D03*
X416732Y184646D02*
D03*
X410039D02*
D03*
X405905Y205906D02*
D03*
X420079Y202362D02*
D03*
Y194882D02*
D03*
X318307Y184646D02*
D03*
X311614D02*
D03*
X307480Y205906D02*
D03*
X321654Y202362D02*
D03*
Y194882D02*
D03*
X416732Y283071D02*
D03*
X410039D02*
D03*
X405905Y304331D02*
D03*
X420079Y300787D02*
D03*
Y293307D02*
D03*
X321654D02*
D03*
Y300787D02*
D03*
X307480Y304331D02*
D03*
X311614Y283071D02*
D03*
X318307D02*
D03*
X-75394Y479921D02*
D03*
X-82087D02*
D03*
X-86221Y501181D02*
D03*
X-72047Y497638D02*
D03*
Y490158D02*
D03*
X26378D02*
D03*
Y497638D02*
D03*
X12205Y501181D02*
D03*
X16338Y479921D02*
D03*
X23031D02*
D03*
X-72047Y391732D02*
D03*
Y399213D02*
D03*
X-86221Y402756D02*
D03*
X-82087Y381496D02*
D03*
X-75394D02*
D03*
X26378Y391732D02*
D03*
Y399213D02*
D03*
X12205Y402756D02*
D03*
X16338Y381496D02*
D03*
X23031D02*
D03*
X124803Y490158D02*
D03*
Y497638D02*
D03*
X110630Y501181D02*
D03*
X114763Y479921D02*
D03*
X121456D02*
D03*
X124803Y391732D02*
D03*
Y399213D02*
D03*
X110630Y402756D02*
D03*
X114763Y381496D02*
D03*
X121456D02*
D03*
X223228Y490158D02*
D03*
Y497638D02*
D03*
X209055Y501181D02*
D03*
X213189Y479921D02*
D03*
X219882D02*
D03*
X223228Y391732D02*
D03*
Y399213D02*
D03*
X209055Y402756D02*
D03*
X213189Y381496D02*
D03*
X219882D02*
D03*
X613582D02*
D03*
X606889D02*
D03*
X602756Y402756D02*
D03*
X616929Y399213D02*
D03*
Y391732D02*
D03*
X613582Y479921D02*
D03*
X606889D02*
D03*
X602756Y501181D02*
D03*
X616929Y497638D02*
D03*
Y490158D02*
D03*
X515157Y381496D02*
D03*
X508464D02*
D03*
X504331Y402756D02*
D03*
X518504Y399213D02*
D03*
Y391732D02*
D03*
X515157Y479921D02*
D03*
X508464D02*
D03*
X504331Y501181D02*
D03*
X518504Y497638D02*
D03*
Y490158D02*
D03*
X416732Y381496D02*
D03*
X410039D02*
D03*
X405905Y402756D02*
D03*
X420079Y399213D02*
D03*
Y391732D02*
D03*
X318307Y381496D02*
D03*
X311614D02*
D03*
X307480Y402756D02*
D03*
X321654Y399213D02*
D03*
Y391732D02*
D03*
X416732Y479921D02*
D03*
X410039D02*
D03*
X405905Y501181D02*
D03*
X420079Y497638D02*
D03*
Y490158D02*
D03*
X321654D02*
D03*
Y497638D02*
D03*
X307480Y501181D02*
D03*
X311614Y479921D02*
D03*
X318307D02*
D03*
Y676772D02*
D03*
X311614D02*
D03*
X307480Y698032D02*
D03*
X321654Y687008D02*
D03*
X420079D02*
D03*
X405905Y698032D02*
D03*
X410039Y676772D02*
D03*
X416732D02*
D03*
X321654Y588583D02*
D03*
Y596063D02*
D03*
X307480Y599606D02*
D03*
X311614Y578346D02*
D03*
X318307D02*
D03*
X420079Y588583D02*
D03*
Y596063D02*
D03*
X405905Y599606D02*
D03*
X410039Y578346D02*
D03*
X416732D02*
D03*
X518504Y687008D02*
D03*
X504331Y698032D02*
D03*
X508464Y676772D02*
D03*
X515157D02*
D03*
X518504Y588583D02*
D03*
Y596063D02*
D03*
X504331Y599606D02*
D03*
X508464Y578346D02*
D03*
X515157D02*
D03*
X616929Y687008D02*
D03*
X602756Y698032D02*
D03*
X606889Y676772D02*
D03*
X613582D02*
D03*
X616929Y588583D02*
D03*
Y596063D02*
D03*
X602756Y599606D02*
D03*
X606889Y578346D02*
D03*
X613582D02*
D03*
X219882D02*
D03*
X213189D02*
D03*
X209055Y599606D02*
D03*
X223228Y596063D02*
D03*
Y588583D02*
D03*
X219882Y676772D02*
D03*
X213189D02*
D03*
X209055Y698032D02*
D03*
X223228Y687008D02*
D03*
X121456Y578346D02*
D03*
X114763D02*
D03*
X110630Y599606D02*
D03*
X124803Y596063D02*
D03*
Y588583D02*
D03*
X121456Y676772D02*
D03*
X114763D02*
D03*
X110630Y698032D02*
D03*
X124803Y687008D02*
D03*
X23031Y578346D02*
D03*
X16338D02*
D03*
X12205Y599606D02*
D03*
X26378Y596063D02*
D03*
Y588583D02*
D03*
X-75394Y578346D02*
D03*
X-82087D02*
D03*
X-86221Y599606D02*
D03*
X-72047Y596063D02*
D03*
Y588583D02*
D03*
X23031Y676772D02*
D03*
X16338D02*
D03*
X12205Y698032D02*
D03*
X26378Y687008D02*
D03*
X-72047D02*
D03*
X-86221Y698032D02*
D03*
X-82087Y676772D02*
D03*
X-75394D02*
D03*
M02*
