M48
;Layer_Color=9474304
;FILE_FORMAT=2:5
INCH,LZ
;TYPE=PLATED
T01F00S00C0.00984
T02F00S00C0.03543
;TYPE=NON_PLATED
T03F00S00C0.02559
T04F00S00C0.11811
T05F00S00C0.12205
T06F00S00C0.12598
%
T01
X0612598Y-0048425
X0613582Y-0012205
X0606889
X0602756Y0009055
X0616929Y0005512
X0666929Y-0008268
X0523425Y-0002165
X0518504Y0005512
X0504331Y0009055
X0508464Y-0012205
X0515157
X0529675Y-0056651
X0461768Y-003774
X042126Y-005315
X0416732Y-0012205
X0410039
X0425Y-0002165
X0420079Y0005512
X0405905Y0009055
X0321654Y0005512
X0326575Y-0002165
X0318307Y-0012205
X0311614
X030748Y0009055
X0305512Y-0048425
X036063Y-0044094
X0218898Y-0049606
X0219882Y-0012205
X0213189
X022815Y-0002165
X0223228Y0005512
X0209055Y0009055
X0129724Y-0002165
X0148022Y-0040749
X0121456Y-0012205
X0114763
X011063Y0009055
X0124803Y0005512
X0026378
X0031299Y-0002165
X0023031Y-0012205
X0016338
X0012205Y0009055
X0012992Y-0054331
X0065748Y-0049606
X-0038976Y-0035039
X-0063386Y-0052362
X-0075394Y-0012205
X-0082087
X-0067126Y-0002165
X-0072047Y0005512
X-0086221Y0009055
X-0120866Y0032677
X-0132677Y-0009055
X-0129134Y0079921
X-0082087Y0086221
X-0075394
X-0072047Y0096457
Y0103937
X-0086221Y010748
X-0082087Y0135971
X-0076772Y0157957
X-0075394Y0184646
X-0082087
X-0072047Y0194882
Y0202362
X-0086221Y0205906
X-0127953Y0155235
X-0116298Y0128158
X0016338Y0135971
X0021654Y0157957
X0023031Y0184646
X0016338
X0026378Y0194882
Y0202362
X0012205Y0205906
Y010748
X0026378Y0103937
Y0096457
X0023031Y0086221
X0016338
X0114763
X0121456
X0124803Y0096457
Y0103937
X011063Y010748
X0114763Y0135971
X0120079Y0157957
X0121456Y0184646
X0114763
X0124803Y0194882
Y0202362
X011063Y0205906
X0209055
X0223228Y0202362
Y0194882
X0219882Y0184646
X0213189
X0218504Y0157957
X0213189Y0135971
X0209055Y010748
X0223228Y0103937
Y0096457
X0219882Y0086221
X0213189
X0311614
X0318307
X0321654Y0096457
Y0103937
X030748Y010748
X0311614Y0135971
X0316929Y0157957
X0318307Y0184646
X0311614
X0321654Y0194882
Y0202362
X030748Y0205906
X0405905
X0420079Y0202362
Y0194882
X0416732Y0184646
X0410039
X0415354Y0157957
X0410039Y0135971
X0405905Y010748
X0420079Y0103937
Y0096457
X0416732Y0086221
X0410039
X0508464
X0515157
X0518504Y0096457
Y0103937
X0504331Y010748
X0508464Y0135971
X0513779Y0157957
X0515157Y0184646
X0508464
X0518504Y0194882
Y0202362
X0504331Y0205906
X0602756
X0616929Y0202362
Y0194882
X0613582Y0184646
X0606889
X0612205Y0157957
X0606889Y0135971
X0602756Y010748
X0616929Y0103937
Y0096457
X0613582Y0086221
X0606889
X0665748Y0079921
X0668504Y0149213
X0669685Y0206693
X0662992Y0294882
X0616929Y0293307
Y0300787
X0602756Y0304331
X0606889Y0283071
X0613582
X0515157
X0508464
X0518504Y0293307
Y0300787
X0504331Y0304331
X0420079Y0300787
Y0293307
X0416732Y0283071
X0410039
X0405905Y0304331
X0361417Y0338583
X0321654Y0300787
Y0293307
X0318307Y0283071
X0311614
X030748Y0304331
X0223228Y0300787
Y0293307
X0219882Y0283071
X0213189
X0209055Y0304331
X0177559Y033937
X0174016Y0259449
X0264713Y024913
X0121456Y0283071
X0114763
X0124803Y0293307
Y0300787
X011063Y0304331
X0026378Y0300787
Y0293307
X0023031Y0283071
X0016338
X0012205Y0304331
X0067323Y0349213
X-0072047Y0300787
Y0293307
X-0075394Y0283071
X-0082087
X-0086221Y0304331
X-0116535Y0276378
X-0136221Y0317717
X-0132677Y0229921
X-0121456Y038947
X-0082087Y0381496
X-0075394
X-0072047Y0391732
Y0399213
X-0086221Y0402756
X-0082087Y0479921
X-0075394
X-0072047Y0490158
Y0497638
X-0086221Y0501181
X-0121026Y0525284
X-0139077Y0466402
X0016338Y0479921
X0023031
X0026378Y0490158
Y0497638
X0012205Y0501181
X011063
X0124803Y0497638
Y0490158
X0121456Y0479921
X0114763
X011063Y0402756
X0124803Y0399213
Y0391732
X0121456Y0381496
X0114763
X0023031
X0016338
X0026378Y0391732
Y0399213
X0012205Y0402756
X0070866Y0440158
X0178347Y0440945
X0209055Y0402756
X0223228Y0399213
Y0391732
X0219882Y0381496
X0213189
Y0479921
X0219882
X0223228Y0490158
Y0497638
X0209055Y0501181
X0268332Y0442969
X030748Y0402756
X0321654Y0399213
Y0391732
X0318307Y0381496
X0311614
X0410039
X0416732
X0420079Y0391732
Y0399213
X0405905Y0402756
X0380709Y0442126
X0410039Y0479921
X0416732
X0420079Y0490158
Y0497638
X0405905Y0501181
X0321654Y0497638
Y0490158
X0318307Y0479921
X0311614
X030748Y0501181
X0504331
X0518504Y0497638
Y0490158
X0515157Y0479921
X0508464
X0504331Y0402756
X0518504Y0399213
Y0391732
X0515157Y0381496
X0508464
X0606889
X0613582
X0616929Y0391732
Y0399213
X0602756Y0402756
X0666929Y0403543
X0669356Y0490471
X0616929Y0490158
Y0497638
X0602756Y0501181
X0606889Y0479921
X0613582
X0606889Y0529672
X0612205Y0551657
X0613582Y0578346
X0606889
X0616929Y0588583
Y0596063
X0602756Y0599606
X0614173Y0651968
X0613582Y0676772
X0606889
X0669685Y0650394
X0668504Y0574016
X0515157Y0578346
X0508464
X0518504Y0588583
Y0596063
X0504331Y0599606
X0513779Y0551657
X0508464Y0529672
X0515748Y0651968
X0515157Y0676772
X0508464
X0461417Y0630315
X0417323Y0651968
X0416732Y0676772
X0410039
X0405905Y0599606
X0420079Y0596063
Y0588583
X0416732Y0578346
X0410039
X0415354Y0551657
X0410039Y0529672
X0311614
X0316929Y0551657
X0318307Y0578346
X0311614
X0321654Y0588583
Y0596063
X030748Y0599606
X0318898Y0651968
X0318307Y0676772
X0311614
X0364918Y062927
X027126Y0633465
X0220472Y0651968
X0219882Y0676772
X0213189
X0209055Y0599606
X0223228Y0596063
Y0588583
X0219882Y0578346
X0213189
X0218504Y0551657
X0213189Y0529672
X0165748Y0634646
X0122047Y0651968
X0121456Y0676772
X0114763
X011063Y0599606
X0124803Y0596063
Y0588583
X0121456Y0578346
X0114763
X0120079Y0551657
X0114763Y0529672
X0016338
X0021654Y0551657
X0023031Y0578346
X0016338
X0026378Y0588583
Y0596063
X0012205Y0599606
X0023622Y0651968
X0023031Y0676772
X0016338
X-0075394
X-0082087
X-0074803Y0651968
X-0094095
X-0109449Y0635039
X-0125591Y0607874
X-0086221Y0599606
X-0072047Y0596063
Y0588583
X-0075394Y0578346
X-0082087
X-0076772Y0551657
X-0082087Y0529672
X-0129921Y0554331
X-0126772Y0701575
X-0086221Y0698032
X-008937Y0690945
X-0072047Y0687008
X-0049494Y0744715
X-0102212Y0744471
X0026378Y0749606
X0026378Y0694488
Y0687008
X0012205Y0698032
X011063
X0124803Y0694488
X0124803
X0124803Y0687008
X0113541Y0743495
X0082284Y074685
X0152835Y0741054
X0181102Y0744095
X0200787Y0762205
X0251693Y0763573
X0266535Y0761024
X0269291Y0750141
X0262795Y0750197
X0256299Y0738829
X0245787Y0741211
X0275197Y0738829
X0279803Y0763573
X0220748Y0729134
X0223228Y0694488
Y0687008
X0209055Y0698032
X030748
X0321654Y0694488
Y0687008
X0318898Y0724961
X0312599Y0737008
X0323622Y0745669
X0332677Y0748032
X0334011Y0764552
X0330709Y0764567
X0327939Y0762326
X032559Y0760236
X0323228Y0762517
X0337643Y0764552
X0340945Y0764567
X0343714Y0762326
X0353937Y0737795
Y072126
X0373622Y0751181
X0402394Y0748395
X0405905Y0698032
X0420079Y0694488
Y0687008
X0285709Y0741211
X0461024Y0748425
X0507866Y0747841
X0554331Y074685
X0595736Y0747703
X0518504Y0694488
X0518504
Y0687008
X0504331Y0698032
X0602756
X0616929Y0694488
Y0687008
X0637731Y074798
X0671687Y0736615
T02
X0220748Y0762598
X0230748
X0300748
X0310748
T03
X025437Y0749205
X0277126
T04
X0610236Y0049213
X0511811
X0561024Y0
X0364173
X0314961Y0049213
X0413386
X0216535
X0167323Y0
X0255906Y-003937
X027559
X011811Y0049213
X0019685
X-007874
X-0029528Y0
Y0098425
Y019685
X0167323
Y0098425
X0364173
Y019685
X0561024
Y0098425
X0610236Y0246063
X0511811
X0561024Y0295276
X0364173
X0314961Y0246063
X0413386
X0216535
X0167323Y0295276
X011811Y0246063
X0019685
X-007874
X-0029528Y0295276
Y0393701
X-007874Y0442913
X-0029528Y0492126
X0019685Y0442913
X011811
X0167323Y0492126
Y0393701
X0216535Y0442913
X0314961
X0364173Y0492126
Y0393701
X0413386Y0442913
X0511811
X0561024Y0492126
Y0393701
X0610236Y0442913
Y0639764
X0511811
X0561024Y0590551
X0364173
X0314961Y0639764
X0413386
X0216535
X0167323Y0590551
X011811Y0639764
X0019685
X-007874
X-0029528Y0590551
Y0688976
X0167323
X0255906Y0728346
X027559
X0364173Y0688976
X0561024
T05
X0649606Y0334646
Y0354331
X027559
X0255906
Y0334646
X027559
X-011811
Y0354331
T06
X0649606Y-003937
X-011811
X0265748Y0147638
Y0541339
X-011811Y0728346
X0649606
M30
